<svg width="478" height="478" viewBox="0 0 478 478" fill="none" xmlns="http://www.w3.org/2000/svg">
<g clip-path="url(#clip0_33_475)">
<rect width="478" height="478" fill="#1D212D"/>
<path d="M-42.7178 294.743C-44.6584 295.207 -44.6584 295.207 -47.7633 294.743C-50.0821 293.795 -54.8744 291.718 -55.4928 291C-56.2657 290.103 -62.8357 286.5 -63.9952 285.5C-65.1546 284.5 -67.4734 285.5 -67.8599 285.5C-68.2464 285.5 -69.0193 285 -69.4058 283.5C-69.7923 282 -72.4976 281.5 -72.8841 281C-73.2705 280.5 -74.0435 282.5 -74.8164 283.5C-75.5894 284.5 -78.2947 288.246 -79.0676 288.246H-81V559H559V290.353C558.262 290.335 557.548 290.335 556.918 290.335C554.59 290.335 552.649 291.727 551.485 291.727C550.32 291.727 546.439 290.799 544.887 290.335C543.334 289.871 542.946 290.335 541.394 290.799C539.841 291.263 539.065 291.959 538.289 292.655C537.513 293.351 537.513 296.367 537.125 299.384C536.736 302.4 536.348 305.649 535.96 307.041C535.572 308.433 533.243 320.731 533.243 320.035C533.243 319.339 532.855 316.554 532.467 314.234C532.079 311.914 531.303 306.809 530.138 301.704L529.945 300.855L529.944 300.853C528.928 296.388 528.541 294.69 527.81 293.815C527.034 292.887 525.481 290.335 524.705 289.406C523.929 288.478 522.376 287.782 521.212 287.782C520.047 287.782 516.943 288.246 515.002 288.478C513.062 288.71 513.061 288.71 511.897 289.174C510.733 289.638 508.404 292.423 507.628 293.119C506.852 293.815 505.687 294.279 504.911 294.279C504.135 294.279 503.359 295.439 502.582 295.439C501.806 295.439 499.865 297.528 498.701 297.76C497.537 297.992 496.373 297.064 495.596 296.367C494.82 295.671 493.268 293.815 491.715 293.815C490.163 293.815 488.61 296.832 487.446 297.064C486.282 297.296 484.729 295.903 483.177 295.439C481.624 294.975 480.072 297.064 478.131 297.528C476.191 297.992 476.579 297.064 475.802 296.367C475.026 295.671 471.921 294.279 470.757 294.279C469.593 294.279 464.547 299.848 462.607 299.848C460.666 299.848 457.561 297.064 456.397 296.367C455.232 295.671 454.068 294.279 452.516 294.279C450.963 294.279 449.799 294.743 448.246 294.743C446.694 294.743 445.918 294.279 445.53 295.903C445.141 297.528 444.365 303.328 443.977 306.113C443.589 308.897 443.201 316.09 443.201 319.339C443.201 322.587 440.872 347.415 440.484 350.895C440.096 354.376 439.708 365.745 438.932 367.369C438.155 368.994 438.544 368.762 436.991 368.994C435.439 369.226 435.051 362.961 434.662 360.176C434.274 357.392 430.393 332.101 429.617 330.244C428.841 328.388 427.676 314.698 427.288 313.538C426.9 312.378 425.736 312.146 424.96 310.289C424.183 308.433 421.855 288.246 421.467 286.854C421.078 285.462 419.914 275.717 419.526 274.092C419.215 272.793 417.844 269.684 417.197 268.292C416.421 268.833 414.713 270.009 414.092 270.38L410.211 272.7C409.952 270.457 409.357 265.6 409.047 264.115C408.659 262.259 407.494 254.138 407.106 252.513C406.796 251.214 404.648 245.63 403.613 243C402.32 247.873 399.577 258.082 398.956 259.938C398.18 262.259 396.627 276.877 396.627 279.197C396.627 281.517 395.851 292.191 395.851 294.743C395.851 297.296 393.91 325.372 393.522 326.996C393.212 328.295 391.841 337.128 391.194 341.382C390.417 337.437 388.865 329.223 388.865 327.924C388.865 326.3 386.924 314.466 385.76 311.218C384.596 307.969 382.655 307.273 381.103 307.737C379.55 308.201 379.162 310.522 379.162 311.218C379.162 311.914 377.61 316.09 376.833 317.715C376.212 319.014 375.281 320.267 374.893 320.731C374.246 317.096 372.797 309.315 372.176 307.273C371.555 305.231 369.071 296.677 367.907 292.655C367.001 293.042 364.88 293.862 363.638 294.047C362.396 294.233 360.015 293.506 358.98 293.119C358.333 293.583 356.807 294.65 355.875 295.207C354.944 295.764 352.641 296.522 351.606 296.832C350.7 296.29 348.734 295.207 348.113 295.207C347.492 295.207 343.456 297.528 341.515 298.688C340.092 298.843 336.78 299.43 334.917 300.544C333.054 301.658 329.742 309.361 328.319 313.074C327.414 312.146 325.37 309.965 324.438 308.665C323.274 307.041 321.721 305.649 320.557 305.417C319.393 305.185 316.288 307.041 314.347 307.041C312.407 307.041 308.525 304.721 307.361 304.721C306.197 304.721 303.092 307.041 301.539 307.041C299.987 307.041 296.106 304.257 294.553 304.025C293.001 303.793 291.448 304.953 289.896 304.721C288.343 304.489 285.238 304.257 282.91 304.721C280.581 305.185 277.864 306.577 276.7 306.577C275.536 306.577 275.148 303.793 274.371 302.4C273.595 301.008 270.878 290.335 270.49 289.174C270.102 288.014 266.997 282.91 266.609 283.374C266.221 283.838 260.787 292.655 260.011 293.351C259.235 294.047 258.071 293.583 256.13 294.047C254.189 294.511 252.637 296.368 250.696 297.528C248.756 298.688 245.263 307.969 243.71 308.433C242.158 308.897 239.441 306.577 238.277 306.577C237.112 306.577 234.396 307.969 232.455 307.505C230.514 307.041 229.35 305.881 227.798 304.257C226.556 302.957 224.175 298.456 223.14 296.368C222.105 296.058 219.647 295.347 218.095 294.975C216.154 294.511 212.273 290.335 211.109 290.799C210.177 291.17 206.84 296.213 205.287 298.688C203.735 296.6 200.164 292.469 198.301 292.655C196.438 292.841 193.644 297.682 192.479 300.08C191.574 298.997 189.607 296.368 188.986 294.511C188.365 292.655 185.623 290.644 184.329 289.871C183.165 291.34 180.525 294.511 179.283 295.439C178.041 296.368 174.885 300.467 173.462 302.4L168.804 296.832C168.028 295.903 164.147 295.671 162.206 295.439C160.266 295.207 159.49 297.064 157.161 296.832C154.832 296.6 148.622 291.495 147.458 291.727C146.294 291.959 145.129 292.655 144.353 293.119C143.577 293.583 143.189 293.583 141.248 294.279C139.308 294.975 137.367 296.136 135.427 296.136C133.874 296.136 130.899 294.434 129.605 293.583C128.182 294.279 124.947 295.764 123.395 296.136C121.454 296.6 114.856 293.815 112.916 293.583C110.975 293.351 107.87 294.975 106.706 294.975C105.542 294.975 100.884 291.263 99.72 291.263C98.5557 291.263 96.227 292.191 93.1221 291.263C90.0172 290.335 86.1361 287.982 84.5836 287.982C83.0311 287.982 77.2094 293.119 74.1045 293.119C70.9996 293.119 65.9541 289.407 64.0135 289.175C62.073 288.943 60.5205 290.799 58.9681 291.727C57.4156 292.655 55.475 293.351 53.1464 294.047C50.8177 294.743 50.4296 293.351 48.8771 293.119C47.3246 292.887 44.996 292.191 41.8911 292.655C38.7861 293.119 39.5624 294.975 37.2337 294.975C34.905 294.975 34.905 294.279 33.7407 294.047C32.5763 293.815 30.2476 294.279 27.9189 294.279C25.5903 294.279 27.1427 292.655 25.2021 292.655C23.2616 292.655 14.7231 296.368 11.6182 295.671C8.51324 294.975 6.57267 291.031 5.02022 290.799C3.46777 290.567 1.13908 292.423 -0.801491 292.655C-2.74206 292.887 -4.68263 292.887 -7.39943 293.351C-10.116 293.815 -13.2212 294.743 -15.5498 295.439C-17.8785 296.136 -19.0428 296.6 -20.9834 296.832C-22.924 297.064 -22.924 296.6 -26.417 295.671C-29.91 294.743 -33.015 288.246 -33.7912 288.246C-34.5674 288.246 -36.1199 289.407 -37.2842 290.103C-38.4485 290.799 -40.7772 294.279 -42.7178 294.743Z" fill="#6E3A3E"/>
<path d="M559 290.353C558.262 290.335 557.548 290.335 556.918 290.335C554.59 290.335 552.649 291.727 551.485 291.727C550.32 291.727 546.439 290.799 544.887 290.335C543.334 289.871 542.946 290.335 541.394 290.799C539.841 291.263 539.065 291.959 538.289 292.655C537.513 293.351 537.513 296.367 537.125 299.384C536.736 302.4 536.348 305.649 535.96 307.041C535.572 308.433 533.243 320.731 533.243 320.035C533.243 319.339 532.855 316.554 532.467 314.234C532.079 311.914 531.303 306.809 530.138 301.704L529.945 300.855C528.928 296.389 528.541 294.69 527.81 293.815C527.034 292.887 525.481 290.335 524.705 289.406C523.929 288.478 522.376 287.782 521.212 287.782C520.047 287.782 516.943 288.246 515.002 288.478C513.061 288.71 513.061 288.71 511.897 289.174C510.733 289.638 508.404 292.423 507.628 293.119C506.852 293.815 505.687 294.279 504.911 294.279C504.135 294.279 503.359 295.439 502.582 295.439C501.806 295.439 499.866 297.528 498.701 297.76C497.537 297.992 496.373 297.064 495.596 296.367C494.82 295.671 493.268 293.815 491.715 293.815C490.163 293.815 488.61 296.832 487.446 297.064C486.282 297.296 484.729 295.903 483.177 295.439C481.624 294.975 480.072 297.064 478.131 297.528C476.191 297.992 476.579 297.064 475.803 296.367C475.026 295.671 471.921 294.279 470.757 294.279C469.593 294.279 464.547 299.848 462.607 299.848C460.666 299.848 457.561 297.064 456.397 296.367C455.232 295.671 454.068 294.279 452.516 294.279C450.963 294.279 449.799 294.743 448.246 294.743C446.694 294.743 445.918 294.279 445.53 295.903C445.142 297.528 444.365 303.328 443.977 306.113C443.589 308.897 443.201 316.09 443.201 319.339C443.201 322.587 440.872 347.415 440.484 350.895C440.096 354.376 439.708 365.745 438.932 367.369C438.155 368.994 438.544 368.762 436.991 368.994C435.439 369.226 435.051 362.961 434.662 360.176C434.274 357.392 430.393 332.101 429.617 330.244C428.841 328.388 427.676 314.698 427.288 313.538C426.9 312.378 425.736 312.146 424.96 310.289C424.183 308.433 421.855 288.246 421.467 286.854C421.078 285.462 419.914 275.717 419.526 274.092C419.215 272.793 417.844 269.684 417.197 268.292C416.421 268.833 414.713 270.009 414.092 270.38L410.211 272.7C409.952 270.457 409.357 265.6 409.047 264.115C408.659 262.259 407.494 254.138 407.106 252.513C406.796 251.214 404.648 245.63 403.613 243C402.32 247.873 399.577 258.082 398.956 259.938C398.18 262.259 396.627 276.877 396.627 279.197C396.627 281.517 395.851 292.191 395.851 294.743C395.851 297.296 393.91 325.372 393.522 326.996C393.212 328.295 391.841 337.128 391.194 341.382C390.417 337.437 388.865 329.223 388.865 327.924C388.865 326.3 386.924 314.466 385.76 311.218C384.596 307.969 382.655 307.273 381.103 307.737C379.55 308.201 379.162 310.522 379.162 311.218C379.162 311.914 377.61 316.09 376.833 317.715C376.212 319.014 375.281 320.267 374.893 320.731C374.246 317.096 372.797 309.315 372.176 307.273C371.555 305.231 369.071 296.677 367.907 292.655C367.001 293.042 364.88 293.862 363.638 294.047C362.396 294.233 360.015 293.506 358.98 293.119C358.333 293.583 356.807 294.65 355.875 295.207C354.944 295.764 352.641 296.522 351.606 296.832C350.7 296.29 348.734 295.207 348.113 295.207C347.492 295.207 343.456 297.528 341.515 298.688C340.092 298.843 336.78 299.43 334.917 300.544C333.054 301.658 329.742 309.361 328.319 313.074C327.414 312.146 325.37 309.965 324.438 308.665C323.274 307.041 321.721 305.649 320.557 305.417C319.393 305.185 316.288 307.041 314.347 307.041C312.407 307.041 308.525 304.721 307.361 304.721C306.197 304.721 303.092 307.041 301.539 307.041C299.987 307.041 296.106 304.257 294.553 304.025C293.001 303.793 291.448 304.953 289.896 304.721C288.343 304.489 285.239 304.257 282.91 304.721C280.581 305.185 277.864 306.577 276.7 306.577C275.536 306.577 275.148 303.793 274.371 302.4C273.595 301.008 270.878 290.335 270.49 289.174C270.102 288.014 266.997 282.91 266.609 283.374C266.221 283.838 260.787 292.655 260.011 293.351C259.235 294.047 258.071 293.583 256.13 294.047C254.189 294.511 252.637 296.368 250.696 297.528C248.756 298.688 245.263 307.969 243.71 308.433C242.158 308.897 239.441 306.577 238.277 306.577C237.112 306.577 234.396 307.969 232.455 307.505C230.514 307.041 229.35 305.881 227.798 304.257C226.556 302.957 224.175 298.456 223.14 296.368C222.105 296.058 219.647 295.347 218.095 294.975C216.154 294.511 212.273 290.335 211.109 290.799C210.177 291.17 206.84 296.213 205.287 298.688C203.735 296.6 200.164 292.469 198.301 292.655C196.438 292.841 193.644 297.682 192.479 300.08C191.574 298.997 189.607 296.368 188.986 294.511C188.365 292.655 185.623 290.644 184.329 289.871C183.165 291.34 180.525 294.511 179.283 295.439C178.041 296.368 174.885 300.467 173.462 302.4L168.804 296.832C168.028 295.903 164.147 295.671 162.206 295.439C160.266 295.207 159.49 297.064 157.161 296.832C154.832 296.6 148.622 291.495 147.458 291.727C146.294 291.959 145.129 292.655 144.353 293.119C143.577 293.583 143.189 293.583 141.248 294.279C139.308 294.975 137.367 296.136 135.427 296.136C133.874 296.136 130.899 294.434 129.605 293.583C128.182 294.279 124.947 295.764 123.395 296.136C121.454 296.6 114.856 293.815 112.916 293.583C110.975 293.351 107.87 294.975 106.706 294.975C105.542 294.975 100.884 291.263 99.72 291.263C98.5557 291.263 96.227 292.191 93.1221 291.263C90.0172 290.335 86.1361 287.982 84.5836 287.982C83.0311 287.982 77.2094 293.119 74.1045 293.119C70.9996 293.119 65.9541 289.407 64.0135 289.175C62.073 288.943 60.5205 290.799 58.9681 291.727C57.4156 292.655 55.475 293.351 53.1464 294.047C50.8177 294.743 50.4296 293.351 48.8771 293.119C47.3246 292.887 44.996 292.191 41.8911 292.655C38.7861 293.119 39.5624 294.975 37.2337 294.975C34.905 294.975 34.905 294.279 33.7407 294.047C32.5763 293.815 30.2476 294.279 27.9189 294.279C25.5903 294.279 27.1427 292.655 25.2021 292.655C23.2616 292.655 14.7231 296.368 11.6182 295.671C8.51324 294.975 6.57268 291.031 5.02022 290.799C3.46777 290.567 1.13908 292.423 -0.80149 292.655C-2.74206 292.887 -4.68264 292.887 -7.39943 293.351C-10.116 293.815 -13.2205 294.743 -15.5491 295.439L-15.5498 295.439C-17.8785 296.136 -19.0428 296.6 -20.9834 296.832C-22.924 297.064 -22.924 296.6 -26.417 295.671C-29.91 294.743 -33.015 288.246 -33.7912 288.246C-34.5674 288.246 -36.1199 289.407 -37.2842 290.103C-38.4485 290.799 -40.7772 294.279 -42.7178 294.743C-44.6584 295.207 -44.6584 295.207 -47.7633 294.743C-50.0821 293.795 -54.8744 291.718 -55.4928 291C-56.2657 290.103 -62.8357 286.5 -63.9952 285.5C-65.1546 284.5 -67.4734 285.5 -67.8599 285.5C-68.2464 285.5 -69.0193 285 -69.4058 283.5C-69.7923 282 -72.4976 281.5 -72.8841 281C-73.2705 280.5 -74.0435 282.5 -74.8164 283.5C-75.5894 284.5 -78.2947 288.246 -79.0676 288.246H-81" stroke="#F04C4E"/>
</g>
<defs>
<clipPath id="clip0_33_475">
<rect width="478" height="478" fill="white"/>
</clipPath>
</defs>
</svg>
