<svg width="478" height="478" viewBox="0 0 478 478" fill="none" xmlns="http://www.w3.org/2000/svg">
<g clip-path="url(#clip0_33_478)">
<rect width="478" height="478" fill="#07082A"/>
<rect x="406.5" y="-410.5" width="27" height="937" stroke="#F6C644"/>
<path d="M375 -411V677" stroke="#F6C644" stroke-width="0.999456"/>
<path d="M465 -411V677" stroke="#F6C644" stroke-width="0.999456"/>
<rect x="395.5" y="69.5" width="49" height="436" fill="#07082A" stroke="#F6C644"/>
<path d="M396.077 69.5L407.056 56.5H432.944L443.923 69.5H396.077Z" fill="#07082A" stroke="#F6C644"/>
<rect x="395.5" y="117.5" width="49" height="19" stroke="#F6C644"/>
<rect x="400" y="123" width="1" height="8" fill="#F6C644"/>
<rect x="439" y="123" width="1" height="8" fill="#F6C644"/>
<rect x="395.5" y="199.5" width="49" height="19" stroke="#F6C644"/>
<rect x="400" y="205" width="1" height="8" fill="#F6C644"/>
<rect x="439" y="205" width="1" height="8" fill="#F6C644"/>
<rect x="395.5" y="281.5" width="49" height="19" stroke="#F6C644"/>
<rect x="400" y="287" width="1" height="8" fill="#F6C644"/>
<rect x="439" y="287" width="1" height="8" fill="#F6C644"/>
<rect x="399.5" y="-1.5" width="41" height="25" fill="#07082A" stroke="#F6C644"/>
<rect x="384.5" y="346.5" width="71" height="31" fill="#07082A" stroke="#F6C644"/>
<path d="M384.5 349.5H375V374.5H384.5V349.5Z" stroke="#F6C644"/>
<path d="M465 349.5H455.5V374.5H465V349.5Z" stroke="#F6C644"/>
<rect x="384.5" y="457.5" width="71" height="31" fill="#07082A" stroke="#F6C644"/>
<path d="M384.5 460.5H375V485.5H384.5V460.5Z" stroke="#F6C644"/>
<path d="M465 460.5H455.5V485.5H465V460.5Z" stroke="#F6C644"/>
<rect x="379.5" y="385.5" width="81" height="16" fill="#07082A" stroke="#F6C644"/>
<rect x="379.5" y="409.5" width="81" height="16" fill="#07082A" stroke="#F6C644"/>
<rect x="379.5" y="433.5" width="81" height="16" fill="#07082A" stroke="#F6C644"/>
<path d="M465 200H534" stroke="#F6C644" stroke-width="1.00073"/>
<path d="M465 295H534" stroke="#F6C644" stroke-width="1.00073"/>
<path d="M454 271L477 271" stroke="#F6C644" stroke-width="0.98534"/>
<path d="M454 257L477 257" stroke="#F6C644" stroke-width="0.98534"/>
<path d="M454 233L477 233" stroke="#F6C644" stroke-width="0.98534"/>
<path d="M454 219L477 219" stroke="#F6C644" stroke-width="0.98534"/>
<path d="M375 200H306" stroke="#F6C644" stroke-width="1.00073"/>
<path d="M375 295H306" stroke="#F6C644" stroke-width="1.00073"/>
<path d="M386 271L363 271" stroke="#F6C644" stroke-width="0.98534"/>
<path d="M386 257L363 257" stroke="#F6C644" stroke-width="0.98534"/>
<path d="M386 233L363 233" stroke="#F6C644" stroke-width="0.98534"/>
<path d="M354 212L342 212" stroke="#F6C644"/>
<path d="M318 212L306 212" stroke="#F6C644"/>
<path d="M354 248L342 248" stroke="#F6C644"/>
<path d="M318 248L306 248" stroke="#F6C644"/>
<path d="M354 284L342 284" stroke="#F6C644"/>
<path d="M318 284L306 284" stroke="#F6C644"/>
<path d="M336 230L324.103 230" stroke="#F6C644"/>
<path d="M336 266L324.103 266" stroke="#F6C644"/>
<path d="M386 219L363 219" stroke="#F6C644" stroke-width="0.98534"/>
</g>
<defs>
<clipPath id="clip0_33_478">
<rect width="478" height="478" fill="white"/>
</clipPath>
</defs>
</svg>
