<svg width="44" height="44" viewBox="0 0 44 44" fill="none" xmlns="http://www.w3.org/2000/svg">
<path fill-rule="evenodd" clip-rule="evenodd" d="M0 0H44V44H0V0ZM34.7355 5.8603C35.117 5.05414 35.8828 4.3833 36.8939 4.3833C38.2199 4.31657 39.4038 5.33212 39.5052 6.84301C39.5052 7.05389 39.4008 7.78755 39.3288 7.96106L34.2121 16.2817C33.6918 17.1599 33.7869 17.8281 34.0004 18.5649L41.7342 38.3543H10.0048C7.18213 38.3543 4.98223 36.0746 4.98223 33.229L4.87637 7.05485C4.98309 3.57927 9.82874 3.57746 10.0048 6.94893V31.6107C10.0048 32.3875 10.6962 33.229 11.534 33.229H34.8061L28.8131 18.9121C28.6077 18.4556 28.5308 17.9603 28.5308 17.3997C28.5308 16.7724 28.8112 15.8248 29.1954 14.9812L34.7355 5.8603ZM21.8438 6.94893C21.8438 5.26319 23.087 4.40341 24.3316 4.39507C25.5762 4.38673 26.8252 5.22983 26.8252 6.94893V24.7377C26.8252 28.8059 23.798 31.5107 20.0735 31.5107C16.4478 31.5107 13.4101 28.8059 13.4101 24.7377V6.94893C13.4101 3.57746 18.3974 3.57746 18.3974 6.94893V24.5965C18.3974 26.9482 21.8438 27.1591 21.8438 24.5965V6.94893Z" fill="black"/>
</svg>
