<svg width="26" height="26" viewBox="0 0 26 26" fill="none" xmlns="http://www.w3.org/2000/svg">
<path fill-rule="evenodd" clip-rule="evenodd" d="M24.7218 7.39434C22.8998 3.6779 19.2918 1.05243 15.1676 0.44188C14.4862 0.341004 12.7251 0.297826 12.0954 0.366588C10.6554 0.523866 9.07112 0.97886 7.80292 1.59934C4.04842 3.43632 1.38913 7.04983 0.810257 11.101C0.428191 13.7748 0.803559 16.194 1.9706 18.5796C3.38469 21.4701 6.06995 23.8778 9.04006 24.9182C13.7574 26.5708 18.784 25.4474 22.3074 21.9531C23.864 20.4094 25.0514 18.3583 25.6014 16.2632C25.9311 15.0077 26.0002 14.4403 26.0002 12.9934C26.0002 11.861 25.9829 11.5741 25.8794 10.9963C25.6305 9.60752 25.2949 8.56324 24.7218 7.39434ZM7.22674 5.34811C8.48263 3.6826 10.3907 2.71297 12.6625 2.58581C13.8816 2.51758 14.895 2.61279 16.0111 2.90036C19.3797 3.76831 22.1833 6.40625 23.2707 9.73095C23.8155 11.3967 23.94 13.2859 23.6056 14.8121C23.0943 17.1455 21.443 18.7062 18.9277 19.2333C18.1854 19.3889 16.4372 19.3758 15.6665 19.2089C14.9675 19.0575 14.082 18.7771 14.1182 18.7187C14.1331 18.6946 14.2665 18.6587 14.4146 18.6391C14.9989 18.5616 15.9034 18.1921 16.5734 17.7573C16.7394 17.6494 17.1197 17.3167 17.4186 17.0179C18.2396 16.1968 18.6777 15.412 18.9659 14.2459C19.1307 13.5792 19.1307 12.4075 18.9659 11.7408C18.7006 10.6674 18.2665 9.84969 17.5678 9.10751C16.9218 8.42129 16.3368 8.01126 15.524 7.675C12.5267 6.43513 9.05729 7.97288 7.93821 11.0373C7.66805 11.777 7.59633 12.3055 7.62879 13.3172C7.6445 13.807 7.67335 14.2685 7.69295 14.3427C7.74804 14.5517 7.27805 14.0315 6.92623 13.4943C5.8322 11.8234 5.54109 9.65652 6.13012 7.56905C6.31294 6.9211 6.82955 5.87494 7.22674 5.34811ZM2.91481 12.9771C2.91637 11.8064 3.06031 10.8835 3.41299 9.78196L3.58582 9.24222L3.62077 10.0518C3.66041 10.9717 3.76298 11.614 3.99435 12.3923C4.74741 14.9255 6.58839 16.9452 9.07085 17.9616C9.28997 18.0513 9.50963 18.2202 9.908 18.6055C10.5687 19.2444 10.8522 19.4757 11.457 19.8689C13.3451 21.0964 15.8732 21.7454 18.1068 21.5759C18.5019 21.546 18.9661 21.4954 19.1383 21.4636C19.3105 21.4318 19.4621 21.4166 19.4754 21.4298C19.4886 21.443 19.2985 21.5826 19.0529 21.7401C17.2752 22.8796 15.4604 23.4115 13.3577 23.4092C11.5933 23.4073 10.2522 23.0972 8.71865 22.3367C5.12721 20.5556 2.9093 16.9789 2.91481 12.9771ZM9.90536 12.1597C10.2106 10.8446 11.3502 9.76927 12.7165 9.50707C13.2159 9.41121 13.8919 9.45709 14.4126 9.62214C16.0578 10.1437 17.099 11.7817 16.8557 13.4656C16.6552 14.8527 15.7441 15.9292 14.3908 16.3778C13.9946 16.5091 13.8893 16.5206 13.1216 16.5167C12.2693 16.5123 11.1673 16.3665 10.8651 16.2181C10.698 16.136 10.2655 15.35 10.1013 14.83C9.81343 13.9186 9.7375 12.8832 9.90536 12.1597Z" fill="white"/>
</svg>
