<svg width="12" height="17" viewBox="0 0 12 17" fill="none" xmlns="http://www.w3.org/2000/svg">
<path d="M9.24638 11.8333C9.24638 11.3889 9.12905 11.0259 8.89438 10.7444C8.65972 10.463 8.35172 10.2259 7.97038 10.0333C7.58905 9.84074 7.15638 9.67778 6.67238 9.54445C6.18838 9.41111 5.68971 9.27037 5.17638 9.12222C4.66305 8.95926 4.16438 8.77407 3.68038 8.56667C3.19638 8.35926 2.76372 8.09259 2.38238 7.76667C2.00105 7.44074 1.69305 7.03333 1.45838 6.54444C1.22372 6.05556 1.10638 5.44815 1.10638 4.72222C1.10638 4.14444 1.21638 3.5963 1.43638 3.07778C1.67105 2.55926 2.00105 2.11482 2.42638 1.74444C2.86638 1.35926 3.40171 1.05556 4.03238 0.833333C4.66305 0.611111 5.37438 0.5 6.16638 0.5C6.94372 0.5 7.61838 0.603704 8.19038 0.811111C8.76238 1.01852 9.23905 1.24815 9.62038 1.5C10.075 1.7963 10.4637 2.12963 10.7864 2.5L9.24638 4.05556C9.04105 3.8037 8.79171 3.58148 8.49838 3.38889C8.24905 3.22593 7.92638 3.07778 7.53038 2.94444C7.13438 2.7963 6.67971 2.72222 6.16638 2.72222C5.75571 2.72222 5.38171 2.78148 5.04438 2.9C4.72171 3.0037 4.44305 3.15185 4.20838 3.34444C3.98838 3.53704 3.81972 3.75185 3.70238 3.98889C3.58505 4.22593 3.52638 4.47037 3.52638 4.72222C3.52638 5.16667 3.64371 5.52963 3.87838 5.81111C4.11305 6.09259 4.42105 6.32963 4.80238 6.52222C5.18371 6.71481 5.61638 6.87778 6.10038 7.01111C6.58438 7.14444 7.08305 7.29259 7.59638 7.45556C8.10971 7.6037 8.60838 7.78148 9.09238 7.98889C9.57638 8.1963 10.009 8.46296 10.3904 8.78889C10.7717 9.11481 11.0797 9.52222 11.3144 10.0111C11.549 10.5 11.6664 11.1074 11.6664 11.8333C11.6664 12.5 11.5417 13.1222 11.2924 13.7C11.0577 14.263 10.7057 14.7519 10.2364 15.1667C9.76705 15.5815 9.18771 15.9074 8.49838 16.1444C7.82371 16.3815 7.04638 16.5 6.16638 16.5C5.22772 16.5 4.41371 16.3741 3.72438 16.1222C3.03505 15.8704 2.46305 15.5889 2.00838 15.2778C1.48038 14.9222 1.03305 14.5148 0.666382 14.0556L2.20638 12.5C2.45572 12.8259 2.77105 13.1222 3.15238 13.3889C3.47505 13.6111 3.87838 13.8185 4.36238 14.0111C4.86105 14.1889 5.46238 14.2778 6.16638 14.2778C7.16371 14.2778 7.92638 14.0407 8.45438 13.5667C8.98238 13.0778 9.24638 12.5 9.24638 11.8333Z" fill="white"/>
</svg>
