<svg width="45" height="50" viewBox="0 0 45 50" fill="none" xmlns="http://www.w3.org/2000/svg">
<path fill-rule="evenodd" clip-rule="evenodd" d="M21.1808 14.8519C21.6482 17.6338 21.765 26.7954 21.7035 31.0284H22.3492V19.9684C22.3492 18.7275 22.2724 11.4818 21.9495 7.71343C21.7854 5.79845 21.2446 2.68601 20.7274 0C18.7648 0.166297 16.8744 0.631982 15.0908 1.35751C16.4577 2.55953 17.6489 3.75397 18.0445 4.54246C19.09 6.6258 20.5966 11.3746 21.1808 14.8519ZM12.2492 2.78455C13.91 3.77011 15.5775 4.95377 16.7531 6.47262C18.425 8.63255 19.9202 13.6724 20.612 18.0076C21.1654 21.4757 21.2526 28.123 21.2269 31.0131H20.858C20.7708 29.3025 20.1086 24.0281 19.6434 21.6994C18.9977 18.4671 17.7217 15.0204 15.7692 12.1252C13.8378 9.26122 10.0809 7.51429 7.32896 7.51429C7.13828 7.51429 6.93815 7.51988 6.73069 7.53034C8.33295 5.63209 10.1944 4.02497 12.2492 2.78455ZM4.44857 10.7205C5.79907 10.4597 7.25439 10.2563 8.46663 10.2563C11.6336 10.2563 15.3541 13.6417 16.6763 16.491C17.9984 19.3403 19.5666 23.6448 19.8125 25.5903C20.0093 27.1467 20.2943 29.854 20.4121 31.0131H19.9202C19.6844 29.7008 19.0315 26.5462 18.3059 24.4261C17.3988 21.776 12.9865 15.8476 8.57424 15.7251C4.49349 15.6117 2.96118 16.9508 1.88256 17.8935L1.88255 17.8935C1.69616 18.0564 1.52333 18.2074 1.35323 18.3371C2.01076 15.5789 3.0679 13.0109 4.44857 10.7205ZM1.38578 31.7531C2.92394 28.8125 6.62236 24.3648 11.0802 24.3648C16.4672 24.3648 18.4904 28.8072 18.8286 31.0284H19.4282C19.4282 31.0284 18.4596 27.0456 16.7531 23.844C15.0466 20.6424 12.0487 18.4824 8.31289 18.4824C4.8493 18.4824 2.10797 20.9957 0.684033 22.5114C0.61511 23.3227 0.579834 24.1454 0.579834 24.9776C0.579834 27.3256 0.860663 29.5981 1.38578 31.7531Z" fill="black"/>
<path fill-rule="evenodd" clip-rule="evenodd" d="M23.9789 14.8519C23.5115 17.6338 23.3947 26.7954 23.4561 31.0284H22.8104V19.9684C22.8104 18.7275 22.8873 11.4818 23.2102 7.71343C23.3742 5.79845 23.915 2.68601 24.4322 0C26.3949 0.166298 28.2853 0.631983 30.0689 1.35752C28.702 2.55953 27.5108 3.75397 27.1151 4.54246C26.0697 6.6258 24.5631 11.3746 23.9789 14.8519ZM32.9104 2.78454C31.2496 3.7701 29.5822 4.95376 28.4065 6.47262C26.7346 8.63255 25.2395 13.6724 24.5477 18.0076C23.9942 21.4757 23.9071 28.123 23.9327 31.0131H24.3017C24.3888 29.3025 25.051 24.0281 25.5162 21.6994C26.1619 18.4671 27.4379 15.0204 29.3904 12.1252C31.3218 9.26122 35.0788 7.51429 37.8307 7.51429C38.0214 7.51429 38.2215 7.51988 38.429 7.53034C36.8267 5.63209 34.9653 4.02496 32.9104 2.78454ZM40.7111 10.7205C39.3606 10.4597 37.9053 10.2563 36.693 10.2563C33.526 10.2563 29.8055 13.6417 28.4834 16.491C27.1612 19.3403 25.5931 23.6448 25.3471 25.5903C25.1503 27.1467 24.8654 29.854 24.7475 31.0131H25.2395C25.4752 29.7008 26.1281 26.5462 26.8537 24.4261C27.7608 21.776 32.1731 15.8476 36.5854 15.7251C40.6661 15.6117 42.1984 16.9508 43.2771 17.8935L43.2771 17.8935L43.2772 17.8936C43.4636 18.0564 43.6364 18.2075 43.8065 18.3371C43.1489 15.5789 42.0918 13.0109 40.7111 10.7205ZM43.7739 31.7532C42.2357 28.8126 38.5373 24.3648 34.0795 24.3648C28.6925 24.3648 26.6693 28.8072 26.331 31.0284H25.7315C25.7315 31.0284 26.7 27.0456 28.4065 23.844C30.113 20.6424 33.1109 18.4824 36.8468 18.4824C40.3104 18.4824 43.0517 20.9958 44.4756 22.5114C44.5446 23.3227 44.5798 24.1454 44.5798 24.9776C44.5798 27.3256 44.299 29.5981 43.7739 31.7532Z" fill="black"/>
<path fill-rule="evenodd" clip-rule="evenodd" d="M40.0075 40.3368L38.415 39.316L39.8447 36.4974C39.6654 36.3289 39.0976 35.8938 38.2612 35.5017C37.4249 35.1095 36.6008 34.8889 36.2934 34.8276L34.3101 38.0599V34.3681C33.9873 34.22 33.0956 33.8718 32.1117 33.6634C31.1277 33.4551 30.0413 33.3111 29.6211 33.2651V48.7736C31.2813 48.145 32.8533 47.2929 34.3101 46.2481V43.1916C34.5766 43.2478 35.168 43.4061 35.4017 43.5899C35.4993 43.6667 35.9313 44.0225 36.4774 44.474C37.7879 43.2564 38.9732 41.8675 40.0075 40.3368ZM28.4988 49.1601V33.2957H23.7637V38.6113H21.7036V33.2957H17.3066V49.2164C18.7214 49.6404 20.1922 49.9049 21.7036 49.992V43.7584H23.7637V50.0002C25.395 49.9193 26.9798 49.6319 28.4988 49.1601ZM16.3227 48.8927V33.4949C15.7129 33.5306 14.2841 33.6236 13.4478 33.7093C12.6115 33.7951 11.2852 34.1638 10.7266 34.3374L8.78952 38.1671L8.65115 35.3025C8.33343 35.277 7.41817 35.3178 6.29895 35.6855C5.60904 35.9121 4.59939 36.4918 3.72949 37.0444C5.22701 40.1722 7.28865 42.8923 9.75668 45.0232C10.7255 43.5504 11.4888 42.4096 11.5568 42.3644C11.6378 42.3106 11.4295 44.0582 11.1547 46.135C12.7487 47.2999 14.4833 48.2328 16.3227 48.8927Z" fill="black"/>
</svg>
