<svg width="162" height="50" viewBox="0 0 162 50" fill="none" xmlns="http://www.w3.org/2000/svg">
<path d="M21.9132 0.16256L20.4064 0.42625V5.36102V10.0321L21.4277 10.0296L22.6666 10.0321V15.4943V20.6243H21.2864H19.8738L19.8414 24.3467V27.6993H21.2864H22.6666V36.9662V46.007L21.5365 45.894C18.0332 45.5173 12.6087 42.466 9.82115 39.264C2.58851 31.0143 2.62618 18.8846 9.85882 10.8608C10.9513 9.65541 12.5334 8.18627 13.3998 7.62122C14.8689 6.56646 13.9554 7.1598 16.3569 5.74717C16.3569 2.35687 16.3423 1.27143 16.3423 1.27143C15.4947 1.4127 10.4092 4.53228 7.29726 8.11094C-0.161403 16.0216 -1.47985 28.3397 4.09531 37.8326C4.77337 39.038 6.6192 41.2606 8.20134 42.8427C12.3827 47.0241 18.1462 49.6986 23.6837 50H25.8069V45.2041V40.2599L30.6098 35.8808L35.8365 31.0778C35.9872 31.5299 37.1173 35.5888 38.0967 39.1298C39.1138 42.8591 40.0744 45.894 40.0744 45.894C40.9408 45.894 44.7036 41.5619 46.5494 38.812C50.1281 33.4629 51.5595 26.1549 50.2034 19.864C48.3576 11.1622 41.4263 3.6282 32.8375 0.991299C30.05 0.16256 24.5125 -0.251812 21.9132 0.16256ZM31.5568 4.53228C38.9024 6.79248 44.6283 12.8574 46.3988 20.2407C47.5289 25.1755 46.8885 30.3739 44.4776 34.8567C43.1215 37.3805 41.464 39.7161 41.2003 39.4147C41.1249 39.3017 40.4092 36.9285 39.6558 34.1409C38.9024 31.3533 38.0684 28.0641 37.9554 27.6874C37.9554 27.6874 38.803 27.6874 39.3681 27.6874C39.3681 27.6874 39.3681 27.565 39.3681 24.4384V20.6243H37.6729H35.9778L33.9676 13.7991L32.0224 6.71714H27.7845H23.6084V5.36102C23.6084 4.68296 23.6084 4.09658 23.6084 3.81406C24.253 3.67279 29.4849 3.89189 31.5568 4.53228ZM29.6209 11.5835L30.3273 13.5612L29.4797 14.2675L28.6321 14.9738C25.8069 17.234 28.6321 14.9738 25.8069 17.234C25.8069 16.9231 25.8069 15.8501 25.8069 13.7782V10.0296L27.5261 10.0321C28.405 10.0321 28.7734 10.0321 29.0559 10.0296C29.6209 11.5835 29.0559 10.0296 29.6209 11.5835ZM32.87 20.6243H30.186C29.1689 20.6243 30.6098 20.6243 25.8069 20.6243L31.3161 15.8215L32.87 20.6243ZM35.1302 27.6874L29.7622 32.4905L25.8069 35.8808V31.7842V27.6993H29.6356C31.7074 27.6993 31.3307 27.6874 35.1302 27.6874Z" fill="black"/>
<path d="M159.597 12.6688H157.337L155.567 17.9353C154.587 20.7605 153.608 23.9248 153.382 24.9796L152.967 26.9008L152.252 24.6406C151.875 23.3974 150.556 20.2708 149.389 17.6716L147.166 12.6688H144.341H141.516L146.149 21.853C150.669 30.7054 150.782 30.9691 150.255 31.9862C149.615 33.2293 148.532 33.7735 147.025 33.4344C146.514 33.3194 146.177 33.1519 145.895 33.0106C145.838 33.3047 145.895 33.0106 145.622 34.5478C145.38 35.9062 145.188 36.966 145.047 37.5311C145.853 37.6367 146.691 37.6367 148.296 37.6367C150.782 37.6367 152.666 36.2429 154.173 33.2293C155.228 31.1575 162.112 12.9325 161.999 12.6688C161.857 12.6688 160.869 12.6688 159.597 12.6688Z" fill="black"/>
<path d="M77.6649 12.6688H75.4047L73.6342 17.9353C72.6548 20.7605 71.6753 23.9248 71.4493 24.9796L71.0349 26.9008L70.3192 24.6406C69.9425 23.3974 68.6241 20.2708 67.4563 17.6716L65.2338 12.6688H62.4085H59.5833L64.2167 21.853C68.7371 30.7054 68.8501 30.9691 68.3227 31.9862C67.6823 33.2293 66.5993 33.7735 65.0925 33.4344C64.5813 33.3194 64.2449 33.1519 63.9624 33.0106C63.9053 33.3047 63.9624 33.0106 63.6893 34.5478C63.4479 35.9062 63.2561 36.966 63.1148 37.5311C63.9208 37.6367 64.7588 37.6367 66.3639 37.6367C68.8501 37.6367 70.7336 36.2429 72.2404 33.2293C73.2951 31.1575 80.1793 12.9325 80.0663 12.6688C79.9251 12.6688 78.9362 12.6688 77.6649 12.6688Z" fill="black"/>
<path d="M81.9968 24.912V37.1548H84.257H86.5172V26.9839V16.813H91.4143H96.3114V14.7411V12.6693H89.1541H81.9968V24.912Z" fill="black"/>
<path d="M98.5718 24.912V37.1548H101.02H103.469V32.0693V26.9839H107.989H112.51V32.0693V37.1548H114.958H117.407V24.912V12.6693H114.958H112.51V17.7547V22.6023H108.163H103.501V17.5169V12.6693H101.02H98.5718V24.912Z" fill="black"/>
<path d="M120.044 14.7411V16.813H123.811H127.578V26.9839V37.1548H129.838H132.098V26.9839V16.813H135.677H139.255V14.7411V12.6693H129.649H120.044V14.7411Z" fill="black"/>
</svg>
