<svg width="200" height="133" viewBox="0 0 200 133" fill="none" xmlns="http://www.w3.org/2000/svg">
<path d="M33.0924 49.5732L16.2712 59.285C11.4883 62.0464 11.4883 66.5236 16.2712 69.285L32.7652 78.8078M32.7652 78.8078L28.23 78.2796M32.7652 78.8078L31.8504 76.1894" stroke="#4663E6" stroke-width="1.4"/>
<path d="M84.9994 70.7568L101.821 61.0451C106.604 58.2837 114.358 58.2837 119.141 61.0451L135.635 70.5679M135.635 70.5679L134.72 67.9495M135.635 70.5679L131.1 70.0397" stroke="#4663E6" stroke-width="1.4"/>
<rect width="77.3734" height="46.414" rx="18.0952" transform="matrix(0.866025 -0.5 0.866025 0.5 14 38.6865)" fill="#5E97FB"/>
<rect width="77.3734" height="46.414" rx="18.0952" transform="matrix(0.866025 -0.5 0.866025 0.5 0 98.5244)" fill="#5E97FB"/>
<rect width="77.3734" height="46.414" rx="18.0952" transform="matrix(0.866025 -0.5 0.866025 0.5 101 92.6865)" fill="#5E97FB"/>
</svg>
