<svg width="230" height="142" viewBox="0 0 230 142" fill="none" xmlns="http://www.w3.org/2000/svg">
<g filter="url(#filter0_d_784_20384)">
<path fill-rule="evenodd" clip-rule="evenodd" d="M127.056 10.5257C127.121 10.7737 127.378 11.0281 127.83 11.2889C128.282 11.5496 128.722 11.6986 129.152 11.7356C129.581 11.7727 129.922 11.7188 130.173 11.574C130.424 11.4291 130.517 11.2327 130.453 10.9847C130.388 10.7366 130.131 10.4823 129.679 10.2215C129.227 9.96074 128.787 9.81182 128.357 9.77473C127.927 9.73765 127.587 9.79154 127.336 9.9364C127.085 10.0813 126.992 10.2777 127.056 10.5257ZM128.435 9.05852C129.206 9.08865 129.929 9.29842 130.603 9.68782C131.278 10.0772 131.642 10.495 131.696 10.9412C131.75 11.3874 131.521 11.7588 131.007 12.0555C130.493 12.3522 129.849 12.4849 129.077 12.4536C128.304 12.4223 127.58 12.212 126.906 11.8226C126.231 11.4332 125.868 11.0159 125.816 10.5709C125.762 10.1247 125.991 9.75329 126.505 9.45661C127.019 9.15992 127.662 9.02723 128.435 9.05852ZM123.079 11.5392L123.85 11.0942L128.167 13.587L127.243 14.1207L124.099 12.3058L123.359 12.7335L122.772 12.3945C122.888 12.3087 122.978 12.2207 123.043 12.1303C123.105 12.0387 123.139 11.9599 123.145 11.8938C123.153 11.8266 123.153 11.7664 123.145 11.713C123.137 11.6574 123.124 11.614 123.106 11.5827L123.079 11.5392ZM132.208 8.76125C131.756 8.50049 131.498 8.24611 131.434 7.9981C131.37 7.75009 131.463 7.55365 131.714 7.40878C131.965 7.26392 132.305 7.21003 132.735 7.24711C133.165 7.2842 133.605 7.43312 134.057 7.69388C134.508 7.95464 134.766 8.20902 134.831 8.45703C134.895 8.70504 134.802 8.90148 134.551 9.04635C134.3 9.19121 133.959 9.2451 133.53 9.20802C133.1 9.17093 132.66 9.02201 132.208 8.76125ZM134.981 7.16019C134.307 6.77079 133.584 6.56103 132.813 6.53089C132.04 6.4996 131.397 6.6323 130.883 6.92899C130.369 7.22567 130.14 7.59711 130.194 8.04329C130.246 8.48832 130.609 8.90554 131.284 9.29494C131.958 9.68434 132.682 9.89468 133.455 9.92597C134.227 9.95726 134.871 9.82457 135.385 9.52788C135.899 9.2312 136.128 8.85976 136.074 8.41357C136.02 7.96738 135.656 7.54959 134.981 7.16019ZM43.3411 58.8588C43.4053 59.1068 43.6633 59.3612 44.1149 59.6219C44.5666 59.8827 45.0072 60.0316 45.4367 60.0687C45.8663 60.1058 46.2065 60.0519 46.4575 59.907C46.7084 59.7621 46.8017 59.5657 46.7375 59.3177C46.6732 59.0697 46.4153 58.8153 45.9637 58.5545C45.512 58.2938 45.0714 58.1449 44.6418 58.1078C44.2123 58.0707 43.872 58.1246 43.6211 58.2694C43.3702 58.4143 43.2769 58.6107 43.3411 58.8588ZM44.7201 57.3916C45.4909 57.4217 46.2136 57.6315 46.888 58.0209C47.5625 58.4103 47.9268 58.828 47.981 59.2742C48.0352 59.7204 47.8054 60.0919 47.2915 60.3885C46.7776 60.6852 46.1343 60.8179 45.3615 60.7866C44.5886 60.7553 43.865 60.545 43.1905 60.1556C42.5161 59.7662 42.1528 59.349 42.1006 58.904C42.0464 58.4578 42.2762 58.0863 42.7901 57.7896C43.304 57.493 43.9473 57.3603 44.7201 57.3916ZM140.785 10.1175L48.2872 63.5209L47.4063 63.0123L139.904 9.60887L140.785 10.1175Z" fill="#4663E6"/>
</g>
<path d="M130.871 64.7598L97.7657 45.6466L44.9282 76.1523C41.1019 78.3615 41.1019 81.9432 44.9282 84.1523L132.649 134.798C136.234 136.868 142.047 136.868 145.632 134.798L157.272 128.078L152.525 125.337L179.386 109.829L177.561 108.775L193.453 99.5995L183.838 94.0482L167.945 103.224L165.146 101.608L138.285 117.116L135.121 115.289L122.809 122.397L106.5 112.981L118.14 106.261L111.689 102.536L100.05 109.257L88.4873 102.581L100.127 95.8608L91.364 90.8014L118.449 75.1639L115.65 73.5478L130.871 64.7598Z" fill="#609AFF"/>
<path d="M99.5008 33.4993L134.492 53.7123L116.45 64.1291L119.371 65.8157L87.2664 84.3514L96.4114 89.6313L82.6144 97.597L94.6807 104.564L108.478 96.5978L115.21 100.484L101.412 108.45L118.432 118.277L133.026 109.851L136.328 111.758L168.167 93.3754L171.089 95.0621L189.927 84.1858L199.961 89.979L181.123 100.855L183.028 101.955L151.189 120.338L156.142 123.198L142.345 131.163" stroke="#4663E6" stroke-width="1.00781" stroke-linejoin="round"/>
<defs>
<filter id="filter0_d_784_20384" x="0.092804" y="0.526367" width="182.692" height="140.994" filterUnits="userSpaceOnUse" color-interpolation-filters="sRGB">
<feFlood flood-opacity="0" result="BackgroundImageFix"/>
<feColorMatrix in="SourceAlpha" type="matrix" values="0 0 0 0 0 0 0 0 0 0 0 0 0 0 0 0 0 0 127 0" result="hardAlpha"/>
<feOffset dy="36"/>
<feGaussianBlur stdDeviation="21"/>
<feColorMatrix type="matrix" values="0 0 0 0 0.24709 0 0 0 0 0.327509 0 0 0 0 0.670833 0 0 0 1 0"/>
<feBlend mode="normal" in2="BackgroundImageFix" result="effect1_dropShadow_784_20384"/>
<feBlend mode="normal" in="SourceGraphic" in2="effect1_dropShadow_784_20384" result="shape"/>
</filter>
</defs>
</svg>
