<svg width="420" height="400" viewBox="0 0 420 400" fill="none" xmlns="http://www.w3.org/2000/svg">
<g clip-path="url(#clip0_784_20043)">
<g clip-path="url(#clip1_784_20043)">
<rect x="183.126" y="-760" width="134.899" height="1632.28" fill="url(#paint0_linear_784_20043)"/>
<g clip-path="url(#clip2_784_20043)">
<rect x="183.126" y="-339.886" width="50.1053" height="1815.35" fill="#76767F"/>
<path fill-rule="evenodd" clip-rule="evenodd" d="M179.272 -312.906L208.179 -341.813L205.454 -344.538L176.547 -315.631L179.272 -312.906ZM179.272 612.115L229.378 562.01L226.652 559.284L176.547 609.39L179.272 612.115ZM231.305 97.5721L179.272 149.605L176.547 146.879L228.579 94.8467L231.305 97.5721ZM179.272 1074.63L231.305 1022.59L228.579 1019.87L176.547 1071.9L179.272 1074.63ZM229.378 -332.177L179.272 -282.072L176.547 -284.797L226.652 -334.903L229.378 -332.177ZM179.272 642.949L229.378 592.844L226.652 590.118L176.547 640.224L179.272 642.949ZM229.378 130.333L179.272 180.439L176.547 177.713L226.652 127.608L229.378 130.333ZM179.272 1105.46L229.378 1055.35L226.652 1052.63L176.547 1102.73L179.272 1105.46ZM229.378 -301.343L179.272 -251.238L176.547 -253.963L226.652 -304.069L229.378 -301.343ZM179.272 673.783L229.378 623.678L226.652 620.952L176.547 671.058L179.272 673.783ZM229.378 161.167L179.272 211.273L176.547 208.547L226.652 158.442L229.378 161.167ZM179.272 1136.29L229.378 1086.19L226.652 1083.46L176.547 1133.57L179.272 1136.29ZM229.378 -270.509L179.272 -220.404L176.547 -223.129L226.652 -273.235L229.378 -270.509ZM179.272 704.617L229.378 654.512L226.652 651.786L176.547 701.892L179.272 704.617ZM229.378 192.001L179.272 242.107L176.547 239.381L226.652 189.276L229.378 192.001ZM179.272 1167.13L229.378 1117.02L226.652 1114.3L176.547 1164.4L179.272 1167.13ZM229.378 -239.675L179.272 -189.57L176.547 -192.295L226.652 -242.4L229.378 -239.675ZM179.272 735.451L229.378 685.346L226.652 682.62L176.547 732.726L179.272 735.451ZM229.378 222.835L179.272 272.941L176.547 270.215L226.652 220.11L229.378 222.835ZM179.272 1197.96L229.378 1147.86L226.652 1145.13L176.547 1195.24L179.272 1197.96ZM229.378 -208.841L179.272 -158.736L176.547 -161.461L226.652 -211.566L229.378 -208.841ZM179.272 766.285L229.378 716.18L226.652 713.455L176.547 763.56L179.272 766.285ZM229.378 253.669L179.272 303.775L176.547 301.049L226.652 250.944L229.378 253.669ZM179.272 1228.8L229.378 1178.69L226.652 1175.97L176.547 1226.07L179.272 1228.8ZM229.378 -178.007L179.272 -127.902L176.547 -130.627L226.652 -180.732L229.378 -178.007ZM179.272 797.119L229.378 747.014L226.652 744.289L176.547 794.394L179.272 797.119ZM229.378 284.503L179.272 334.609L176.547 331.883L226.652 281.778L229.378 284.503ZM179.272 1259.63L229.378 1209.52L226.652 1206.8L176.547 1256.9L179.272 1259.63ZM229.378 -147.173L179.272 -97.0677L176.547 -99.7931L226.652 -149.898L229.378 -147.173ZM179.272 827.953L229.378 777.848L226.652 775.123L176.547 825.228L179.272 827.953ZM229.378 315.338L179.272 365.443L176.547 362.717L226.652 312.612L229.378 315.338ZM179.272 1290.46L229.378 1240.36L226.652 1237.63L176.547 1287.74L179.272 1290.46ZM229.378 -116.339L179.272 -66.2337L176.547 -68.9591L226.652 -119.064L229.378 -116.339ZM179.272 858.787L229.378 808.682L226.652 805.957L176.547 856.062L179.272 858.787ZM229.378 346.172L179.272 396.277L176.547 393.551L226.652 343.446L229.378 346.172ZM179.272 1321.3L229.378 1271.19L226.652 1268.47L176.547 1318.57L179.272 1321.3ZM229.378 -85.505L179.272 -35.3997L176.547 -38.125L226.652 -88.2303L229.378 -85.505ZM179.272 889.621L229.378 839.516L226.652 836.791L176.547 886.896L179.272 889.621ZM229.378 377.006L179.272 427.111L176.547 424.385L226.652 374.28L229.378 377.006ZM179.272 1352.13L229.378 1302.03L226.652 1299.3L176.547 1349.41L179.272 1352.13ZM229.378 -54.6709L179.272 -4.56561L176.547 -7.29099L226.652 -57.3963L229.378 -54.6709ZM179.272 920.455L229.378 870.35L226.652 867.625L176.547 917.73L179.272 920.455ZM229.378 407.84L179.272 457.945L176.547 455.22L226.652 405.114L229.378 407.84ZM179.272 1382.97L229.378 1332.86L226.652 1330.14L176.547 1380.24L179.272 1382.97ZM229.378 -23.8369L179.272 26.2684L176.547 23.543L226.652 -26.5623L229.378 -23.8369ZM179.272 951.289L229.378 901.184L226.652 898.459L176.547 948.564L179.272 951.289ZM229.378 438.674L179.272 488.779L176.547 486.054L226.652 435.948L229.378 438.674ZM179.272 1413.8L229.378 1363.69L226.652 1360.97L176.547 1411.07L179.272 1413.8ZM229.378 6.99713L179.272 57.1024L176.547 54.3771L226.652 4.27176L229.378 6.99713ZM179.272 982.123L229.378 932.018L226.652 929.293L176.547 979.398L179.272 982.123ZM229.378 469.508L179.272 519.613L176.547 516.888L226.652 466.782L229.378 469.508ZM179.272 1444.63L229.378 1394.53L226.652 1391.8L176.547 1441.91L179.272 1444.63ZM229.378 37.8312L179.272 87.9365L176.547 85.2111L226.652 35.1058L229.378 37.8312ZM179.272 1012.96L229.378 962.852L226.652 960.127L176.547 1010.23L179.272 1012.96ZM229.378 500.342L179.272 550.447L176.547 547.722L226.652 497.616L229.378 500.342ZM179.272 1475.47L229.378 1425.36L226.652 1422.64L176.547 1472.74L179.272 1475.47ZM229.378 68.6652L179.272 118.771L176.547 116.045L226.652 65.9398L229.378 68.6652ZM179.272 1043.79L229.378 993.686L226.652 990.961L176.547 1041.07L179.272 1043.79ZM229.378 531.176L179.272 581.281L176.547 578.556L226.652 528.45L229.378 531.176ZM179.272 1506.3L229.378 1456.2L226.652 1453.47L176.547 1503.58L179.272 1506.3Z" fill="#43434B"/>
<line x1="204.325" y1="-339.886" x2="204.325" y2="756.65" stroke="white" stroke-width="3.85425"/>
</g>
<g clip-path="url(#clip3_784_20043)">
<rect x="294.9" y="-339.886" width="50.1053" height="1815.35" fill="#76767F"/>
<path fill-rule="evenodd" clip-rule="evenodd" d="M291.046 -312.906L319.953 -341.813L317.227 -344.538L288.32 -315.631L291.046 -312.906ZM291.046 612.115L341.151 562.01L338.426 559.284L288.32 609.39L291.046 612.115ZM343.078 97.5721L291.046 149.605L288.32 146.879L340.353 94.8467L343.078 97.5721ZM291.046 1074.63L343.078 1022.59L340.353 1019.87L288.32 1071.9L291.046 1074.63ZM341.151 -332.177L291.046 -282.072L288.32 -284.797L338.426 -334.903L341.151 -332.177ZM291.046 642.949L341.151 592.844L338.426 590.118L288.32 640.224L291.046 642.949ZM341.151 130.333L291.046 180.439L288.32 177.713L338.426 127.608L341.151 130.333ZM291.046 1105.46L341.151 1055.35L338.426 1052.63L288.32 1102.73L291.046 1105.46ZM341.151 -301.343L291.046 -251.238L288.32 -253.963L338.426 -304.069L341.151 -301.343ZM291.046 673.783L341.151 623.678L338.426 620.952L288.32 671.058L291.046 673.783ZM341.151 161.167L291.046 211.273L288.32 208.547L338.426 158.442L341.151 161.167ZM291.046 1136.29L341.151 1086.19L338.426 1083.46L288.32 1133.57L291.046 1136.29ZM341.151 -270.509L291.046 -220.404L288.32 -223.129L338.426 -273.235L341.151 -270.509ZM291.046 704.617L341.151 654.512L338.426 651.786L288.32 701.892L291.046 704.617ZM341.151 192.001L291.046 242.107L288.32 239.381L338.426 189.276L341.151 192.001ZM291.046 1167.13L341.151 1117.02L338.426 1114.3L288.32 1164.4L291.046 1167.13ZM341.151 -239.675L291.046 -189.57L288.32 -192.295L338.426 -242.4L341.151 -239.675ZM291.046 735.451L341.151 685.346L338.426 682.62L288.32 732.726L291.046 735.451ZM341.151 222.835L291.046 272.941L288.32 270.215L338.426 220.11L341.151 222.835ZM291.046 1197.96L341.151 1147.86L338.426 1145.13L288.32 1195.24L291.046 1197.96ZM341.151 -208.841L291.046 -158.736L288.32 -161.461L338.426 -211.566L341.151 -208.841ZM291.046 766.285L341.151 716.18L338.426 713.455L288.32 763.56L291.046 766.285ZM341.151 253.669L291.046 303.775L288.32 301.049L338.426 250.944L341.151 253.669ZM291.046 1228.8L341.151 1178.69L338.426 1175.97L288.32 1226.07L291.046 1228.8ZM341.151 -178.007L291.046 -127.902L288.32 -130.627L338.426 -180.732L341.151 -178.007ZM291.046 797.119L341.151 747.014L338.426 744.289L288.32 794.394L291.046 797.119ZM341.151 284.503L291.046 334.609L288.32 331.883L338.426 281.778L341.151 284.503ZM291.046 1259.63L341.151 1209.52L338.426 1206.8L288.32 1256.9L291.046 1259.63ZM341.151 -147.173L291.046 -97.0677L288.32 -99.7931L338.426 -149.898L341.151 -147.173ZM291.046 827.953L341.151 777.848L338.426 775.123L288.32 825.228L291.046 827.953ZM341.151 315.338L291.046 365.443L288.32 362.717L338.426 312.612L341.151 315.338ZM291.046 1290.46L341.151 1240.36L338.426 1237.63L288.32 1287.74L291.046 1290.46ZM341.151 -116.339L291.046 -66.2337L288.32 -68.9591L338.426 -119.064L341.151 -116.339ZM291.046 858.787L341.151 808.682L338.426 805.957L288.32 856.062L291.046 858.787ZM341.151 346.172L291.046 396.277L288.32 393.551L338.426 343.446L341.151 346.172ZM291.046 1321.3L341.151 1271.19L338.426 1268.47L288.32 1318.57L291.046 1321.3ZM341.151 -85.505L291.046 -35.3997L288.32 -38.125L338.426 -88.2303L341.151 -85.505ZM291.046 889.621L341.151 839.516L338.426 836.791L288.32 886.896L291.046 889.621ZM341.151 377.006L291.046 427.111L288.32 424.385L338.426 374.28L341.151 377.006ZM291.046 1352.13L341.151 1302.03L338.426 1299.3L288.32 1349.41L291.046 1352.13ZM341.151 -54.6709L291.046 -4.56561L288.32 -7.29099L338.426 -57.3963L341.151 -54.6709ZM291.046 920.455L341.151 870.35L338.426 867.625L288.32 917.73L291.046 920.455ZM341.151 407.84L291.046 457.945L288.32 455.22L338.426 405.114L341.151 407.84ZM291.046 1382.97L341.151 1332.86L338.426 1330.14L288.32 1380.24L291.046 1382.97ZM341.151 -23.8369L291.046 26.2684L288.32 23.543L338.426 -26.5623L341.151 -23.8369ZM291.046 951.289L341.151 901.184L338.426 898.459L288.32 948.564L291.046 951.289ZM341.151 438.674L291.046 488.779L288.32 486.054L338.426 435.948L341.151 438.674ZM291.046 1413.8L341.151 1363.69L338.426 1360.97L288.32 1411.07L291.046 1413.8ZM341.151 6.99713L291.046 57.1024L288.32 54.3771L338.426 4.27176L341.151 6.99713ZM291.046 982.123L341.151 932.018L338.426 929.293L288.32 979.398L291.046 982.123ZM341.151 469.508L291.046 519.613L288.32 516.888L338.426 466.782L341.151 469.508ZM291.046 1444.63L341.151 1394.53L338.426 1391.8L288.32 1441.91L291.046 1444.63ZM341.151 37.8312L291.046 87.9365L288.32 85.2111L338.426 35.1058L341.151 37.8312ZM291.046 1012.96L341.151 962.852L338.426 960.127L288.32 1010.23L291.046 1012.96ZM341.151 500.342L291.046 550.447L288.32 547.722L338.426 497.616L341.151 500.342ZM291.046 1475.47L341.151 1425.36L338.426 1422.64L288.32 1472.74L291.046 1475.47ZM341.151 68.6652L291.046 118.771L288.32 116.045L338.426 65.9398L341.151 68.6652ZM291.046 1043.79L341.151 993.686L338.426 990.961L288.32 1041.07L291.046 1043.79ZM341.151 531.176L291.046 581.281L288.32 578.556L338.426 528.45L341.151 531.176ZM291.046 1506.3L341.151 1456.2L338.426 1453.47L288.32 1503.58L291.046 1506.3Z" fill="#43434B"/>
<line x1="296.827" y1="-339.886" x2="296.827" y2="756.65" stroke="white" stroke-width="3.85425"/>
</g>
<path d="M160 334.44L202.397 326.899V341.981L160 334.44Z" fill="#F6997D"/>
<path d="M160 357.063L202.397 349.522V364.604L160 357.063Z" fill="#F6997D"/>
<path d="M160 379.686L202.397 372.145V387.227L160 379.686Z" fill="#F6997D"/>
<path d="M233.154 -155.049L267.18 -155.049V68.8316L233.154 68.8316V-155.049Z" fill="url(#paint1_linear_784_20043)"/>
<path d="M210.351 68.8317L290.798 68.8317L294.898 70.7588L206.25 70.7588L210.351 68.8317Z" fill="url(#paint2_linear_784_20043)"/>
<rect x="206.25" y="70.7588" width="88.6478" height="8.99326" fill="url(#paint3_linear_784_20043)"/>
<path d="M210.351 81.6791L290.798 81.6791L294.898 79.752L206.25 79.752L210.351 81.6791Z" fill="url(#paint4_linear_784_20043)"/>
<path d="M210.351 81.6793L290.798 81.6793L294.898 83.6064L206.25 83.6064L210.351 81.6793Z" fill="url(#paint5_linear_784_20043)"/>
<rect x="206.25" y="83.6064" width="88.6478" height="8.99326" fill="url(#paint6_linear_784_20043)"/>
<path d="M210.351 94.5267L290.798 94.5267L294.898 92.5996L206.25 92.5996L210.351 94.5267Z" fill="url(#paint7_linear_784_20043)"/>
<path d="M210.351 94.527L290.798 94.527L294.898 96.4541L206.25 96.4541L210.351 94.527Z" fill="url(#paint8_linear_784_20043)"/>
<rect x="206.25" y="96.4541" width="88.6478" height="8.99326" fill="url(#paint9_linear_784_20043)"/>
<path d="M210.351 107.374L290.798 107.374L294.898 105.447L206.25 105.447L210.351 107.374Z" fill="url(#paint10_linear_784_20043)"/>
<path d="M232.892 131.937L268.755 131.937V235.738H232.892V131.937Z" fill="url(#paint11_linear_784_20043)"/>
<path d="M228.91 109.29L272.24 109.29V123.172L228.91 123.172V109.29Z" fill="url(#paint12_linear_784_20043)"/>
<path d="M232.921 107.374L268.228 107.374L272.24 109.289L228.909 109.289L232.921 107.374Z" fill="url(#paint13_linear_784_20043)"/>
<path d="M232.921 107.374L268.228 107.374L272.24 109.289L228.909 109.289L232.921 107.374Z" fill="#BDC1CE" fill-opacity="0.5"/>
<path d="M228.908 123.173L272.239 123.173L268.227 132.268L232.92 132.268L228.908 123.173Z" fill="url(#paint14_linear_784_20043)"/>
<path d="M228.908 123.173L272.239 123.173L268.227 132.268L232.92 132.268L228.908 123.173Z" fill="#C6C9D4" fill-opacity="0.5"/>
<path d="M210.351 235.738L290.798 235.738L294.898 237.665L206.25 237.665L210.351 235.738Z" fill="url(#paint15_linear_784_20043)"/>
<rect x="206.25" y="237.665" width="88.6478" height="8.99326" fill="url(#paint16_linear_784_20043)"/>
<path d="M210.351 248.585L290.798 248.585L294.898 246.658L206.25 246.658L210.351 248.585Z" fill="url(#paint17_linear_784_20043)"/>
<path d="M210.351 248.586L290.798 248.586L294.898 250.513L206.25 250.513L210.351 248.586Z" fill="url(#paint18_linear_784_20043)"/>
<rect x="206.25" y="250.513" width="88.6478" height="8.99326" fill="url(#paint19_linear_784_20043)"/>
<path d="M210.351 261.433L290.798 261.433L294.898 259.506L206.25 259.506L210.351 261.433Z" fill="url(#paint20_linear_784_20043)"/>
<path d="M210.351 261.433L290.798 261.433L294.898 263.36L206.25 263.36L210.351 261.433Z" fill="url(#paint21_linear_784_20043)"/>
<rect x="206.25" y="263.36" width="88.6478" height="8.99326" fill="url(#paint22_linear_784_20043)"/>
<path d="M210.351 274.281L290.798 274.281L294.898 272.354L206.25 272.354L210.351 274.281Z" fill="url(#paint23_linear_784_20043)"/>
<path d="M232.891 321.963H268.753V523.467H232.891V321.963Z" fill="url(#paint24_linear_784_20043)"/>
<path d="M228.909 277.999H272.24V304.947H228.909V277.999Z" fill="url(#paint25_linear_784_20043)"/>
<path d="M232.921 274.28H268.228L272.24 277.997H228.909L232.921 274.28Z" fill="url(#paint26_linear_784_20043)"/>
<path d="M232.921 274.28H268.228L272.24 277.997H228.909L232.921 274.28Z" fill="#BDC1CE" fill-opacity="0.5"/>
<path d="M228.909 304.949H272.24L268.228 322.605H232.921L228.909 304.949Z" fill="url(#paint27_linear_784_20043)"/>
<path d="M228.909 304.949H272.24L268.228 322.605H232.921L228.909 304.949Z" fill="#C6C9D4" fill-opacity="0.5"/>
<path d="M341.15 334.441L298.753 326.9V341.982L341.15 334.441Z" fill="#F6997D"/>
<path d="M341.15 357.064L298.753 349.523V364.605L341.15 357.064Z" fill="#F6997D"/>
<path d="M341.15 379.687L298.753 372.146V387.228L341.15 379.687Z" fill="#F6997D"/>
</g>
</g>
<defs>
<linearGradient id="paint0_linear_784_20043" x1="183.126" y1="-149.957" x2="318.025" y2="-149.957" gradientUnits="userSpaceOnUse">
<stop stop-color="#C2C5D1"/>
<stop offset="0.508242" stop-color="#DFE0E1"/>
<stop offset="1" stop-color="#C2C5D1"/>
</linearGradient>
<linearGradient id="paint1_linear_784_20043" x1="233.154" y1="1268.47" x2="267.18" y2="1268.47" gradientUnits="userSpaceOnUse">
<stop stop-color="#B7BBC9"/>
<stop offset="0.692708" stop-color="#FDFDFD"/>
<stop offset="1" stop-color="#F5F6F8"/>
</linearGradient>
<linearGradient id="paint2_linear_784_20043" x1="206.25" y1="69.7952" x2="294.898" y2="69.7952" gradientUnits="userSpaceOnUse">
<stop stop-color="#53320E"/>
<stop offset="0.607481" stop-color="#AC7E3D"/>
<stop offset="1" stop-color="#774A18"/>
</linearGradient>
<linearGradient id="paint3_linear_784_20043" x1="206.977" y1="75.1004" x2="294.898" y2="75.1004" gradientUnits="userSpaceOnUse">
<stop stop-color="#72471D"/>
<stop offset="0.123106" stop-color="#AA7831"/>
<stop offset="0.237603" stop-color="#895722"/>
<stop offset="0.378099" stop-color="#946026"/>
<stop offset="0.419981" stop-color="#946026"/>
<stop offset="0.617898" stop-color="#EEBA6F"/>
<stop offset="0.71281" stop-color="#ECBC68"/>
<stop offset="0.873967" stop-color="#A66C2C"/>
<stop offset="1" stop-color="#C5792B"/>
</linearGradient>
<linearGradient id="paint4_linear_784_20043" x1="206.25" y1="80.7155" x2="294.898" y2="80.7155" gradientUnits="userSpaceOnUse">
<stop stop-color="#935E24"/>
<stop offset="0.461648" stop-color="#E1A25C"/>
<stop offset="0.669981" stop-color="#EBEED5"/>
<stop offset="1" stop-color="#BE7F2B"/>
</linearGradient>
<linearGradient id="paint5_linear_784_20043" x1="206.25" y1="82.6429" x2="294.898" y2="82.6429" gradientUnits="userSpaceOnUse">
<stop stop-color="#0C0C0C"/>
<stop offset="1" stop-color="#414141"/>
</linearGradient>
<linearGradient id="paint6_linear_784_20043" x1="206.977" y1="87.948" x2="294.898" y2="87.948" gradientUnits="userSpaceOnUse">
<stop stop-color="#0D0D0C"/>
<stop offset="0.214876" stop-color="#181818"/>
<stop offset="0.237603" stop-color="#1B1B1B"/>
<stop offset="0.378099" stop-color="#151515"/>
<stop offset="0.570248" stop-color="#1E1E1E"/>
<stop offset="0.633523" stop-color="#282828"/>
<stop offset="0.71281" stop-color="#2B2B2B"/>
<stop offset="0.873967" stop-color="#1B1B19"/>
<stop offset="1" stop-color="#161616"/>
</linearGradient>
<linearGradient id="paint7_linear_784_20043" x1="206.25" y1="93.5632" x2="294.898" y2="93.5632" gradientUnits="userSpaceOnUse">
<stop stop-color="#0C0C0C"/>
<stop offset="1" stop-color="#414141"/>
</linearGradient>
<linearGradient id="paint8_linear_784_20043" x1="206.25" y1="95.4905" x2="294.898" y2="95.4905" gradientUnits="userSpaceOnUse">
<stop stop-color="#53320E"/>
<stop offset="0.607481" stop-color="#AC7E3D"/>
<stop offset="1" stop-color="#774A18"/>
</linearGradient>
<linearGradient id="paint9_linear_784_20043" x1="206.977" y1="100.796" x2="294.898" y2="100.796" gradientUnits="userSpaceOnUse">
<stop stop-color="#72471D"/>
<stop offset="0.123106" stop-color="#AA7831"/>
<stop offset="0.237603" stop-color="#895722"/>
<stop offset="0.378099" stop-color="#946026"/>
<stop offset="0.419981" stop-color="#946026"/>
<stop offset="0.617898" stop-color="#EEBA6F"/>
<stop offset="0.71281" stop-color="#ECBC68"/>
<stop offset="0.873967" stop-color="#A66C2C"/>
<stop offset="1" stop-color="#C5792B"/>
</linearGradient>
<linearGradient id="paint10_linear_784_20043" x1="206.25" y1="106.411" x2="294.898" y2="106.411" gradientUnits="userSpaceOnUse">
<stop stop-color="#935E24"/>
<stop offset="0.461648" stop-color="#E1A25C"/>
<stop offset="0.669981" stop-color="#EBEED5"/>
<stop offset="1" stop-color="#BE7F2B"/>
</linearGradient>
<linearGradient id="paint11_linear_784_20043" x1="232.892" y1="791.946" x2="268.755" y2="791.946" gradientUnits="userSpaceOnUse">
<stop stop-color="#B7BBC9"/>
<stop offset="0.692708" stop-color="#FDFDFD"/>
<stop offset="1" stop-color="#F5F6F8"/>
</linearGradient>
<linearGradient id="paint12_linear_784_20043" x1="228.91" y1="197.557" x2="272.24" y2="197.557" gradientUnits="userSpaceOnUse">
<stop stop-color="#B7BBC9"/>
<stop offset="0.692708" stop-color="#FDFDFD"/>
<stop offset="1" stop-color="#F5F6F8"/>
</linearGradient>
<linearGradient id="paint13_linear_784_20043" x1="228.909" y1="119.549" x2="272.24" y2="119.55" gradientUnits="userSpaceOnUse">
<stop stop-color="#B7BBC9"/>
<stop offset="0.692708" stop-color="#FDFDFD"/>
<stop offset="1" stop-color="#F5F6F8"/>
</linearGradient>
<linearGradient id="paint14_linear_784_20043" x1="228.908" y1="181.003" x2="272.239" y2="181.003" gradientUnits="userSpaceOnUse">
<stop stop-color="#B7BBC9"/>
<stop offset="0.692708" stop-color="#FDFDFD"/>
<stop offset="1" stop-color="#F5F6F8"/>
</linearGradient>
<linearGradient id="paint15_linear_784_20043" x1="206.25" y1="236.701" x2="294.898" y2="236.701" gradientUnits="userSpaceOnUse">
<stop stop-color="#53320E"/>
<stop offset="0.607481" stop-color="#AC7E3D"/>
<stop offset="1" stop-color="#774A18"/>
</linearGradient>
<linearGradient id="paint16_linear_784_20043" x1="206.977" y1="242.007" x2="294.898" y2="242.007" gradientUnits="userSpaceOnUse">
<stop stop-color="#72471D"/>
<stop offset="0.123106" stop-color="#AA7831"/>
<stop offset="0.237603" stop-color="#895722"/>
<stop offset="0.378099" stop-color="#946026"/>
<stop offset="0.419981" stop-color="#946026"/>
<stop offset="0.617898" stop-color="#EEBA6F"/>
<stop offset="0.71281" stop-color="#ECBC68"/>
<stop offset="0.873967" stop-color="#A66C2C"/>
<stop offset="1" stop-color="#C5792B"/>
</linearGradient>
<linearGradient id="paint17_linear_784_20043" x1="206.25" y1="247.622" x2="294.898" y2="247.622" gradientUnits="userSpaceOnUse">
<stop stop-color="#935E24"/>
<stop offset="0.461648" stop-color="#E1A25C"/>
<stop offset="0.669981" stop-color="#EBEED5"/>
<stop offset="1" stop-color="#BE7F2B"/>
</linearGradient>
<linearGradient id="paint18_linear_784_20043" x1="206.25" y1="249.549" x2="294.898" y2="249.549" gradientUnits="userSpaceOnUse">
<stop stop-color="#0C0C0C"/>
<stop offset="1" stop-color="#414141"/>
</linearGradient>
<linearGradient id="paint19_linear_784_20043" x1="206.977" y1="254.854" x2="294.898" y2="254.854" gradientUnits="userSpaceOnUse">
<stop stop-color="#0D0D0C"/>
<stop offset="0.214876" stop-color="#181818"/>
<stop offset="0.237603" stop-color="#1B1B1B"/>
<stop offset="0.378099" stop-color="#151515"/>
<stop offset="0.570248" stop-color="#1E1E1E"/>
<stop offset="0.633523" stop-color="#282828"/>
<stop offset="0.71281" stop-color="#2B2B2B"/>
<stop offset="0.873967" stop-color="#1B1B19"/>
<stop offset="1" stop-color="#161616"/>
</linearGradient>
<linearGradient id="paint20_linear_784_20043" x1="206.25" y1="260.469" x2="294.898" y2="260.469" gradientUnits="userSpaceOnUse">
<stop stop-color="#0C0C0C"/>
<stop offset="1" stop-color="#414141"/>
</linearGradient>
<linearGradient id="paint21_linear_784_20043" x1="206.25" y1="262.397" x2="294.898" y2="262.397" gradientUnits="userSpaceOnUse">
<stop stop-color="#53320E"/>
<stop offset="0.607481" stop-color="#AC7E3D"/>
<stop offset="1" stop-color="#774A18"/>
</linearGradient>
<linearGradient id="paint22_linear_784_20043" x1="206.977" y1="267.702" x2="294.898" y2="267.702" gradientUnits="userSpaceOnUse">
<stop stop-color="#72471D"/>
<stop offset="0.123106" stop-color="#AA7831"/>
<stop offset="0.237603" stop-color="#895722"/>
<stop offset="0.378099" stop-color="#946026"/>
<stop offset="0.419981" stop-color="#946026"/>
<stop offset="0.617898" stop-color="#EEBA6F"/>
<stop offset="0.71281" stop-color="#ECBC68"/>
<stop offset="0.873967" stop-color="#A66C2C"/>
<stop offset="1" stop-color="#C5792B"/>
</linearGradient>
<linearGradient id="paint23_linear_784_20043" x1="206.25" y1="273.317" x2="294.898" y2="273.317" gradientUnits="userSpaceOnUse">
<stop stop-color="#935E24"/>
<stop offset="0.461648" stop-color="#E1A25C"/>
<stop offset="0.669981" stop-color="#EBEED5"/>
<stop offset="1" stop-color="#BE7F2B"/>
</linearGradient>
<linearGradient id="paint24_linear_784_20043" x1="232.891" y1="1603.2" x2="268.753" y2="1603.2" gradientUnits="userSpaceOnUse">
<stop stop-color="#B7BBC9"/>
<stop offset="0.692708" stop-color="#FDFDFD"/>
<stop offset="1" stop-color="#F5F6F8"/>
</linearGradient>
<linearGradient id="paint25_linear_784_20043" x1="228.909" y1="449.346" x2="272.24" y2="449.346" gradientUnits="userSpaceOnUse">
<stop stop-color="#B7BBC9"/>
<stop offset="0.692708" stop-color="#FDFDFD"/>
<stop offset="1" stop-color="#F5F6F8"/>
</linearGradient>
<linearGradient id="paint26_linear_784_20043" x1="228.909" y1="297.915" x2="272.24" y2="297.915" gradientUnits="userSpaceOnUse">
<stop stop-color="#B7BBC9"/>
<stop offset="0.692708" stop-color="#FDFDFD"/>
<stop offset="1" stop-color="#F5F6F8"/>
</linearGradient>
<linearGradient id="paint27_linear_784_20043" x1="228.909" y1="417.211" x2="272.24" y2="417.211" gradientUnits="userSpaceOnUse">
<stop stop-color="#B7BBC9"/>
<stop offset="0.692708" stop-color="#FDFDFD"/>
<stop offset="1" stop-color="#F5F6F8"/>
</linearGradient>
<clipPath id="clip0_784_20043">
<rect width="420" height="400" fill="white" transform="matrix(-1 0 0 1 420 0)"/>
</clipPath>
<clipPath id="clip1_784_20043">
<rect width="181.15" height="1641.91" fill="white" transform="translate(160 -760)"/>
</clipPath>
<clipPath id="clip2_784_20043">
<rect width="23.1255" height="1096.54" fill="white" transform="translate(183.126 -339.886)"/>
</clipPath>
<clipPath id="clip3_784_20043">
<rect width="23.1255" height="1096.54" fill="white" transform="translate(294.9 -339.886)"/>
</clipPath>
</defs>
</svg>
