<svg width="190" height="133" viewBox="0 0 190 133" fill="none" xmlns="http://www.w3.org/2000/svg">
<path d="M15.6708 67.6012C7.01597 72.5981 7.01599 80.6996 15.6708 85.6965L59.2597 110.863C66.965 115.311 78.9327 115.799 87.5732 112.327C87.6641 112.341 87.7565 112.353 87.8504 112.365L119.224 116.177C122.532 116.579 125.534 114.972 125.089 113.037L120.642 93.6795C120.631 93.6326 120.618 93.5863 120.604 93.5406L154.26 74.1095C162.914 69.1127 162.914 61.0111 154.26 56.0143L110.671 30.8482C102.016 25.8514 87.9837 25.8514 79.3289 30.8482L15.6708 67.6012Z" fill="#4968F3"/>
<g filter="url(#filter0_d_720_31335)">
<path d="M52.5964 33.3555C50.2323 34.7204 50.2323 37.109 52.5964 38.474L54.665 39.6683C47.2771 46.3223 48.4592 54.8531 58.5067 60.6541L70.8333 67.7708C71.4599 68.1326 71.8389 68.6128 71.9006 69.1232L72.5965 74.8821C72.6577 75.3891 73.0343 75.8662 73.6567 76.2255C75.0821 77.0485 77.3932 77.0485 78.8186 76.2255L126.849 48.4949C128.275 47.6719 128.275 46.3376 126.849 45.5147C126.227 45.1553 125.401 44.9379 124.523 44.9025L114.548 44.5007C113.664 44.4651 112.832 44.2463 112.205 43.8846L99.8789 36.7678C89.8314 30.9669 75.0556 30.2844 63.5305 34.5498L61.4619 33.3555C59.0978 31.9906 54.9605 31.9906 52.5964 33.3555ZM100.745 66.9787C100.267 67.2548 100.262 67.7077 100.805 67.9405C104.072 69.3402 108.742 69.1863 111.7 67.4787C114.657 65.7711 114.924 63.0748 112.499 61.189C112.096 60.8754 111.312 60.8779 110.834 61.1541L100.745 66.9787Z" fill="#C7DDFE"/>
</g>
<defs>
<filter id="filter0_d_720_31335" x="37.2454" y="31.8057" width="103.339" height="79.4181" filterUnits="userSpaceOnUse" color-interpolation-filters="sRGB">
<feFlood flood-opacity="0" result="BackgroundImageFix"/>
<feColorMatrix in="SourceAlpha" type="matrix" values="0 0 0 0 0 0 0 0 0 0 0 0 0 0 0 0 0 0 127 0" result="hardAlpha"/>
<feOffset dy="21.7143"/>
<feGaussianBlur stdDeviation="6.33333"/>
<feComposite in2="hardAlpha" operator="out"/>
<feColorMatrix type="matrix" values="0 0 0 0 0.167392 0 0 0 0 0.210569 0 0 0 0 0.404167 0 0 0 0.3 0"/>
<feBlend mode="normal" in2="BackgroundImageFix" result="effect1_dropShadow_720_31335"/>
<feBlend mode="normal" in="SourceGraphic" in2="effect1_dropShadow_720_31335" result="shape"/>
</filter>
</defs>
</svg>
