<svg width="28" height="28" viewBox="0 0 28 28" fill="none" xmlns="http://www.w3.org/2000/svg">
<path d="M5 14C5 16.7734 5.85972 19.0077 7.37651 20.549L8.80199 19.1461C7.88199 18.211 7.22112 16.8424 7.04606 15H20.9539C20.7787 16.842 20.1173 18.2102 19.196 19.1455L20.6209 20.549C22.139 19.0077 23 16.7734 23 14C23 11.2265 22.1403 8.99227 20.6235 7.45102L19.1986 8.85448C20.1186 9.78962 20.779 11.1578 20.954 13H7.04611C7.22128 11.1584 7.88241 9.79041 8.80339 8.85507L7.37909 7.45102C5.86102 8.99227 5 11.2265 5 14Z" fill="black"/>
<path fill-rule="evenodd" clip-rule="evenodd" d="M24.2992 24.1873C26.6606 21.7898 28 18.3143 28 14C28 9.68574 26.6626 6.2102 24.3032 3.81269C21.9418 1.41519 18.4659 0 14.0181 0C9.5502 0 6.06627 1.41311 3.7008 3.81269C1.33936 6.2102 0 9.68574 0 14C0 18.3143 1.33735 21.7898 3.69679 24.1873C6.05823 26.5848 9.53414 28 13.9819 28C18.4498 28 21.9357 26.5848 24.2992 24.1873ZM13.9819 26C9.96978 26 7.04274 24.7339 5.12227 22.7845C3.20031 20.8311 2 17.8962 2 14C2 10.1046 3.20121 7.17036 5.12511 5.21674C7.04795 3.26651 9.98277 2 14.0181 2C18.0302 2 20.9579 3.26672 22.8783 5.21615C24.8003 7.16947 26 10.1038 26 14C26 17.8958 24.7985 20.8302 22.8743 22.7838C20.9533 24.7322 18.017 26 13.9819 26Z" fill="black"/>
</svg>
