<svg width="20" height="21" viewBox="0 0 20 21" fill="none" xmlns="http://www.w3.org/2000/svg">
<path d="M5.72878 11.8819C6.20711 9.89002 6.71129 7.61686 6.80163 6.73668C6.91456 5.63645 6.91456 5.18341 6.8581 4.66566C6.80163 4.14791 6.24969 2.74481 5.46218 3.0405C4.61446 3.3588 5.02295 4.3097 5.10765 4.66566C5.19235 5.02162 5.75701 5.89533 6.1805 6.316C6.604 6.73668 8.35445 8.61353 9.37083 9.58432C10.3872 10.5551 14.0293 13.8234 14.7916 14.3088C15.5539 14.7942 16.8841 15.753 17.4455 14.5677C17.7748 13.8723 16.551 12.7687 15.4216 12.5455C13.7099 12.2073 12.2674 12.2087 9.03204 13.0144C5.79667 13.8202 3.8654 14.8913 3.07488 15.8944C2.46547 16.6677 2.32082 17.5114 2.73608 17.8684C3.18781 18.2567 3.97833 17.7389 4.45829 16.9299C4.84226 16.2827 5.2568 13.8472 5.72878 11.8819Z" stroke="#3C5DF2" stroke-width="1.25" stroke-linecap="round" stroke-linejoin="round"/>
</svg>
