<svg width="20" height="20" viewBox="0 0 20 20" fill="none" xmlns="http://www.w3.org/2000/svg">
<path d="M4.5 12.5C5.88071 12.5 7 11.3807 7 10C7 8.61929 5.88071 7.5 4.5 7.5C3.11929 7.5 2 8.61929 2 10C2 11.3807 3.11929 12.5 4.5 12.5Z" stroke="#3C5DF2" stroke-width="2" stroke-linecap="round" stroke-linejoin="round"/>
<path d="M14.5 18C15.8807 18 17 16.8807 17 15.5C17 14.1193 15.8807 13 14.5 13C13.1193 13 12 14.1193 12 15.5C12 16.8807 13.1193 18 14.5 18Z" stroke="#3C5DF2" stroke-width="2" stroke-linecap="round" stroke-linejoin="round"/>
<path d="M14.5 7C15.8807 7 17 5.88071 17 4.5C17 3.11929 15.8807 2 14.5 2C13.1193 2 12 3.11929 12 4.5C12 5.88071 13.1193 7 14.5 7Z" stroke="#3C5DF2" stroke-width="2" stroke-linecap="round" stroke-linejoin="round"/>
<path d="M12 6L7 9" stroke="#3C5DF2" stroke-width="2" stroke-linecap="round" stroke-linejoin="round"/>
<path d="M7 11L12 14" stroke="#3C5DF2" stroke-width="2" stroke-linecap="round" stroke-linejoin="round"/>
</svg>
