<svg width="193" height="133" viewBox="0 0 193 133" fill="none" xmlns="http://www.w3.org/2000/svg">
<path d="M149.602 23.9619C139.211 30.8304 134.328 46.3684 129.896 53.1003C126.454 58.3417 123.485 62.8628 118.774 65.5829C113.912 68.3899 109.695 66.8001 103.026 61.7822C101.542 60.6519 88.5052 50.492 77.4691 57.6338C72.3921 60.9376 68.9715 68.7004 68.111 94.3362L54.73 76.3017C44.9417 63.0988 10.6932 64.0924 4.71266 79.6428L0.840346 91.0448C0.259499 92.5477 1.91599 94.0505 4.54055 94.3983L14.0492 95.6155C16.6738 95.9633 19.2769 95.0069 19.8577 93.4792L23.9667 81.4438C25.408 77.7052 34.2713 77.2829 36.8313 80.7482L68.5413 123.45C70.7141 126.393 78.5663 128.567 84.3747 125.213C86.1603 124.183 87.236 122.767 87.2144 121.239C87.2144 110.756 88.075 83.3068 90.5274 70.6877C96.1853 74.5007 102.747 78.2641 112.987 78.5374C119.892 78.7237 126.454 77.0469 132.521 73.5444C140.179 69.1227 144.008 63.2851 148.074 57.1121C151.99 51.1751 155.905 37.0407 163.693 31.7496C165.371 30.6069 165.392 28.955 163.564 27.8992L156.658 23.9123C154.743 22.7572 151.43 22.7571 149.602 23.9619Z" fill="#4663E6"/>
</svg>
