<svg width="420" height="400" viewBox="0 0 420 400" fill="none" xmlns="http://www.w3.org/2000/svg">
<g clip-path="url(#clip0_3963_27946)">
<g filter="url(#filter0_d_3963_27946)">
<g clip-path="url(#clip1_3963_27946)">
<rect width="835.641" height="99.2922" rx="11.6519" transform="matrix(0.988247 -0.152869 0.421004 0.907059 44 47.7432)" fill="#C8E1E0"/>
<rect width="1628.35" height="48.2698" transform="matrix(0.988247 -0.152869 0.421004 0.907059 44 47.7432)" fill="#0B8A65"/>
<mask id="path-3-inside-1_3963_27946" fill="white">
<path d="M327.797 50.7695L626.66 4.53933L648.005 50.5277L349.142 96.7579L327.797 50.7695Z"/>
</mask>
<path d="M352.021 96.3126L330.676 50.3242L324.918 51.2148L346.263 97.2032L352.021 96.3126Z" fill="#0B8A65" mask="url(#path-3-inside-1_3963_27946)"/>
</g>
<rect x="2.05255" y="1.09847" width="832.728" height="96.3792" rx="10.1954" transform="matrix(0.988247 -0.152869 0.421004 0.907059 43.5617 48.159)" stroke="#0A8561" stroke-width="2.91297"/>
<path d="M47.9006 90.1725L47.9006 56.4777V53.8037C47.9006 53.8037 47.9934 55.2991 48.0826 55.7836C48.1719 56.2681 48.3444 56.8191 48.4012 57.0467C48.4581 57.2742 48.6443 57.7212 48.7881 58.048C48.9319 58.3748 49.3233 59.2084 49.3233 59.2084L81.5704 128.505V164.804L48.5914 93.9193C48.333 93.222 48.2306 92.7214 48.0596 91.984L47.9575 91.1397C47.8554 90.2955 47.9006 90.1725 47.9006 90.1725Z" fill="#045B42"/>
<path d="M81.5391 164.676V128.446C81.5391 128.446 83.4511 130.877 84.1804 131.564C84.9096 132.251 85.8989 133.025 86.752 133.578C87.605 134.131 88.1975 134.41 89.096 134.807C89.9945 135.204 90.4718 135.36 91.4173 135.615C92.3627 135.87 93.4053 136.068 94.1709 136.138C94.9366 136.209 96.4901 136.138 96.4901 136.138V172.364C96.4901 172.364 95.238 172.537 93.7874 172.364C92.3368 172.19 91.9664 172.076 90.8546 171.731C89.7429 171.386 90.0782 171.483 88.6695 170.811C87.2608 170.139 86.5651 169.792 85.5067 169.086C84.4484 168.38 84.3694 168.233 83.034 166.843C81.6986 165.453 81.5391 164.676 81.5391 164.676Z" fill="url(#paint0_linear_3963_27946)"/>
<path d="M900.83 47.8635V20.9029V11.6562L96.453 136.151L96.4492 172.369L900.83 47.8635Z" fill="#19C090"/>
</g>
<g filter="url(#filter1_d_3963_27946)">
<g clip-path="url(#clip2_3963_27946)">
<rect width="453.584" height="99.2922" rx="11.6519" transform="matrix(0.988247 -0.152869 0.421004 0.907059 241 154.339)" fill="#F2EBD1"/>
<rect width="1628.35" height="46.6075" transform="matrix(0.988247 -0.152869 0.421004 0.907059 241 154.339)" fill="#EABF16"/>
</g>
<rect x="2.05255" y="1.09847" width="450.671" height="96.3792" rx="10.1954" transform="matrix(0.988247 -0.152869 0.421004 0.907059 240.562 154.755)" stroke="#EABF16" stroke-width="2.91297"/>
<path d="M244.901 196.762L244.901 163.068V160.394C244.901 160.394 244.993 161.889 245.083 162.373C245.172 162.858 245.344 163.409 245.401 163.637C245.458 163.864 245.644 164.311 245.788 164.638C245.932 164.965 246.323 165.798 246.323 165.798L278.57 235.095V271.394L245.591 200.509C245.333 199.812 245.231 199.311 245.06 198.574L244.957 197.73C244.855 196.885 244.901 196.762 244.901 196.762Z" fill="#C09B06"/>
<path d="M278.539 271.268V235.038C278.539 235.038 280.451 237.469 281.18 238.156C281.91 238.843 282.899 239.617 283.752 240.17C284.605 240.723 285.198 241.002 286.096 241.399C286.994 241.796 287.472 241.952 288.417 242.207C289.363 242.462 290.405 242.66 291.171 242.73C291.937 242.8 293.49 242.73 293.49 242.73V278.955C293.49 278.955 292.238 279.129 290.787 278.955C289.337 278.782 288.966 278.668 287.855 278.323C286.743 277.978 287.078 278.075 285.669 277.403C284.261 276.731 283.565 276.384 282.507 275.678C281.448 274.971 281.369 274.825 280.034 273.435C278.699 272.045 278.539 271.268 278.539 271.268Z" fill="url(#paint1_linear_3963_27946)"/>
<path d="M720.273 212.823V197.246V176.701L293.453 242.742L293.449 278.96L720.273 212.823Z" fill="#F5E4A0"/>
</g>
<g filter="url(#filter2_d_3963_27946)">
<g clip-path="url(#clip3_3963_27946)">
<rect width="488.732" height="99.2922" rx="11.6519" transform="matrix(0.988247 -0.152869 0.421004 0.907059 17 261.712)" fill="#F4DFD1"/>
<rect width="1628.35" height="46.6075" transform="matrix(0.988247 -0.152869 0.421004 0.907059 17 261.712)" fill="#F18015"/>
<mask id="path-15-inside-2_3963_27946" fill="white">
<path d="M193.828 279.67L362.403 253.594L383.748 299.582L215.173 325.658L193.828 279.67Z"/>
</mask>
<path d="M218.052 325.213L196.707 279.225L190.949 280.115L212.295 326.104L218.052 325.213Z" fill="#F18015" mask="url(#path-15-inside-2_3963_27946)"/>
<mask id="path-17-inside-3_3963_27946" fill="white">
<path d="M385.434 250.031L519.61 229.276L541.339 276.091L407.162 296.846L385.434 250.031Z"/>
</mask>
<path d="M410.041 296.401L388.312 249.586L382.555 250.477L404.284 297.292L410.041 296.401Z" fill="#F18015" mask="url(#path-17-inside-3_3963_27946)"/>
</g>
<rect x="2.05255" y="1.09847" width="485.819" height="96.3792" rx="10.1954" transform="matrix(0.988247 -0.152869 0.421004 0.907059 16.5617 262.128)" stroke="#F18015" stroke-width="2.91297"/>
<path d="M20.885 304.133L20.885 270.439V267.765C20.885 267.765 20.9778 269.26 21.067 269.745C21.1563 270.229 21.3287 270.78 21.3856 271.008C21.4425 271.235 21.6287 271.682 21.7725 272.009C21.9163 272.336 22.3077 273.169 22.3077 273.169L54.5548 342.466V378.765L21.5758 307.88C21.3174 307.183 21.215 306.682 21.044 305.945L20.9419 305.101C20.8397 304.256 20.885 304.133 20.885 304.133Z" fill="#B05B0B"/>
<path d="M54.5391 378.641V342.411C54.5391 342.411 56.4511 344.842 57.1804 345.529C57.9096 346.216 58.8989 346.99 59.752 347.543C60.605 348.096 61.1975 348.375 62.096 348.772C62.9945 349.169 63.4718 349.325 64.4173 349.58C65.3627 349.835 66.4053 350.033 67.1709 350.103C67.9366 350.173 69.4901 350.103 69.4901 350.103V386.328C69.4901 386.328 68.238 386.502 66.7874 386.328C65.3368 386.155 64.9664 386.041 63.8546 385.696C62.7429 385.351 63.0782 385.448 61.6695 384.776C60.2608 384.104 59.5651 383.757 58.5067 383.051C57.4484 382.344 57.3694 382.198 56.034 380.808C54.6986 379.418 54.5391 378.641 54.5391 378.641Z" fill="url(#paint2_linear_3963_27946)"/>
<path d="M530.939 314.878V301.612V278.702L69.453 350.111L69.4492 386.33L530.939 314.878Z" fill="#F5B374"/>
</g>
<g filter="url(#filter3_d_3963_27946)">
<g clip-path="url(#clip4_3963_27946)">
<rect width="230.117" height="99.2922" rx="11.6519" transform="matrix(0.988247 -0.152869 0.421004 0.907059 209 303.178)" fill="#F1D6D8"/>
<rect width="1628.35" height="46.6075" transform="matrix(0.988247 -0.152869 0.421004 0.907059 209 303.178)" fill="#E44F38"/>
<mask id="path-24-inside-4_3963_27946" fill="white">
<path d="M353.844 326.083L456.035 310.275L477.764 357.09L375.573 372.898L353.844 326.083Z"/>
</mask>
<path d="M378.451 372.453L356.722 325.638L350.965 326.528L372.694 373.343L378.451 372.453Z" fill="#E44F38" mask="url(#path-24-inside-4_3963_27946)"/>
</g>
<rect x="2.05255" y="1.09847" width="227.204" height="96.3792" rx="10.1954" transform="matrix(0.988247 -0.152869 0.421004 0.907059 208.562 303.594)" stroke="#E44F38" stroke-width="2.91297"/>
<path d="M212.893 345.601L212.893 311.906V309.232C212.893 309.232 212.986 310.728 213.075 311.212C213.164 311.697 213.337 312.248 213.393 312.475C213.45 312.703 213.637 313.15 213.78 313.477C213.924 313.804 214.316 314.637 214.316 314.637L246.563 383.934V420.232L213.584 349.348C213.325 348.651 213.223 348.15 213.052 347.413L212.95 346.568C212.848 345.724 212.893 345.601 212.893 345.601Z" fill="#972919"/>
<path d="M246.539 420.107V383.877C246.539 383.877 248.451 386.308 249.18 386.995C249.91 387.682 250.899 388.456 251.752 389.009C252.605 389.562 253.198 389.841 254.096 390.238C254.994 390.635 255.472 390.791 256.417 391.046C257.363 391.301 258.405 391.499 259.171 391.569C259.937 391.639 261.49 391.569 261.49 391.569V427.794C261.49 427.794 260.238 427.968 258.787 427.794C257.337 427.621 256.966 427.506 255.855 427.162C254.743 426.817 255.078 426.914 253.669 426.242C252.261 425.57 251.565 425.223 250.507 424.517C249.448 423.81 249.369 423.664 248.034 422.274C246.699 420.884 246.539 420.107 246.539 420.107Z" fill="url(#paint3_linear_3963_27946)"/>
<path d="M467.399 395.855V370.693V359.693L261.453 391.584L261.449 427.802L467.399 395.855Z" fill="#E09387"/>
</g>
</g>
<defs>
<filter id="filter0_d_3963_27946" x="22.7353" y="-80.8739" width="910.15" height="294.97" filterUnits="userSpaceOnUse" color-interpolation-filters="sRGB">
<feFlood flood-opacity="0" result="BackgroundImageFix"/>
<feColorMatrix in="SourceAlpha" type="matrix" values="0 0 0 0 0 0 0 0 0 0 0 0 0 0 0 0 0 0 127 0" result="hardAlpha"/>
<feOffset dy="20.3908"/>
<feGaussianBlur stdDeviation="10.6323"/>
<feComposite in2="hardAlpha" operator="out"/>
<feColorMatrix type="matrix" values="0 0 0 0 0 0 0 0 0 0 0 0 0 0 0 0 0 0 0.25 0"/>
<feBlend mode="normal" in2="BackgroundImageFix" result="effect1_dropShadow_3963_27946"/>
<feBlend mode="normal" in="SourceGraphic" in2="effect1_dropShadow_3963_27946" result="shape"/>
</filter>
<filter id="filter1_d_3963_27946" x="219.735" y="84.1261" width="532.584" height="236.562" filterUnits="userSpaceOnUse" color-interpolation-filters="sRGB">
<feFlood flood-opacity="0" result="BackgroundImageFix"/>
<feColorMatrix in="SourceAlpha" type="matrix" values="0 0 0 0 0 0 0 0 0 0 0 0 0 0 0 0 0 0 127 0" result="hardAlpha"/>
<feOffset dy="20.3908"/>
<feGaussianBlur stdDeviation="10.6323"/>
<feComposite in2="hardAlpha" operator="out"/>
<feColorMatrix type="matrix" values="0 0 0 0 0 0 0 0 0 0 0 0 0 0 0 0 0 0 0.25 0"/>
<feBlend mode="normal" in2="BackgroundImageFix" result="effect1_dropShadow_3963_27946"/>
<feBlend mode="normal" in="SourceGraphic" in2="effect1_dropShadow_3963_27946" result="shape"/>
</filter>
<filter id="filter2_d_3963_27946" x="-4.26467" y="186.126" width="567.318" height="241.935" filterUnits="userSpaceOnUse" color-interpolation-filters="sRGB">
<feFlood flood-opacity="0" result="BackgroundImageFix"/>
<feColorMatrix in="SourceAlpha" type="matrix" values="0 0 0 0 0 0 0 0 0 0 0 0 0 0 0 0 0 0 127 0" result="hardAlpha"/>
<feOffset dy="20.3908"/>
<feGaussianBlur stdDeviation="10.6323"/>
<feComposite in2="hardAlpha" operator="out"/>
<feColorMatrix type="matrix" values="0 0 0 0 0 0 0 0 0 0 0 0 0 0 0 0 0 0 0.25 0"/>
<feBlend mode="normal" in2="BackgroundImageFix" result="effect1_dropShadow_3963_27946"/>
<feBlend mode="normal" in="SourceGraphic" in2="effect1_dropShadow_3963_27946" result="shape"/>
</filter>
<filter id="filter3_d_3963_27946" x="187.735" y="267.126" width="311.744" height="202.4" filterUnits="userSpaceOnUse" color-interpolation-filters="sRGB">
<feFlood flood-opacity="0" result="BackgroundImageFix"/>
<feColorMatrix in="SourceAlpha" type="matrix" values="0 0 0 0 0 0 0 0 0 0 0 0 0 0 0 0 0 0 127 0" result="hardAlpha"/>
<feOffset dy="20.3908"/>
<feGaussianBlur stdDeviation="10.6323"/>
<feComposite in2="hardAlpha" operator="out"/>
<feColorMatrix type="matrix" values="0 0 0 0 0 0 0 0 0 0 0 0 0 0 0 0 0 0 0.25 0"/>
<feBlend mode="normal" in2="BackgroundImageFix" result="effect1_dropShadow_3963_27946"/>
<feBlend mode="normal" in="SourceGraphic" in2="effect1_dropShadow_3963_27946" result="shape"/>
</filter>
<linearGradient id="paint0_linear_3963_27946" x1="81.5391" y1="141.442" x2="96.4901" y2="141.892" gradientUnits="userSpaceOnUse">
<stop stop-color="#045B42"/>
<stop offset="1" stop-color="#19C090"/>
</linearGradient>
<linearGradient id="paint1_linear_3963_27946" x1="278.539" y1="248.034" x2="293.49" y2="248.484" gradientUnits="userSpaceOnUse">
<stop stop-color="#C09B06"/>
<stop offset="1" stop-color="#F5E4A0"/>
</linearGradient>
<linearGradient id="paint2_linear_3963_27946" x1="54.5391" y1="355.407" x2="69.4901" y2="355.857" gradientUnits="userSpaceOnUse">
<stop stop-color="#B05B0B"/>
<stop offset="1" stop-color="#F5B374"/>
</linearGradient>
<linearGradient id="paint3_linear_3963_27946" x1="246.539" y1="396.873" x2="261.49" y2="397.323" gradientUnits="userSpaceOnUse">
<stop stop-color="#972919"/>
<stop offset="1" stop-color="#E09387"/>
</linearGradient>
<clipPath id="clip0_3963_27946">
<rect width="1089" height="553" fill="white" transform="translate(0 -117)"/>
</clipPath>
<clipPath id="clip1_3963_27946">
<rect width="835.641" height="99.2922" rx="11.6519" transform="matrix(0.988247 -0.152869 0.421004 0.907059 44 47.7432)" fill="white"/>
</clipPath>
<clipPath id="clip2_3963_27946">
<rect width="453.584" height="99.2922" rx="11.6519" transform="matrix(0.988247 -0.152869 0.421004 0.907059 241 154.339)" fill="white"/>
</clipPath>
<clipPath id="clip3_3963_27946">
<rect width="488.732" height="99.2922" rx="11.6519" transform="matrix(0.988247 -0.152869 0.421004 0.907059 17 261.712)" fill="white"/>
</clipPath>
<clipPath id="clip4_3963_27946">
<rect width="230.117" height="99.2922" rx="11.6519" transform="matrix(0.988247 -0.152869 0.421004 0.907059 209 303.178)" fill="white"/>
</clipPath>
</defs>
</svg>
