<svg
        width="162"
        height="32"
        viewBox="0 0 162 32"
        fill="none"
        xmlns="http://www.w3.org/2000/svg"
>
    <path
            d="M5 16C5 18.7734 5.85972 21.0077 7.37651 22.549L8.80199 21.1461C7.88199 20.211 7.22112 18.8424 7.04606 17H20.9539C20.7787 18.842 20.1173 20.2102 19.196 21.1455L20.6209 22.549C22.139 21.0077 23 18.7734 23 16C23 13.2265 22.1403 10.9923 20.6235 9.45102L19.1986 10.8545C20.1186 11.7896 20.779 13.1578 20.954 15H7.04611C7.22128 13.1584 7.88241 11.7904 8.80339 10.8551L7.37909 9.45102C5.86102 10.9923 5 13.2265 5 16Z"
            fill="currentColor" />
    <path
            fill-rule="evenodd"
            clip-rule="evenodd"
            d="M24.2992 26.1873C26.6606 23.7898 28 20.3143 28 16C28 11.6857 26.6626 8.2102 24.3032 5.81269C21.9418 3.41519 18.4659 2 14.0181 2C9.5502 2 6.06627 3.41311 3.7008 5.81269C1.33936 8.2102 0 11.6857 0 16C0 20.3143 1.33735 23.7898 3.69679 26.1873C6.05823 28.5848 9.53414 30 13.9819 30C18.4498 30 21.9357 28.5848 24.2992 26.1873ZM13.9819 28C9.96978 28 7.04274 26.7339 5.12227 24.7845C3.20031 22.8311 2 19.8962 2 16C2 12.1046 3.20121 9.17036 5.12511 7.21674C7.04795 5.26651 9.98277 4 14.0181 4C18.0302 4 20.9579 5.26672 22.8783 7.21615C24.8003 9.16947 26 12.1038 26 16C26 19.8958 24.7985 22.8302 22.8743 24.7838C20.9533 26.7322 18.017 28 13.9819 28Z"
            fill="currentColor" />
    <path
            d="M42.875 25V8.464H36.479V6.8H51.195V8.464H44.799V25H42.875ZM55.9847 14.938H65.6047V16.576H55.9847V14.938ZM56.1927 23.336H67.1387V25H54.2687V6.8H66.7487V8.464H56.1927V23.336ZM75.4573 25V8.464H69.0613V6.8H83.7773V8.464H77.3813V25H75.4573ZM81.4649 25L89.7849 6.8H91.6829L100.003 25H97.9749L90.3309 7.918H91.1109L83.4669 25H81.4649ZM84.7409 20.138L85.3129 18.578H95.8949L96.4669 20.138H84.7409ZM108.844 25.156C107.474 25.156 106.209 24.9307 105.048 24.48C103.886 24.012 102.881 23.362 102.032 22.53C101.182 21.698 100.515 20.7187 100.03 19.592C99.5617 18.4653 99.3277 17.2347 99.3277 15.9C99.3277 14.5653 99.5617 13.3347 100.03 12.208C100.515 11.0813 101.182 10.102 102.032 9.27C102.898 8.438 103.912 7.79667 105.074 7.346C106.235 6.878 107.5 6.644 108.87 6.644C110.187 6.644 111.426 6.86933 112.588 7.32C113.749 7.75333 114.728 8.412 115.526 9.296L114.304 10.518C113.558 9.75533 112.735 9.20933 111.834 8.88C110.932 8.53333 109.962 8.36 108.922 8.36C107.83 8.36 106.816 8.55067 105.88 8.932C104.944 9.296 104.129 9.82467 103.436 10.518C102.742 11.194 102.196 11.9913 101.798 12.91C101.416 13.8113 101.226 14.808 101.226 15.9C101.226 16.992 101.416 17.9973 101.798 18.916C102.196 19.8173 102.742 20.6147 103.436 21.308C104.129 21.984 104.944 22.5127 105.88 22.894C106.816 23.258 107.83 23.44 108.922 23.44C109.962 23.44 110.932 23.2667 111.834 22.92C112.735 22.5733 113.558 22.0187 114.304 21.256L115.526 22.478C114.728 23.362 113.749 24.0293 112.588 24.48C111.426 24.9307 110.178 25.156 108.844 25.156ZM126.942 25.156C125.573 25.156 124.299 24.9307 123.12 24.48C121.959 24.012 120.945 23.362 120.078 22.53C119.229 21.6807 118.562 20.7013 118.076 19.592C117.608 18.4653 117.374 17.2347 117.374 15.9C117.374 14.5653 117.608 13.3433 118.076 12.234C118.562 11.1073 119.229 10.128 120.078 9.296C120.945 8.44667 121.959 7.79667 123.12 7.346C124.282 6.878 125.556 6.644 126.942 6.644C128.312 6.644 129.577 6.878 130.738 7.346C131.9 7.79667 132.905 8.438 133.754 9.27C134.621 10.102 135.288 11.0813 135.756 12.208C136.242 13.3347 136.484 14.5653 136.484 15.9C136.484 17.2347 136.242 18.4653 135.756 19.592C135.288 20.7187 134.621 21.698 133.754 22.53C132.905 23.362 131.9 24.012 130.738 24.48C129.577 24.9307 128.312 25.156 126.942 25.156ZM126.942 23.44C128.034 23.44 129.04 23.258 129.958 22.894C130.894 22.5127 131.7 21.984 132.376 21.308C133.07 20.6147 133.607 19.8173 133.988 18.916C134.37 17.9973 134.56 16.992 134.56 15.9C134.56 14.808 134.37 13.8113 133.988 12.91C133.607 11.9913 133.07 11.194 132.376 10.518C131.7 9.82467 130.894 9.296 129.958 8.932C129.04 8.55067 128.034 8.36 126.942 8.36C125.85 8.36 124.836 8.55067 123.9 8.932C122.964 9.296 122.15 9.82467 121.456 10.518C120.78 11.194 120.243 11.9913 119.844 12.91C119.463 13.8113 119.272 14.808 119.272 15.9C119.272 16.9747 119.463 17.9713 119.844 18.89C120.243 19.8087 120.78 20.6147 121.456 21.308C122.15 21.984 122.964 22.5127 123.9 22.894C124.836 23.258 125.85 23.44 126.942 23.44ZM139.757 25V6.8H141.343L149.663 20.996H148.831L157.073 6.8H158.659V25H156.813V9.686H157.255L149.663 22.686H148.753L141.109 9.686H141.603V25H139.757Z"
            fill="currentColor" />
</svg>
