<svg width="409" height="406" viewBox="0 0 409 406" fill="none" xmlns="http://www.w3.org/2000/svg">
<path d="M68.7903 388.176C69.3983 389.435 69.3983 389.435 68.7903 391.448C67.5475 392.952 64.8266 396.059 63.8861 396.46C62.7105 396.961 57.9905 401.222 56.6804 401.973C55.3703 402.725 56.6804 404.229 56.6804 404.479C56.6804 404.73 56.0253 405.231 54.0601 405.482C52.0949 405.732 51.4399 407.487 50.7848 407.737C50.1297 407.988 52.75 408.489 54.0601 408.99C55.3703 409.492 60.2786 411.246 60.2786 411.747L60.2786 413L415 413L415 -1.99999L63.0383 -1.99997C63.0143 -1.52137 63.0143 -1.0582 63.0143 -0.650149C63.0143 0.859891 64.8383 2.11819 64.8383 2.8732C64.8383 3.6282 63.6223 6.14489 63.0143 7.15158C62.4063 8.15826 63.0143 8.40991 63.6223 9.41659C64.2303 10.4233 65.1422 10.9266 66.0542 11.4299C66.9662 11.9333 70.9181 11.9332 74.87 12.1849C78.8219 12.4366 83.0778 12.6883 84.9017 12.9399C86.7257 13.1916 102.837 14.7016 101.925 14.7016C101.013 14.7016 97.3654 14.9533 94.3255 15.2049C91.2856 15.4566 84.5977 15.9599 77.9099 16.7149L76.7972 16.8404L76.7959 16.8406C70.9459 17.4998 68.7201 17.7506 67.5742 18.2249C66.3582 18.7283 63.0143 19.7349 61.7983 20.2383C60.5824 20.7416 59.6704 21.7483 59.6704 22.5033C59.6704 23.2583 60.2784 25.2716 60.5824 26.5299C60.8864 27.7883 60.8863 27.7883 61.4943 28.5433C62.1023 29.2983 65.7502 30.8083 66.6622 31.3117C67.5742 31.815 68.1822 32.57 68.1822 33.0733C68.1822 33.5767 69.7021 34.08 69.7021 34.5833C69.7021 35.0867 72.438 36.3451 72.742 37.1001C73.046 37.855 71.8301 38.61 70.9181 39.1134C70.0061 39.6167 67.5742 40.6233 67.5742 41.63C67.5742 42.6367 71.5261 43.6434 71.8301 44.3984C72.1341 45.1534 70.3101 46.1601 69.7021 47.1667C69.0941 48.1734 71.8301 49.1801 72.438 50.4384C73.046 51.6967 71.8301 51.4451 70.9181 51.9484C70.0061 52.4517 68.1822 54.4651 68.1822 55.2201C68.1822 55.9751 75.478 59.2468 75.478 60.5052C75.478 61.7635 71.8301 63.7768 70.9181 64.5318C70.0061 65.2868 68.1822 66.0418 68.1822 67.0485C68.1822 68.0551 68.7902 68.8102 68.7902 69.8168C68.7902 70.8235 68.1822 71.3268 70.3101 71.5785C72.438 71.8301 80.0378 72.3335 83.6858 72.5851C87.3337 72.8368 96.7574 73.0885 101.013 73.0885C105.269 73.0885 137.796 74.5985 142.356 74.8502C146.916 75.1018 161.812 75.3535 163.94 75.8569C166.068 76.3602 165.764 76.1085 166.068 77.1152C166.372 78.1218 158.164 78.3735 154.516 78.6252C150.868 78.8768 117.733 81.3935 115.301 81.8968C112.869 82.4002 94.9336 83.1552 93.4136 83.4069C91.8936 83.6585 91.5896 84.4135 89.1577 84.9169C86.7258 85.4202 60.2785 86.9302 58.4545 87.1819C56.6306 87.4335 43.8629 88.1885 41.7349 88.4402C40.0326 88.6416 35.9591 89.5308 34.1351 89.9502C34.8445 90.4535 36.3847 91.5609 36.8711 91.9636L39.911 94.4802C36.9724 94.648 30.6088 95.0339 28.6633 95.2352C26.2313 95.4869 15.5916 96.2419 13.4637 96.4936C11.7613 96.6949 4.44523 98.0875 0.999986 98.7586C7.38382 99.5975 20.7595 101.376 23.1914 101.779C26.2313 102.282 45.3828 103.289 48.4228 103.289C51.4627 103.289 65.4463 103.792 68.7902 103.792C72.1342 103.792 108.917 105.05 111.045 105.302C112.747 105.503 124.319 106.393 129.893 106.812C124.725 107.315 113.963 108.322 112.261 108.322C110.133 108.322 94.6296 109.58 90.3737 110.335C86.1178 111.09 85.2058 112.349 85.8138 113.355C86.4218 114.362 89.4617 114.614 90.3737 114.614C91.2857 114.614 96.7575 115.62 98.8855 116.124C100.588 116.526 102.229 117.13 102.837 117.382C98.0748 117.801 87.8809 118.741 85.2058 119.144C82.5307 119.546 71.3235 121.157 66.0543 121.912C66.561 122.499 67.6351 123.875 67.8783 124.68C68.1214 125.486 67.1689 127.029 66.6623 127.7C67.2703 128.12 68.6686 129.11 69.3982 129.714C70.1278 130.318 71.1208 131.811 71.5262 132.482C70.8169 133.069 69.3982 134.344 69.3982 134.747C69.3982 135.15 72.4381 137.767 73.9581 139.025C74.1608 139.948 74.9309 142.096 76.39 143.304C77.8492 144.512 87.9417 146.659 92.8056 147.582C91.5896 148.169 88.7321 149.495 87.0298 150.099C84.9018 150.854 83.0779 151.86 82.7739 152.615C82.4699 153.37 84.9018 155.384 84.9018 156.642C84.9018 157.9 81.8619 160.417 81.8619 161.172C81.8619 161.927 84.9018 163.941 84.9018 164.947C84.9018 165.954 81.254 168.471 80.9499 169.477C80.6459 170.484 82.1659 171.491 81.8619 172.497C81.5579 173.504 81.254 175.517 81.8619 177.027C82.4698 178.537 84.2939 180.299 84.2939 181.054C84.2939 181.809 80.6459 182.061 78.822 182.564C76.998 183.067 63.0144 184.829 61.4944 185.081C59.9745 185.332 53.2866 187.346 53.8946 187.597C54.5026 187.849 66.0543 191.372 66.9663 191.876C67.8783 192.379 67.2703 193.134 67.8783 194.392C68.4862 195.651 70.9183 196.657 72.4381 197.916C73.958 199.174 86.1179 201.439 86.7258 202.446C87.3338 203.452 84.2939 205.214 84.2939 205.969C84.2939 206.724 86.1179 208.486 85.5099 209.744C84.9019 211.002 83.3819 211.757 81.254 212.764C79.5516 213.569 73.6542 215.113 70.9183 215.784C70.5129 216.455 69.5807 218.049 69.0943 219.056C68.4863 220.314 63.0145 222.831 63.6225 223.586C64.1088 224.19 70.7156 226.354 73.9582 227.361C71.2223 228.367 65.8112 230.683 66.0544 231.891C66.2976 233.099 72.6409 234.911 75.7821 235.666C74.3635 236.253 70.9183 237.528 68.4863 237.931C66.0544 238.333 63.4198 240.112 62.4065 240.951C64.3318 241.706 68.4863 243.417 69.7023 244.222C70.9183 245.028 76.2888 247.075 78.8221 247.998L71.5262 251.018C70.3103 251.521 70.0063 254.038 69.7023 255.296C69.3983 256.554 71.8302 257.058 71.5262 258.568C71.2223 260.078 64.5344 264.104 64.8384 264.859C65.1424 265.614 66.0544 266.369 66.6624 266.873C67.2703 267.376 67.2703 267.628 68.1823 268.886C69.0943 270.144 70.6143 271.403 70.6143 272.661C70.6143 273.668 68.385 275.597 67.2703 276.436C68.1823 277.359 70.1279 279.456 70.6143 280.463C71.2223 281.721 67.5743 285.999 67.2703 287.258C66.9664 288.516 69.0943 290.529 69.0943 291.284C69.0943 292.039 64.2304 295.059 64.2304 295.814C64.2304 296.569 65.4464 298.079 64.2304 300.093C63.0145 302.106 59.9321 304.623 59.9321 305.629C59.9321 306.636 66.6624 310.411 66.6624 312.424C66.6624 314.438 61.7985 317.709 61.4945 318.968C61.1905 320.226 63.6224 321.233 64.8384 322.239C66.0544 323.246 66.9664 324.504 67.8783 326.014C68.7903 327.524 66.9664 327.776 66.6624 328.783C66.3584 329.789 65.4464 331.299 66.0544 333.313C66.6624 335.326 69.0943 334.823 69.0943 336.333C69.0943 337.843 68.1823 337.843 67.8783 338.598C67.5743 339.353 68.1823 340.863 68.1823 342.373C68.1823 343.883 66.0544 342.876 66.0544 344.135C66.0544 345.393 70.9183 350.93 70.0063 352.943C69.0944 354.956 63.9265 356.215 63.6225 357.221C63.3185 358.228 65.7504 359.738 66.0544 360.996C66.3584 362.255 66.3584 363.513 66.9664 365.275C67.5743 367.036 68.7904 369.05 69.7023 370.56C70.6142 372.07 71.2223 372.825 71.5263 374.083C71.8303 375.341 71.2223 375.341 70.0063 377.606C68.7903 379.871 60.2786 381.885 60.2786 382.388C60.2786 382.891 61.7985 383.898 62.7105 384.653C63.6225 385.408 68.1824 386.918 68.7903 388.176Z" fill="white" fill-opacity="0.2" stroke="white" stroke-width="0.973171"/>
</svg>
