<svg width="44" height="44" viewBox="0 0 44 44" fill="none" xmlns="http://www.w3.org/2000/svg">
<rect width="44" height="44" rx="22" fill="#3C5DF2"/>
<path fill-rule="evenodd" clip-rule="evenodd" d="M16.1585 16.8628L27.9384 12.8022L27.937 12.8021L9.99988 13.7461L10 13.7463L16.1585 16.8628Z" fill="white"/>
<path fill-rule="evenodd" clip-rule="evenodd" d="M16.3146 19.8554L10.8726 15.0957L10 13.7463L16.1584 16.8628L16.3146 19.8554Z" fill="url(#paint0_linear_831_21568)"/>
<path fill-rule="evenodd" clip-rule="evenodd" d="M25.7629 28.5618L28.1509 16.2869L28.1556 16.2836L33.9178 12.4891L33.918 12.4891L25.7629 28.5618Z" fill="url(#paint1_linear_831_21568)"/>
<path fill-rule="evenodd" clip-rule="evenodd" d="M33.918 12.4893L28.1512 16.2869L25.4918 14.9261L32.3173 12.5733L33.9179 12.4891L33.9181 12.4892L33.918 12.4893Z" fill="white"/>
<path fill-rule="evenodd" clip-rule="evenodd" d="M13.2597 18.7892L22.6513 27.0034L22.6518 27.0089L23.043 33.9171L23.0428 33.9174L13.2597 18.7892Z" fill="white"/>
<path fill-rule="evenodd" clip-rule="evenodd" d="M25.154 25.3715L23.7703 32.484L23.0428 33.9177L22.6513 27.0037L25.154 25.3715Z" fill="url(#paint2_linear_831_21568)"/>
<defs>
<linearGradient id="paint0_linear_831_21568" x1="12.6525" y1="17.4859" x2="13.778" y2="15.9003" gradientUnits="userSpaceOnUse">
<stop stop-color="white"/>
<stop offset="1" stop-color="#B0CCFD"/>
</linearGradient>
<linearGradient id="paint1_linear_831_21568" x1="30.618" y1="15.0048" x2="29.7834" y2="28.4231" gradientUnits="userSpaceOnUse">
<stop stop-color="#92B1E8"/>
<stop offset="1" stop-color="white"/>
</linearGradient>
<linearGradient id="paint2_linear_831_21568" x1="25.1965" y1="31.0244" x2="22.4988" y2="27.0735" gradientUnits="userSpaceOnUse">
<stop stop-color="white"/>
<stop offset="1" stop-color="#C3D9FF"/>
</linearGradient>
</defs>
</svg>
