<svg
  width="44"
  height="44"
  viewBox="0 0 44 44"
  fill="none"
  xmlns="http://www.w3.org/2000/svg"
>
  <rect width="44" height="44" rx="22" fill="#3C5DF2" />
  <path
    d="M13 14.5C13 13.6716 13.6716 13 14.5 13H29.5C30.3284 13 31 13.6716 31 14.5V29.5C31 30.3284 30.3284 31 29.5 31H14.5C13.6716 31 13 30.3284 13 29.5V14.5Z"
    fill="white"
  />
  <path d="M16 18H28V21H16V18Z" fill="url(#paint0_linear_846_2)" />
  <path d="M16 24H20V28H16V24Z" fill="url(#paint1_linear_846_2)" />
  <path d="M23 24H28V28H23V24Z" fill="url(#paint2_linear_846_2)" />
  <path d="M18 11H20V16H18V11Z" fill="white" />
  <path d="M24 11H26V16H24V11Z" fill="white" />
  <defs>
    <linearGradient
      id="paint0_linear_846_2"
      x1="22"
      y1="21"
      x2="22"
      y2="18"
      gradientUnits="userSpaceOnUse"
    >
      <stop stop-color="#89B2FB" />
      <stop offset="1" stop-color="#CADDFF" />
    </linearGradient>
    <linearGradient
      id="paint1_linear_846_2"
      x1="18"
      y1="28"
      x2="18"
      y2="24"
      gradientUnits="userSpaceOnUse"
    >
      <stop stop-color="#89B2FB" />
      <stop offset="1" stop-color="#CADDFF" />
    </linearGradient>
    <linearGradient
      id="paint2_linear_846_2"
      x1="25.5"
      y1="28"
      x2="25.5"
      y2="24"
      gradientUnits="userSpaceOnUse"
    >
      <stop stop-color="#89B2FB" />
      <stop offset="1" stop-color="#CADDFF" />
    </linearGradient>
  </defs>
</svg>
