<svg width="164" height="32" viewBox="0 0 164 32" fill="none" xmlns="http://www.w3.org/2000/svg">
<path d="M5 16C5 18.7734 5.85972 21.0077 7.37651 22.549L8.80199 21.1461C7.88199 20.211 7.22112 18.8424 7.04606 17H20.9539C20.7787 18.842 20.1173 20.2102 19.196 21.1455L20.6209 22.549C22.139 21.0077 23 18.7734 23 16C23 13.2265 22.1403 10.9923 20.6235 9.45102L19.1986 10.8545C20.1186 11.7896 20.779 13.1578 20.954 15H7.04611C7.22128 13.1584 7.88241 11.7904 8.80339 10.8551L7.37909 9.45102C5.86102 10.9923 5 13.2265 5 16Z" fill="black"/>
<path fill-rule="evenodd" clip-rule="evenodd" d="M24.2992 26.1873C26.6606 23.7898 28 20.3143 28 16C28 11.6857 26.6626 8.2102 24.3032 5.81269C21.9418 3.41519 18.4659 2 14.0181 2C9.5502 2 6.06627 3.41311 3.7008 5.81269C1.33936 8.2102 0 11.6857 0 16C0 20.3143 1.33735 23.7898 3.69679 26.1873C6.05823 28.5848 9.53414 30 13.9819 30C18.4498 30 21.9357 28.5848 24.2992 26.1873ZM13.9819 28C9.96978 28 7.04274 26.7339 5.12227 24.7845C3.20031 22.8311 2 19.8962 2 16C2 12.1046 3.20121 9.17036 5.12511 7.21674C7.04795 5.26651 9.98277 4 14.0181 4C18.0302 4 20.9579 5.26672 22.8783 7.21615C24.8003 9.16947 26 12.1038 26 16C26 19.8958 24.7985 22.8302 22.8743 24.7838C20.9533 26.7322 18.017 28 13.9819 28Z" fill="black"/>
<path d="M36.7403 7.29492H50.5147V9.89746H45.0557V25.5H42.1993V9.89746H36.7403V7.29492ZM56.5069 22.8975H66.7774V25.5H53.6504V7.29492H66.5235V9.89746H56.5069V14.709H64.4414V17.3115H56.5069V22.8975ZM68.8655 7.29492H82.6399V9.89746H77.1809V25.5H74.3245V9.89746H68.8655V7.29492ZM82.1336 25.5L89.6746 7.29492H92.5311L100.072 25.5H97.0887L95.1336 20.6885H87.0721L85.117 25.5H82.1336ZM91.1092 10.5449L88.1131 18.0859H94.0926L91.1092 10.5449ZM109.97 7.04102C110.892 7.04102 111.777 7.16374 112.623 7.40918C113.47 7.64616 114.168 7.93815 114.718 8.28516C115.277 8.63216 115.763 8.97493 116.178 9.31348C116.593 9.65202 116.897 9.94401 117.092 10.1895L117.371 10.5449L115.556 12.373C115.505 12.3053 115.429 12.2122 115.327 12.0938C115.234 11.9668 115.014 11.7425 114.667 11.4209C114.32 11.0993 113.948 10.8242 113.55 10.5957C113.152 10.3587 112.632 10.1429 111.988 9.94824C111.354 9.74512 110.681 9.64355 109.97 9.64355C108.083 9.64355 106.483 10.2995 105.171 11.6113C103.859 12.9147 103.203 14.5101 103.203 16.3975C103.203 18.2848 103.855 19.8844 105.158 21.1963C106.47 22.5081 108.074 23.1641 109.97 23.1641C110.681 23.1641 111.358 23.0667 112.001 22.8721C112.653 22.6689 113.19 22.4277 113.613 22.1484C114.045 21.8691 114.422 21.5941 114.743 21.3232C115.073 21.0439 115.319 20.807 115.48 20.6123L115.683 20.2949L117.511 22.123C117.443 22.2246 117.337 22.36 117.194 22.5293C117.058 22.6901 116.749 22.9779 116.267 23.3926C115.793 23.8073 115.285 24.1755 114.743 24.4971C114.21 24.8187 113.508 25.1107 112.636 25.373C111.773 25.627 110.884 25.7539 109.97 25.7539C107.245 25.7539 104.959 24.8483 103.114 23.0371C101.269 21.2259 100.347 19.0127 100.347 16.3975C100.347 13.7822 101.269 11.569 103.114 9.75781C104.959 7.94661 107.245 7.04102 109.97 7.04102ZM124.652 11.6113C123.349 12.9147 122.697 14.5101 122.697 16.3975C122.697 18.2848 123.349 19.8844 124.652 21.1963C125.964 22.5081 127.564 23.1641 129.451 23.1641C131.347 23.1641 132.947 22.5081 134.25 21.1963C135.562 19.8844 136.218 18.2848 136.218 16.3975C136.218 14.5101 135.562 12.9147 134.25 11.6113C132.947 10.2995 131.347 9.64355 129.451 9.64355C127.564 9.64355 125.964 10.2995 124.652 11.6113ZM122.608 23.0371C120.763 21.2259 119.841 19.0127 119.841 16.3975C119.841 13.7822 120.763 11.569 122.608 9.75781C124.453 7.94661 126.734 7.04102 129.451 7.04102C132.176 7.04102 134.462 7.94661 136.307 9.75781C138.152 11.569 139.074 13.7822 139.074 16.3975C139.074 19.0127 138.152 21.2259 136.307 23.0371C134.462 24.8483 132.176 25.7539 129.451 25.7539C126.734 25.7539 124.453 24.8483 122.608 23.0371ZM151.694 16.1436L158.715 7.29492H161.19V25.5H158.334V12.2461L151.694 20.5615L145.067 12.2461V25.5H142.211V7.29492H144.674L151.694 16.1436Z" fill="black"/>
</svg>
