<svg width="62" height="64" viewBox="0 0 62 64" fill="none" xmlns="http://www.w3.org/2000/svg">
<path d="M30.8422 64C30.8422 64 33.5163 59.7337 35.4886 57C37.4609 54.2663 41 50 41 50H20C20 50 23.605 54.1817 25.7918 57C27.8569 59.6615 30.8422 64 30.8422 64Z" fill="#005FF9"/>
<path fill-rule="evenodd" clip-rule="evenodd" d="M30.6234 58C20.8818 58 13.2688 55.0685 8.09676 50.1023C2.92908 45.136 0 37.9367 0 29C0 20.0633 2.93348 12.864 8.10556 7.89772C13.2864 2.92716 20.917 0 30.7026 0C40.4442 0 48.0572 2.93147 53.2292 7.89772C58.3969 12.864 61.326 20.0633 61.326 29C61.326 37.9367 58.3925 45.136 53.2205 50.1023C48.044 55.0685 40.409 58 30.6234 58ZM30.6234 3.83247C22.6454 3.83247 16.1012 6.12591 11.5448 10.5748C6.98846 15.0238 4.6795 21.3739 4.6795 29.0043C4.6795 36.6304 6.98846 42.9848 11.558 47.4338C16.1231 51.8827 22.6894 54.1718 30.707 54.1718C38.7246 54.1718 45.2732 51.8568 49.8164 47.395C54.3595 42.9374 56.6465 36.583 56.6465 29C56.6465 21.3739 54.3375 15.0195 49.768 10.5705C45.2029 6.12591 38.6366 3.83247 30.6234 3.83247Z" fill="#005FF9"/>
<path d="M30.6234 3.83247C22.6454 3.83247 16.1012 6.12591 11.5448 10.5748C6.98846 15.0238 4.6795 21.3739 4.6795 29.0043C4.6795 36.6304 6.98846 42.9848 11.558 47.4338C16.1231 51.8827 22.6894 54.1718 30.707 54.1718C38.7246 54.1718 45.2732 51.8568 49.8164 47.395C54.3595 42.9374 56.6465 36.583 56.6465 29C56.6465 21.3739 54.3375 15.0195 49.768 10.5705C45.2029 6.12591 38.6366 3.83247 30.6234 3.83247Z" fill="#005FF9"/>
<path d="M16.3915 26.9655C16.629 24.159 17.3546 21.7707 18.6301 19.9256L15.0237 17.5244C12.7455 20.8094 11.9407 24.935 11.9407 29.1555C11.9407 33.3759 13.1853 37.1954 15.591 40.1657L19.0083 37.5101C17.4426 35.5745 16.475 33.031 16.3255 30.009H44.6576C44.5212 33.0957 43.6372 35.6478 42.1727 37.5489L45.6515 40.1226C47.9429 37.148 49.0336 33.3328 49.0336 29.1511C49.0336 24.935 48.1936 20.8051 45.9462 17.5244L42.331 19.9084C43.602 21.7578 44.3365 24.1633 44.5828 26.9525H16.3915V26.9655Z" fill="white"/>
</svg>
