<svg width="190" height="133" viewBox="0 0 190 133" fill="none" xmlns="http://www.w3.org/2000/svg">
<path d="M83.8585 109.911L47.7316 130.769C43.9376 128.578 41.1161 126.242 39.2671 123.761C37.4182 121.279 36.5177 118.999 36.5657 116.919C36.5897 114.826 36.8659 112.698 37.3942 110.535C37.8984 108.358 38.4867 106.424 39.1591 104.733C39.8314 103.014 40.0235 101.364 39.7354 99.7835C39.4472 98.1754 38.4267 96.8652 36.6738 95.8532C34.6087 94.6609 32.3395 94.0994 29.8662 94.1688C27.3929 94.2103 24.9797 94.9105 22.6264 96.2691C20.7535 97.3505 19.6609 98.5913 19.3487 99.9915C19.0606 101.378 19.2167 102.494 19.817 103.34L20.7895 104.566L7.17436 107.353C6.93424 107.104 6.64609 106.757 6.30991 106.313C5.97374 105.87 5.57753 104.975 5.12129 103.631C4.64104 102.272 4.48496 100.934 4.65305 99.6172C4.82113 98.3001 5.58954 96.7474 6.95825 94.959C8.32697 93.1428 10.356 91.4584 13.0454 89.9057C18.3042 86.8695 24.2233 85.296 30.8027 85.1851C37.4062 85.0603 43.0371 86.3427 47.6956 89.0323C50.3129 90.5434 52.1259 92.2417 53.1344 94.1272C54.1429 96.0126 54.4911 97.9189 54.1789 99.8459C53.8428 101.759 53.3505 103.638 52.7022 105.481C52.0538 107.298 51.5376 109.245 51.1534 111.325C50.7451 113.391 50.8292 115.186 51.4055 116.711L73.5211 103.943L83.8585 109.911Z" fill="#4968F3"/>
<path d="M104.272 76.415L110.179 73.0045L119.76 78.5361L113.853 81.9466L123.073 87.2702L112.016 93.6544L102.795 88.3308L78.446 102.389L67.3882 96.0043L58.5276 64.8943L71.4224 57.4495L104.272 76.415ZM93.2137 82.7992L73.2953 71.2993L79.2024 90.8886L93.2137 82.7992Z" fill="#4968F3"/>
<path d="M109.233 34.788L154.94 86.7559L145.72 92.0795L100.012 40.1116L109.233 34.788Z" fill="#4968F3"/>
<path d="M111.924 34.0657L147.331 13.6237L156.191 18.7394L178.703 55.1523L167.285 61.7444L145.53 26.1842L121.902 39.826L111.924 34.0657Z" fill="#4968F3"/>
</svg>
