<svg width="191" height="133" viewBox="0 0 191 133" fill="none" xmlns="http://www.w3.org/2000/svg">
<path d="M7.06341 79.9456L6.61803 80.2027C6.21266 80.4368 5.61569 80.5215 5.06861 80.4226C3.53295 80.1449 2.38138 81.2416 3.51798 81.8993L74.2341 122.819C82.8569 127.808 96.861 127.802 105.47 122.804L190.96 73.1812L185.5 76.2053C181.926 78.185 176.517 78.5651 172.224 77.1383C167.857 75.6868 162.347 76.1076 158.783 78.1648L148.715 83.978C147.798 84.5074 146.373 84.6059 145.265 84.2165L144.539 83.9611C143.857 83.7216 142.981 83.7822 142.417 84.1078L142.053 84.318C141.817 84.454 141.47 84.5024 141.153 84.4432C140.836 84.3841 140.488 84.4325 140.253 84.5684L139.572 84.9611C138.745 85.4387 137.45 85.5138 136.475 85.1408L133.54 84.0183C132.875 83.764 131.992 83.8153 131.428 84.1408L131.188 84.2799C130.861 84.4683 130.372 84.5268 129.943 84.4288C129.514 84.3307 129.024 84.3892 128.698 84.5776L127.913 85.0309C127.56 85.2344 127.033 85.2983 126.568 85.1936C126.104 85.089 125.576 85.1528 125.224 85.3563L124.336 85.8691C123.269 86.4851 121.599 86.583 120.339 86.1035L112.317 83.0497C110.15 82.2251 107.278 82.3935 105.443 83.4529L104.277 84.1266C103.108 84.8014 101.275 84.9045 99.9029 84.3726L98.5608 83.8526C97.9682 83.6229 97.177 83.6674 96.6723 83.9588L96.5805 84.0118C96.2403 84.2082 95.7382 84.2781 95.2804 84.1927C94.8226 84.1073 94.3205 84.1771 93.9803 84.3735L93.7241 84.5214C93.3193 84.7551 92.7145 84.8297 92.1796 84.7119C91.6447 84.5941 91.0399 84.6687 90.6351 84.9024L89.2873 85.6806C89.031 85.8285 88.6354 85.8598 88.3198 85.757C88.0041 85.6543 87.6085 85.6856 87.3523 85.8335L86.9251 86.0801C86.553 86.2949 85.9929 86.3586 85.5076 86.2411C85.0223 86.1237 84.4622 86.1873 84.0901 86.4021L83.5878 86.6921C82.7928 87.1511 81.5465 87.2215 80.6125 86.8601L73.9211 84.2715C73.4079 84.0729 72.7232 84.1116 72.2863 84.3638L72.1634 84.4348C71.8496 84.6159 71.3722 84.6633 70.9717 84.553C70.5712 84.4427 70.0938 84.4901 69.7801 84.6713L69.3719 84.9069C68.8954 85.182 68.1515 85.2285 67.5841 85.0187L67.4525 84.9701C66.9619 84.7887 66.3187 84.8289 65.9067 85.0668L65.8683 85.0889C65.5419 85.2774 65.0528 85.3359 64.6236 85.2378C64.1944 85.1397 63.7053 85.1982 63.3789 85.3867L62.8976 85.6646C62.1236 86.1114 60.8975 86.1606 60.024 85.7797L57.2657 84.5772C54.8107 83.5069 51.3649 83.6451 49.1897 84.9009L45.7679 86.8765C41.8124 89.1602 35.6139 89.513 30.9621 87.7193L10.3214 79.7601C9.29776 79.3654 7.9338 79.4431 7.06341 79.9456Z" fill="#4663E6"/>
<path d="M9.20703 69.1514L15.1652 70.0728L17.5752 68.6813L43.522 78.2623L56.5072 70.7653L63.7832 73.8447L65.9774 72.5778L67.2009 72.8274L68.3879 72.1421L70.049 72.7273L71.6677 71.7928L72.8193 72.0839L74.1143 71.3362L81.9493 74.2399L84.2513 72.9108L85.6383 73.2132L87.0051 72.424L87.9215 72.7038L90.1876 71.3955L91.7101 71.6931L93.077 70.9039L94.3725 71.1119L95.7753 70.302L99.8063 71.7986L105.669 68.4135L117.544 72.7356L120.601 70.9703L121.924 71.2359L123.687 70.2183L124.911 70.4678L126.529 69.5333L131.441 71.3305L133.743 70.0014L134.64 70.1455L136.222 69.2317L139.453 70.3078L155.819 60.8587L168.377 64.7862L179 58.8792" stroke="#768EFF" stroke-width="2"/>
<path d="M8 65.0576C8.66248 64.8822 12.1 64.5206 14.2339 64.5583C14.6727 64.305 16.0361 63.5179 16.6629 63.156L24.6612 67.0952L25.7973 66.4392L31.3865 69.078L32.1309 68.6483L34.0991 69.5132L34.3733 69.3548L40.1152 71.6294L40.9379 71.1544L42.2507 71.7767L51.4966 66.4385L52.8306 65.8064L58.9948 68.5962L59.8176 68.1212L60.135 68.214L61.4072 67.4104L62.7924 67.5768L64.3203 66.6947L66.1278 67.3763L67.3423 66.6751C67.5451 66.5811 68.1175 66.4622 68.7853 66.7392C68.942 66.6487 69.5819 66.2792 69.8822 66.1058L77.0133 68.8206L77.7185 68.4134L78.0153 68.4491L79.3081 67.7026L80.4974 67.9821L81.6727 67.3035C81.997 67.4154 82.7915 67.6237 83.3753 67.5627C83.6261 67.4179 84.2895 67.0349 84.5898 66.8615L85.8966 67.0731L87.8163 65.9648L91.0562 67.3377L91.4087 67.1341L94.1313 68.2536L94.4055 68.0953L98.0225 69.5954L98.4926 69.324L101.452 70.4446L101.726 70.2863L103.853 71.1976C104.038 71.2289 104.443 71.2575 104.583 71.1213C104.74 71.0308 105.667 70.4955 106.111 70.2391L107.496 70.4055L107.632 70.2579L108.088 70.34L109.89 69.2995L111.494 69.5468L113.257 68.5289L114.741 68.7072L117.522 67.1012L119.091 67.6449L119.287 67.5318L120.756 68.0635L122.637 66.9778L124.003 67.2239L126.119 66.0025L127.568 66.4771L127.725 66.3866L128.796 66.734L129.192 66.7815L129.788 66.9897L148.554 56.1551L150.398 56.6773L150.872 56.6796L151.726 56.946L154.076 55.5889L155.13 56.016L156.043 56.3169L156.337 56.2157L156.756 56.4573L157.168 56.2882L159.254 57.0852L159.648 56.9959L162.032 57.9655L162.424 57.7393L164.028 57.9866L166.052 58.6123L175.376 53.5769" stroke="#609AFF" stroke-width="2"/>
</svg>
