<svg width="268" height="172" viewBox="0 0 268 172" fill="none" xmlns="http://www.w3.org/2000/svg">
<path d="M79.0056 58.6668L78.8733 58.5665L47.5627 76.6437C43.3278 79.0887 43.3278 83.0529 47.5627 85.4979L127.367 131.573C131.602 134.018 138.468 134.018 142.703 131.573L178.863 110.696L178.633 110.652L182.353 108.328L185.147 106.538L188.891 104.2L193.892 101.136L200.557 97.1111L206.707 93.3836L211.338 90.5332L204.468 94.3234L182.557 106.797L179.516 108.376L177.346 109.452L178.077 108.854L179.635 107.778L179.482 107.689L177.91 108.42L175.817 109.452L174.431 110.075L172.58 110.968L172.427 110.879L172.246 110.807L173.234 110.06L173.829 109.54L174.89 108.751L176.434 107.683L178.551 106.284L181.968 104.134L192.383 97.945L211.681 86.6262L216.777 83.5075L194.4 96.2502L184.881 101.57L178.787 104.911L174.865 106.999L172.527 108.172L172.374 108.084L173.441 107.292L177.116 104.993L176.304 105.285L174.338 106.243L172.829 106.938L172.211 107.118L171.7 107.237L171.98 106.899L172.725 106.292L173.421 105.713L174.587 104.863L176.149 103.785L178.422 102.296L179.595 101.442L176.918 102.811L173.471 104.625L170.17 106.354L169.621 106.494L168.88 106.746L167.737 107.229L165.904 108.11L165.26 108.306L165.09 108.227L165.231 107.969L166.273 107.191L167.495 106.309L169.073 105.221L169.644 104.715L168.266 105.333L167.252 105.742L166.488 106.007L166.067 106.073L166.229 105.803L166.477 105.483L166.958 105.029L167.062 104.793L166.975 104.666L166.822 104.578L166.473 104.603L166.384 104.477L167.008 103.941L167.948 103.221L169.115 102.371L170.291 101.515L169.507 101.791L168.223 102.356L166.912 102.936L166.092 103.233L165.416 103.447L164.855 103.594L164.449 103.652L164.057 103.701L163.519 103.836L162.878 104.029L162.383 104.138L162.074 104.14L162.078 103.961L161.925 103.873L161.653 103.853L161.742 103.625L161.386 103.654L161.008 103.695L160.682 103.707L160.4 103.694L160.154 103.659L160.001 103.57L159.848 103.482L159.578 103.461L159.236 103.482L158.889 103.506L158.584 103.506L158.41 103.429L158.217 103.364L158.084 103.264L157.951 103.164L157.84 103.052L157.666 102.976L157.513 102.887L157.445 102.75L157.383 102.61L157.35 102.452L157.584 102.14L158.776 101.275L161.806 99.3491L160.512 99.9198L158.029 101.177L156.561 101.847L155.672 102.184L155.116 102.328L154.635 102.43L154.44 102.366L154.297 102.272L154.35 102.065L154.487 101.809L154.554 101.593L154.55 101.419L154.628 101.198L154.933 100.844L155.694 100.229L156.954 99.3247L158.565 98.2181L159.657 97.4106L158.804 97.7264L157.934 98.0522L158.041 97.8142L158.251 97.5158L156.989 98.0677L155.983 98.4721L155.224 98.7337L154.646 98.8908L153.941 99.1212L153.187 99.3798L152.667 99.5037L152.353 99.5084L152.076 99.4916L151.808 99.4698L151.527 99.4552L151.257 99.4344L151.049 99.3778L150.896 99.2895L150.744 99.2012L150.609 99.1025L150.609 98.9253L150.606 98.7504L150.62 98.5661L150.346 98.5473L150.081 98.5237L149.845 98.4838L149.632 98.43L149.479 98.3417L149.307 98.2646L149.097 98.2088L148.963 98.1098L149.194 97.7998L149.571 97.4052L150.246 96.8389L150.941 96.261L149.531 96.8985L148.503 97.3154L147.892 97.4916L147.598 97.4847L147.462 97.3867L147.276 97.3175L147.19 97.1903L147.109 97.0608L147.012 96.9399L146.918 96.8176L147.102 96.535L147.774 95.9704L148.788 95.2084L149.471 94.6369L150.106 94.0938L150.969 93.419L148.819 94.4839L147.475 95.0831L146.63 95.3943L146.082 95.5341L145.649 95.6078L145.253 95.6595L144.93 95.6695L144.903 95.5086L144.84 95.3681L144.783 95.2246L144.63 95.1363L144.404 95.0898L144.251 95.0015L144.122 94.8994L144.043 94.7688L144.502 94.3268L145.321 93.6772L146.546 92.7934L147.972 91.7939L147.728 91.7577L146.226 92.4487L144.462 93.2901L143.3 93.7845L142.593 94.0163L142.324 93.9946L142.085 93.956L141.831 93.9262L141.621 93.8709L141.144 93.9696L140.749 94.0212L140.555 93.9563L140.99 93.5283L141.079 93.3008L141.063 93.1332L140.751 93.1367L140.454 93.1314L140.361 93.0085L140.601 92.6935L141.124 92.2151L141.901 91.5897L142.337 91.1613L141.546 91.4415L141.25 91.4356L141.192 91.2928L141.186 91.1194L141.239 90.912L140.733 91.0279L140.175 91.1732L139.523 91.3729L139.138 91.4185L138.72 91.4835L138.129 91.6478L137.998 91.5471L138.028 91.3532L138.053 91.1617L138.098 90.9592L137.748 90.9851L137.255 91.0931L136.824 91.1649L136.552 91.1453L136.352 91.0842L136.169 91.0136L136.016 90.9253L135.909 90.8104L135.788 90.7037L135.651 90.6059L135.531 90.4985L135.62 90.2709L135.885 89.9408L135.898 89.7567L134.903 90.1549L134.512 90.2036L134.272 90.1658L134.084 90.0977L133.898 90.0286L133.682 89.9766L133.519 89.894L133.356 89.8113L133.194 89.7285L133.004 89.6617L132.783 89.6127L132.569 89.5594L132.356 89.506L132.161 89.4418L131.885 89.4243L131.828 89.281L131.719 89.1669L131.572 89.0751L131.432 88.9798L131.291 88.8841L131.126 88.8031L130.967 88.7183L130.832 88.6192L130.667 88.5382L130.508 88.4534L130.367 88.358L130.275 88.2348L130.114 88.1506L129.915 88.0893L129.719 88.0256L129.523 87.9623L129.38 87.868L129.238 87.7735L129.096 87.6789L128.96 87.5806L128.837 87.4749L128.731 87.3599L128.669 87.219L128.708 87.0197L128.921 86.7203L128.751 86.6414L128.477 86.6234L128.295 86.5515L128.129 86.4712L127.922 86.4137L127.782 86.3179L127.656 86.2142L127.545 86.1019L127.421 85.9969L127.312 85.8828L127.19 85.7767L127.053 85.6792L127.071 85.4921L127.321 85.1714L129.606 83.6753L135.455 80.122L162.016 64.6102L159.457 65.9109L151.295 70.447L134.044 80.23L130.573 82.0573L128.657 82.9872L128.889 82.6766L129.859 81.9398L128.583 82.5L127.119 83.1682L126.028 83.6215L125.229 83.9066L124.642 84.0684L124.471 83.9908L124.264 83.9337L123.978 83.9222L123.414 84.0711L123.499 83.8452L123.519 83.6572L123.398 83.5505L123.278 83.4433L123.424 83.1821L123.546 82.9352L123.077 83.0294L122.788 83.0194L122.547 82.9823L122.411 82.884L122.258 82.7956L122.123 82.6973L121.987 82.5988L121.852 82.5001L121.664 82.4324L121.528 82.3338L121.527 82.158L121.661 81.9039L121.741 81.681L121.43 81.6844L120.956 81.7812L120.476 81.8819L120.217 81.8546L120.022 81.7907L119.855 81.7103L119.744 81.598L119.649 81.476L119.558 81.352L119.488 81.2161L119.352 81.1177L119.199 81.0294L119.046 80.9411L119.021 80.779L119.143 80.5319L119.467 80.1681L120.448 79.4254L120.796 79.0475L120.59 78.9901L119.942 79.1872L119.027 79.5392L118.095 79.9004L118.04 79.756L118.098 79.5455L118.75 78.9925L119.852 78.1796L118.965 78.5152L118.137 78.8167L117.54 78.9847L117.237 78.9828L117.114 78.8776L116.99 78.7723L116.897 78.6492L117.109 78.3503L119.033 77.0631L144.01 62.4659L144.69 61.8966L120.471 75.7031L118.555 76.6325L117.122 77.2834L116.075 77.7113L115.317 77.972L114.883 78.0458L114.595 78.0356L114.318 78.0189L114.107 77.9641L113.881 77.9183L113.764 77.809L113.611 77.7207L113.458 77.6324L113.305 77.5441L113.081 77.497L112.945 77.3987L112.74 77.3402L112.622 77.2321L112.522 77.1131L112.607 76.8875L112.898 76.5429L113.671 75.9196L112.355 76.5028L111.721 76.6922L111.36 76.7243L111.222 76.6275L111.114 76.5129L111.092 76.349L111.029 76.2087L110.804 76.1623L110.487 76.1686L110.396 76.0441L110.228 75.9651L110.075 75.8768L109.89 75.8065L109.722 75.7271L109.569 75.6387L109.416 75.5504L109.279 75.4532L109.126 75.3649L108.973 75.2766L108.835 75.1794L108.651 75.1089L108.514 75.0117L108.424 74.8866L108.305 74.7792L108.169 74.6811L108.033 74.5828L107.88 74.4944L107.744 74.3961L107.627 74.2872L107.493 74.1883L107.435 74.0449L107.406 73.885L108.167 73.2692L109.271 72.4551L108.67 72.6254L107.743 72.984L106.874 73.3093L106.345 73.4381L105.993 73.4642L105.715 73.4483L105.491 73.4012L105.271 73.3512L105.081 73.2845L104.592 73.3902L104.672 73.1676L104.686 72.983L104.615 72.8469L104.568 72.6976L104.399 72.6184L104.2 72.5567L104.125 72.4234L104.109 72.256L104.09 72.0906L103.859 72.0473L103.632 72.0015L103.298 72.018L102.952 72.0411L102.811 71.9456L102.684 71.8425L102.571 71.7312L102.445 71.627L102.306 71.5306L102.168 71.434L102.001 71.354L101.806 71.2897L101.723 71.1607L101.646 71.0288L101.493 70.9405L101.34 70.8522L101.203 70.7547L101.082 70.6477L100.963 70.5403L100.713 70.5078L100.429 70.4949L100.174 70.4657L99.963 70.4109L99.7663 70.3478L99.6134 70.2595L99.482 70.1587L99.3624 70.0511L99.2809 69.9216L99.2473 69.7644L99.3144 69.549L99.6112 69.201L99.4112 69.1399L99.19 69.091L99.015 69.0154L98.8189 68.952L98.6036 68.8997L98.5345 68.763L98.3815 68.6746L98.1652 68.6229L97.8562 68.6247L97.5161 68.6444L97.2309 68.6324L96.9865 68.597L96.8212 68.5157L96.6931 68.4131L96.5528 68.3175L96.4525 68.1988L96.2995 68.1105L96.1331 68.0299L95.9669 67.9493L95.8272 67.8533L95.7437 67.7249L95.7789 67.5279L96.0003 67.2235L96.4629 66.7798L96.374 66.6545L95.976 66.7077L95.4575 66.8304L95.0453 66.8917L94.7256 66.8997L94.6077 66.7911L94.4548 66.7028L94.2667 66.6348L94.1138 66.5465L93.9959 66.4379L93.8792 66.3286L93.7635 66.2188L93.6297 66.1195L93.4767 66.0312L93.3628 65.9203L93.2098 65.832L93.097 65.7205L93.028 65.5838L93.2099 65.3021L92.9793 65.2586L92.6578 65.2676L92.3947 65.2429L92.1391 65.2138L91.928 65.1591L91.7563 65.0816L91.5849 65.004L91.4883 64.8831L91.3353 64.7948L91.1632 64.7175L90.9916 64.64L90.8764 64.5299L90.7428 64.4304L90.6095 64.3307L90.4176 64.265L90.3036 64.1541L90.1507 64.0658L89.9587 64L89.8849 63.866L89.9046 63.678L89.9978 63.4476L89.4465 63.5892L89.1192 63.6016L88.9846 63.5027L88.9469 63.3478L89.0571 63.1076L89.3344 62.7709L89.0929 62.7337L88.7741 62.7411L88.4938 62.7263L88.2453 62.6932L88.0465 62.6313L87.9393 62.5166L87.8574 62.3873L87.7044 62.299L87.8692 62.0272L88.0946 61.7204L88.6041 61.2497L88.2803 61.26L87.6016 61.4752L87.0476 61.6184L86.6831 61.6523L86.3194 61.6856L85.9626 61.715L85.6837 61.6994L85.5307 61.6111L85.3608 61.5326L85.1747 61.4634L85.0719 61.3462L84.9893 61.2172L84.9501 61.0632L84.9428 60.8908L84.9757 60.6952L85.0875 60.4541L84.7196 60.4898L84.353 60.5248L84.0522 60.5219L84.0251 60.3609L84.1077 60.1366L83.8804 60.0912L83.4404 60.1687L82.9697 60.2638L82.6209 60.2885L82.3507 60.2679L82.1349 60.2159L81.9338 60.1554L81.7625 60.0776L81.6006 59.9945L81.4388 59.9113L81.2687 59.8329L81.0906 59.7591L80.8834 59.7021L80.7304 59.6138L80.6237 59.4988L80.5388 59.3712L80.483 59.2268L80.2606 59.1785L80.0365 59.1313L79.8201 59.0796L79.6242 59.0161L79.4578 58.9356L79.3049 58.8472L79.1519 58.7589L79.0056 58.6668Z" fill="#609AFF"/>
<g filter="url(#filter0_d_361_15080)">
<path fill-rule="evenodd" clip-rule="evenodd" d="M127.056 10.5257C127.121 10.7737 127.378 11.0281 127.83 11.2889C128.282 11.5496 128.722 11.6986 129.152 11.7356C129.581 11.7727 129.922 11.7188 130.173 11.574C130.424 11.4291 130.517 11.2327 130.453 10.9847C130.388 10.7366 130.131 10.4823 129.679 10.2215C129.227 9.96074 128.787 9.81182 128.357 9.77473C127.927 9.73765 127.587 9.79154 127.336 9.9364C127.085 10.0813 126.992 10.2777 127.056 10.5257ZM128.435 9.05852C129.206 9.08865 129.929 9.29842 130.603 9.68782C131.278 10.0772 131.642 10.495 131.696 10.9412C131.75 11.3874 131.521 11.7588 131.007 12.0555C130.493 12.3522 129.849 12.4849 129.077 12.4536C128.304 12.4223 127.58 12.212 126.906 11.8226C126.231 11.4332 125.868 11.0159 125.816 10.5709C125.762 10.1247 125.991 9.75329 126.505 9.45661C127.019 9.15992 127.662 9.02723 128.435 9.05852ZM123.079 11.5392L123.85 11.0942L128.167 13.587L127.243 14.1207L124.099 12.3058L123.359 12.7335L122.772 12.3945C122.888 12.3087 122.978 12.2207 123.043 12.1303C123.105 12.0387 123.139 11.9599 123.145 11.8938C123.153 11.8266 123.153 11.7664 123.145 11.713C123.137 11.6574 123.124 11.614 123.106 11.5827L123.079 11.5392ZM132.208 8.76125C131.756 8.50049 131.498 8.24611 131.434 7.9981C131.37 7.75009 131.463 7.55365 131.714 7.40878C131.965 7.26391 132.305 7.21003 132.735 7.24711C133.165 7.2842 133.605 7.43312 134.057 7.69388C134.508 7.95464 134.766 8.20902 134.831 8.45703C134.895 8.70504 134.802 8.90148 134.551 9.04635C134.3 9.19121 133.959 9.2451 133.53 9.20802C133.1 9.17093 132.66 9.02201 132.208 8.76125ZM134.981 7.16019C134.307 6.77079 133.584 6.56103 132.813 6.53089C132.04 6.4996 131.397 6.6323 130.883 6.92899C130.369 7.22567 130.14 7.59711 130.194 8.04329C130.246 8.48832 130.609 8.90554 131.284 9.29494C131.958 9.68434 132.682 9.89468 133.455 9.92597C134.227 9.95726 134.871 9.82457 135.385 9.52788C135.899 9.2312 136.128 8.85976 136.074 8.41357C136.02 7.96738 135.656 7.54959 134.981 7.16019ZM43.3411 58.8588C43.4053 59.1068 43.6633 59.3612 44.1149 59.6219C44.5666 59.8827 45.0072 60.0316 45.4367 60.0687C45.8663 60.1058 46.2065 60.0519 46.4575 59.907C46.7084 59.7621 46.8017 59.5657 46.7375 59.3177C46.6732 59.0697 46.4153 58.8153 45.9637 58.5545C45.512 58.2938 45.0714 58.1449 44.6418 58.1078C44.2123 58.0707 43.872 58.1246 43.6211 58.2694C43.3702 58.4143 43.2769 58.6107 43.3411 58.8588ZM44.7201 57.3916C45.4909 57.4217 46.2136 57.6315 46.888 58.0209C47.5625 58.4103 47.9268 58.828 47.981 59.2742C48.0352 59.7204 47.8054 60.0919 47.2915 60.3885C46.7776 60.6852 46.1343 60.8179 45.3615 60.7866C44.5886 60.7553 43.865 60.545 43.1905 60.1556C42.5161 59.7662 42.1528 59.349 42.1006 58.904C42.0464 58.4578 42.2762 58.0863 42.7901 57.7896C43.304 57.493 43.9473 57.3603 44.7201 57.3916ZM88.1226 40.5219L140.785 10.1175L139.904 9.60887L47.4063 63.0123L48.2872 63.5209L87.2409 41.031L87.3038 41.0706L87.313 41.0764L87.3225 41.0819L87.4755 41.1702L87.6284 41.2585L87.6478 41.2697L87.6687 41.2798L87.8351 41.3603L87.8796 41.3819L87.9302 41.3983L88.1261 41.4618L88.1585 41.4723L88.1929 41.4806L88.4093 41.5323L88.4216 41.5352L88.4341 41.5378L88.5664 41.5657L88.5684 41.5687L88.6533 41.6963L88.6673 41.7174L88.6857 41.7373L88.7925 41.8523L88.8359 41.8991L88.9011 41.9367L89.054 42.025L89.1298 42.0688L89.2265 42.0954L89.3836 42.1386L89.5037 42.1883L89.6481 42.2549L89.7971 42.3316L89.7977 42.3319L89.9597 42.415L89.9738 42.4223L89.9887 42.429L90.1599 42.5068L90.2056 42.5275L90.2571 42.543L90.4582 42.6035L90.4816 42.6105L90.5059 42.6163L90.7216 42.6684L90.798 42.6868L90.8801 42.6931L91.1503 42.7137L91.2291 42.7197L91.308 42.7141L91.6567 42.6894L91.7233 42.6847L91.7866 42.6719L92.0424 42.6201L92.0433 42.6254L92.0972 42.9447L92.6527 42.9501L92.9305 42.9528L92.9312 42.9682L92.9384 43.1406L92.9393 43.1625L92.9449 43.1842L92.9841 43.3382L92.9936 43.3753L93.0161 43.4105L93.0986 43.5395L93.111 43.5588L93.1272 43.5773L93.23 43.6945L93.3064 43.7816L93.4486 43.8345L93.6077 43.8936L93.7257 43.9481L93.8543 44.0224L94.0124 44.1136L94.2349 44.126L94.5138 44.1416L94.5879 44.1457L94.6616 44.1396L95.0184 44.1103L95.0184 44.1103L95.0281 44.1094L95.3918 44.0761L95.3931 44.076L95.7577 44.0421L95.8386 44.0346L95.8609 44.0288L95.7276 44.2488L95.5982 44.4621L95.875 44.6219L95.9307 44.6541L95.9654 44.7088L95.9808 44.7331L96.002 44.7558L96.1092 44.8706L96.1977 44.9655L96.362 45.0166L96.5608 45.0784L96.6346 45.1014L96.7162 45.1122L96.9647 45.1454L97.006 45.1509L97.0347 45.1524L96.9558 45.3244L96.9236 45.3946L96.9411 45.4665L96.9788 45.6214L97.0021 45.7174L97.1059 45.7936L97.2405 45.8925L97.4433 46.0415L97.7709 46.0291L97.8919 46.0245L97.9023 46.0435L97.9761 46.1776L98.0479 46.308L98.2518 46.3779L98.3765 46.4207L98.4189 46.4451L98.493 46.5172L98.5741 46.596L98.7107 46.6428L98.8002 46.6735L98.8607 46.7188L98.8617 46.7195L98.973 46.8023L99.0693 46.8945L99.1286 46.9512L99.2189 46.992L99.3906 47.0695L99.3919 47.07L99.5333 47.1336L99.5803 47.1607L99.6303 47.2233L99.6933 47.3021L99.8116 47.3557L99.9831 47.4333L99.9837 47.4335L100.155 47.511L100.215 47.5379L100.284 47.5558L100.495 47.6105L100.56 47.6274L100.63 47.6353L100.885 47.6644L100.896 47.6656L100.906 47.6665L101.002 47.6755L101.041 47.7531L101.11 47.8898L101.132 47.9323L101.17 47.9705L101.283 48.082L101.324 48.1221L101.38 48.155L101.478 48.2114L101.552 48.2834L101.592 48.3222L101.647 48.3541L101.773 48.4266L101.861 48.492L101.958 48.5842L101.96 48.586L102.077 48.6953L102.079 48.6975L102.197 48.8061L102.234 48.8406L102.284 48.8694L102.437 48.9577L102.487 48.9865L102.547 49.0082L102.675 49.0546L102.728 49.0853L102.809 49.1593L103.001 49.3367L103.364 49.3277L103.683 49.3197L103.749 49.3181L103.812 49.3086L103.937 49.29L103.816 49.4573L103.78 49.5065L103.77 49.5596L103.735 49.7566L103.72 49.8407L103.772 49.92L103.855 50.0484L103.893 50.1061L103.961 50.1533L104.101 50.2493L104.136 50.2732L104.177 50.2932L104.343 50.3739L104.344 50.3742L104.489 50.4446L104.549 50.4792L104.604 50.5438L104.638 50.5842L104.689 50.6186L104.813 50.7035L104.927 50.7947L104.971 50.83L105.029 50.8582L105.194 50.9394L105.305 50.9939L105.446 51.0144L105.69 51.0499L105.743 51.0575L105.797 51.0598L106.082 51.0717L106.136 51.074L106.189 51.0709L106.501 51.0528L106.608 51.0522L106.617 51.069L106.7 51.2335L106.973 51.2999L107.156 51.3443L107.286 51.3862L107.39 51.4312L107.367 51.4588L107.328 51.5042L107.312 51.554L107.245 51.7694L107.229 51.823L107.24 51.877L107.274 52.0343L107.282 52.0748L107.307 52.1131L107.388 52.2427L107.412 52.2803L107.449 52.3141L107.569 52.4216L107.581 52.4328L107.595 52.4435L107.727 52.5443L107.753 52.5645L107.784 52.5825L107.937 52.6708L107.999 52.7064L108.075 52.7308L108.271 52.7939L108.295 52.8013L108.319 52.8076L108.53 52.8624L108.595 52.8791L108.664 52.8871L108.92 52.9163L108.955 52.9203L108.991 52.922L109.192 52.9312L109.292 53.0195L109.31 53.0354L109.331 53.0502L109.468 53.1476L109.488 53.162L109.511 53.1751L109.664 53.2634L109.714 53.2924L109.745 53.3448L109.744 53.3449L109.75 53.354L109.833 53.4829L109.911 53.6054L110.108 53.6704L110.256 53.7193L110.337 53.758L110.438 53.8285L110.439 53.8292L110.56 53.9137L110.657 53.9938L110.758 54.0932L110.772 54.107L110.788 54.12L110.915 54.2231L110.931 54.2354L110.948 54.247L111.088 54.3425L111.304 54.489L111.634 54.467L111.971 54.4445L112.107 54.4378L112.114 54.5119L112.119 54.5588L112.144 54.6034L112.219 54.7366L112.296 54.8738L112.517 54.9421L112.611 54.9713L112.614 54.9802L112.62 54.9995L112.629 55.0183L112.67 55.0965L112.663 55.1918L112.593 55.3861L112.365 56.0242L113.421 55.7957L113.634 55.7498L113.654 55.7543L113.873 55.8043L113.873 55.8045L113.889 55.8078L114.113 55.8549L114.187 55.8704L114.265 55.8748L114.543 55.8907L114.614 55.8948L114.684 55.8895L115.035 55.8634L115.119 55.8572L115.198 55.8381L115.479 55.7695L115.373 55.8556L115.398 55.9909L115.426 56.1509L115.431 56.173L115.439 56.1948L115.497 56.3382L115.528 56.4162L115.614 56.4792L115.727 56.5625L115.826 56.6546L115.846 56.6724L115.868 56.6887L116.004 56.7871L116.026 56.803L116.051 56.8174L116.179 56.8913L116.292 56.9737L116.293 56.9744L116.409 57.0581L116.481 57.1226L116.549 57.2175L116.584 57.2667L116.642 57.3078L116.78 57.405L116.839 57.447L116.918 57.477L117.023 57.5175L117.101 57.5728L117.121 57.5868L117.143 57.5995L117.296 57.6878L117.427 57.7634L117.545 57.8466L117.565 57.8606L117.587 57.8734L117.74 57.9617L117.893 58.05L117.915 58.0628L117.939 58.0742L118.107 58.1536L118.132 58.1651L118.158 58.1751L118.29 58.2254L118.398 58.288L118.421 58.3013L118.446 58.3131L118.494 58.3352L118.523 58.3762L118.69 58.6052L119.102 58.597L119.104 58.6092L119.114 58.6856L119.177 58.7529L119.285 58.8675L119.314 58.8982L119.352 58.9251L119.491 59.0218L119.716 59.1794L120.066 59.1484L120.427 59.1163L120.523 59.1077L120.479 59.2269L120.572 59.3387L120.672 59.4576L120.688 59.4759L120.707 59.4931L120.825 59.6013L120.919 59.6864L121.075 59.7312L121.155 59.7541L121.204 59.7896L121.314 59.869L121.479 59.9036L121.573 59.9235L121.629 59.9553L121.781 60.0437L121.883 60.1022L121.961 60.1757L122.077 60.2841L122.285 60.3263L122.487 60.3671L122.674 60.4156L122.765 60.4392L122.865 60.4452L123.142 60.4619L123.155 60.4627L123.168 60.4632L123.456 60.4734L123.565 60.4773L123.67 60.4594L124.104 60.3856L124.18 60.3728L124.247 60.3495L125.005 60.0889L125.026 60.0816L125.045 60.0735L125.992 59.6868L125.249 60.184L125.182 60.2285L125.144 60.2828L124.932 60.5817L124.832 60.7221L124.937 60.8612L125.03 60.9843L125.053 61.0149L125.085 61.0426L125.209 61.1479L125.209 61.1483L125.333 61.2535L125.516 61.4091L125.842 61.4111L126.145 61.4129L126.193 61.4132L126.116 61.4779L126.094 61.557L126.036 61.7675L126.017 61.8356L126.043 61.903L126.098 62.0473L126.297 62.5609L127.054 62.2676L127.507 62.0919L127.2 62.436L127.172 62.4677L127.155 62.5019L127.033 62.749L127.001 62.8133L127.011 62.8798L127.037 63.0419L127.057 63.1718L127.217 63.2641L127.37 63.3524L127.498 63.4263L127.536 63.4544L127.572 63.5237L127.582 63.5428L127.596 63.5611L127.687 63.6851L127.687 63.6851L127.692 63.6917L127.786 63.8137L127.799 63.8299L127.814 63.8454L127.926 63.9577L127.981 64.0136L128.067 64.0548L128.233 64.1353L128.277 64.1562L128.326 64.1723L128.521 64.2362L128.613 64.2661L128.716 64.277L128.975 64.3043L129.141 64.3218L129.299 64.2886L129.515 64.2433L129.517 64.4041L129.518 64.5283L129.651 64.6257L129.786 64.7243L129.854 64.7734L129.946 64.8064L130.042 64.841L130.11 64.8903L130.11 64.8907L130.245 64.9892L130.246 64.9899L130.382 65.0883L130.404 65.1042L130.429 65.1186L130.557 65.1925L130.67 65.2749L130.799 65.368L130.998 65.3985L131.24 65.4356L131.274 65.4408L131.205 65.5638L131.366 65.7073L131.486 65.8146L131.488 65.8164L131.496 65.8233L131.492 65.8644L131.417 66.0631L131.151 66.7662L132.284 66.4668L132.704 66.3559L132.713 66.3563L132.752 66.3668L132.869 66.4201L133.173 66.5577L133.522 66.4615L134.108 66.2997L134.139 66.2914L134.167 66.2812L134.967 65.9961L134.985 65.9894L135.003 65.982L136.094 65.5288L136.106 65.524L136.117 65.5189L137.081 65.0788L137.668 65.3312L139.5 64.4423L137.766 65.4962L137.758 65.501L137.75 65.5061L135.465 67.0022L135.402 67.043L135.364 67.0927L135.114 67.4133L135.067 67.474L135.06 67.5404L135.042 67.7276L135.029 67.8666L135.181 67.9747L135.299 68.0587L135.39 68.1377L135.485 68.2383L135.5 68.2537L135.517 68.2682L135.627 68.3615L135.727 68.4615L135.741 68.4759L135.757 68.4895L135.884 68.5933L135.899 68.6062L135.917 68.6183L136.057 68.7141L136.143 68.7729L136.263 68.8063L136.4 68.8445L136.507 68.8963L136.53 68.9072L136.554 68.9167L136.721 68.9828L136.71 68.9981L136.7 69.0478L136.661 69.2471L136.648 69.3123L136.676 69.376L136.738 69.5169L136.757 69.5596L136.793 69.5984L136.9 69.7134L136.914 69.729L136.931 69.7437L137.054 69.8494L137.068 69.8619L137.084 69.8736L137.22 69.9719L137.228 69.9775L137.236 69.983L137.378 70.0777L137.379 70.078L137.521 70.1725L137.522 70.1732L137.665 70.2675L137.736 70.3144L137.83 70.3449L138.024 70.4073L138.026 70.4082L138.219 70.4711L138.219 70.4712L138.233 70.4756L138.364 70.5157L138.367 70.5174L138.407 70.5696L138.444 70.6189L138.504 70.6597L138.644 70.7551L138.669 70.7716L138.696 70.7862L138.855 70.871L138.865 70.8763L138.875 70.8813L138.992 70.9384L139.087 71.0085L139.118 71.0314L139.155 71.0511L139.314 71.1359L139.324 71.1412L139.334 71.1462L139.46 71.2079L139.567 71.2808L139.569 71.2819L139.71 71.3772L139.718 71.3825L139.726 71.3878L139.821 71.4471L139.851 71.479L139.889 71.5742L139.989 71.8226L140.428 71.8505L140.575 71.8598L140.658 71.8869L140.687 71.8968L140.719 71.9046L140.932 71.958L140.933 71.9582L141.147 72.0115L141.158 72.0144L141.17 72.0171L141.339 72.0545L141.434 72.0879L141.555 72.1496L141.556 72.1499L141.719 72.2326L141.719 72.2329L141.882 72.3155L141.959 72.3543L142.053 72.377L142.218 72.4169L142.359 72.4689L142.364 72.4708L142.552 72.539L142.63 72.5675L142.72 72.5815L142.96 72.6192L143.107 72.6422L143.255 72.6237L143.493 72.594L143.477 72.6353L143.618 72.7618L143.738 72.8692L143.756 72.8854L143.777 72.9003L143.895 72.9844L143.984 73.0631L144.078 73.1641L144.121 73.2108L144.186 73.2482L144.339 73.3365L144.383 73.3617L144.434 73.3815L144.618 73.4521L144.644 73.4623L144.672 73.4708L144.872 73.5319L144.973 73.5626L145.086 73.5708L145.358 73.5904L145.485 73.5995L145.608 73.579L145.999 73.5138L145.988 73.5837L145.967 73.7217L146.111 73.8323L146.243 73.933L146.551 74.1685L147.011 74.0404L147.549 73.8907L147.893 73.8372L148.26 73.7938L148.347 73.7834L148.426 73.7592L149.06 73.5649L149.228 73.5212L149.255 73.5871L149.365 73.8542L149.499 73.8569L149.229 74.0741L149.218 74.0828L149.208 74.0918L148.685 74.5703L148.66 74.5929L148.642 74.6175L148.402 74.9325L148.292 75.0768L148.402 75.2212L148.495 75.3441L148.652 75.5525L148.92 75.5572L148.629 75.8428L148.312 76.1544L148.853 76.3359L149.047 76.4008L149.258 76.4717L149.497 76.4406L149.892 76.389L149.929 76.3842L149.965 76.3768L150.204 76.3274L150.248 76.3391L150.318 76.3472L150.55 76.3745L150.768 76.4096L150.808 76.416L150.849 76.4194L151.117 76.4411L151.327 76.4581L151.511 76.3977L152.219 76.1659L152.251 76.1553L152.281 76.1427L153.102 75.7932L152.61 76.1837L152.593 76.1966L152.579 76.2103L152.12 76.6523L151.969 76.7973L152.066 76.9568L152.146 77.0874L152.176 77.1375L152.23 77.1803L152.359 77.2823L152.388 77.3048L152.422 77.3244L152.575 77.4127L152.674 77.4699L152.806 77.4971L152.839 77.5039L152.844 77.5177L152.844 77.5177L152.848 77.5265L152.898 77.6399L152.921 77.773L152.979 78.1157L153.574 78.0973L153.897 78.0873L153.95 78.0857L154.002 78.0789L154.397 78.0271L154.417 78.0246L154.435 78.0214L154.869 77.9478L154.908 77.9412L154.945 77.9317L155.493 77.7919L155.536 77.7808L155.576 77.7661L156.333 77.4872L155.891 77.82L155.881 77.8275L155.871 77.8354L155.199 78.4L155.156 78.4362L155.129 78.4774L154.946 78.7599L154.857 78.8977L154.96 79.0321L155.054 79.1545L155.058 79.1592L155.143 79.2664L155.216 79.3818L155.216 79.3818L155.221 79.3889L155.306 79.5162L155.379 79.6253L155.55 79.6886L155.651 79.7261L155.723 79.7784L155.901 79.906L156.184 79.9127L156.478 79.9196L156.638 79.9233L156.782 79.882L157.208 79.7589L157.002 80.0363L156.856 80.2323L157.084 80.4003L157.218 80.4993L157.311 80.5676L157.447 80.604L157.592 80.6425L157.677 80.6806L157.802 80.753L157.886 80.801L157.993 80.8282L158.206 80.8819L158.243 80.8912L158.281 80.8977L158.518 80.9375L158.557 80.9441L158.597 80.9476L158.598 80.9929L158.598 80.9975L158.597 81.17L158.596 81.2955L158.731 81.3941L158.866 81.4927L158.888 81.5092L158.914 81.5241L159.067 81.6124L159.22 81.7007L159.297 81.7449L159.394 81.7716L159.602 81.8283L159.69 81.8522L159.786 81.8596L160.056 81.8803L160.069 81.8813L160.082 81.882L160.347 81.8958L160.6 81.9164L160.611 81.9172L160.622 81.9179L160.899 81.9347L160.939 81.9372L160.98 81.9365L161.294 81.9318L161.409 81.9301L161.515 81.9048L162.036 81.781L162.078 81.771L162.117 81.7576L162.859 81.5028L162.871 81.499L163.544 81.2791L164.101 81.1277L164.128 81.1202L164.155 81.1112L164.914 80.8496L164.932 80.8431L164.95 80.8359L165.721 80.5261L165.592 80.816L165.088 81.1619L165.088 81.1619L165.08 81.1679L163.82 82.0719L163.808 82.0801L163.798 82.0886L163.037 82.7043L163.009 82.7272L162.987 82.7523L162.682 83.1054L162.645 83.1479L162.628 83.1946L162.55 83.4162L162.537 83.4543L162.538 83.4932L162.542 83.6322L162.491 83.792L162.366 84.0269L162.351 84.0534L162.344 84.0809L162.292 84.2879L162.25 84.4524L162.44 84.5774L162.583 84.6715L162.652 84.7165L162.742 84.7463L162.936 84.8106L163.187 84.8937L163.459 84.8364L163.941 84.7348L163.962 84.7303L163.983 84.725L164.539 84.5807L164.584 84.5691L164.625 84.5534L165.509 84.2187L165.39 84.3773L165.323 84.4665L165.342 84.5631L165.375 84.7209L165.38 84.7447L165.39 84.7679L165.453 84.9084L165.453 84.9084L165.457 84.9174L165.525 85.0548L165.569 85.1445L165.684 85.2104L165.837 85.2987L165.867 85.316L165.9 85.3308L165.974 85.363L166.022 85.412L166.043 85.4326L166.068 85.4515L166.201 85.5515L166.202 85.5523L166.335 85.6521L166.409 85.7078L166.514 85.7433L166.674 85.7971L166.817 85.8601L166.983 85.9336L167.193 85.9339L167.498 85.9344L167.536 85.9344L167.573 85.9319L167.913 85.9086L167.92 85.9081L168.171 85.8928L168.172 85.8933L168.325 85.9816L168.448 86.0525L168.616 86.0765L168.862 86.1115L168.91 86.1183L168.96 86.1207L169.242 86.1341L169.287 86.1362L169.332 86.1346L169.546 86.127L169.506 86.2284L170.061 86.2692L170.055 86.5726L170.692 86.5682L171.002 86.5661L171.113 86.5653L171.217 86.5425L171.712 86.4334L171.746 86.4259L171.778 86.4162L172.398 86.2293L172.86 86.114L173.193 86.0718L173.193 86.072L173.209 86.0697L173.615 86.012L173.671 86.004L173.724 85.9902L174.285 85.8429L174.306 85.8374L174.326 85.8309L175.002 85.6171L175.018 85.612L175.034 85.6064L175.662 85.379L175.122 85.7928L175.111 85.8007L175.101 85.809L174.478 86.3455L174.294 86.504L174.418 86.6809L174.506 86.8066L174.686 87.0628L174.892 87.0479L174.557 87.3644L174.536 87.3839L174.52 87.4048L174.272 87.7248L174.26 87.7393L174.251 87.7543L174.09 88.0243L173.704 88.6682L174.843 88.4887L175.241 88.4259L174.397 89.0351L174.397 89.0351L174.391 89.0398L173.349 89.8177L173.282 89.8683L173.248 89.9293L173.107 90.1874L172.978 90.4228L173.312 90.5768L173.483 90.6552L173.801 90.8018L174.161 90.6925L174.805 90.4972L174.864 90.4795L174.914 90.4551L176.732 89.5809L177.833 89.1152L178.517 88.8833L179.034 88.7511L179.126 88.7276L179.2 88.6886L182.02 87.2113L181.543 87.5588L181.531 87.5676L181.52 87.5769L180.827 88.1527L180.824 88.1554L180.083 88.7593L180.052 88.7845L180.029 88.8123L179.749 89.1504L179.061 89.9826L180.543 89.6392L181.043 89.5233L180.494 89.9318L180.156 90.1823L180.545 90.4067L180.698 90.495L181.109 90.7321L181.547 90.5122L183.885 89.3391L183.892 89.3356L183.898 89.332L187.82 87.2445L187.827 87.2409L189.831 86.1417L186.703 88.1095L186.703 88.1094L186.693 88.1161L184.576 89.5145L184.576 89.5145L184.567 89.5207L183.023 90.5888L183.016 90.5937L183.009 90.5987L181.948 91.3879L181.934 91.3988L181.921 91.4103L181.338 91.92L180.362 92.6578L179.964 92.9582L180.504 93.1724L180.638 93.2257L180.75 93.2907L181.153 93.5231L181.59 93.3125L183.433 92.4241L184.811 91.8043L184.822 91.7994L184.832 91.7941L185.622 91.4049L186.363 91.7936L188.533 90.7175L188.533 90.7176L188.544 90.7121L191.585 89.1328L191.596 89.1273L191.606 89.1215L197.028 86.0349L193.3 88.3626L193.295 88.366L190.507 90.1521L190.502 90.1554L186.786 92.4769L186.129 92.8873L187.048 93.0625L187.278 93.1063L187.439 92.8253L187.701 92.965L191.422 90.6402L191.427 90.6369L194.215 88.8509L194.22 88.8476L197.955 86.5152L197.959 86.5127L202.954 83.4528L202.957 83.4509L209.618 79.4283L209.619 79.4278L215.769 75.7003L215.773 75.6983L220.404 72.8479L219.519 72.3418L212.649 76.132L212.649 76.1319L212.642 76.1359L190.741 88.6036L188.758 89.6333L188.686 89.5919L188.533 89.5036L188.138 89.2752L187.702 89.4778L186.13 90.209L186.123 90.2122L186.116 90.2156L184.034 91.2419L183.244 91.5976L183.987 91.0447L185.519 89.9847L187.626 88.5927L191.032 86.45L201.438 80.2659L201.44 80.2642L220.736 68.9471L220.746 68.9416L225.841 65.8229L224.951 65.3201L202.578 78.0604L202.574 78.0628L193.063 83.3774L193.059 83.3798L186.976 86.7157L186.969 86.7194L186.048 87.2097L185.398 86.7563L184.586 87.0483L184.548 87.062L184.514 87.0788L182.554 88.034L182.404 88.1032L182.532 87.9966L183.681 87.1591L185.232 86.0881L187.5 84.6028L187.511 84.5958L187.521 84.5885L188.694 83.7345L187.793 83.2418L185.116 84.6107L185.109 84.6141L181.663 86.4271L181.662 86.4276L178.437 88.117L177.98 88.234L177.947 88.2423L177.917 88.2527L177.175 88.5042L177.148 88.5134L177.123 88.5241L176.103 88.9551L176.588 88.6053L178.162 87.5204L178.186 87.5038L178.207 87.4856L178.777 86.9795L177.873 86.4994L176.508 87.1126L176.117 87.2703L176.15 87.2389L176.173 87.1861L176.277 86.9496L176.326 86.8373L176.252 86.7295L176.166 86.6028L176.118 86.5332L176.027 86.4803L175.904 86.4094L176.126 86.218L177.051 85.5102L178.214 84.6631L178.214 84.6629L179.39 83.8075L178.578 83.2768L177.794 83.5526L177.767 83.5623L177.741 83.5736L176.456 84.1386L176.455 84.1392L175.167 84.7091L174.388 84.9914L173.748 85.1936L173.261 85.3216L172.919 85.3702L172.535 85.4188L172.476 85.4262L172.421 85.4399L171.883 85.5742L171.862 85.5795L171.841 85.5856L171.233 85.7689L171.149 85.7874L171.129 85.7756L170.991 85.6958L171.159 85.265L170.266 85.3375L169.91 85.3664L169.895 85.3677L169.881 85.3693L169.542 85.4066L169.3 85.4151L169.111 85.4062L169.083 85.4022L169.053 85.3847L168.9 85.2964L168.751 85.2103L168.542 85.1942L168.272 85.1735L168.198 85.1678L168.123 85.1724L167.781 85.1934L167.774 85.1939L167.464 85.2151L167.406 85.215L167.4 85.212L167.369 85.1985L167.336 85.1872L167.248 85.1576L167.19 85.1142L167.189 85.1135L167.082 85.0331L166.991 84.9416L166.928 84.8784L166.828 84.8343L166.688 84.7728L166.679 84.7677L166.657 84.7246L166.607 84.6118L166.599 84.5744L166.734 84.3952L167.862 83.5769L170.878 81.6595L170.039 81.1319L168.745 81.7026L168.728 81.71L168.712 81.718L166.241 82.9689L164.808 83.624L163.983 83.9364L163.675 84.0162L163.693 83.9837L163.704 83.963L163.711 83.9416L163.778 83.7259L163.789 83.6914L163.788 83.6564L163.785 83.5213L163.833 83.3844L164.08 83.099L164.802 82.5147L166.042 81.6247L166.05 81.6188L167.653 80.5181L167.66 80.5132L167.667 80.5081L168.759 79.7007L167.932 79.1765L167.785 79.231L168.297 78.5056L166.486 79.2978L165.234 79.8453L164.256 80.2384L163.542 80.4845L162.992 80.634L162.971 80.6398L162.95 80.6464L162.245 80.8768L162.245 80.8768L162.234 80.8806L161.519 81.1259L161.147 81.2145L160.988 81.2169L160.763 81.2032L160.505 81.1823L160.49 81.1811L160.475 81.1803L160.208 81.1663L160.047 81.154L160.024 81.1479L159.948 81.1038L159.843 81.0433L159.843 80.9951L159.843 80.9904L159.841 80.8248L159.853 80.6497L159.877 80.3171L159.305 80.2777L159.042 80.2596L158.828 80.2405L158.669 80.2136L158.6 80.1964L158.53 80.156L158.503 80.1401L158.472 80.1262L158.336 80.0655L158.365 80.0268L158.713 79.6632L159.369 79.1126L159.371 79.1114L160.064 78.5348L159.168 78.0465L157.771 78.6782L156.794 79.0743L156.459 79.171L156.41 79.1529L156.394 79.1471L156.387 79.136L156.382 79.1289L156.305 79.0065L156.296 78.9924L156.285 78.9787L156.202 78.8744L156.269 78.7711L156.889 78.2506L157.893 77.4961L157.902 77.4889L157.911 77.4814L158.595 76.91L158.599 76.9067L159.226 76.3699L160.081 75.7012L159.175 75.2146L157.036 76.2736L155.728 76.8572L154.946 77.145L154.478 77.2643L154.103 77.3282L154.05 77.3351L154.001 77.2124L153.96 77.1119L153.834 77.039L153.681 76.9507L153.582 76.8936L153.45 76.8664L153.368 76.8493L153.633 76.5942L154.428 75.9641L155.638 75.0906L155.644 75.0867L157.064 74.0911L157.685 73.6551L156.738 73.5142L156.495 73.4781L156.194 73.4334L155.951 73.545L154.449 74.236L154.448 74.236L154.44 74.2401L152.69 75.0752L151.571 75.5509L151.08 75.7118L151.063 75.7104L150.864 75.6783L150.842 75.6748L150.82 75.6723L150.636 75.6506L150.49 75.6123L150.26 75.5516L150.257 75.5522L150.298 75.448L150.316 75.3996L150.312 75.3501L150.296 75.1825L150.264 74.8356L149.863 74.8401L150.252 74.4847L151.018 73.868L151.035 73.8547L151.049 73.8406L151.485 73.4122L150.622 72.9234L150.482 72.9731L150.625 72.4165L149.621 72.6463L149.114 72.7621L149.101 72.7652L149.087 72.7687L148.53 72.9141L148.512 72.9188L148.494 72.9242L147.921 73.0996L147.624 73.1348L147.606 73.137L147.588 73.1398L147.303 73.1841L147.327 73.0734L147.429 72.6121L146.63 72.6711L146.28 72.697L146.207 72.7024L146.138 72.7175L145.668 72.8203L145.385 72.8675L145.354 72.8652L145.282 72.8434L145.176 72.8027L145.132 72.777L145.069 72.7088L145.056 72.6949L145.041 72.6818L144.92 72.5751L144.903 72.5603L144.884 72.5466L144.809 72.4934L144.824 72.456L145.061 72.161L145.114 72.0958L145.119 72.0239L145.132 71.8399L145.182 71.1188L144.155 71.5297L143.261 71.8871L143.14 71.9022L143.136 71.9014L143.032 71.8637L143.027 71.8618L142.845 71.7946L142.799 71.7776L142.749 71.7654L142.627 71.7361L142.542 71.6927L142.541 71.6924L142.38 71.6103L142.379 71.61L142.217 71.5275L142.176 71.5064L142.129 71.4899L141.938 71.4231L141.89 71.4062L141.838 71.3946L141.629 71.3483L141.428 71.2981L141.427 71.2979L141.246 71.2526L141.081 71.1982L140.971 71.1619L140.877 71.0627L140.84 71.0239L140.788 70.9914L140.649 70.9048L140.518 70.816L140.516 70.8149L140.378 70.7203L140.344 70.6976L140.305 70.6783L140.15 70.6024L140.037 70.5425L139.934 70.4663L139.895 70.4372L139.846 70.4134L139.691 70.3374L139.569 70.2725L139.513 70.2344L139.457 70.1604L139.404 70.0894L139.305 70.0374L139.145 69.9532L139.087 69.9229L139.018 69.9017L138.825 69.8426L138.637 69.7811L138.634 69.7803L138.532 69.7474L138.462 69.7007L138.461 69.7L138.32 69.6066L138.319 69.6062L138.186 69.5175L138.074 69.4366L137.983 69.3581L137.927 69.2975L137.912 69.2629L137.928 69.1786L138.108 68.9254L138.284 68.6773L137.923 68.509L137.754 68.4301L137.613 68.3645L137.433 68.3527L137.312 68.3448L137.283 68.3331L137.139 68.2636L137.079 68.2352L137.01 68.2159L136.924 68.1918L136.887 68.1669L136.793 68.0896L136.696 67.9917L136.684 67.9795L136.67 67.9678L136.563 67.8773L136.47 67.7786L136.457 67.7651L136.442 67.7523L136.32 67.6462L136.307 67.6352L136.461 67.4371L138.677 65.9869L144.513 62.441L171.07 46.9317L170.215 46.4089L167.657 47.7096L167.646 47.7149L167.636 47.7204L159.474 52.2565L159.469 52.2591L142.227 62.0374L138.774 63.8553L138.529 63.974L138.093 63.7222L136.817 64.2823L136.817 64.2823L136.807 64.2865L135.355 64.9497L134.293 65.3908L133.541 65.6591L133.308 65.7233L133.144 65.6778L133.037 65.6483L132.918 65.6435L132.763 65.6373L132.764 65.6284L132.651 65.5286L132.573 65.4598L132.628 65.3616L132.631 65.3555L132.634 65.3493L132.756 65.1023L133.085 64.4367L131.952 64.6641L131.601 64.7347L131.514 64.7317L131.509 64.7286L131.488 64.7127L131.463 64.6983L131.335 64.6244L131.222 64.5426L131.221 64.5419L131.087 64.4444L131.087 64.4441L130.952 64.3458L130.885 64.2965L130.792 64.2633L130.774 64.2566L130.868 64.0774L130.876 64.0617L130.882 64.0457L130.962 63.8228L131.121 63.3817L130.341 63.3901L130.029 63.3935L129.928 63.3945L129.833 63.414L129.359 63.5108L129.355 63.5118L129.037 63.5783L128.989 63.5625L128.951 63.5443L128.911 63.5034L128.831 63.4009L128.756 63.2985L128.695 63.1816L128.661 63.1151L128.586 63.0607L128.45 62.9624L128.428 62.9465L128.403 62.9321L128.275 62.8577L128.336 62.7335L128.607 62.4295L129.554 61.712L129.585 61.6888L129.609 61.663L129.957 61.2852L130.262 60.9548L129.678 60.7922L129.471 60.7347L129.188 60.6559L128.91 60.7406L128.359 60.9084L128.954 60.4699L128.122 59.9475L127.239 60.2813L126.444 60.5706L126.246 60.6264L126.258 60.6095L128.102 59.3759L153.064 44.7873L153.103 44.7648L153.134 44.7387L153.814 44.1694L152.863 43.7093L128.662 57.5057L126.773 58.422L125.36 59.0638L124.346 59.4783L123.677 59.7085L123.423 59.7516L123.258 59.7457L123.093 59.7358L122.973 59.7047L122.949 59.6985L122.924 59.6934L122.906 59.6897L122.905 59.6889L122.867 59.6531L122.815 59.6234L122.662 59.535L122.509 59.4467L122.357 59.3584L122.259 59.302L122.129 59.2747L122.07 59.2623L122.043 59.2433L121.957 59.1805L121.832 59.145L121.789 59.1325L121.811 59.0748L122.046 58.7964L122.789 58.1977L121.903 57.7029L120.631 58.2667L120.32 58.3595L120.32 58.3581L120.306 58.3272L120.243 58.187L120.16 58.0026L119.849 57.9386L119.624 57.8922L119.512 57.8692L119.478 57.8699L119.4 57.8334L119.256 57.7661L119.126 57.6911L119.082 57.6654L119.029 57.6454L118.871 57.5851L118.751 57.5286L118.621 57.4531L118.49 57.3775L118.372 57.2943L118.352 57.2803L118.33 57.2676L118.177 57.1792L118.046 57.1037L117.929 57.0205L117.869 56.9785L117.791 56.9485L117.685 56.908L117.665 56.8939L117.611 56.8181L117.59 56.788L117.559 56.7606L117.439 56.6532L117.422 56.6376L117.402 56.6231L117.267 56.5257L117.266 56.525L117.131 56.4274L117.109 56.4115L117.085 56.3971L116.956 56.3232L116.865 56.2571L116.767 56.166L116.749 56.1492L116.728 56.1336L116.679 56.0977L116.662 56.054L116.661 56.0516L117.277 55.5532L118.372 54.7454L117.607 54.2009L117.006 54.3712L116.969 54.3819L116.934 54.3953L116.011 54.7523L115.192 55.0589L114.792 55.1563L114.595 55.1709L114.465 55.1635L114.323 55.1336L114.16 55.0966L114.015 55.0457L113.923 55.0134L113.923 55.0068L113.894 54.9489L113.833 54.8316L113.792 54.7016L113.751 54.5709L113.572 54.4871L113.403 54.4079L113.357 54.3864L113.35 54.384L113.342 54.3048H113.342L113.342 54.3005L113.322 54.135L113.294 53.8922L112.893 53.8171L112.669 53.7752L112.45 53.7307L112.323 53.7052L112.19 53.7118L111.856 53.7283L111.847 53.7288L111.837 53.7294L111.836 53.7295L111.818 53.7152L111.719 53.6178L111.707 53.6059L111.693 53.5946L111.568 53.4904L111.553 53.4776L111.535 53.4657L111.397 53.3699L111.396 53.3692L111.259 53.2733L111.221 53.2472L111.176 53.2255L111.009 53.1455L110.968 53.1259L110.923 53.1111L110.922 53.1092L110.847 52.9819L110.8 52.9025L110.698 52.8431L110.545 52.7548L110.414 52.6796L110.318 52.6113L110.217 52.5217L110.216 52.5202L110.097 52.4143L109.959 52.2904L109.71 52.2581L109.461 52.2256L109.417 52.22L109.373 52.2179L109.126 52.2066L108.976 52.1895L108.853 52.1578L108.756 52.1266L108.696 52.0918L108.605 52.0218L108.535 51.9592L108.502 51.9057L108.488 51.8431L108.523 51.7311L108.781 51.4286L109.048 51.1153L108.514 50.9519L108.314 50.8907L108.28 50.8805L108.245 50.8726L108.105 50.8416L107.999 50.7961L107.966 50.7819L107.931 50.7703L107.734 50.7069L107.731 50.7057L107.699 50.6424L107.586 50.5773L107.433 50.489L107.345 50.4384L107.231 50.411L107.014 50.3593L106.897 50.3312L106.77 50.332L106.461 50.3337L106.433 50.3339L106.405 50.3355L106.119 50.3521L105.941 50.3447L105.892 50.3375L105.809 50.2714L105.795 50.26L105.779 50.2493L105.69 50.188L105.623 50.1097L105.578 50.0557L105.504 50.0131L105.351 49.9248L105.332 49.9136L105.311 49.9035L105.145 49.8232L105.144 49.8229L105.02 49.7627L104.99 49.7421L105 49.6866L105.168 49.4553L105.608 49.0339L105.769 48.8791L105.65 48.7119L105.561 48.5867L105.36 48.3039L104.845 48.3728L104.447 48.4259L104.398 48.4325L104.351 48.4435L103.872 48.5569L103.636 48.592L103.506 48.5172L103.456 48.4884L103.397 48.4667L103.268 48.4203L103.215 48.3896L103.137 48.3178L103.135 48.3156L103.022 48.2104L103.021 48.2085L102.907 48.1006L102.888 48.0829L102.866 48.0666L102.732 47.9673L102.709 47.9496L102.681 47.9338L102.584 47.8774L102.51 47.8054L102.47 47.7666L102.414 47.7347L102.318 47.6792L102.299 47.6601L102.405 47.4964L102.631 47.1453L102.014 47.0289L101.784 46.9854L101.675 46.9648L101.56 46.968L101.304 46.9752L101.116 46.9575L100.94 46.9376L100.863 46.9176L100.752 46.8672L100.751 46.8669L100.699 46.8431L100.665 46.8011L100.618 46.7428L100.54 46.6975L100.387 46.6091L100.359 46.5933L100.329 46.5796L100.158 46.5029L100.157 46.5023L100.077 46.4662L100.021 46.4127L100.002 46.3947L99.9797 46.3781L99.847 46.2793L99.846 46.2786L99.7137 46.1796L99.641 46.1252L99.5386 46.0901L99.4832 46.0711L99.4503 46.0392L99.4104 46.0004L99.3551 45.9684L99.2022 45.8801L99.1469 45.8482L99.1297 45.8423L99.1342 45.7987L99.2154 45.598L99.5004 44.8935L98.3556 45.1876L98.3466 45.19L98.508 44.9939L98.8296 44.6034L98.106 44.492L97.8644 44.4548L97.7732 44.4408L97.6789 44.443L97.401 44.4494L97.2037 44.439L97.1134 44.427L97.0534 44.3323L97.0245 44.2867L97.0616 44.2256L97.26 43.9556L97.7434 43.5089L98.3797 42.9209L97.1808 42.9592L96.8569 42.9695L96.7156 42.9741L96.5915 43.0134L95.935 43.2216L95.4789 43.3395L95.1965 43.3657L95.1952 43.3659L94.8377 43.3986L94.5735 43.4204L94.5579 43.4114L94.531 43.3989L94.3611 43.3204L94.336 43.3089L94.309 43.2988L94.2651 43.2825L94.2548 43.2708L94.2072 43.1964L94.1829 43.1012L94.1775 42.9725L94.2018 42.8281L94.3003 42.6156L94.5508 42.0751L93.595 42.168L93.361 42.1908L93.4426 41.9693L92.9225 41.8654L92.6952 41.82L92.5037 41.7817L92.3099 41.8158L91.8698 41.8933L91.8576 41.8954L91.8456 41.8978L91.4382 41.9802L91.2348 41.9946L91.1255 41.9863L91.0104 41.9585L90.8841 41.9205L90.7733 41.8703L90.6261 41.7947L90.6256 41.7944L90.4644 41.7115L90.4517 41.7049L90.4385 41.6988L90.2684 41.6204L90.2559 41.6147L90.2429 41.6093L90.0648 41.5355L90.0197 41.5168L89.9696 41.5031L89.8592 41.4727L89.8471 41.4657L89.8023 41.4174L89.7479 41.3356L89.702 41.2171L89.6286 41.0271L89.3131 40.9587L89.0907 40.9105L89.0851 40.9093L88.8735 40.8647L88.7038 40.8242L88.591 40.7876L88.49 40.7387L88.3564 40.6616L88.213 40.5788L88.1226 40.5219Z" fill="#4663E6"/>
</g>
<defs>
<filter id="filter0_d_361_15080" x="0.0927734" y="0.526367" width="267.749" height="170.997" filterUnits="userSpaceOnUse" color-interpolation-filters="sRGB">
<feFlood flood-opacity="0" result="BackgroundImageFix"/>
<feColorMatrix in="SourceAlpha" type="matrix" values="0 0 0 0 0 0 0 0 0 0 0 0 0 0 0 0 0 0 127 0" result="hardAlpha"/>
<feOffset dy="36"/>
<feGaussianBlur stdDeviation="21"/>
<feColorMatrix type="matrix" values="0 0 0 0 0.24709 0 0 0 0 0.327509 0 0 0 0 0.670833 0 0 0 1 0"/>
<feBlend mode="normal" in2="BackgroundImageFix" result="effect1_dropShadow_361_15080"/>
<feBlend mode="normal" in="SourceGraphic" in2="effect1_dropShadow_361_15080" result="shape"/>
</filter>
</defs>
</svg>
