<svg width="90" height="40" viewBox="0 0 90 40" fill="none" xmlns="http://www.w3.org/2000/svg">
<path fill-rule="evenodd" clip-rule="evenodd" d="M12.618 0C5.64928 0 0 5.64929 0 12.618V36.5665C0 38.4628 1.53722 40 3.43347 40H11.8452V29.3566C11.8452 28.8825 12.2295 28.4982 12.7036 28.4982C13.1776 28.4982 13.562 28.8825 13.562 29.3566V40H21.8026C23.6988 40 25.2361 38.4628 25.2361 36.5665V12.618C25.2361 5.64929 19.5868 0 12.618 0ZM12.7036 10.3008C12.2295 10.3008 11.8452 10.6851 11.8452 11.1592V20.9446C11.8452 21.4186 12.2295 21.8029 12.7036 21.8029C13.1776 21.8029 13.562 21.4186 13.562 20.9446V11.1592C13.562 10.6851 13.1776 10.3008 12.7036 10.3008Z" fill="white"/>
<path fill-rule="evenodd" clip-rule="evenodd" d="M29.8715 0C27.9752 0 26.438 1.53722 26.438 3.43348V36.5665C26.438 38.4628 27.9752 40 29.8715 40H42.232C42.2377 40 42.2434 40 42.2491 40H36.0516V9.95704H45.6653V36.5949C45.6654 36.5854 45.6655 36.576 45.6655 36.5665V3.43348C45.6655 1.53722 44.1282 0 42.232 0H29.8715Z" fill="white"/>
<path fill-rule="evenodd" clip-rule="evenodd" d="M50.3007 0C48.4044 0 46.8672 1.53722 46.8672 3.43348V36.5665C46.8672 38.4628 48.4044 40 50.3007 40H55.6226V24.206C55.6226 23.732 56.0069 23.3477 56.4809 23.3477C56.955 23.3477 57.3393 23.732 57.3393 24.206V40H62.6612C64.5574 40 66.0947 38.4628 66.0947 36.5665V3.43348C66.0947 1.53722 64.5574 0 62.6612 0H57.3393L57.3393 15.794C57.3393 16.2681 56.955 16.6524 56.4809 16.6524C56.0069 16.6524 55.6226 16.2681 55.6226 15.794L55.6226 0H50.3007Z" fill="white"/>
<path fill-rule="evenodd" clip-rule="evenodd" d="M70.7299 0C68.8336 0 67.2964 1.53722 67.2964 3.43348V36.5665C67.2964 38.4628 68.8336 40 70.7299 40H77.4251V27.4574L75.5418 28.9C75.316 29.073 74.9928 29.0302 74.8198 28.8044C74.6468 28.5786 74.6896 28.2553 74.9154 28.0823L80.9118 23.4888C81.1376 23.3158 81.4609 23.3586 81.6339 23.5844C81.8069 23.8102 81.764 24.1335 81.5382 24.3065L79.1418 26.1422V40H85.8372C87.7334 40 89.2706 38.4628 89.2706 36.5665V3.43348C89.2706 1.53722 87.7334 0 85.8372 0H79.1418L79.1418 12.4846L80.9119 11.1286C81.1377 10.9557 81.461 10.9985 81.6339 11.2243C81.8069 11.4501 81.7641 11.7734 81.5383 11.9463L75.5419 16.5399C75.3161 16.7129 74.9928 16.67 74.8198 16.4442C74.6468 16.2184 74.6897 15.8952 74.9155 15.7222L77.4251 13.7997L77.4251 0H70.7299Z" fill="white"/>
</svg>
