<svg width="231" height="32" viewBox="0 0 231 32" fill="none" xmlns="http://www.w3.org/2000/svg">
<path d="M0.342474 0.626953H25.4175H25.7153H25.7451V0.67186V0.97124V20.7902V20.88V20.895V20.9698V21.0896V21.1195C25.7005 22.317 25.3431 23.5595 24.7028 24.727C24.0625 25.9395 23.1393 27.1071 22.0077 28.11C20.8165 29.1728 19.387 30.071 17.8087 30.6847C16.3345 31.2685 14.7413 31.6128 13.0587 31.6427H12.88C11.2123 31.6427 9.61906 31.3433 8.15982 30.8044C6.59635 30.2506 5.19667 29.4123 4.00546 28.4244C2.79935 27.4215 1.8166 26.2389 1.13165 24.9665C0.461596 23.7391 0.0595607 22.4218 0.0148902 21.1195H0V21.0896V20.8201V20.7902V0.97124V0.67186V0.626953H0.0446705H0.342474ZM9.29147 27.9454H9.66373V26.8826L9.69351 26.7029L9.57439 26.8676L9.33614 27.0323L9.18724 26.8227L9.79774 26.3437H9.99131V27.9454H10.3487V28.2298H9.29147V27.9454ZM11.2123 27.7807C11.2123 27.7208 11.2123 27.661 11.2272 27.6161C11.257 27.5562 11.2719 27.5113 11.3016 27.4813C11.3314 27.4364 11.3612 27.4065 11.4059 27.3765C11.4505 27.3316 11.4803 27.3017 11.5399 27.2867C11.4505 27.2269 11.3761 27.167 11.3314 27.0921C11.2868 27.0173 11.257 26.9275 11.257 26.8227C11.257 26.7479 11.2719 26.688 11.2868 26.6281C11.3165 26.5682 11.3612 26.5233 11.4059 26.4784C11.4505 26.4335 11.5101 26.3886 11.5846 26.3736C11.6441 26.3437 11.7335 26.3287 11.8079 26.3287C11.8973 26.3287 11.9717 26.3437 12.0313 26.3587C12.0908 26.3886 12.1504 26.4185 12.1951 26.4485C12.2397 26.4934 12.2844 26.5383 12.2993 26.5982C12.3291 26.658 12.344 26.7179 12.344 26.7778C12.344 26.8826 12.3291 26.9724 12.2695 27.0472C12.2248 27.1221 12.1653 27.182 12.0759 27.2418C12.1802 27.3167 12.2546 27.3765 12.3142 27.4514C12.3589 27.5262 12.3886 27.6161 12.3886 27.7358C12.3886 27.8256 12.3737 27.8855 12.344 27.9603C12.3142 28.0202 12.2695 28.0801 12.2248 28.125C12.1653 28.1699 12.1057 28.1998 12.0313 28.2298C11.9568 28.2597 11.8824 28.2747 11.793 28.2747C11.7037 28.2747 11.6143 28.2597 11.5548 28.2298C11.4803 28.2148 11.4208 28.1699 11.3612 28.14C11.3165 28.0951 11.2719 28.0352 11.257 27.9753C11.2272 27.9154 11.2123 27.8556 11.2123 27.7807ZM12.061 27.7358C12.061 27.7059 12.0462 27.661 12.0313 27.631C12.0164 27.6011 11.9866 27.5711 11.9568 27.5412C11.927 27.5113 11.8973 27.4813 11.8526 27.4664C11.8228 27.4364 11.7781 27.4215 11.7335 27.3915C11.659 27.4514 11.5995 27.4963 11.5697 27.5562C11.5399 27.6011 11.525 27.661 11.525 27.7208C11.525 27.7957 11.5399 27.8556 11.5995 27.9005C11.6441 27.9454 11.7037 27.9753 11.793 27.9753C11.8824 27.9753 11.9419 27.9603 11.9866 27.9154C12.0313 27.8855 12.061 27.8256 12.061 27.7358ZM11.5846 26.8227C11.5846 26.8676 11.5846 26.9125 11.6143 26.9424C11.6292 26.9724 11.6441 27.0023 11.6739 27.0323C11.7037 27.0472 11.7335 27.0772 11.7632 27.0921C11.793 27.1071 11.8377 27.137 11.8675 27.152C11.9717 27.0622 12.0313 26.9574 12.0313 26.8526C12.0313 26.7778 12.0015 26.7179 11.9717 26.688C11.927 26.6431 11.8675 26.6281 11.8079 26.6281C11.7335 26.6281 11.6739 26.6431 11.6441 26.688C11.5995 26.7329 11.5846 26.7778 11.5846 26.8227ZM13.1778 27.3017C13.1778 26.9724 13.2374 26.7329 13.3416 26.5682C13.4607 26.4185 13.6245 26.3287 13.833 26.3287C14.0563 26.3287 14.2052 26.4036 14.3095 26.5682C14.4137 26.7179 14.4733 26.9724 14.4733 27.3017C14.4733 27.631 14.4137 27.8705 14.3095 28.0352C14.1903 28.1849 14.0266 28.2747 13.8181 28.2747C13.6096 28.2747 13.4458 28.1849 13.3416 28.0202C13.2374 27.8556 13.1778 27.6161 13.1778 27.3017ZM13.5203 27.3017C13.5203 27.5113 13.5501 27.6759 13.5947 27.7957C13.6394 27.9154 13.7139 27.9753 13.833 27.9753C13.9372 27.9753 14.0117 27.9154 14.0563 27.8106C14.101 27.7059 14.1308 27.5412 14.1308 27.3017C14.1308 27.0772 14.101 26.9125 14.0563 26.8077C14.0117 26.688 13.9372 26.6281 13.8181 26.6281C13.7139 26.6281 13.6394 26.673 13.5947 26.7928C13.5501 26.8975 13.5203 27.0622 13.5203 27.3017ZM16.5728 27.7059H16.275V28.2298H15.9474V27.7059H15.1582V27.5113L15.9921 26.3587H16.275V27.4364H16.5728V27.7059ZM15.9474 27.0323L15.9772 26.8077H15.9623L15.8729 27.0023L15.6049 27.3616L15.4709 27.4514L15.6347 27.4364H15.9474V27.0323ZM8.99367 8.27611C8.21938 7.82704 7.87691 8.47071 7.11751 8.63537C6.26877 8.81499 6.04541 8.14139 5.67316 7.54263C6.28366 7.67735 6.31344 7.96176 7.08773 7.42288C7.66844 7.01871 8.39806 7.28816 8.81499 7.76716L8.3385 6.4948C9.75307 6.47983 11.3314 6.3002 12.7311 6.4948L12.9098 6.52474C14.3839 6.82412 15.5156 8.09648 15.5156 9.71313C15.5156 10.8957 14.8306 12.213 13.8479 12.9165V13.0662C15.1731 12.7668 16.677 11.6441 16.811 11.0304C16.6174 10.9556 16.1558 10.6861 16.1707 10.6562C15.6496 10.282 15.4262 9.53351 15.5453 8.96468C15.6645 8.41083 15.9325 8.14139 16.3047 7.91685C16.5579 7.78213 16.7961 7.70729 17.0641 7.67735L24.0179 6.6894C24.0476 6.9289 24.0625 7.1684 24.0774 7.40791C24.2859 11.6741 20.9952 15.2966 16.7515 15.5061C15.2922 15.581 13.4161 14.7727 12.7609 13.3805C12.7311 13.3955 12.7013 13.3955 12.6567 13.3955C12.4035 13.4254 12.1653 13.4704 11.9568 13.5302C11.7335 14.4583 13.6245 15.1768 15.8134 15.5361L15.456 16.045C15.8729 15.9103 16.3196 15.8355 16.7812 15.8355C19.1786 15.8355 21.1441 17.8114 21.1441 20.2214C21.1441 22.6463 19.1786 24.6073 16.7812 24.6073C14.369 24.6073 12.4184 22.6463 12.4184 20.2214C12.4184 19.9819 12.4333 19.7274 12.478 19.5029L12.6269 19.5178L15.2624 19.6975C15.1284 19.907 15.054 20.1615 15.054 20.4459C15.054 21.2243 15.6943 21.853 16.4685 21.853C17.2577 21.853 17.8831 21.2243 17.8831 20.4459C17.8831 19.6675 17.2726 19.0388 16.5132 19.0238L16.4983 19.0089L16.3345 19.0238C16.3196 19.0238 16.2899 19.0238 16.275 19.0238L13.9968 19.2933C13.014 19.458 12.1504 19.5328 11.4208 19.5029L8.26405 23.8139L7.87691 22.7661C5.65827 22.5865 6.41767 23.6193 6.92393 24.0385C6.9686 24.0834 6.9686 24.263 6.92393 24.2929C6.10497 24.2331 5.39025 23.5744 5.39025 22.7212C5.39025 21.853 6.10497 21.1195 6.98349 21.1195C7.56421 21.1195 8.07048 21.4339 8.3385 21.9129L9.76796 17.3773H9.54461L8.68098 18.6347C8.17471 18.0958 7.77267 17.4521 7.53443 16.7336L5.12222 13.7398C5.01799 13.9643 4.8542 14.1739 4.66063 14.3236L4.18414 13.0512C3.11205 12.9913 2.45688 13.2458 3.00782 14.0691H3.23117L3.20139 13.6649H3.87145L3.76722 15.072V15.087V15.1169H3.30562V15.0122L3.27584 14.5631C2.66534 14.3386 2.08463 13.8595 2.08463 13.0961C2.08463 12.4974 2.48666 11.8986 3.05249 11.6292L2.73979 7.51269L1.99528 6.55468H3.26095C3.21628 6.01579 3.38007 5.44697 3.69276 4.98293C3.40985 5.04281 3.14183 5.1925 2.90359 5.61163C2.7249 4.69852 3.4843 3.53094 4.52662 3.71057C5.55404 3.87523 5.4647 3.57585 6.00074 3.17168C5.97096 3.51597 5.95607 3.84529 5.88162 4.14467C6.95371 4.26442 6.90904 3.86026 7.59399 3.35131C7.45998 4.41411 7.5791 5.49188 6.28366 5.80623C5.09244 6.07567 4.21392 5.38709 3.39496 6.55468H3.54386H5.09244L4.33304 7.49772L4.03524 11.5394C4.28837 11.5992 4.52662 11.7339 4.72019 11.8986L6.64102 13.0662L7.05795 14.6379H7.26641C7.45998 12.0034 9.61906 9.9227 12.2695 9.84785L12.1653 9.57841L9.49994 9.59338L8.99367 8.27611ZM8.87455 7.84201C8.96389 7.96176 9.03834 8.06654 9.08301 8.20126C10.2147 8.39586 12.3291 9.71313 11.6292 7.84201H8.87455ZM10.7358 4.02492H11.4208V4.20454H11.6441V4.72846C11.4952 4.78833 11.4059 4.92306 11.4059 5.08771C11.4059 5.26734 11.5101 5.40206 11.659 5.46194H11.6739H11.6888H11.7037H11.7186V5.47691H11.7335H11.7484H11.7632H11.7781C12.0015 5.47691 12.1653 5.29728 12.1653 5.08771V5.07274C12.1653 5.05778 12.1653 5.05778 12.1653 5.05778V5.04281C12.1653 5.02784 12.1653 5.02784 12.1653 5.01287H12.1504V4.9979V4.98293V4.96796C12.1355 4.90809 12.0908 4.86318 12.061 4.81827H12.0462V4.8033H12.0313V4.78833H12.0164C12.0164 4.78833 12.0164 4.77337 12.0015 4.77337H11.9866V4.7584H11.9717L11.9568 4.74343H11.9419V4.63864C11.9419 4.3243 12.2248 3.90516 12.5375 3.90516L13.1182 3.89019L12.2844 6.07567L9.90197 6.09064L9.06812 3.89019L9.61906 3.90516C9.93175 3.90516 10.2147 4.3243 10.2147 4.63864V4.74343C10.1253 4.77337 10.0658 4.83324 10.036 4.90809V4.92306H10.0211V4.93802V4.95299H10.0062V4.96796C10.0062 4.98293 9.99131 4.9979 9.99131 5.01287C9.99131 5.02784 9.99131 5.04281 9.99131 5.05778C9.99131 5.05778 9.99131 5.05778 9.99131 5.07274V5.08771C9.99131 5.29728 10.1551 5.47691 10.3636 5.47691H10.3785H10.3933H10.4082H10.4231H10.438V5.46194H10.4529H10.4678C10.6316 5.41703 10.7507 5.26734 10.7507 5.08771C10.7507 4.92306 10.6614 4.78833 10.5125 4.72846V4.20454H10.7358V4.02492ZM20.3251 17.3024C22.1715 16.539 23.8839 15.2966 24.271 12.1531C23.9136 13.7099 23.1096 14.5631 22.1119 15.0271C21.0398 15.5361 19.7444 15.6109 18.4936 15.6259C19.3275 15.9851 19.9082 16.524 20.3251 17.3024ZM25.0751 1.30056H0.670058V20.4459V20.4908V20.7004V20.7902V20.8201C0.670058 22.0775 1.02742 23.3499 1.65281 24.5474C2.30798 25.7749 3.26095 26.9275 4.42238 27.9005C5.55404 28.8585 6.90904 29.6369 8.38317 30.1758C9.78285 30.6847 11.2868 30.9691 12.88 30.9691H13.0587C14.6519 30.9541 16.1707 30.6248 17.5704 30.071C19.0743 29.4722 20.4293 28.619 21.561 27.6161C22.6629 26.6431 23.5414 25.5204 24.1519 24.3528C24.7475 23.2152 25.0751 22.0326 25.0751 20.895C25.0751 20.8501 25.0751 20.8351 25.09 20.8351V20.8201H25.0751V20.7902V20.7303V20.4908V20.4459V1.30056Z" fill="white"/>
<path d="M50.9094 7.1986H50.3138V12.2581H48.0059V0.432617H50.3138V5.67177L50.8499 5.43226L54.0959 0.432617H56.7166L53.277 5.40232L52.3687 6.03102L53.3217 6.68966L57.2378 12.2581H54.3937L50.9094 7.1986Z" fill="white"/>
<path d="M58.3249 4.29438C58.7716 4.09978 59.3076 3.93512 59.9181 3.81537C60.5435 3.69562 61.1838 3.63574 61.8538 3.63574C62.4346 3.63574 62.9259 3.71059 63.3131 3.84531C63.7151 3.995 64.0278 4.1896 64.2512 4.44407C64.4745 4.71351 64.6383 5.01289 64.7425 5.37215C64.8319 5.7314 64.8765 6.15053 64.8765 6.5996C64.8765 7.09358 64.8617 7.58756 64.8319 8.0965C64.8021 8.59048 64.7723 9.08446 64.7723 9.56347C64.7723 10.0574 64.7872 10.5215 64.817 10.9855C64.8468 11.4346 64.9361 11.8687 65.0701 12.2729H63.2833L62.9259 11.1053H62.8515C62.6281 11.4496 62.3154 11.7639 61.9134 12.0184C61.5114 12.2579 61.0051 12.3926 60.3797 12.3926C59.9777 12.3926 59.6352 12.3327 59.3225 12.213C59.0098 12.0932 58.7418 11.9286 58.5184 11.704C58.2802 11.4945 58.1164 11.225 57.9973 10.9256C57.8633 10.6263 57.8037 10.2969 57.8037 9.92272C57.8037 9.39881 57.9228 8.96471 58.1462 8.62042C58.3844 8.26116 58.712 7.97675 59.1438 7.75222C59.5756 7.52768 60.0819 7.37799 60.6924 7.30315C61.288 7.21333 61.9581 7.18339 62.7026 7.21333C62.777 6.58463 62.7324 6.13556 62.5686 5.86612C62.3899 5.58171 62.0176 5.44699 61.4369 5.44699C61.0051 5.44699 60.5435 5.4919 60.0521 5.58171C59.5608 5.67153 59.1587 5.79128 58.846 5.94097L58.3249 4.29438ZM61.0944 10.5814C61.5411 10.5814 61.8836 10.4915 62.1368 10.282C62.4048 10.0874 62.5835 9.87781 62.7175 9.65328V8.56054C62.3601 8.51564 62.0325 8.51564 61.7198 8.54557C61.3922 8.56054 61.1093 8.60545 60.8711 8.69526C60.618 8.77011 60.4244 8.87489 60.2755 9.02458C60.1266 9.17427 60.0521 9.3539 60.0521 9.5934C60.0521 9.90775 60.1564 10.1473 60.335 10.3269C60.5137 10.4915 60.7817 10.5814 61.0944 10.5814Z" fill="white"/>
<path d="M67.5864 8.75482V7.21301H68.6139C69.001 7.21301 69.3286 7.13817 69.5817 6.98848C69.8349 6.82382 69.954 6.61425 69.954 6.35978C69.954 6.0604 69.8497 5.83586 69.6264 5.70114C69.403 5.58139 69.0606 5.50655 68.599 5.50655C68.1672 5.50655 67.78 5.56642 67.4375 5.68617C67.0951 5.79096 66.827 5.91071 66.6335 6.03046L66.157 4.3689C66.4995 4.17431 66.9462 4.00965 67.4971 3.85996C68.048 3.72524 68.6436 3.65039 69.269 3.65039C70.2369 3.65039 70.9516 3.83002 71.4281 4.18927C71.9046 4.54853 72.1428 5.07245 72.1428 5.76102C72.1428 5.95562 72.113 6.15021 72.0684 6.34481C72.0237 6.53941 71.9344 6.734 71.8301 6.91363C71.711 7.09326 71.577 7.25792 71.4132 7.39264C71.2494 7.54233 71.0558 7.64711 70.8325 7.72196V7.7968C71.4281 7.93152 71.845 8.17103 72.0982 8.51531C72.3364 8.8596 72.4704 9.30867 72.4704 9.89246C72.4704 10.2517 72.396 10.581 72.2471 10.8954C72.0982 11.2097 71.8748 11.4792 71.577 11.7037C71.2792 11.9282 70.9069 12.1079 70.4602 12.2426C70.0135 12.3773 69.4775 12.4372 68.867 12.4372C68.2565 12.4372 67.7204 12.3773 67.2589 12.2426C66.8121 12.1228 66.425 11.9732 66.1272 11.7935L66.6037 10.0871C66.8568 10.2367 67.1695 10.3565 67.5269 10.4463C67.8991 10.5361 68.3012 10.581 68.7479 10.581C69.7753 10.581 70.2816 10.2517 70.2816 9.60805C70.2816 9.30867 70.1475 9.09911 69.8795 8.96438C69.6264 8.82966 69.135 8.75482 68.4054 8.75482H67.5864Z" fill="white"/>
<path d="M73.9298 4.29438C74.3766 4.09978 74.9126 3.93512 75.5231 3.81537C76.1336 3.69562 76.7888 3.63574 77.4588 3.63574C78.0395 3.63574 78.5309 3.71059 78.9181 3.84531C79.3052 3.995 79.6179 4.1896 79.8561 4.44407C80.0795 4.71351 80.2433 5.01289 80.3326 5.37215C80.4369 5.7314 80.4815 6.15053 80.4815 6.5996C80.4815 7.09358 80.4666 7.58756 80.4369 8.0965C80.3922 8.59048 80.3773 9.08446 80.3773 9.56347C80.3624 10.0574 80.3773 10.5215 80.422 10.9855C80.4517 11.4346 80.5262 11.8687 80.6602 12.2729H78.8883L78.5309 11.1053H78.4416C78.2182 11.4496 77.9055 11.7639 77.5184 12.0184C77.1163 12.2579 76.6101 12.3926 75.9698 12.3926C75.5827 12.3926 75.2253 12.3327 74.9126 12.213C74.5999 12.0932 74.3319 11.9286 74.1085 11.704C73.8852 11.4945 73.7065 11.225 73.5874 10.9256C73.4683 10.6263 73.4087 10.2969 73.4087 9.92272C73.4087 9.39881 73.5129 8.96471 73.7512 8.62042C73.9745 8.26116 74.317 7.97675 74.7488 7.75222C75.1657 7.52768 75.6869 7.37799 76.2825 7.30315C76.893 7.21333 77.5631 7.18339 78.2927 7.21333C78.382 6.58463 78.3373 6.13556 78.1587 5.86612C77.9949 5.58171 77.6226 5.44699 77.0419 5.44699C76.5952 5.44699 76.1336 5.4919 75.6422 5.58171C75.1657 5.67153 74.7637 5.79128 74.451 5.94097L73.9298 4.29438ZM76.6994 10.5814C77.1312 10.5814 77.4886 10.4915 77.7417 10.282C77.9949 10.0874 78.1884 9.87781 78.3076 9.65328V8.56054C77.9651 8.51564 77.6375 8.51564 77.3099 8.54557C76.9972 8.56054 76.7143 8.60545 76.4612 8.69526C76.2229 8.77011 76.0145 8.87489 75.8805 9.02458C75.7316 9.17427 75.6571 9.3539 75.6571 9.5934C75.6571 9.90775 75.7464 10.1473 75.94 10.3269C76.1187 10.4915 76.3718 10.5814 76.6994 10.5814Z" fill="white"/>
<path d="M87.2416 8.9192H84.5018V12.2573H82.313V3.7998H84.5018V6.9882H87.2416V3.7998H89.4305V12.2573H87.2416V8.9192Z" fill="white"/>
<path d="M97.2927 11.7343C96.9502 11.9738 96.5482 12.1684 96.0717 12.3031C95.5952 12.4228 95.1038 12.4977 94.5976 12.4977C93.9275 12.4977 93.3617 12.3929 92.9001 12.1684C92.4385 11.9588 92.0513 11.6594 91.7684 11.2702C91.4706 10.881 91.2622 10.402 91.1281 9.86315C91.009 9.3093 90.9346 8.69557 90.9346 8.03693C90.9346 6.59991 91.2622 5.4922 91.9024 4.72878C92.5278 3.9504 93.4659 3.57617 94.6869 3.57617C95.2974 3.57617 95.8037 3.62108 96.1759 3.72586C96.5482 3.83064 96.8906 3.9504 97.1884 4.11506L96.6673 5.89637C96.4142 5.77661 96.161 5.6868 95.9079 5.61196C95.6548 5.55208 95.3718 5.50717 95.0443 5.50717C94.4338 5.50717 93.9722 5.71674 93.6595 6.1209C93.3468 6.5101 93.1979 7.15376 93.1979 8.03693C93.1979 8.39619 93.2277 8.72551 93.3021 9.02489C93.3915 9.33924 93.5106 9.59371 93.6595 9.81824C93.8233 10.0428 94.0168 10.2224 94.27 10.3571C94.5231 10.4918 94.8209 10.5517 95.1634 10.5517C95.5207 10.5517 95.8483 10.5068 96.1015 10.402C96.3546 10.3122 96.5928 10.1925 96.7864 10.0577L97.2927 11.7343Z" fill="white"/>
<path d="M101.387 8.75454H100.807V12.2573H98.6177V3.7998H100.807V7.40733L101.328 7.16783L103.293 3.7998H105.631L103.591 7.01814L102.742 7.66181L103.68 8.32044L105.944 12.2573H103.442L101.387 8.75454Z" fill="white"/>
<path d="M111.9 8.39529L111.989 7.19777H111.929L111.215 8.44019L108.222 12.2573H106.837V3.7998H109.026V7.82646L108.922 8.97908H108.996L109.681 7.78156L112.704 3.7998H114.088V12.2573H111.9V8.39529Z" fill="white"/>
<path d="M121.057 8.39577L121.147 7.19825H121.102L120.372 8.44068L117.379 12.2578H115.995V3.80029H118.183V7.82695L118.079 8.97956H118.154L118.839 7.78204L121.861 3.80029H123.246V12.2578H121.057V8.39577ZM118.72 0.357422C118.809 0.791523 118.928 1.10587 119.122 1.2855C119.3 1.46513 119.538 1.55494 119.836 1.55494C120.149 1.55494 120.402 1.46513 120.581 1.2855C120.774 1.10587 120.893 0.806492 120.968 0.372391L122.621 0.791523C122.487 1.525 122.159 2.07886 121.638 2.42314C121.102 2.7824 120.491 2.96203 119.777 2.96203C119.434 2.96203 119.107 2.91712 118.779 2.84228C118.452 2.76743 118.154 2.63271 117.901 2.46805C117.647 2.28842 117.424 2.06389 117.245 1.79445C117.067 1.525 116.948 1.19569 116.873 0.791523L118.72 0.357422Z" fill="white"/>
<path d="M133.267 12.3629C133.074 12.4228 132.88 12.4677 132.672 12.4827C132.463 12.4827 132.269 12.4976 132.106 12.4976C131.093 12.4976 130.304 12.1234 129.753 11.3899C129.202 10.6564 128.934 9.54874 128.934 8.03687C128.934 6.58488 129.232 5.49214 129.842 4.75866C130.438 4.01021 131.317 3.63598 132.463 3.63598C132.776 3.63598 133.044 3.66592 133.267 3.71083V0.432617H135.411V3.7258C135.62 3.69586 135.798 3.66592 135.962 3.65095C136.111 3.65095 136.26 3.63598 136.409 3.63598C137.526 3.63598 138.36 3.9653 138.911 4.62394C139.476 5.28257 139.759 6.36034 139.759 7.85724C139.759 8.57575 139.685 9.20445 139.521 9.77327C139.372 10.3571 139.149 10.8361 138.866 11.2402C138.568 11.6444 138.211 11.9587 137.794 12.1683C137.377 12.3928 136.885 12.4976 136.335 12.4976C136.245 12.4976 136.096 12.4827 135.903 12.4677C135.694 12.4527 135.545 12.4228 135.411 12.3779V15.6411H133.267V12.3629ZM135.918 5.37239C135.813 5.37239 135.709 5.38736 135.635 5.40232C135.545 5.41729 135.441 5.44723 135.322 5.4622V10.7013C135.411 10.7313 135.516 10.7313 135.635 10.7463C135.739 10.7463 135.873 10.7463 136.007 10.7463C136.543 10.7463 136.945 10.5367 137.198 10.0876C137.436 9.63855 137.57 8.90507 137.57 7.85724C137.57 6.98904 137.451 6.34537 137.198 5.95618C136.96 5.56698 136.528 5.37239 135.918 5.37239ZM132.672 10.7463C132.806 10.7463 132.91 10.7463 133.029 10.7313C133.133 10.7163 133.237 10.6864 133.371 10.6714V5.44723C133.148 5.40232 132.94 5.37239 132.716 5.37239C132.195 5.37239 131.793 5.58195 131.525 5.97115C131.257 6.37531 131.108 7.06388 131.108 8.03687C131.108 8.90507 131.242 9.57867 131.495 10.0577C131.748 10.5217 132.135 10.7463 132.672 10.7463Z" fill="white"/>
<path d="M147.904 11.5247C147.577 11.7942 147.115 12.0337 146.534 12.2133C145.954 12.3929 145.343 12.4977 144.703 12.4977C143.348 12.4977 142.35 12.0935 141.725 11.3002C141.099 10.5068 140.787 9.41408 140.787 8.03693C140.787 6.54003 141.129 5.43233 141.844 4.68388C142.544 3.93543 143.541 3.57617 144.807 3.57617C145.239 3.57617 145.656 3.62108 146.058 3.74083C146.46 3.84561 146.817 4.04021 147.13 4.29468C147.443 4.54916 147.696 4.90841 147.889 5.34251C148.083 5.79158 148.172 6.33047 148.172 6.9891C148.172 7.21364 148.157 7.46811 148.127 7.73755C148.113 8.02196 148.068 8.29141 148.008 8.59079H142.961C143.005 9.29433 143.184 9.83321 143.512 10.1925C143.839 10.5517 144.375 10.7314 145.12 10.7314C145.581 10.7314 145.983 10.6715 146.356 10.5218C146.713 10.3871 146.996 10.2374 147.189 10.0877L147.904 11.5247ZM144.777 5.32754C144.211 5.32754 143.78 5.4922 143.512 5.83649C143.244 6.18078 143.065 6.64482 143.02 7.21364H146.147C146.192 6.61488 146.088 6.15084 145.864 5.82152C145.641 5.4922 145.269 5.32754 144.777 5.32754Z" fill="white"/>
<path d="M157.895 14.1883H156.302L156.049 12.2573H150.391L150.138 14.1883H148.544V10.3113H149.542C149.631 10.1916 149.736 9.982 149.885 9.68262C150.019 9.38324 150.167 8.96411 150.301 8.45516C150.435 7.93125 150.569 7.28758 150.659 6.52416C150.763 5.76074 150.823 4.84763 150.823 3.7998H156.66V10.3113H157.895V14.1883ZM154.486 10.4161V5.67093H152.714C152.699 6.07509 152.654 6.49422 152.595 6.95826C152.535 7.40733 152.475 7.8564 152.386 8.2905C152.297 8.70964 152.207 9.1138 152.088 9.48802C151.984 9.86225 151.85 10.1616 151.716 10.4161H154.486Z" fill="white"/>
<path d="M165.817 11.5247C165.474 11.7942 165.013 12.0337 164.447 12.2133C163.866 12.3929 163.256 12.4977 162.601 12.4977C161.246 12.4977 160.248 12.0935 159.623 11.3002C158.997 10.5068 158.685 9.41408 158.685 8.03693C158.685 6.54003 159.042 5.43233 159.742 4.68388C160.442 3.93543 161.439 3.57617 162.72 3.57617C163.137 3.57617 163.554 3.62108 163.956 3.74083C164.358 3.84561 164.73 4.04021 165.043 4.29468C165.355 4.54916 165.609 4.90841 165.787 5.34251C165.981 5.79158 166.085 6.33047 166.085 6.9891C166.085 7.21364 166.07 7.46811 166.04 7.73755C166.011 8.02196 165.966 8.29141 165.906 8.59079H160.873C160.903 9.29433 161.082 9.83321 161.409 10.1925C161.752 10.5517 162.273 10.7314 163.018 10.7314C163.479 10.7314 163.896 10.6715 164.253 10.5218C164.626 10.3871 164.894 10.2374 165.087 10.0877L165.817 11.5247ZM162.69 5.32754C162.109 5.32754 161.692 5.4922 161.409 5.83649C161.141 6.18078 160.978 6.64482 160.918 7.21364H164.045C164.09 6.61488 164 6.15084 163.762 5.82152C163.539 5.4922 163.181 5.32754 162.69 5.32754Z" fill="white"/>
<path d="M167.619 3.80071H169.227L169.48 4.8186H169.539C169.837 4.39947 170.18 4.07015 170.582 3.87555C170.969 3.66599 171.46 3.57617 172.026 3.57617C173.083 3.57617 173.873 3.90549 174.394 4.57909C174.93 5.2527 175.183 6.33047 175.183 7.8124C175.183 8.53091 175.108 9.18955 174.945 9.75837C174.766 10.3422 174.513 10.8361 174.185 11.2403C173.858 11.6445 173.456 11.9588 172.979 12.1684C172.503 12.3929 171.952 12.4977 171.341 12.4977C170.999 12.4977 170.701 12.4678 170.478 12.4228C170.254 12.363 170.031 12.2881 169.808 12.1684V15.6412H167.619V3.80071ZM171.371 5.43233C170.954 5.43233 170.612 5.53711 170.373 5.74668C170.135 5.97121 169.942 6.28556 169.808 6.71966V10.2224C169.971 10.3571 170.135 10.4469 170.329 10.5218C170.507 10.5966 170.746 10.6415 171.058 10.6415C171.684 10.6415 172.16 10.417 172.473 9.96793C172.786 9.51886 172.934 8.78538 172.934 7.76749C172.934 7.01904 172.815 6.45022 172.562 6.03109C172.324 5.62692 171.922 5.43233 171.371 5.43233Z" fill="white"/>
<path d="M176.657 4.29438C177.104 4.09978 177.64 3.93512 178.25 3.81537C178.861 3.69562 179.516 3.63574 180.186 3.63574C180.767 3.63574 181.258 3.71059 181.645 3.84531C182.032 3.995 182.345 4.1896 182.583 4.44407C182.807 4.71351 182.971 5.01289 183.06 5.37215C183.164 5.7314 183.209 6.15053 183.209 6.5996C183.209 7.09358 183.194 7.58756 183.164 8.0965C183.119 8.59048 183.105 9.08446 183.105 9.56347C183.09 10.0574 183.105 10.5215 183.134 10.9855C183.179 11.4346 183.253 11.8687 183.388 12.2729H181.616L181.258 11.1053H181.169C180.946 11.4496 180.633 11.7639 180.246 12.0184C179.844 12.2579 179.337 12.3926 178.697 12.3926C178.31 12.3926 177.953 12.3327 177.64 12.213C177.327 12.0932 177.059 11.9286 176.836 11.704C176.612 11.4945 176.434 11.225 176.315 10.9256C176.196 10.6263 176.136 10.2969 176.136 9.92272C176.136 9.39881 176.24 8.96471 176.478 8.62042C176.702 8.26116 177.029 7.97675 177.461 7.75222C177.893 7.52768 178.414 7.37799 179.01 7.30315C179.62 7.21333 180.29 7.18339 181.02 7.21333C181.094 6.58463 181.05 6.13556 180.886 5.86612C180.722 5.58171 180.35 5.44699 179.769 5.44699C179.322 5.44699 178.861 5.4919 178.37 5.58171C177.893 5.67153 177.491 5.79128 177.178 5.94097L176.657 4.29438ZM179.427 10.5814C179.859 10.5814 180.216 10.4915 180.469 10.282C180.722 10.0874 180.916 9.87781 181.035 9.65328V8.56054C180.692 8.51564 180.365 8.51564 180.037 8.54557C179.725 8.56054 179.442 8.60545 179.188 8.69526C178.95 8.77011 178.742 8.87489 178.608 9.02458C178.459 9.17427 178.384 9.3539 178.384 9.5934C178.384 9.90775 178.474 10.1473 178.667 10.3269C178.846 10.4915 179.099 10.5814 179.427 10.5814Z" fill="white"/>
<path d="M189.612 5.74577H187.944C187.884 6.5541 187.81 7.34746 187.721 8.12584C187.631 8.9192 187.482 9.62274 187.289 10.2514C187.095 10.8801 186.827 11.3891 186.485 11.7783C186.157 12.1675 185.71 12.3621 185.174 12.3621C184.519 12.3621 184.072 12.2723 183.79 12.1076L184.072 10.2814C184.251 10.3413 184.415 10.3862 184.564 10.3862C184.787 10.3862 184.996 10.2814 185.159 10.0868C185.323 9.90715 185.472 9.56287 185.591 9.06889C185.71 8.55995 185.8 7.88634 185.874 7.04808C185.949 6.19484 185.993 5.11708 186.038 3.7998H191.8V12.2573H189.612V5.74577Z" fill="white"/>
<path d="M195.88 10.4161C196.223 10.476 196.535 10.5209 196.848 10.5209C197.384 10.5209 197.771 10.4161 198.01 10.2365C198.248 10.0568 198.367 9.75747 198.367 9.36827C198.367 8.63479 197.876 8.26057 196.893 8.26057C196.521 8.26057 196.193 8.30547 195.88 8.38032V10.4161ZM195.88 6.80857C196.148 6.76367 196.431 6.73373 196.699 6.71876C196.967 6.70379 197.22 6.68882 197.444 6.68882C198.024 6.68882 198.516 6.76367 198.933 6.88342C199.335 7.01814 199.662 7.19777 199.916 7.43727C200.169 7.67677 200.347 7.96119 200.452 8.27553C200.571 8.58988 200.63 8.94914 200.63 9.3084C200.63 10.3413 200.318 11.1047 199.722 11.6136C199.111 12.1226 198.084 12.377 196.64 12.377C195.999 12.377 195.448 12.3621 194.987 12.3471C194.525 12.3172 194.093 12.2872 193.691 12.2573V3.7998H195.88V6.80857Z" fill="white"/>
<path d="M206.854 8.9192H204.114V12.2573H201.94V3.7998H204.114V6.9882H206.854V3.7998H209.043V12.2573H206.854V8.9192Z" fill="white"/>
<path d="M213.153 10.4161C213.48 10.476 213.808 10.5209 214.106 10.5209C214.612 10.5209 214.969 10.4161 215.163 10.2365C215.371 10.0568 215.461 9.75747 215.461 9.36827C215.461 9.00902 215.371 8.73957 215.163 8.54498C214.969 8.36535 214.627 8.26057 214.15 8.26057C213.793 8.26057 213.451 8.30547 213.153 8.38032V10.4161ZM213.153 6.80857C213.421 6.76367 213.689 6.73373 213.957 6.71876C214.24 6.70379 214.493 6.68882 214.716 6.68882C215.282 6.68882 215.759 6.76367 216.146 6.88342C216.518 7.01814 216.831 7.19777 217.069 7.43727C217.292 7.67677 217.471 7.96119 217.575 8.27553C217.664 8.58988 217.724 8.94914 217.724 9.3084C217.724 9.81734 217.65 10.2664 217.516 10.6556C217.382 11.0298 217.158 11.3442 216.86 11.5987C216.563 11.8531 216.161 12.0477 215.684 12.1824C215.208 12.3022 214.612 12.377 213.897 12.377C213.272 12.377 212.706 12.3621 212.244 12.3471C211.783 12.3172 211.351 12.2872 210.964 12.2573V3.7998H213.153V6.80857ZM218.677 3.7998H220.866V12.2573H218.677V3.7998Z" fill="white"/>
<path d="M227.835 8.39577L227.924 7.19825H227.879L227.15 8.44068L224.157 12.2578H222.772V3.80029H224.961V7.82695L224.857 8.97956H224.931L225.616 7.78204L228.639 3.80029H230.023V12.2578H227.835V8.39577ZM225.497 0.357422C225.586 0.791523 225.705 1.10587 225.899 1.2855C226.078 1.46513 226.316 1.55494 226.614 1.55494C226.926 1.55494 227.179 1.46513 227.358 1.2855C227.552 1.10587 227.671 0.806492 227.745 0.372391L229.398 0.791523C229.264 1.525 228.937 2.07886 228.415 2.42314C227.879 2.7824 227.269 2.96203 226.554 2.96203C226.212 2.96203 225.884 2.91712 225.556 2.84228C225.229 2.76743 224.931 2.63271 224.678 2.46805C224.425 2.28842 224.201 2.06389 224.023 1.79445C223.844 1.525 223.725 1.19569 223.65 0.791523L225.497 0.357422Z" fill="white"/>
<path d="M52.0709 25.7746L52.4432 27.0619H52.5176L52.8005 25.7297L54.7362 20.4307H55.9572L53.411 27.017C53.143 27.7056 52.9196 28.2744 52.7261 28.7385C52.5176 29.1875 52.324 29.5618 52.1156 29.8462C51.922 30.1306 51.6986 30.3401 51.4753 30.4599C51.237 30.5796 50.9541 30.6395 50.6265 30.6395C50.3139 30.6395 50.0607 30.6096 49.8671 30.5647C49.6885 30.5048 49.5098 30.43 49.346 30.3252L49.7034 29.3222C49.8969 29.427 50.0756 29.5019 50.2394 29.5318C50.4032 29.5618 50.5521 29.5618 50.6861 29.5618C50.9541 29.5618 51.1775 29.427 51.3562 29.1576C51.5348 28.8881 51.6986 28.469 51.8327 27.9301L48.1101 20.4307H49.48L52.0709 25.7746Z" fill="white"/>
<path d="M72.1428 25.9243H67.3035V30.5647H66.1123V20.4307H67.3035V24.8465H72.1428V20.4307H73.334V30.5647H72.1428V25.9243Z" fill="white"/>
<path d="M90.8598 23.7089L90.9492 22.5413H90.8896L90.2791 23.7388L85.41 30.5647H84.6953V20.4307H85.9014V27.3763L85.7972 28.5289H85.8567L86.4821 27.3314L91.3512 20.4307H92.066V30.5647H90.8598V23.7089Z" fill="white"/>
<path d="M109.502 22.7515C109.502 22.991 109.458 23.2305 109.383 23.485C109.309 23.7394 109.19 23.964 109.041 24.1885C108.892 24.413 108.698 24.5927 108.445 24.7573C108.207 24.922 107.924 25.0567 107.596 25.1315V25.1914C107.894 25.2363 108.162 25.3261 108.43 25.4459C108.698 25.5507 108.922 25.7153 109.13 25.9249C109.324 26.1195 109.488 26.374 109.622 26.6584C109.741 26.9428 109.8 27.2871 109.8 27.6912C109.8 28.2152 109.696 28.6642 109.488 29.0384C109.264 29.4276 108.981 29.727 108.639 29.9815C108.281 30.221 107.879 30.4006 107.433 30.5054C106.971 30.6252 106.524 30.685 106.048 30.685C105.884 30.685 105.691 30.685 105.467 30.685C105.244 30.685 105.02 30.685 104.782 30.6701C104.544 30.6551 104.306 30.6252 104.053 30.6102C103.814 30.5803 103.606 30.5503 103.427 30.4904V20.5211C103.785 20.4612 104.202 20.4163 104.663 20.3714C105.14 20.3265 105.646 20.3115 106.212 20.3115C106.584 20.3115 106.956 20.3415 107.343 20.4013C107.745 20.4762 108.088 20.5959 108.415 20.7756C108.728 20.9552 108.981 21.1947 109.19 21.509C109.398 21.8384 109.502 22.2425 109.502 22.7515ZM106.167 29.6372C106.465 29.6372 106.763 29.6073 107.06 29.5324C107.343 29.4576 107.596 29.3378 107.82 29.1881C108.043 29.0235 108.222 28.8289 108.341 28.6043C108.475 28.3648 108.535 28.0954 108.535 27.7661C108.535 27.3769 108.46 27.0625 108.296 26.823C108.147 26.5835 107.939 26.3889 107.686 26.2542C107.433 26.1195 107.135 26.0297 106.822 25.9848C106.51 25.9249 106.197 25.9099 105.869 25.9099H104.618V29.5474C104.693 29.5624 104.782 29.5773 104.916 29.5773C105.035 29.5923 105.169 29.6073 105.318 29.6073C105.452 29.6222 105.601 29.6372 105.765 29.6372C105.914 29.6372 106.048 29.6372 106.167 29.6372ZM105.363 24.892C105.527 24.892 105.735 24.892 105.959 24.8771C106.197 24.8621 106.39 24.8471 106.539 24.8322C106.763 24.7573 106.986 24.6675 107.18 24.5477C107.388 24.443 107.567 24.3082 107.731 24.1586C107.879 24.0089 108.013 23.8292 108.103 23.6346C108.192 23.44 108.237 23.2305 108.237 22.991C108.237 22.6766 108.177 22.4072 108.058 22.1976C107.939 22.003 107.775 21.8234 107.567 21.7036C107.373 21.5839 107.135 21.4941 106.882 21.4342C106.629 21.3893 106.361 21.3594 106.093 21.3594C105.78 21.3594 105.482 21.3594 105.214 21.3743C104.961 21.3893 104.752 21.4192 104.618 21.4492V24.892H105.363Z" fill="white"/>
<path d="M120.759 20.4307H126.239V21.4935H121.95V24.8166H125.881V25.8943H121.95V29.5019H126.313V30.5647H120.759V20.4307Z" fill="white"/>
<path d="M137.392 20.5361C137.749 20.4462 138.151 20.3864 138.568 20.3564C138.985 20.3265 139.417 20.3115 139.819 20.3115C140.265 20.3115 140.712 20.3564 141.174 20.4462C141.62 20.5361 142.037 20.6857 142.41 20.9253C142.782 21.1498 143.095 21.4791 143.333 21.8833C143.571 22.2874 143.675 22.7964 143.675 23.4251C143.675 24.0388 143.571 24.5627 143.348 24.9968C143.124 25.416 142.841 25.7602 142.469 26.0297C142.112 26.2991 141.695 26.4788 141.218 26.5985C140.742 26.7183 140.265 26.7781 139.759 26.7781C139.714 26.7781 139.64 26.7781 139.521 26.7781C139.417 26.7781 139.298 26.7781 139.178 26.7632C139.059 26.7632 138.94 26.7482 138.836 26.7482C138.717 26.7332 138.627 26.7332 138.583 26.7183V30.5653H137.392V20.5361ZM139.848 21.3594C139.595 21.3594 139.357 21.3594 139.134 21.3743C138.896 21.3743 138.717 21.4043 138.583 21.4492V25.6405C138.627 25.6704 138.702 25.6704 138.821 25.6854C138.925 25.6854 139.03 25.6854 139.149 25.7004C139.268 25.7004 139.372 25.7004 139.476 25.7004C139.58 25.7004 139.655 25.7004 139.7 25.7004C140.027 25.7004 140.355 25.6704 140.682 25.6105C140.995 25.5507 141.293 25.4309 141.546 25.2663C141.814 25.1016 142.022 24.8771 142.171 24.5777C142.335 24.2783 142.41 23.8891 142.41 23.4251C142.41 23.0359 142.335 22.7066 142.186 22.4371C142.037 22.1677 141.844 21.9581 141.606 21.7935C141.352 21.6438 141.084 21.524 140.772 21.4641C140.459 21.3893 140.161 21.3594 139.848 21.3594Z" fill="white"/>
<path d="M160.561 30.1455C160.278 30.37 159.906 30.5197 159.474 30.6095C159.027 30.6993 158.551 30.7442 158.059 30.7442C157.449 30.7442 156.883 30.6395 156.362 30.4299C155.826 30.2203 155.364 29.906 154.977 29.4868C154.575 29.0527 154.262 28.5139 154.039 27.8552C153.801 27.1966 153.697 26.4032 153.697 25.5051C153.697 24.5471 153.816 23.7537 154.069 23.0801C154.322 22.4215 154.664 21.8826 155.081 21.4635C155.498 21.0443 155.975 20.745 156.481 20.5504C157.002 20.3558 157.538 20.251 158.074 20.251C158.64 20.251 159.117 20.2809 159.489 20.3558C159.846 20.4156 160.159 20.4905 160.412 20.6102L160.129 21.6581C159.667 21.4335 159.012 21.3287 158.164 21.3287C157.762 21.3287 157.374 21.4036 156.987 21.5383C156.6 21.688 156.258 21.9275 155.96 22.2568C155.662 22.5861 155.409 23.0053 155.23 23.5442C155.052 24.0681 154.962 24.7267 154.962 25.5051C154.962 26.1937 155.052 26.8074 155.215 27.3163C155.394 27.8403 155.632 28.2744 155.93 28.6336C156.228 28.9779 156.585 29.2324 157.002 29.412C157.404 29.5767 157.851 29.6665 158.327 29.6665C158.759 29.6665 159.146 29.6216 159.459 29.5467C159.787 29.4569 160.055 29.3372 160.278 29.2024L160.561 30.1455Z" fill="white"/>
<path d="M177.416 23.7089L177.506 22.5413H177.446L176.821 23.7388L171.952 30.5647H171.252V20.4307H172.443V27.3763L172.339 28.5289H172.398L173.039 27.3314L177.908 20.4307H178.608V30.5647H177.416V23.7089Z" fill="white"/>
<path d="M196.476 21.4935H193.349V30.5647H192.143V21.4935H189.016V20.4307H196.476V21.4935Z" fill="white"/>
<path d="M206.884 20.4307H212.364V21.4935H208.075V24.8166H212.006V25.8943H208.075V29.5019H212.438V30.5647H206.884V20.4307Z" fill="white"/>
<path d="M230.023 21.4935H226.882V30.5647H225.69V21.4935H222.549V20.4307H230.023V21.4935Z" fill="white"/>
<path d="M36.6893 0.626953V30.6548H36.0193V0.626953H36.6893Z" fill="white"/>
</svg>
