<svg width="193" height="50" viewBox="0 0 193 50" fill="none" xmlns="http://www.w3.org/2000/svg">
<path fill-rule="evenodd" clip-rule="evenodd" d="M101.712 18.3651L101.786 17.3672H101.749L101.141 18.4026L98.647 21.5835H97.493V14.5356H99.3171V17.8911L99.2302 18.8516H99.2923L99.8631 17.8537L102.382 14.5356H103.536V21.5835H101.712V18.3651ZM99.7638 11.6665C99.8382 12.0283 99.9375 12.2902 100.099 12.4399C100.248 12.5896 100.446 12.6644 100.694 12.6644C100.955 12.6644 101.166 12.5896 101.315 12.4399C101.476 12.2902 101.575 12.0407 101.637 11.679L103.015 12.0283C102.903 12.6395 102.63 13.101 102.196 13.3879C101.749 13.6873 101.24 13.837 100.645 13.837C100.359 13.837 100.086 13.7996 99.8134 13.7372C99.5404 13.6748 99.2923 13.5626 99.0813 13.4254C98.8704 13.2757 98.6842 13.0886 98.5353 12.864C98.3864 12.6395 98.2872 12.3651 98.2251 12.0283L99.7638 11.6665ZM43.2557 17.3675H42.7594V21.5838H40.8361V11.7292H42.7594V16.0951L43.2061 15.8955L45.9111 11.7292H48.095L45.2287 15.8706L44.4718 16.3945L45.2659 16.9434L48.5293 21.5838H46.1593L43.2557 17.3675ZM1.11645 11.891H22.0123H22.2605H22.2853V11.9284V12.1779V28.6937V28.7686V28.781V28.8434V28.9432V28.9681C22.2481 29.9661 21.9503 31.0014 21.4167 31.9744C20.8832 32.9848 20.1138 33.9578 19.1708 34.7936C18.1781 35.6792 16.9869 36.4277 15.6716 36.9391C14.4432 37.4256 13.1155 37.7125 11.7133 37.7375H11.5644C10.1746 37.7375 8.84693 37.488 7.6309 37.0389C6.32801 36.5774 5.16162 35.8788 4.16894 35.0555C3.16385 34.2198 2.34489 33.2343 1.7741 32.174C1.21572 31.1511 0.880689 30.0534 0.843463 28.9681H0.831055V28.9432V28.7187V28.6937V12.1779V11.9284V11.891H0.86828H1.11645ZM8.57395 34.6564H8.88416V33.7707L8.90898 33.621L8.80971 33.7582L8.61117 33.8954L8.48709 33.7208L8.99584 33.3216H9.15715V34.6564H9.45495V34.8934H8.57395V34.6564ZM10.1746 34.5191C10.1746 34.4692 10.1746 34.4193 10.1871 34.3819C10.1937 34.3686 10.1995 34.3561 10.2048 34.3445C10.2194 34.3129 10.2309 34.2879 10.2491 34.2697C10.2739 34.2322 10.2987 34.2073 10.336 34.1823C10.3732 34.1449 10.398 34.12 10.4476 34.1075C10.3732 34.0576 10.3111 34.0077 10.2739 33.9453C10.2367 33.883 10.2119 33.8081 10.2119 33.7208C10.2119 33.6584 10.2243 33.6085 10.2367 33.5586C10.2615 33.5087 10.2987 33.4713 10.336 33.4339C10.3732 33.3965 10.4228 33.359 10.4849 33.3466C10.5345 33.3216 10.6089 33.3091 10.671 33.3091C10.7454 33.3091 10.8075 33.3216 10.8571 33.3341C10.9067 33.359 10.9564 33.384 10.9936 33.4089C11.0308 33.4464 11.0681 33.4838 11.0805 33.5337C11.1053 33.5836 11.1177 33.6335 11.1177 33.6834C11.1177 33.7707 11.1053 33.8455 11.0556 33.9079C11.0184 33.9703 10.9688 34.0202 10.8943 34.0701C10.9812 34.1324 11.0432 34.1823 11.0929 34.2447C11.1301 34.3071 11.1549 34.3819 11.1549 34.4817C11.1549 34.5566 11.1425 34.6065 11.1177 34.6688C11.0929 34.7187 11.0556 34.7686 11.0184 34.806C10.9688 34.8435 10.9192 34.8684 10.8571 34.8934C10.7951 34.9183 10.733 34.9308 10.6586 34.9308C10.5841 34.9308 10.5097 34.9183 10.46 34.8934C10.4154 34.8844 10.3771 34.8625 10.3407 34.8416C10.3265 34.8335 10.3126 34.8255 10.2987 34.8185C10.2615 34.7811 10.2243 34.7312 10.2119 34.6813C10.1871 34.6314 10.1746 34.5815 10.1746 34.5191ZM10.8819 34.4817C10.8819 34.4568 10.8695 34.4193 10.8571 34.3944C10.8447 34.3694 10.8199 34.3445 10.7951 34.3196C10.7702 34.2946 10.7454 34.2697 10.7082 34.2572C10.6932 34.2421 10.6736 34.2315 10.6522 34.22L10.6522 34.22C10.6383 34.2125 10.6236 34.2046 10.6089 34.1948L10.5956 34.2055C10.5398 34.2502 10.4955 34.2858 10.4724 34.332C10.4476 34.3694 10.4352 34.4193 10.4352 34.4692C10.4352 34.5316 10.4476 34.5815 10.4973 34.6189C10.5345 34.6564 10.5841 34.6813 10.6586 34.6813C10.733 34.6813 10.7827 34.6688 10.8199 34.6314C10.8571 34.6065 10.8819 34.5566 10.8819 34.4817ZM10.4849 33.7208C10.4849 33.7582 10.4849 33.7956 10.5097 33.8206C10.5221 33.8455 10.5345 33.8705 10.5593 33.8954C10.5717 33.9017 10.5841 33.911 10.5965 33.9204C10.6089 33.9297 10.6213 33.9391 10.6338 33.9453C10.6461 33.9515 10.6616 33.9609 10.6771 33.9702L10.6771 33.9702L10.6771 33.9702L10.6772 33.9703C10.6927 33.9796 10.7082 33.989 10.7206 33.9952C10.8075 33.9204 10.8571 33.8331 10.8571 33.7457C10.8571 33.6834 10.8323 33.6335 10.8075 33.6085C10.7702 33.5711 10.7206 33.5586 10.671 33.5586C10.6089 33.5586 10.5593 33.5711 10.5345 33.6085C10.4973 33.6459 10.4849 33.6834 10.4849 33.7208ZM11.8126 34.12C11.8126 33.8455 11.8622 33.6459 11.9491 33.5087C12.0483 33.384 12.1848 33.3091 12.3585 33.3091C12.5447 33.3091 12.6687 33.3715 12.7556 33.5087C12.8425 33.6335 12.8921 33.8455 12.8921 34.12C12.8921 34.3944 12.8425 34.594 12.7556 34.7312C12.6563 34.8559 12.5198 34.9308 12.3461 34.9308C12.1724 34.9308 12.0359 34.8559 11.9491 34.7187C11.8622 34.5815 11.8126 34.3819 11.8126 34.12ZM12.098 34.12C12.098 34.2946 12.1228 34.4318 12.16 34.5316C12.1972 34.6314 12.2593 34.6813 12.3585 34.6813C12.4454 34.6813 12.5074 34.6314 12.5447 34.5441C12.5819 34.4568 12.6067 34.3196 12.6067 34.12C12.6067 33.9329 12.5819 33.7956 12.5447 33.7083C12.5074 33.6085 12.4454 33.5586 12.3461 33.5586C12.2593 33.5586 12.1972 33.5961 12.16 33.6958C12.1228 33.7832 12.098 33.9204 12.098 34.12ZM14.6417 34.4568H14.3935V34.8934H14.1205V34.4568H13.4629V34.2946L14.1578 33.3341H14.3935V34.2322H14.6417V34.4568ZM14.1205 33.8954L14.1454 33.7083H14.1329L14.0585 33.8705L13.8351 34.1699L13.7235 34.2447L13.86 34.2322H14.1205V33.8954ZM8.32578 18.2653C7.90427 18.0208 7.63632 18.165 7.32476 18.3326C7.15939 18.4215 6.98174 18.5171 6.76231 18.5647C6.15883 18.6924 5.93476 18.3025 5.68929 17.8753L5.68928 17.8753C5.64706 17.8019 5.60421 17.7273 5.55869 17.6541C5.68536 17.682 5.78203 17.7177 5.86574 17.7486C6.11825 17.8418 6.25291 17.8915 6.73749 17.5543C7.22142 17.2175 7.82944 17.442 8.17688 17.8412L7.77981 16.7809C8.13413 16.7771 8.5008 16.761 8.87204 16.7446H8.87205C9.73588 16.7066 10.6245 16.6675 11.4403 16.7809L11.5892 16.8058C12.8176 17.0553 13.7607 18.1156 13.7607 19.4628C13.7607 20.4483 13.1899 21.546 12.3709 22.1323V22.257C13.4753 22.0076 14.7286 21.072 14.8402 20.5606C14.6789 20.4982 14.2943 20.2736 14.3067 20.2487C13.8724 19.9368 13.6862 19.3131 13.7855 18.8391C13.8848 18.3776 14.1081 18.153 14.4183 17.9659C14.6293 17.8537 14.8278 17.7913 15.0512 17.7663L20.8459 16.943C20.8708 17.1426 20.8832 17.3422 20.8956 17.5418C21.0693 21.0969 18.327 24.1157 14.7906 24.2903C13.5746 24.3527 12.0111 23.6791 11.4651 22.519C11.4403 22.5315 11.4155 22.5315 11.3783 22.5315C11.1673 22.5564 10.9688 22.5938 10.7951 22.6437C10.6089 23.4171 12.1848 24.0159 14.0089 24.3153L13.7111 24.7394C14.0585 24.6271 14.4308 24.5648 14.8154 24.5648C16.8132 24.5648 18.4511 26.2113 18.4511 28.2197C18.4511 30.2405 16.8132 31.8746 14.8154 31.8746C12.8052 31.8746 11.1797 30.2405 11.1797 28.2197C11.1797 28.0201 11.1921 27.808 11.2294 27.6209L11.3534 27.6334L13.5497 27.7831C13.4381 27.9577 13.376 28.1698 13.376 28.4068C13.376 29.0555 13.9096 29.5794 14.5548 29.5794C15.2125 29.5794 15.7336 29.0555 15.7336 28.4068C15.7336 27.7581 15.2249 27.2342 14.5921 27.2218L14.5797 27.2093L14.4432 27.2218H14.3935L12.495 27.4463C11.6761 27.5835 10.9564 27.6459 10.3484 27.6209L7.71776 31.2135L7.39514 30.3403C5.54628 30.1906 6.17911 31.0513 6.601 31.4006C6.63822 31.438 6.63822 31.5877 6.601 31.6127C5.91853 31.5628 5.32293 31.0139 5.32293 30.3029C5.32293 29.5794 5.91853 28.9681 6.65063 28.9681C7.13456 28.9681 7.55645 29.2301 7.77981 29.6293L8.97102 25.8496H8.78489L8.0652 26.8974C7.64331 26.4484 7.30828 25.912 7.10975 25.3132L5.09957 22.8184C5.01271 23.0055 4.87622 23.1801 4.71491 23.3049L4.31784 22.2446C3.42443 22.1947 2.87845 22.4067 3.33757 23.0928H3.5237L3.49888 22.756H4.05726L3.9704 23.9286V23.941V23.966H3.58574V23.8787L3.56092 23.5045C3.05217 23.3173 2.56824 22.9182 2.56824 22.282C2.56824 21.783 2.90327 21.2841 3.37479 21.0595L3.11422 17.6291L2.49379 16.8308H3.54851C3.51129 16.3817 3.64778 15.9077 3.90836 15.521C3.6726 15.5709 3.44924 15.6956 3.25071 16.0449C3.10181 15.284 3.73464 14.311 4.60323 14.4607C5.248 14.564 5.36499 14.448 5.57423 14.2406C5.64284 14.1726 5.72137 14.0948 5.83167 14.0116C5.82718 14.0636 5.82309 14.1152 5.81904 14.1663C5.80073 14.3971 5.78321 14.6182 5.73241 14.8224C6.38017 14.8948 6.53871 14.7376 6.79447 14.4841C6.89147 14.3879 7.00244 14.2779 7.15938 14.1613C7.14303 14.291 7.13121 14.4209 7.11954 14.549C7.05151 15.2963 6.98895 15.9835 6.06743 16.2071C5.72502 16.2845 5.41362 16.267 5.12456 16.2507C4.57561 16.2198 4.10725 16.1934 3.66019 16.8308H3.78427H5.07476L4.44192 17.6166L4.19375 20.9847C4.4047 21.0346 4.60323 21.1468 4.76454 21.2841L6.36524 22.257L6.71268 23.5668H6.88639C7.0477 21.3714 8.84693 19.6375 11.0556 19.5751L10.9688 19.3506L8.74767 19.363L8.32578 18.2653ZM8.22651 17.9036C8.30096 18.0033 8.363 18.0907 8.40023 18.2029C8.64649 18.2453 8.94859 18.3514 9.25019 18.4574C10.1036 18.7572 10.953 19.0557 10.5221 17.9036H8.22651ZM9.77757 14.7226H10.3484V14.8723H10.5345V15.3089C10.4104 15.3588 10.336 15.4711 10.336 15.6083C10.336 15.758 10.4228 15.8703 10.5469 15.9202H10.5593H10.5717H10.5841H10.5965V15.9326H10.6089H10.6213H10.6338H10.6462C10.8323 15.9326 10.9688 15.7829 10.9688 15.6083V15.5958V15.5834V15.5709V15.5459H10.9564V15.5335V15.521V15.5085C10.9473 15.4719 10.9248 15.442 10.9037 15.4139C10.896 15.4037 10.8885 15.3937 10.8819 15.3838H10.8695V15.3713H10.8571V15.3588H10.8447C10.8447 15.3588 10.8447 15.3464 10.8323 15.3464H10.8199V15.3339H10.8075L10.7951 15.3214H10.7827V15.2341C10.7827 14.9721 11.0184 14.6228 11.279 14.6228L11.7629 14.6104L11.0681 16.4316L9.0827 16.4441L8.38782 14.6104L8.84693 14.6228C9.10751 14.6228 9.34327 14.9721 9.34327 15.2341V15.3214C9.26882 15.3464 9.21919 15.3962 9.19437 15.4586V15.4711H9.18196V15.4836V15.496H9.16955V15.5085C9.16955 15.5148 9.16645 15.521 9.16335 15.5272C9.16025 15.5335 9.15715 15.5397 9.15715 15.5459V15.5834V15.5958V15.6083C9.15715 15.7829 9.29364 15.9326 9.46736 15.9326H9.47977H9.49218H9.50458H9.51699H9.5294V15.9202H9.54181H9.55422C9.69071 15.8827 9.78998 15.758 9.78998 15.6083C9.78998 15.4711 9.71553 15.3588 9.59144 15.3089V14.8723H9.77757V14.7226ZM17.7686 25.7872C19.3073 25.151 20.7343 24.1157 21.0569 21.4961C20.7591 22.7934 20.089 23.5045 19.2577 23.8912C18.3642 24.3153 17.2847 24.3776 16.2424 24.3901C16.9373 24.6895 17.4212 25.1386 17.7686 25.7872ZM21.7269 12.4523H1.38944V28.4068V28.4442V28.6189V28.6937V28.7187C1.38944 29.7665 1.68724 30.8268 2.2084 31.8247C2.75437 32.8476 3.54851 33.8081 4.51637 34.6189C5.45942 35.4173 6.58859 36.0659 7.81703 36.515C8.98343 36.9391 10.2367 37.1761 11.5644 37.1761H11.7133C13.041 37.1637 14.3067 36.8892 15.4731 36.4277C16.7263 35.9287 17.8555 35.2177 18.7985 34.3819C19.7168 33.5711 20.4489 32.6355 20.9576 31.6626C21.454 30.7145 21.7269 29.7291 21.7269 28.781C21.7269 28.7436 21.7269 28.7311 21.7393 28.7311V28.7187H21.7269V28.6937V28.6438V28.4442V28.4068V12.4523ZM50.7627 14.548C50.254 14.6478 49.8073 14.785 49.435 14.9472L49.8693 16.3194C50.1299 16.1946 50.4649 16.0948 50.8744 16.02C51.2839 15.9451 51.6686 15.9077 52.0284 15.9077C52.5123 15.9077 52.8225 16.02 52.9715 16.257C53.1079 16.4815 53.1452 16.8558 53.0831 17.3797C52.4627 17.3547 51.9043 17.3797 51.408 17.4545C50.8992 17.5169 50.4773 17.6416 50.1175 17.8287C49.7577 18.0159 49.4847 18.2529 49.2861 18.5522C49.1 18.8391 49.0007 19.2009 49.0007 19.6375C49.0007 19.9493 49.0504 20.2238 49.162 20.4733C49.2613 20.7227 49.3978 20.9473 49.5963 21.1219C49.7825 21.309 50.0058 21.4462 50.2664 21.546C50.527 21.6458 50.8124 21.6957 51.1474 21.6957C51.6686 21.6957 52.0905 21.5835 52.4255 21.3839C52.7605 21.1718 53.0211 20.9099 53.2072 20.623H53.2693L53.5671 21.5959H55.0561C54.9444 21.2591 54.8699 20.8974 54.8451 20.5232C54.8203 20.1365 54.8079 19.7498 54.8079 19.3381C54.8079 18.9389 54.8327 18.5273 54.8575 18.1156C54.8824 17.6915 54.8948 17.2799 54.8948 16.8682C54.8948 16.494 54.8575 16.1447 54.7831 15.8453C54.6962 15.546 54.5597 15.2965 54.3736 15.072C54.1875 14.8599 53.9269 14.6977 53.5919 14.573C53.2693 14.4607 52.8598 14.3983 52.3758 14.3983C51.8175 14.3983 51.2839 14.4482 50.7627 14.548ZM52.6116 19.9369C52.4007 20.1115 52.1153 20.1864 51.743 20.1864C51.4824 20.1864 51.2591 20.1115 51.1102 19.9743C50.9613 19.8246 50.8744 19.625 50.8744 19.3631C50.8744 19.1635 50.9365 19.0138 51.0605 18.889C51.1846 18.7643 51.3459 18.677 51.5569 18.6146C51.7554 18.5398 51.9912 18.5023 52.2642 18.4899C52.5247 18.4649 52.7977 18.4649 53.0955 18.5023V19.413C52.9839 19.6001 52.835 19.7747 52.6116 19.9369ZM57.1535 18.6645V17.3797H58.0097C58.3323 17.3797 58.6053 17.3173 58.8162 17.1925C59.0272 17.0553 59.1265 16.8807 59.1265 16.6686C59.1265 16.4191 59.0396 16.232 58.8535 16.1198C58.6673 16.02 58.3819 15.9576 57.9973 15.9576C57.6374 15.9576 57.3148 16.0075 57.0294 16.1073C56.744 16.1946 56.5207 16.2944 56.3594 16.3942L55.9623 15.0096C56.2477 14.8474 56.6199 14.7102 57.0791 14.5854C57.5382 14.4732 58.0345 14.4108 58.5557 14.4108C59.3622 14.4108 59.9578 14.5605 60.3549 14.8599C60.752 15.1593 60.9505 15.5959 60.9505 16.1697C60.9505 16.3318 60.9257 16.494 60.8885 16.6562C60.8512 16.8183 60.7768 16.9805 60.6899 17.1302C60.5907 17.2799 60.479 17.4171 60.3425 17.5293C60.206 17.6541 60.0447 17.7414 59.8586 17.8038V17.8662C60.3549 17.9784 60.7023 18.178 60.9133 18.4649C61.1118 18.7518 61.2235 19.126 61.2235 19.6125C61.2235 19.9119 61.1614 20.1863 61.0374 20.4483C60.9133 20.7103 60.7271 20.9348 60.479 21.1219C60.2308 21.309 59.9206 21.4587 59.5483 21.571C59.1761 21.6832 58.7294 21.7331 58.2206 21.7331C57.7119 21.7331 57.2652 21.6832 56.8805 21.571C56.5083 21.4712 56.1856 21.3464 55.9375 21.1968L56.3345 19.7747C56.5455 19.8994 56.8061 19.9992 57.1039 20.0741C57.4141 20.1489 57.7491 20.1863 58.1214 20.1863C58.9776 20.1863 59.3994 19.9119 59.3994 19.3755C59.3994 19.126 59.2878 18.9514 59.0644 18.8391C58.8535 18.7269 58.444 18.6645 57.836 18.6645H57.1535ZM63.7671 14.548C63.2584 14.6478 62.8117 14.785 62.4394 14.9472L62.8737 16.3194C63.1343 16.1946 63.4693 16.0948 63.8664 16.02C64.2759 15.9451 64.6605 15.9077 65.0328 15.9077C65.5167 15.9077 65.8269 16.02 65.9634 16.257C66.1123 16.4815 66.1496 16.8558 66.0751 17.3797C65.4671 17.3547 64.9087 17.3797 64.4 17.4545C63.9036 17.5169 63.4693 17.6416 63.1219 17.8287C62.762 18.0159 62.4767 18.2529 62.2905 18.5522C62.092 18.8391 62.0051 19.2009 62.0051 19.6375C62.0051 19.9493 62.0548 20.2238 62.154 20.4733C62.2533 20.7227 62.4022 20.9473 62.5883 21.1219C62.7745 21.309 62.9978 21.4462 63.2584 21.546C63.519 21.6458 63.8168 21.6957 64.1394 21.6957C64.673 21.6957 65.0948 21.5835 65.4299 21.3839C65.7525 21.1718 66.0131 20.9099 66.1992 20.623H66.2737L66.5714 21.5959H68.0481C67.9364 21.2591 67.8743 20.8974 67.8495 20.5232C67.8123 20.1365 67.7999 19.7498 67.8123 19.3381C67.8123 18.9389 67.8247 18.5273 67.8619 18.1156C67.8867 17.6915 67.8992 17.2799 67.8992 16.8682C67.8992 16.494 67.8619 16.1447 67.7751 15.8453C67.7006 15.546 67.5641 15.2965 67.378 15.072C67.1795 14.8599 66.9189 14.6977 66.5963 14.573C66.2737 14.4607 65.8642 14.3983 65.3802 14.3983C64.8219 14.3983 64.2759 14.4482 63.7671 14.548ZM65.616 19.9369C65.4051 20.1115 65.1073 20.1864 64.7474 20.1864C64.4744 20.1864 64.2635 20.1115 64.1146 19.9743C63.9533 19.8246 63.8788 19.625 63.8788 19.3631C63.8788 19.1635 63.9409 19.0138 64.0649 18.889C64.1766 18.7643 64.3503 18.677 64.5489 18.6146C64.7598 18.5398 64.9956 18.5023 65.2562 18.4899C65.5291 18.4649 65.8021 18.4649 66.0875 18.5023V19.413C65.9883 19.6001 65.8269 19.7747 65.616 19.9369ZM73.5325 18.8013H71.2494V21.583H69.4253V14.5351H71.2494V17.1921H73.5325V14.5351H75.3566V21.583H73.5325V18.8013ZM80.8908 21.6212C81.2879 21.509 81.6229 21.3468 81.9083 21.1472L81.4864 19.7501C81.3251 19.8624 81.1266 19.9622 80.9157 20.037C80.7047 20.1243 80.4317 20.1617 80.1339 20.1617C79.8485 20.1617 79.6004 20.1119 79.3894 19.9996C79.1785 19.8873 79.0172 19.7376 78.8807 19.5505C78.7566 19.3634 78.6573 19.1513 78.5829 18.8894C78.5208 18.6399 78.496 18.3655 78.496 18.0661C78.496 17.3301 78.6201 16.7937 78.8807 16.4694C79.1412 16.1326 79.5259 15.958 80.0347 15.958C80.3076 15.958 80.5434 15.9954 80.7543 16.0453C80.9653 16.1076 81.1762 16.1825 81.3872 16.2823L81.8215 14.7979C81.5733 14.6606 81.2879 14.5609 80.9777 14.4735C80.6675 14.3862 80.2456 14.3488 79.7368 14.3488C78.7194 14.3488 77.9376 14.6606 77.4165 15.3093C76.8829 15.9455 76.6099 16.8686 76.6099 18.0661C76.6099 18.615 76.672 19.1264 76.7712 19.5879C76.8829 20.037 77.0566 20.4362 77.3048 20.7605C77.5405 21.0848 77.8632 21.3343 78.2478 21.509C78.6325 21.6961 79.104 21.7834 79.6624 21.7834C80.0843 21.7834 80.4938 21.721 80.8908 21.6212ZM85.3204 18.6641H84.8365V21.583H83.0124V14.5351H84.8365V17.5414L85.2708 17.3418L86.9087 14.5351H88.8568L87.1568 17.2171L86.4496 17.7535L87.2313 18.3023L89.1174 21.583H87.0328L85.3204 18.6641ZM94.155 17.3668L94.0806 18.3647V21.583H95.9046V14.5351H94.7506L92.2317 17.8533L91.6609 18.8512H91.5989L91.6857 17.8907V14.5351H89.8617V21.583H91.0157L93.5098 18.4021L94.1054 17.3668H94.155ZM111.391 21.7709C111.565 21.7584 111.726 21.721 111.887 21.6711V24.4029H113.674V21.6836C113.786 21.721 113.91 21.7459 114.083 21.7584L114.128 21.7619L114.205 21.7682C114.308 21.7767 114.389 21.7833 114.443 21.7833C114.902 21.7833 115.312 21.696 115.659 21.5089C116.007 21.3343 116.305 21.0723 116.553 20.7355C116.788 20.3987 116.975 19.9995 117.099 19.513C117.235 19.039 117.297 18.5151 117.297 17.9164C117.297 16.6689 117.061 15.7708 116.59 15.2219C116.131 14.6731 115.436 14.3986 114.505 14.3986C114.443 14.3986 114.381 14.4018 114.319 14.4049C114.257 14.408 114.195 14.4111 114.133 14.4111C114.032 14.4204 113.924 14.4365 113.804 14.4543L113.804 14.4544L113.804 14.4544L113.804 14.4544C113.762 14.4606 113.719 14.467 113.674 14.4735V11.7292H111.887V14.461C111.701 14.4236 111.478 14.3986 111.217 14.3986C110.262 14.3986 109.53 14.7105 109.033 15.3342C108.524 15.9454 108.276 16.8561 108.276 18.066C108.276 19.3259 108.5 20.249 108.959 20.8603C109.418 21.4715 110.075 21.7833 110.919 21.7833C110.983 21.7833 111.053 21.7806 111.127 21.7777C111.21 21.7744 111.299 21.7709 111.391 21.7709ZM113.86 15.8706C113.922 15.8581 114.009 15.8456 114.096 15.8456C114.605 15.8456 114.964 16.0078 115.163 16.3321C115.374 16.6565 115.473 17.1929 115.473 17.9164C115.473 18.7895 115.362 19.4008 115.163 19.775C114.952 20.1492 114.617 20.3239 114.17 20.3239H113.86C113.83 20.3201 113.801 20.3175 113.773 20.3149C113.709 20.3091 113.651 20.3038 113.6 20.2864V15.9205C113.66 15.9129 113.716 15.9007 113.767 15.8895C113.8 15.8823 113.831 15.8755 113.86 15.8706ZM111.689 20.3114C111.589 20.3239 111.502 20.3239 111.391 20.3239C110.944 20.3239 110.621 20.1368 110.411 19.7501C110.2 19.3509 110.088 18.7895 110.088 18.066C110.088 17.2552 110.212 16.6814 110.435 16.3446C110.659 16.0203 110.994 15.8456 111.428 15.8456C111.614 15.8456 111.788 15.8706 111.974 15.908V20.2615C111.909 20.2688 111.852 20.2803 111.799 20.2912C111.761 20.2989 111.725 20.3062 111.689 20.3114ZM124.084 20.9726C123.812 21.1971 123.427 21.3967 122.943 21.5464C122.459 21.6961 121.95 21.7834 121.417 21.7834C120.287 21.7834 119.456 21.4466 118.935 20.7855C118.414 20.1243 118.153 19.2137 118.153 18.0661C118.153 16.8187 118.439 15.8956 119.034 15.2719C119.617 14.6482 120.449 14.3488 121.504 14.3488C121.863 14.3488 122.211 14.3862 122.546 14.486C122.881 14.5733 123.179 14.7355 123.439 14.9475C123.7 15.1596 123.911 15.459 124.072 15.8207C124.233 16.195 124.308 16.644 124.308 17.1929C124.308 17.38 124.295 17.5921 124.271 17.8166C124.258 18.0536 124.221 18.2782 124.171 18.5276H119.965C120.002 19.1139 120.151 19.563 120.424 19.8624C120.697 20.1617 121.144 20.3114 121.764 20.3114C122.149 20.3114 122.484 20.2615 122.794 20.1368C123.092 20.0245 123.328 19.8998 123.489 19.7751L124.084 20.9726ZM121.479 15.8083C121.007 15.8083 120.647 15.9455 120.424 16.2324C120.201 16.5193 120.052 16.906 120.015 17.38H122.62C122.658 16.881 122.571 16.4943 122.385 16.2199C122.198 15.9455 121.888 15.8083 121.479 15.8083ZM131.083 23.1922H132.411V19.9614H131.381V14.5351H126.517C126.517 15.4083 126.467 16.1693 126.38 16.8054C126.306 17.4416 126.194 17.978 126.082 18.4146C125.971 18.8387 125.847 19.188 125.735 19.4375L125.735 19.4377C125.611 19.6871 125.524 19.8616 125.45 19.9614H124.618V23.1922H125.946L126.157 21.583H130.872L131.083 23.1922ZM129.569 16.0944V20.0487H127.261C127.373 19.8367 127.485 19.5872 127.572 19.2753C127.671 18.9635 127.745 18.6267 127.82 18.2774C127.894 17.9157 127.944 17.5416 127.993 17.1675L127.993 17.1672C128.043 16.7805 128.08 16.4312 128.093 16.0944H129.569ZM139.012 20.9726C138.727 21.1971 138.342 21.3967 137.87 21.5464C137.387 21.6961 136.878 21.7834 136.332 21.7834C135.203 21.7834 134.371 21.4466 133.85 20.7855C133.329 20.1243 133.068 19.2137 133.068 18.0661C133.068 16.8187 133.366 15.8956 133.949 15.2719C134.533 14.6482 135.364 14.3488 136.431 14.3488C136.779 14.3488 137.126 14.3862 137.461 14.486C137.796 14.5733 138.106 14.7355 138.367 14.9475C138.627 15.1596 138.838 15.459 138.987 15.8207C139.149 16.195 139.235 16.644 139.235 17.1929C139.235 17.38 139.223 17.5921 139.198 17.8166C139.173 18.0536 139.136 18.2782 139.087 18.5276H134.892C134.917 19.1139 135.066 19.563 135.339 19.8624C135.625 20.1617 136.059 20.3114 136.679 20.3114C137.064 20.3114 137.411 20.2615 137.709 20.1368C138.019 20.0245 138.243 19.8998 138.404 19.7751L139.012 20.9726ZM136.406 15.8083C135.922 15.8083 135.575 15.9455 135.339 16.2324C135.116 16.5193 134.979 16.906 134.93 17.38H137.535C137.573 16.881 137.498 16.4943 137.3 16.2199C137.114 15.9455 136.816 15.8083 136.406 15.8083ZM141.853 14.5359H140.513V24.403H142.337V21.509C142.523 21.6088 142.709 21.6711 142.895 21.721C143.082 21.7584 143.33 21.7834 143.615 21.7834C144.124 21.7834 144.583 21.6961 144.98 21.509C145.377 21.3343 145.712 21.0724 145.985 20.7356C146.258 20.3988 146.469 19.9871 146.618 19.5006C146.755 19.0266 146.817 18.4777 146.817 17.879C146.817 16.644 146.606 15.7459 146.159 15.1846C145.725 14.6232 145.067 14.3488 144.186 14.3488C143.714 14.3488 143.305 14.4236 142.982 14.5983C142.647 14.7604 142.362 15.0349 142.114 15.3841H142.064L141.853 14.5359ZM142.809 16.1575C143.007 15.9829 143.293 15.8956 143.64 15.8956C144.099 15.8956 144.434 16.0577 144.633 16.3946C144.844 16.7438 144.943 17.2178 144.943 17.8416C144.943 18.6898 144.819 19.301 144.558 19.6753C144.298 20.0495 143.901 20.2366 143.379 20.2366C143.119 20.2366 142.92 20.1992 142.771 20.1368C142.61 20.0744 142.474 19.9996 142.337 19.8873V16.9684C142.449 16.6066 142.61 16.3447 142.809 16.1575ZM148.045 14.9472C148.417 14.785 148.864 14.6478 149.373 14.548C149.881 14.4482 150.427 14.3983 150.986 14.3983C151.47 14.3983 151.879 14.4607 152.202 14.573C152.524 14.6977 152.785 14.8599 152.984 15.072C153.17 15.2965 153.306 15.546 153.381 15.8453C153.467 16.1447 153.505 16.494 153.505 16.8682C153.505 17.2799 153.492 17.6915 153.467 18.1156C153.43 18.5273 153.418 18.9389 153.418 19.3381C153.405 19.7498 153.418 20.1365 153.443 20.5232C153.48 20.8974 153.542 21.2591 153.654 21.5959H152.177L151.879 20.623H151.805C151.619 20.9099 151.358 21.1718 151.035 21.3839C150.7 21.5835 150.278 21.6957 149.745 21.6957C149.422 21.6957 149.124 21.6458 148.864 21.546C148.603 21.4462 148.38 21.309 148.194 21.1219C148.008 20.9473 147.859 20.7227 147.76 20.4733C147.66 20.2238 147.611 19.9493 147.611 19.6375C147.611 19.2009 147.697 18.8391 147.896 18.5522C148.082 18.2529 148.355 18.0159 148.715 17.8287C149.075 17.6416 149.509 17.5169 150.005 17.4545C150.514 17.3797 151.073 17.3547 151.681 17.3797C151.743 16.8558 151.705 16.4815 151.569 16.257C151.432 16.02 151.122 15.9077 150.638 15.9077C150.266 15.9077 149.881 15.9451 149.472 16.02C149.075 16.0948 148.74 16.1946 148.479 16.3194L148.045 14.9472ZM150.353 20.1864C150.713 20.1864 151.011 20.1115 151.222 19.9369C151.432 19.7747 151.594 19.6001 151.693 19.413V18.5023C151.408 18.4649 151.135 18.4649 150.862 18.4899C150.601 18.5023 150.365 18.5398 150.154 18.6146C149.956 18.677 149.782 18.7643 149.67 18.889C149.546 19.0138 149.484 19.1635 149.484 19.3631C149.484 19.625 149.559 19.8246 149.72 19.9743C149.869 20.1115 150.08 20.1864 150.353 20.1864ZM157.451 16.1568H158.841V21.583H160.665V14.5351H155.863C155.826 15.6329 155.788 16.531 155.726 17.242C155.664 17.9406 155.59 18.5019 155.491 18.926C155.391 19.3377 155.267 19.6246 155.131 19.7743C154.994 19.9365 154.821 20.0238 154.634 20.0238C154.51 20.0238 154.374 19.9864 154.225 19.9365L153.989 21.4583C154.225 21.5955 154.597 21.6704 155.143 21.6704C155.59 21.6704 155.962 21.5082 156.235 21.1839C156.52 20.8595 156.744 20.4354 156.905 19.9115C157.066 19.3876 157.191 18.8013 157.265 18.1402C157.339 17.4915 157.401 16.8304 157.451 16.1568ZM164.064 20.0487C164.35 20.0986 164.61 20.136 164.871 20.136C165.318 20.136 165.64 20.0487 165.839 19.899C166.037 19.7493 166.137 19.4999 166.137 19.1755C166.137 18.5643 165.727 18.2524 164.908 18.2524C164.598 18.2524 164.325 18.2899 164.064 18.3522V20.0487ZM164.064 17.0424C164.288 17.005 164.524 16.9801 164.747 16.9676L164.786 16.9654C164.995 16.9537 165.192 16.9427 165.367 16.9427C165.851 16.9427 166.261 17.005 166.608 17.1048C166.943 17.2171 167.216 17.3668 167.427 17.5664C167.638 17.7659 167.787 18.003 167.874 18.2649C167.973 18.5269 168.023 18.8263 168.023 19.1256C168.023 19.9864 167.762 20.6225 167.266 21.0467C166.757 21.4708 165.901 21.6828 164.697 21.6828C164.164 21.6828 163.705 21.6704 163.32 21.6579C162.935 21.6329 162.575 21.608 162.24 21.583V14.5351H164.064V17.0424ZM170.926 18.8013H173.209V21.583H175.033V14.5351H173.209V17.1921H170.926V14.5351H169.115V21.583H170.926V18.8013ZM178.458 20.0487C178.731 20.0986 179.004 20.136 179.253 20.136C179.675 20.136 179.972 20.0487 180.134 19.899C180.307 19.7493 180.382 19.4999 180.382 19.1755C180.382 18.8762 180.307 18.6516 180.134 18.4895C179.972 18.3398 179.687 18.2524 179.29 18.2524C178.992 18.2524 178.707 18.2899 178.458 18.3522V20.0487ZM178.458 17.0424C178.682 17.005 178.905 16.9801 179.129 16.9676L179.203 16.9636C179.409 16.9526 179.595 16.9427 179.761 16.9427C180.233 16.9427 180.63 17.005 180.953 17.1048C181.263 17.2171 181.523 17.3668 181.722 17.5664C181.908 17.7659 182.057 18.003 182.144 18.2649C182.218 18.5269 182.268 18.8263 182.268 19.1256C182.268 19.5498 182.206 19.924 182.094 20.2483C181.982 20.5602 181.796 20.8221 181.548 21.0342C181.3 21.2462 180.965 21.4084 180.568 21.5207C180.171 21.6205 179.675 21.6828 179.079 21.6828C178.558 21.6828 178.086 21.6704 177.702 21.6579C177.317 21.6329 176.957 21.608 176.634 21.583V14.5351H178.458V17.0424ZM183.062 14.5351H184.886V21.583H183.062V14.5351ZM190.768 17.3672L190.693 18.3651V21.5835H192.517V14.5356H191.363L188.844 17.8537L188.273 18.8516H188.211L188.298 17.8911V14.5356H186.474V21.5835H187.628L190.122 18.4026L190.73 17.3672H190.768ZM189.08 12.4399C188.919 12.2902 188.819 12.0283 188.745 11.6665L187.206 12.0283C187.268 12.3651 187.368 12.6395 187.517 12.864C187.665 13.0886 187.852 13.2757 188.063 13.4254C188.273 13.5626 188.522 13.6748 188.795 13.7372C189.068 13.7996 189.341 13.837 189.626 13.837C190.222 13.837 190.73 13.6873 191.177 13.3879C191.611 13.101 191.884 12.6395 191.996 12.0283L190.619 11.679C190.557 12.0407 190.457 12.2902 190.296 12.4399C190.147 12.5896 189.936 12.6644 189.676 12.6644C189.427 12.6644 189.229 12.5896 189.08 12.4399ZM44.2237 32.8476L44.5339 33.9204H44.596L44.8317 32.8102L46.4449 28.3943H47.4623L45.3405 33.883C45.1171 34.4568 44.931 34.9308 44.7697 35.3175C44.596 35.6917 44.4347 36.0036 44.261 36.2406C44.0996 36.4776 43.9135 36.6522 43.7274 36.752C43.5289 36.8518 43.2931 36.9017 43.0201 36.9017C42.7595 36.9017 42.5486 36.8768 42.3873 36.8393C42.2384 36.7895 42.0895 36.7271 41.953 36.6398L42.2508 35.804C42.4121 35.8913 42.561 35.9537 42.6975 35.9786C42.834 36.0036 42.9581 36.0036 43.0697 36.0036C43.2931 36.0036 43.4792 35.8913 43.6281 35.6668C43.777 35.4422 43.9135 35.093 44.0252 34.6439L40.9231 28.3943H42.0647L44.2237 32.8476ZM56.9175 32.9724H60.9502V36.8393H61.9429V28.3943H60.9502V32.0742H56.9175V28.3943H55.9248V36.8393H56.9175V32.9724ZM76.5475 31.1262L76.622 30.1532H76.5723L76.0636 31.1511L72.006 36.8393H71.4104V28.3943H72.4155V34.1824L72.3286 35.1429H72.3783L72.8994 34.1449L76.957 28.3943H77.5526V36.8393H76.5475V31.1262ZM91.9836 30.9395C92.0456 30.7274 92.0829 30.5278 92.0829 30.3282C92.0829 29.9041 91.996 29.5673 91.8223 29.2929C91.6486 29.0309 91.4376 28.8313 91.177 28.6816C90.9041 28.5319 90.6187 28.4321 90.2836 28.3698C89.961 28.3199 89.6508 28.2949 89.3406 28.2949C88.8691 28.2949 88.4472 28.3074 88.0501 28.3448C87.6654 28.3823 87.318 28.4197 87.0202 28.4696V36.7774C87.1691 36.8273 87.3428 36.8522 87.5414 36.8772C87.6515 36.8837 87.7582 36.8936 87.8634 36.9033C87.9596 36.9123 88.0545 36.9211 88.1494 36.9271C88.3479 36.9395 88.534 36.9395 88.7202 36.9395H89.2041C89.6012 36.9395 89.9734 36.8896 90.3581 36.7898C90.7303 36.7025 91.0654 36.5528 91.3632 36.3532C91.6486 36.1412 91.8843 35.8917 92.0704 35.5674C92.2442 35.2555 92.331 34.8813 92.331 34.4447C92.331 34.1079 92.2814 33.821 92.1821 33.584C92.0704 33.347 91.934 33.1349 91.7726 32.9727C91.5989 32.7981 91.4128 32.6609 91.1894 32.5736C90.9661 32.4738 90.7427 32.3989 90.4946 32.3615V32.3116C90.7676 32.2492 91.0033 32.137 91.2019 31.9998C91.4128 31.8625 91.5741 31.7129 91.6982 31.5257C91.8223 31.3386 91.9215 31.1515 91.9836 30.9395ZM90.0479 35.979C89.7997 36.0414 89.5515 36.0663 89.3034 36.0663H88.9683C88.8318 36.0663 88.7077 36.0539 88.5961 36.0414C88.472 36.0414 88.3603 36.0289 88.261 36.0164C88.1494 36.0164 88.0749 36.004 88.0129 35.9915V32.9603H89.0552C89.3282 32.9603 89.5888 32.9727 89.8493 33.0226C90.1099 33.0601 90.3581 33.1349 90.569 33.2472C90.78 33.3594 90.9537 33.5216 91.0778 33.7212C91.2143 33.9208 91.2763 34.1827 91.2763 34.5071C91.2763 34.7815 91.2267 35.006 91.115 35.2056C91.0157 35.3927 90.8668 35.5549 90.6807 35.6921C90.4946 35.8169 90.2836 35.9166 90.0479 35.979ZM89.1296 32.0996C88.9435 32.112 88.7698 32.112 88.6333 32.112H88.0129V29.243C88.1245 29.218 88.2983 29.1931 88.5092 29.1806C88.7326 29.1681 88.9807 29.1681 89.2413 29.1681C89.4647 29.1681 89.688 29.1931 89.899 29.2305C90.1099 29.2804 90.3084 29.3552 90.4698 29.455C90.6435 29.5548 90.78 29.7045 90.8792 29.8667C90.9785 30.0413 91.0281 30.2659 91.0281 30.5278C91.0281 30.7274 90.9909 30.902 90.9165 31.0642C90.842 31.2264 90.7303 31.3761 90.6062 31.5008C90.4698 31.6255 90.3209 31.7378 90.1471 31.8251C89.9858 31.9249 89.7997 31.9998 89.6136 32.0621C89.4895 32.0746 89.3282 32.0871 89.1296 32.0996ZM101.464 28.3943H106.03V29.28H102.456V32.0493H105.732V32.9474H102.456V35.9537H106.092V36.8393H101.464V28.3943ZM116.304 28.3324C115.957 28.3573 115.622 28.4072 115.324 28.482V36.8397H116.317V33.6339C116.339 33.6414 116.375 33.6444 116.421 33.6482C116.452 33.6508 116.488 33.6538 116.528 33.6588C116.57 33.6588 116.614 33.6617 116.661 33.6647L116.661 33.6647C116.71 33.668 116.762 33.6713 116.813 33.6713C116.912 33.6838 117.012 33.6838 117.098 33.6838H117.297C117.719 33.6838 118.116 33.6339 118.513 33.5341C118.91 33.4343 119.257 33.2846 119.555 33.0601C119.865 32.8355 120.101 32.5486 120.287 32.1993C120.474 31.8376 120.56 31.401 120.56 30.8896C120.56 30.3656 120.474 29.9415 120.275 29.6047C120.076 29.2679 119.816 28.9935 119.506 28.8064C119.195 28.6068 118.848 28.482 118.476 28.4072C118.091 28.3324 117.719 28.2949 117.347 28.2949C117.012 28.2949 116.652 28.3074 116.304 28.3324ZM116.776 29.1806C116.962 29.1681 117.16 29.1681 117.371 29.1681C117.632 29.1681 117.88 29.1931 118.141 29.2554C118.401 29.3053 118.625 29.4051 118.836 29.5299C119.034 29.6671 119.195 29.8417 119.32 30.0663C119.444 30.2908 119.506 30.5652 119.506 30.8896C119.506 31.2763 119.444 31.6006 119.307 31.8501C119.183 32.0996 119.009 32.2867 118.786 32.4239C118.575 32.5611 118.327 32.6609 118.066 32.7108C117.793 32.7607 117.52 32.7856 117.247 32.7856H117.061H116.788C116.689 32.7732 116.602 32.7732 116.515 32.7732C116.492 32.7702 116.47 32.768 116.451 32.7659L116.451 32.7659C116.388 32.7593 116.345 32.7548 116.317 32.7357V29.243C116.428 29.2055 116.577 29.1806 116.776 29.1806ZM134.631 36.4901C134.396 36.6772 134.085 36.8019 133.726 36.8768C133.353 36.9516 132.956 36.9891 132.547 36.9891C132.038 36.9891 131.566 36.9017 131.132 36.7271C130.685 36.5525 130.301 36.2905 129.978 35.9412C129.643 35.5795 129.383 35.1304 129.196 34.5815C128.998 34.0327 128.911 33.3716 128.911 32.6231C128.911 31.8248 129.01 31.1636 129.221 30.6023C129.432 30.0534 129.718 29.6044 130.065 29.2551C130.412 28.9058 130.81 28.6563 131.231 28.4942C131.666 28.332 132.112 28.2447 132.559 28.2447C133.031 28.2447 133.428 28.2696 133.738 28.332C134.036 28.3819 134.296 28.4443 134.507 28.5441L134.272 29.4172C133.887 29.2301 133.341 29.1428 132.634 29.1428C132.299 29.1428 131.976 29.2052 131.653 29.3175C131.331 29.4422 131.045 29.6418 130.797 29.9162C130.549 30.1906 130.338 30.5399 130.189 30.989C130.04 31.4256 129.966 31.9744 129.966 32.6231C129.966 33.1969 130.04 33.7084 130.177 34.1325C130.326 34.5691 130.524 34.9308 130.772 35.2302C131.021 35.5171 131.318 35.7292 131.666 35.8789C132.001 36.0161 132.373 36.0909 132.77 36.0909C133.13 36.0909 133.453 36.0535 133.713 35.9911C133.986 35.9163 134.209 35.8165 134.396 35.7042L134.631 36.4901ZM148.752 30.1532L148.678 31.1262V36.8393H149.671V28.3943H149.087L145.03 34.1449L144.496 35.1429H144.447L144.533 34.1824V28.3943H143.541V36.8393H144.124L148.182 31.1511L148.703 30.1532H148.752ZM164.561 29.28H161.955V36.8393H160.95V29.28H158.344V28.3943H164.561V29.28ZM177.801 28.3943H173.235V36.8393H177.863V35.9537H174.227V32.9474H177.503V32.0493H174.227V29.28H177.801V28.3943ZM192.518 29.28H189.899V36.8393H188.907V29.28H186.289V28.3943H192.518V29.28ZM31.4055 36.9142V11.891H30.8472V36.9142H31.4055Z" fill="black"/>
</svg>
