<svg width="127" height="50" viewBox="0 0 127 50" fill="none" xmlns="http://www.w3.org/2000/svg">
<path d="M14.3455 14.7624C16.5833 20.441 12.9346 24.086 9.30011 27.7369C5.91759 31.4671 2.93807 35.3446 8.93076 42.3228C6.69219 36.6448 10.3416 32.9991 13.9731 29.3519C17.3587 25.6135 20.3382 21.7412 14.3455 14.7624Z" fill="black"/>
<path d="M8.93081 7.4999C11.1724 13.1808 7.52516 16.8235 3.88768 20.4722C0.505906 24.2054 -2.47287 28.0829 3.52206 35.061C1.282 29.3786 4.9307 25.7367 8.56445 22.088C11.9485 18.3541 14.9242 14.478 8.93081 7.4999Z" fill="black"/>
<path d="M100.916 29.9115V41.5781H105.996V37.3072H111.577V34.7535H105.996V32.4651H117.067V41.5781H122.147V32.4651H126.749V29.9115H100.916Z" fill="black"/>
<path d="M90.0292 39.0462V37.0239H96.4794V34.4679H90.0292V32.4651H98.3142V29.9115H85.0828V41.5781H98.4161V39.0462H90.0292Z" fill="black"/>
<path d="M36.7491 29.9115H22.5825V32.4651H27.1097V41.5781H32.2219V32.4651H36.7491V29.9115Z" fill="black"/>
<path d="M39.9147 37.1576L42.2918 32.6417L44.5668 37.1576H39.9147ZM46.1679 29.9115H40.6612L34.2494 41.5781H37.5883L38.6423 39.5753H45.8422L46.8932 41.5781H52.5827L46.1679 29.9115Z" fill="black"/>
<path d="M78.3946 29.9115V35.744L70.5543 29.9115H66.7495V41.5781H70.1051V35.1593L78.156 41.5781H81.7495V29.9115H78.3946Z" fill="black"/>
<path d="M65.0828 29.9115H50.9161V32.4651H55.5395V41.5781H60.762V32.4651H65.0828V29.9115Z" fill="black"/>
</svg>
