<svg width="153" height="42" viewBox="0 0 153 42" fill="none" xmlns="http://www.w3.org/2000/svg">
<path d="M17.6156 8.82107C20.301 15.6355 15.9226 20.0094 11.5612 24.3906C7.50213 28.8668 3.92671 33.5198 11.1179 41.8936C8.43165 35.0801 12.811 30.7052 17.1688 26.3285C21.2314 21.8424 24.8068 17.1957 17.6156 8.82107Z" fill="white"/>
<path d="M11.1178 0.106323C13.8077 6.92341 9.43105 11.2947 5.06607 15.6731C1.00794 20.153 -2.56659 24.8059 4.62733 33.1797C1.93926 26.3608 6.3177 21.9905 10.6782 17.612C14.739 13.1313 18.31 8.48009 11.1178 0.106323Z" fill="white"/>
<path d="M121.5 27V41H127.595V35.8749H134.293V32.8105H127.595V30.0644H140.881V41H146.978V30.0644H152.5V27H121.5Z" fill="white"/>
<path d="M108.436 37.9617V35.5349H116.176V32.4678H108.436V30.0644H118.378V27H102.5V41H118.5V37.9617H108.436Z" fill="white"/>
<path d="M44.5 27H27.5V30.0644H32.9327V41H39.0673V30.0644H44.5V27Z" fill="white"/>
<path d="M48.2984 35.6954L51.1508 30.2763L53.8809 35.6954H48.2984ZM55.8022 27H49.1942L41.5 41H45.5067L46.7715 38.5966H55.4114L56.6726 41H63.5L55.8022 27Z" fill="white"/>
<path d="M94.4741 27V33.9991L85.0658 27H80.5V41H84.5267V33.2975L94.1878 41H98.5V27H94.4741Z" fill="white"/>
<path d="M78.5 27H61.5V30.0644H67.0481V41H73.315V30.0644H78.5V27Z" fill="white"/>
</svg>
