<svg width="487" height="316" viewBox="0 0 487 316" fill="none" xmlns="http://www.w3.org/2000/svg">
<rect width="214" height="300" transform="matrix(0.866025 0.5 -0.866025 0.5 300.735 0)" fill="white"/>
<rect width="214" height="36" transform="matrix(0.866025 0.5 -0.866025 0.5 300.735 0)" fill="#4968F3"/>
<path d="M365.139 51.8832L365.996 52.3782L362.8 56.8332L361.904 56.3157L362.761 55.1457L360.345 53.7507L358.319 54.2457L357.422 53.7282L365.139 51.8832ZM361.436 53.4807L363.229 54.5157L364.593 52.6932L361.436 53.4807ZM364.324 57.7128L363.544 57.2628L369 54.1128L369.78 54.5628L364.324 57.7128ZM367.635 57.7792C367.531 57.8632 367.45 57.9577 367.393 58.0627C367.341 58.1707 367.32 58.2787 367.331 58.3867C367.346 58.4977 367.393 58.6087 367.471 58.7197C367.554 58.8277 367.674 58.9267 367.829 59.0167C368.011 59.1217 368.201 59.1982 368.398 59.2462C368.606 59.2942 368.793 59.3242 368.96 59.3362C369.157 59.3482 369.352 59.3467 369.544 59.3317L369.544 59.9167C369.284 59.9347 369.014 59.9287 368.734 59.8987C368.495 59.8747 368.232 59.8282 367.946 59.7592C367.666 59.6872 367.393 59.5747 367.128 59.4217C366.863 59.2687 366.665 59.0947 366.536 58.8997C366.406 58.7047 366.341 58.5022 366.341 58.2922C366.346 58.0852 366.416 57.8827 366.551 57.6847C366.686 57.4867 366.892 57.3082 367.167 57.1492C367.432 56.9962 367.728 56.8822 368.055 56.8072C368.393 56.7322 368.734 56.6947 369.076 56.6947C369.419 56.6947 369.755 56.7322 370.082 56.8072C370.42 56.8822 370.721 56.9962 370.986 57.1492C371.251 57.3022 371.449 57.4702 371.578 57.6532C371.714 57.8332 371.778 58.0177 371.773 58.2067C371.778 58.3957 371.714 58.5802 371.578 58.7602C371.449 58.9432 371.251 59.1112 370.986 59.2642C370.929 59.2972 370.874 59.3257 370.822 59.3497C370.77 59.3737 370.724 59.3947 370.682 59.4127C370.635 59.4337 370.594 59.4517 370.557 59.4667L367.635 57.7792ZM370.324 57.5317C370.027 57.3607 369.7 57.2707 369.341 57.2617C368.983 57.2527 368.645 57.3037 368.328 57.4147L370.495 58.6657C370.703 58.4917 370.799 58.3012 370.783 58.0942C370.773 57.8902 370.62 57.7027 370.324 57.5317ZM372.892 62.2098C372.716 62.2098 372.536 62.1963 372.355 62.1693C372.199 62.1453 372.027 62.1063 371.84 62.0523C371.653 62.0043 371.471 61.9293 371.294 61.8273C371.071 61.6983 370.902 61.5588 370.788 61.4088C370.679 61.2558 370.627 61.0998 370.632 60.9408C370.642 60.7848 370.71 60.6258 370.835 60.4638C370.965 60.3048 371.157 60.1518 371.411 60.0048L373.594 58.7448L374.373 59.1948L372.191 60.4548C371.915 60.6138 371.775 60.7938 371.77 60.9948C371.77 61.1928 371.897 61.3653 372.152 61.5123C372.448 61.6833 372.778 61.7658 373.142 61.7598C373.505 61.7538 373.864 61.6488 374.217 61.4448L376.244 60.2748L377.023 60.7248L373.282 62.8848L372.503 62.4348L372.892 62.2098ZM379.595 62.9746C379.569 62.9536 379.54 62.9311 379.509 62.9071C379.483 62.8861 379.45 62.8606 379.408 62.8306C379.372 62.8036 379.33 62.7766 379.283 62.7496C378.987 62.5786 378.657 62.4961 378.293 62.5021C377.93 62.5081 377.571 62.6131 377.218 62.8171L375.191 63.9871L374.412 63.5371L378.153 61.3771L378.933 61.8271L378.543 62.0521C378.719 62.0521 378.899 62.0656 379.081 62.0926C379.237 62.1166 379.405 62.1541 379.587 62.2051C379.78 62.2561 379.964 62.3326 380.141 62.4346L380.335 62.5471L379.595 62.9746ZM381.891 65.6954C382.068 65.5934 382.2 65.4809 382.289 65.3579C382.377 65.2349 382.421 65.1104 382.421 64.9844C382.426 64.8554 382.39 64.7324 382.312 64.6154C382.239 64.4954 382.125 64.3904 381.969 64.3004C381.813 64.2104 381.631 64.1444 381.424 64.1024C381.221 64.0574 381.008 64.0364 380.785 64.0394C380.566 64.0394 380.351 64.0649 380.138 64.1159C379.925 64.1669 379.73 64.2434 379.553 64.3454C379.376 64.4474 379.244 64.5599 379.156 64.6829C379.067 64.8059 379.02 64.9319 379.015 65.0609C379.015 65.1869 379.052 65.3099 379.124 65.4299C379.202 65.5469 379.319 65.6504 379.475 65.7404C379.631 65.8304 379.81 65.8979 380.013 65.9429C380.221 65.9849 380.434 66.0059 380.652 66.0059C380.875 66.0029 381.094 65.9759 381.307 65.9249C381.52 65.8739 381.715 65.7974 381.891 65.6954ZM378.774 63.8954C379.039 63.7424 379.34 63.6284 379.678 63.5534C380.015 63.4784 380.361 63.4409 380.714 63.4409C381.078 63.4409 381.429 63.4784 381.767 63.5534C382.104 63.6284 382.406 63.7424 382.671 63.8954C382.936 64.0484 383.133 64.2224 383.263 64.4174C383.393 64.6124 383.455 64.8134 383.45 65.0204C383.455 65.2274 383.393 65.4284 383.263 65.6234C383.133 65.8184 382.936 65.9924 382.671 66.1454C382.406 66.2984 382.104 66.4124 381.767 66.4874C381.429 66.5624 381.078 66.5999 380.714 66.5999C380.361 66.5999 380.015 66.5624 379.678 66.4874C379.34 66.4124 379.039 66.2984 378.774 66.1454C378.509 65.9924 378.311 65.8184 378.181 65.6234C378.051 65.4284 377.984 65.2274 377.979 65.0204C377.984 64.8134 378.051 64.6124 378.181 64.4174C378.311 64.2224 378.509 64.0484 378.774 63.8954ZM382.515 68.2157L381.736 67.7657L387.192 64.6157L387.971 65.0657L382.515 68.2157ZM384.501 69.3622L383.722 68.9122L387.463 66.7522L388.242 67.2022L384.501 69.3622ZM389.489 66.5722C389.354 66.6502 389.198 66.6892 389.022 66.6892C388.845 66.6892 388.689 66.6502 388.554 66.5722C388.419 66.4942 388.351 66.4042 388.351 66.3022C388.351 66.2002 388.419 66.1102 388.554 66.0322C388.689 65.9542 388.845 65.9152 389.022 65.9152C389.198 65.9152 389.354 65.9542 389.489 66.0322C389.625 66.1102 389.692 66.2002 389.692 66.3022C389.692 66.4042 389.625 66.4942 389.489 66.5722ZM391.087 67.4047L391.789 67.8097L390.542 68.5297L391.321 68.9797L390.62 69.3847L389.84 68.9347L387.899 70.0552C387.759 70.1362 387.689 70.2277 387.689 70.3297C387.689 70.4317 387.757 70.5217 387.892 70.5997C387.99 70.6567 388.092 70.7002 388.196 70.7302C388.248 70.7482 388.302 70.7647 388.359 70.7797L387.658 71.1847C387.595 71.1667 387.53 71.1442 387.463 71.1172C387.323 71.0662 387.18 70.9987 387.034 70.9147C386.681 70.7107 386.507 70.4992 386.512 70.2802C386.522 70.0582 386.722 69.8347 387.112 69.6097L389.061 68.4847L388.359 68.0797L389.061 67.6747L389.45 67.8997C389.57 67.9687 389.702 68.0002 389.848 67.9942C389.999 67.9912 390.152 67.9447 390.308 67.8547L391.087 67.4047ZM390.583 71.0288C390.479 71.1128 390.399 71.2073 390.342 71.3123C390.29 71.4203 390.269 71.5283 390.279 71.6363C390.295 71.7473 390.342 71.8583 390.42 71.9693C390.503 72.0773 390.622 72.1763 390.778 72.2663C390.96 72.3713 391.15 72.4478 391.347 72.4958C391.555 72.5438 391.742 72.5738 391.908 72.5858C392.106 72.5978 392.301 72.5963 392.493 72.5813L392.493 73.1663C392.233 73.1843 391.963 73.1783 391.682 73.1483C391.443 73.1243 391.181 73.0778 390.895 73.0088C390.615 72.9368 390.342 72.8243 390.077 72.6713C389.812 72.5183 389.614 72.3443 389.484 72.1493C389.354 71.9543 389.29 71.7518 389.29 71.5418C389.295 71.3348 389.365 71.1323 389.5 70.9343C389.635 70.7363 389.84 70.5578 390.116 70.3988C390.381 70.2458 390.677 70.1318 391.004 70.0568C391.342 69.9818 391.682 69.9443 392.025 69.9443C392.368 69.9443 392.703 69.9818 393.031 70.0568C393.369 70.1318 393.67 70.2458 393.935 70.3988C394.2 70.5518 394.397 70.7198 394.527 70.9028C394.662 71.0828 394.727 71.2673 394.722 71.4563C394.727 71.6453 394.662 71.8298 394.527 72.0098C394.397 72.1928 394.2 72.3608 393.935 72.5138C393.878 72.5468 393.823 72.5753 393.771 72.5993C393.719 72.6233 393.672 72.6443 393.631 72.6623C393.584 72.6833 393.543 72.7013 393.506 72.7163L390.583 71.0288ZM393.272 70.7813C392.976 70.6103 392.649 70.5203 392.29 70.5113C391.932 70.5023 391.594 70.5533 391.277 70.6643L393.444 71.9153C393.652 71.7413 393.748 71.5508 393.732 71.3438C393.722 71.1398 393.569 70.9523 393.272 70.7813Z" fill="white"/>
<rect width="214" height="46" transform="matrix(0.866025 0.5 -0.866025 0.5 269.558 18)" fill="#353749"/>
<path d="M324.966 74.1893C325.121 74.0993 325.207 74.0018 325.223 73.8968C325.238 73.7918 325.212 73.6808 325.145 73.5638C325.077 73.4468 324.981 73.3253 324.856 73.1993C324.732 73.0733 324.604 72.9428 324.475 72.8078C324.35 72.6698 324.238 72.5303 324.139 72.3893C324.041 72.2483 323.981 72.1058 323.96 71.9618C323.939 71.8178 323.973 71.6723 324.061 71.5253C324.15 71.3783 324.321 71.2313 324.576 71.0843C324.778 70.9673 325.01 70.8788 325.27 70.8188C325.535 70.7618 325.807 70.7393 326.088 70.7513C326.379 70.7633 326.675 70.8113 326.976 70.8953C327.278 70.9793 327.569 71.1023 327.849 71.2643C328.125 71.4233 328.327 71.5823 328.457 71.7413C328.587 71.9003 328.676 72.0443 328.722 72.1733C328.78 72.3263 328.8 72.4733 328.785 72.6143L327.694 72.6143C327.709 72.5213 327.699 72.4253 327.662 72.3263C327.631 72.2423 327.569 72.1463 327.475 72.0383C327.387 71.9273 327.252 71.8193 327.07 71.7143C326.924 71.6303 326.771 71.5658 326.61 71.5208C326.459 71.4758 326.309 71.4488 326.158 71.4398C326.013 71.4338 325.877 71.4428 325.753 71.4668C325.628 71.4908 325.522 71.5283 325.433 71.5793C325.277 71.6693 325.192 71.7668 325.176 71.8718C325.16 71.9768 325.186 72.0878 325.254 72.2048C325.321 72.3218 325.418 72.4433 325.542 72.5693C325.667 72.6953 325.792 72.8273 325.916 72.9653C326.046 73.1003 326.161 73.2383 326.259 73.3793C326.358 73.5203 326.418 73.6628 326.439 73.8068C326.459 73.9508 326.426 74.0963 326.337 74.2433C326.249 74.3903 326.078 74.5373 325.823 74.6843C325.589 74.8193 325.327 74.9198 325.036 74.9858C324.755 75.0518 324.459 75.0788 324.147 75.0668C323.835 75.0548 323.516 75.0023 323.188 74.9093C322.866 74.8193 322.549 74.6843 322.238 74.5043C321.905 74.3123 321.661 74.1203 321.505 73.9283C321.349 73.7363 321.245 73.5623 321.193 73.4063C321.131 73.2263 321.115 73.0523 321.146 72.8843L322.238 72.8843C322.212 73.0013 322.219 73.1258 322.261 73.2578C322.297 73.3688 322.367 73.4933 322.471 73.6313C322.586 73.7693 322.768 73.9103 323.017 74.0543C323.37 74.2583 323.724 74.3663 324.077 74.3783C324.436 74.3873 324.732 74.3243 324.966 74.1893ZM327.381 77.3836L327.77 77.1586C327.594 77.1586 327.414 77.1451 327.232 77.1181C327.077 77.0941 326.905 77.0551 326.718 77.0011C326.531 76.9531 326.349 76.8781 326.172 76.7761C325.975 76.6621 325.827 76.5406 325.728 76.4116C325.629 76.2826 325.57 76.1551 325.549 76.0291C325.538 75.9031 325.564 75.7831 325.627 75.6691C325.7 75.5551 325.803 75.4591 325.939 75.3811C326.25 75.2011 326.606 75.1096 327.006 75.1066C327.412 75.1006 327.809 75.1771 328.199 75.3361L329.797 75.9886C329.994 75.8746 330.088 75.7366 330.077 75.5746C330.072 75.4156 329.953 75.2686 329.719 75.1336C329.553 75.0376 329.381 74.9716 329.204 74.9356C329.033 74.8966 328.874 74.8711 328.729 74.8591C328.563 74.8471 328.399 74.8486 328.238 74.8636L328.238 74.2786C328.472 74.2636 328.713 74.2681 328.963 74.2921C329.176 74.3131 329.41 74.3551 329.664 74.4181C329.919 74.4811 330.171 74.5846 330.42 74.7286C330.654 74.8636 330.831 75.0076 330.95 75.1606C331.07 75.3136 331.132 75.4666 331.137 75.6196C331.148 75.7696 331.104 75.9151 331.005 76.0561C330.911 76.2001 330.768 76.3276 330.576 76.4386L328.16 77.8336L327.381 77.3836ZM326.991 76.4386C327.303 76.6186 327.643 76.7071 328.012 76.7041C328.381 76.7011 328.742 76.5976 329.095 76.3936L329.173 76.3486L327.77 75.7636C327.609 75.7006 327.44 75.6691 327.264 75.6691C327.087 75.6691 326.931 75.7081 326.796 75.7861C326.676 75.8551 326.622 75.9496 326.632 76.0696C326.653 76.1896 326.773 76.3126 326.991 76.4386ZM333.385 76.9804C333.562 76.9804 333.741 76.9939 333.923 77.0209C334.079 77.0449 334.248 77.0824 334.43 77.1334C334.622 77.1844 334.806 77.2609 334.983 77.3629C335.206 77.4919 335.373 77.6329 335.482 77.7859C335.596 77.9359 335.648 78.0889 335.638 78.2449C335.632 78.4039 335.565 78.5629 335.435 78.7219C335.31 78.8839 335.121 79.0384 334.866 79.1854L332.684 80.4454L331.904 79.9954L334.087 78.7354C334.362 78.5764 334.5 78.3979 334.5 78.1999C334.505 77.9989 334.38 77.8249 334.126 77.6779C333.829 77.5069 333.499 77.4244 333.136 77.4304C332.772 77.4364 332.413 77.5414 332.06 77.7454L330.034 78.9154L329.254 78.4654L332.995 76.3054L333.775 76.7554L333.385 76.9804ZM339.192 79.7932C339.374 79.8982 339.512 80.0107 339.606 80.1307C339.704 80.2477 339.774 80.3542 339.816 80.4502C339.868 80.5642 339.894 80.6752 339.894 80.7832L342.037 79.5457L342.817 79.9957L337.361 83.1457L336.581 82.6957L337.01 82.4482C336.818 82.4512 336.623 82.4377 336.425 82.4077C336.259 82.3837 336.075 82.3432 335.872 82.2862C335.669 82.2292 335.477 82.1482 335.295 82.0432C335.051 81.9022 334.867 81.7387 334.742 81.5527C334.628 81.3667 334.57 81.1747 334.57 80.9767C334.581 80.7787 334.654 80.5837 334.789 80.3917C334.929 80.1967 335.137 80.0197 335.412 79.8607C335.682 79.7047 335.986 79.5862 336.324 79.5052C336.662 79.4242 337 79.3822 337.337 79.3792C337.686 79.3762 338.018 79.4092 338.335 79.4782C338.662 79.5472 338.948 79.6522 339.192 79.7932ZM336.075 81.6832C336.22 81.7672 336.392 81.8302 336.589 81.8722C336.792 81.9112 337 81.9292 337.213 81.9262C337.436 81.9232 337.654 81.8962 337.867 81.8452C338.08 81.7942 338.275 81.7177 338.452 81.6157C338.629 81.5137 338.761 81.4012 338.849 81.2782C338.938 81.1552 338.982 81.0307 338.982 80.9047C338.992 80.7787 338.961 80.6587 338.888 80.5447C338.821 80.4277 338.714 80.3272 338.569 80.2432C338.423 80.1592 338.249 80.0977 338.047 80.0587C337.849 80.0167 337.639 79.9972 337.415 80.0002C337.202 80.0032 336.989 80.0302 336.776 80.0812C336.563 80.1322 336.368 80.2087 336.192 80.3107C336.015 80.4127 335.882 80.5252 335.794 80.6482C335.706 80.7712 335.656 80.8957 335.646 81.0217C335.646 81.1477 335.68 81.2692 335.747 81.3862C335.82 81.5002 335.929 81.5992 336.075 81.6832ZM343.209 83.2823C343.214 83.2193 343.204 83.1533 343.178 83.0843C343.157 83.0243 343.118 82.9598 343.061 82.8908C343.004 82.8218 342.923 82.7573 342.819 82.6973C342.643 82.5953 342.466 82.5413 342.289 82.5353C342.118 82.5263 341.983 82.5503 341.884 82.6073C341.765 82.6763 341.721 82.7558 341.752 82.8458C341.783 82.9358 341.843 83.0363 341.931 83.1473C342.03 83.2583 342.136 83.3738 342.251 83.4938C342.37 83.6168 342.458 83.7428 342.516 83.8718C342.578 84.0038 342.588 84.1358 342.547 84.2678C342.505 84.3998 342.375 84.5288 342.157 84.6548C342.001 84.7448 341.819 84.8108 341.611 84.8528C341.409 84.8978 341.191 84.9158 340.957 84.9068C340.728 84.9008 340.494 84.8648 340.255 84.7988C340.021 84.7358 339.798 84.6428 339.585 84.5198C339.335 84.3758 339.156 84.2333 339.047 84.0923C338.938 83.9513 338.865 83.8223 338.829 83.7053C338.782 83.5703 338.774 83.4368 338.805 83.3048L339.819 83.3048C339.803 83.3978 339.808 83.4908 339.834 83.5838C339.86 83.6648 339.902 83.7518 339.959 83.8448C340.027 83.9378 340.136 84.0278 340.286 84.1148C340.505 84.2408 340.707 84.3068 340.894 84.3128C341.081 84.3188 341.242 84.2828 341.378 84.2048C341.492 84.1388 341.533 84.0608 341.502 83.9708C341.476 83.8778 341.414 83.7758 341.315 83.6648C341.227 83.5538 341.123 83.4368 341.003 83.3138C340.889 83.1938 340.801 83.0678 340.738 82.9358C340.681 82.8068 340.671 82.6778 340.707 82.5488C340.749 82.4168 340.881 82.2863 341.105 82.1573C341.24 82.0793 341.404 82.0208 341.596 81.9818C341.798 81.9428 342.006 81.9278 342.219 81.9368C342.443 81.9458 342.666 81.9788 342.89 82.0358C343.113 82.0928 343.324 82.1783 343.521 82.2923C343.724 82.4093 343.872 82.5278 343.965 82.6478C344.064 82.7648 344.134 82.8713 344.176 82.9673C344.222 83.0783 344.238 83.1833 344.222 83.2823L343.209 83.2823ZM347.376 83.1679L348.077 83.5729L346.83 84.2929L347.61 84.7429L346.908 85.1479L346.129 84.6979L344.188 85.8184C344.048 85.8994 343.977 85.9909 343.977 86.0929C343.977 86.1949 344.045 86.2849 344.18 86.3629C344.279 86.4199 344.38 86.4634 344.484 86.4934C344.536 86.5114 344.591 86.5279 344.648 86.5429L343.946 86.9479C343.884 86.9299 343.819 86.9074 343.751 86.8804C343.611 86.8294 343.468 86.7619 343.323 86.6779C342.969 86.4739 342.795 86.2624 342.801 86.0434C342.811 85.8214 343.011 85.5979 343.401 85.3729L345.349 84.2479L344.648 83.8429L345.349 83.4379L345.739 83.6629C345.858 83.7319 345.991 83.7634 346.136 83.7574C346.287 83.7544 346.44 83.7079 346.596 83.6179L347.376 83.1679ZM349.483 87.9844C349.66 87.8824 349.792 87.7699 349.88 87.6469C349.969 87.5239 350.013 87.3994 350.013 87.2734C350.018 87.1444 349.982 87.0214 349.904 86.9044C349.831 86.7844 349.717 86.6794 349.561 86.5894C349.405 86.4994 349.223 86.4334 349.015 86.3914C348.813 86.3464 348.6 86.3254 348.376 86.3284C348.158 86.3284 347.942 86.3539 347.729 86.4049C347.516 86.4559 347.321 86.5324 347.145 86.6344C346.968 86.7364 346.836 86.8489 346.747 86.9719C346.659 87.0949 346.612 87.2209 346.607 87.3499C346.607 87.4759 346.643 87.5989 346.716 87.7189C346.794 87.8359 346.911 87.9394 347.067 88.0294C347.223 88.1194 347.402 88.1869 347.605 88.2319C347.812 88.2739 348.025 88.2949 348.244 88.2949C348.467 88.2919 348.685 88.2649 348.898 88.2139C349.111 88.1629 349.306 88.0864 349.483 87.9844ZM346.365 86.1844C346.63 86.0314 346.932 85.9174 347.269 85.8424C347.607 85.7674 347.953 85.7299 348.306 85.7299C348.67 85.7299 349.02 85.7674 349.358 85.8424C349.696 85.9174 349.997 86.0314 350.262 86.1844C350.527 86.3374 350.725 86.5114 350.855 86.7064C350.985 86.9014 351.047 87.1024 351.042 87.3094C351.047 87.5164 350.985 87.7174 350.855 87.9124C350.725 88.1074 350.527 88.2814 350.262 88.4344C349.997 88.5874 349.696 88.7014 349.358 88.7764C349.02 88.8514 348.67 88.8889 348.306 88.8889C347.953 88.8889 347.607 88.8514 347.269 88.7764C346.932 88.7014 346.63 88.5874 346.365 88.4344C346.1 88.2814 345.903 88.1074 345.773 87.9124C345.643 87.7174 345.575 87.5164 345.57 87.3094C345.575 87.1024 345.643 86.9014 345.773 86.7064C345.903 86.5114 346.1 86.3374 346.365 86.1844ZM353.381 88.5248C353.557 88.5248 353.737 88.5383 353.918 88.5653C354.074 88.5893 354.243 88.6268 354.425 88.6778C354.617 88.7288 354.802 88.8053 354.978 88.9073C355.202 89.0363 355.368 89.1773 355.477 89.3303C355.592 89.4803 355.644 89.6333 355.633 89.7893C355.628 89.9483 355.56 90.1073 355.431 90.2663C355.306 90.4283 355.116 90.5828 354.862 90.7298L352.679 91.9898L351.9 91.5398L354.082 90.2798C354.358 90.1208 354.495 89.9423 354.495 89.7443C354.5 89.5433 354.376 89.3693 354.121 89.2223C353.825 89.0513 353.495 88.9688 353.131 88.9748C352.768 88.9808 352.409 89.0858 352.056 89.2898L350.029 90.4598L349.25 90.0098L352.991 87.8498L353.77 88.2998L353.381 88.5248ZM355.914 92.0126C355.81 92.0966 355.73 92.1911 355.673 92.2961C355.621 92.4041 355.6 92.5121 355.61 92.6201C355.626 92.7311 355.673 92.8421 355.751 92.9531C355.834 93.0611 355.953 93.1601 356.109 93.2501C356.291 93.3551 356.481 93.4316 356.678 93.4796C356.886 93.5276 357.073 93.5576 357.239 93.5696C357.437 93.5816 357.632 93.5801 357.824 93.5651L357.824 94.1501C357.564 94.1681 357.294 94.1621 357.013 94.1321C356.774 94.1081 356.512 94.0616 356.226 93.9926C355.946 93.9206 355.673 93.8081 355.408 93.6551C355.143 93.5021 354.945 93.3281 354.815 93.1331C354.686 92.9381 354.621 92.7356 354.621 92.5256C354.626 92.3186 354.696 92.1161 354.831 91.9181C354.966 91.7201 355.171 91.5416 355.447 91.3826C355.712 91.2296 356.008 91.1156 356.335 91.0406C356.673 90.9656 357.013 90.9281 357.356 90.9281C357.699 90.9281 358.034 90.9656 358.362 91.0406C358.7 91.1156 359.001 91.2296 359.266 91.3826C359.531 91.5356 359.728 91.7036 359.858 91.8866C359.993 92.0666 360.058 92.2511 360.053 92.4401C360.058 92.6291 359.993 92.8136 359.858 92.9936C359.728 93.1766 359.531 93.3446 359.266 93.4976C359.209 93.5306 359.154 93.5591 359.102 93.5831C359.05 93.6071 359.004 93.6281 358.962 93.6461C358.915 93.6671 358.874 93.6851 358.837 93.7001L355.914 92.0126ZM358.603 91.7651C358.307 91.5941 357.98 91.5041 357.621 91.4951C357.263 91.4861 356.925 91.5371 356.608 91.6481L358.775 92.8991C358.983 92.7251 359.079 92.5346 359.063 92.3276C359.053 92.1236 358.9 91.9361 358.603 91.7651Z" fill="white"/>
<rect width="214" height="12" transform="matrix(0.866025 0.5 -0.866025 0.5 229.721 41)" fill="#4968F3"/>
<rect width="214" height="54" transform="matrix(0.866025 0.5 -0.866025 0.5 219.329 47)" fill="#8792A9"/>
<path d="M288.19 109.367C288.564 109.583 288.834 109.802 289.001 110.024C289.167 110.246 289.276 110.45 289.328 110.636C289.385 110.849 289.395 111.056 289.359 111.257L288.268 111.257C288.309 111.107 288.307 110.949 288.26 110.784C288.224 110.643 288.141 110.487 288.011 110.316C287.891 110.145 287.691 109.979 287.411 109.817C287.13 109.655 286.813 109.532 286.46 109.448C286.112 109.367 285.75 109.326 285.376 109.326C285.013 109.326 284.654 109.368 284.301 109.452C283.953 109.533 283.638 109.655 283.358 109.817C283.077 109.979 282.864 110.162 282.718 110.366C282.578 110.567 282.505 110.774 282.5 110.987C282.505 111.2 282.578 111.407 282.718 111.608C282.864 111.812 283.077 111.995 283.358 112.157C283.638 112.319 283.929 112.436 284.231 112.508C284.532 112.58 284.81 112.626 285.065 112.647C285.361 112.674 285.649 112.676 285.93 112.652L285.93 113.282C285.566 113.306 285.192 113.3 284.807 113.264C284.48 113.231 284.119 113.166 283.724 113.07C283.334 112.977 282.952 112.823 282.578 112.607C282.168 112.37 281.858 112.107 281.651 111.819C281.448 111.534 281.344 111.243 281.339 110.946C281.339 110.652 281.432 110.364 281.619 110.082C281.817 109.8 282.11 109.547 282.5 109.322C282.89 109.097 283.326 108.929 283.81 108.818C284.303 108.707 284.805 108.651 285.314 108.651C285.828 108.654 286.332 108.714 286.826 108.831C287.325 108.951 287.779 109.13 288.19 109.367ZM286.59 114.833L285.811 114.383L291.267 111.233L292.046 111.683L286.59 114.833ZM289.979 116.79L290.369 116.565C290.192 116.565 290.013 116.551 289.831 116.524C289.675 116.5 289.504 116.461 289.316 116.407C289.129 116.359 288.948 116.284 288.771 116.182C288.573 116.068 288.425 115.947 288.327 115.818C288.228 115.689 288.168 115.561 288.147 115.435C288.137 115.309 288.163 115.189 288.225 115.075C288.298 114.961 288.402 114.865 288.537 114.787C288.849 114.607 289.205 114.516 289.605 114.513C290.01 114.507 290.408 114.583 290.797 114.742L292.395 115.395C292.593 115.281 292.686 115.143 292.676 114.981C292.671 114.822 292.551 114.675 292.317 114.54C292.151 114.444 291.98 114.378 291.803 114.342C291.631 114.303 291.473 114.277 291.327 114.265C291.161 114.253 290.997 114.255 290.836 114.27L290.836 113.685C291.07 113.67 291.312 113.674 291.561 113.698C291.774 113.719 292.008 113.761 292.263 113.824C292.517 113.887 292.769 113.991 293.019 114.135C293.253 114.27 293.429 114.414 293.549 114.567C293.668 114.72 293.731 114.873 293.736 115.026C293.746 115.176 293.702 115.321 293.603 115.462C293.51 115.606 293.367 115.734 293.175 115.845L290.758 117.24L289.979 116.79ZM289.589 115.845C289.901 116.025 290.241 116.113 290.61 116.11C290.979 116.107 291.34 116.004 291.694 115.8L291.772 115.755L290.369 115.17C290.208 115.107 290.039 115.075 289.862 115.075C289.685 115.075 289.53 115.114 289.394 115.192C289.275 115.261 289.22 115.356 289.231 115.476C289.252 115.596 289.371 115.719 289.589 115.845ZM292.905 118.479L295.126 115.442L295.945 115.914L294.308 118.119L298.127 117.174L298.945 117.647L293.139 119.064C292.811 119.145 292.523 119.204 292.274 119.24C292.019 119.279 291.79 119.297 291.588 119.294C291.39 119.294 291.211 119.271 291.05 119.226C290.894 119.184 290.746 119.123 290.606 119.042C290.439 118.946 290.317 118.86 290.239 118.785C290.192 118.746 290.159 118.712 290.138 118.682L290.839 118.277C290.865 118.31 290.894 118.341 290.925 118.371C290.977 118.431 291.052 118.49 291.151 118.547C291.307 118.637 291.484 118.685 291.681 118.691C291.884 118.7 292.11 118.674 292.359 118.614L292.905 118.479Z" fill="white"/>
<rect width="214" height="18" transform="matrix(0.866025 0.5 -0.866025 0.5 172.564 74)" fill="#4968F3"/>
<path d="M244.761 121.383L245.618 121.878L242.423 126.333L241.526 125.816L242.384 124.646L239.968 123.251L237.941 123.746L237.045 123.228L244.761 121.383ZM241.059 122.981L242.851 124.016L244.215 122.193L241.059 122.981ZM243.946 127.213L243.167 126.763L248.623 123.613L249.402 124.063L243.946 127.213ZM247.257 127.279C247.153 127.363 247.073 127.458 247.015 127.563C246.963 127.671 246.943 127.779 246.953 127.887C246.969 127.998 247.015 128.109 247.093 128.22C247.176 128.328 247.296 128.427 247.452 128.517C247.634 128.622 247.823 128.698 248.021 128.746C248.229 128.794 248.416 128.824 248.582 128.836C248.779 128.848 248.974 128.847 249.167 128.832L249.167 129.417C248.907 129.435 248.637 129.429 248.356 129.399C248.117 129.375 247.855 129.328 247.569 129.259C247.288 129.187 247.015 129.075 246.75 128.922C246.485 128.769 246.288 128.595 246.158 128.4C246.028 128.205 245.963 128.002 245.963 127.792C245.968 127.585 246.038 127.383 246.174 127.185C246.309 126.987 246.514 126.808 246.789 126.649C247.054 126.496 247.351 126.382 247.678 126.307C248.016 126.232 248.356 126.195 248.699 126.195C249.042 126.195 249.377 126.232 249.704 126.307C250.042 126.382 250.344 126.496 250.609 126.649C250.874 126.802 251.071 126.97 251.201 127.153C251.336 127.333 251.401 127.518 251.396 127.707C251.401 127.896 251.336 128.08 251.201 128.26C251.071 128.443 250.874 128.611 250.609 128.764C250.551 128.797 250.497 128.826 250.445 128.85C250.393 128.874 250.346 128.895 250.305 128.913C250.258 128.934 250.216 128.952 250.18 128.967L247.257 127.279ZM249.946 127.032C249.65 126.861 249.322 126.771 248.964 126.762C248.605 126.753 248.268 126.804 247.951 126.915L250.117 128.166C250.325 127.992 250.421 127.801 250.406 127.594C250.395 127.39 250.242 127.203 249.946 127.032ZM252.515 131.71C252.338 131.71 252.159 131.696 251.977 131.669C251.821 131.645 251.65 131.606 251.463 131.552C251.275 131.504 251.094 131.429 250.917 131.327C250.693 131.198 250.525 131.059 250.41 130.909C250.301 130.756 250.249 130.6 250.254 130.441C250.265 130.285 250.332 130.126 250.457 129.964C250.587 129.805 250.779 129.652 251.034 129.505L253.216 128.245L253.996 128.695L251.813 129.955C251.538 130.114 251.398 130.294 251.392 130.495C251.392 130.693 251.52 130.865 251.774 131.012C252.07 131.183 252.4 131.266 252.764 131.26C253.128 131.254 253.486 131.149 253.84 130.945L255.866 129.775L256.646 130.225L252.904 132.385L252.125 131.935L252.515 131.71ZM259.217 132.475C259.191 132.454 259.163 132.431 259.132 132.407C259.106 132.386 259.072 132.361 259.03 132.331C258.994 132.304 258.952 132.277 258.906 132.25C258.61 132.079 258.28 131.996 257.916 132.002C257.552 132.008 257.194 132.113 256.84 132.317L254.814 133.487L254.034 133.037L257.776 130.877L258.555 131.327L258.165 131.552C258.342 131.552 258.521 131.566 258.703 131.593C258.859 131.617 259.028 131.654 259.21 131.705C259.402 131.756 259.586 131.833 259.763 131.935L259.958 132.047L259.217 132.475ZM261.514 135.195C261.69 135.093 261.823 134.981 261.911 134.858C262 134.735 262.044 134.61 262.044 134.484C262.049 134.355 262.013 134.232 261.935 134.115C261.862 133.995 261.748 133.89 261.592 133.8C261.436 133.71 261.254 133.644 261.046 133.602C260.843 133.557 260.63 133.536 260.407 133.539C260.189 133.539 259.973 133.565 259.76 133.616C259.547 133.667 259.352 133.743 259.175 133.845C258.999 133.947 258.866 134.06 258.778 134.183C258.69 134.306 258.643 134.432 258.638 134.561C258.638 134.687 258.674 134.81 258.747 134.93C258.825 135.047 258.942 135.15 259.098 135.24C259.253 135.33 259.433 135.398 259.635 135.443C259.843 135.485 260.056 135.506 260.274 135.506C260.498 135.503 260.716 135.476 260.929 135.425C261.142 135.374 261.337 135.297 261.514 135.195ZM258.396 133.395C258.661 133.242 258.962 133.128 259.3 133.053C259.638 132.978 259.983 132.941 260.337 132.941C260.701 132.941 261.051 132.978 261.389 133.053C261.727 133.128 262.028 133.242 262.293 133.395C262.558 133.548 262.756 133.722 262.886 133.917C263.015 134.112 263.078 134.313 263.073 134.52C263.078 134.727 263.015 134.928 262.886 135.123C262.756 135.318 262.558 135.492 262.293 135.645C262.028 135.798 261.727 135.912 261.389 135.987C261.051 136.062 260.701 136.1 260.337 136.1C259.983 136.1 259.638 136.062 259.3 135.987C258.962 135.912 258.661 135.798 258.396 135.645C258.131 135.492 257.934 135.318 257.804 135.123C257.674 134.928 257.606 134.727 257.601 134.52C257.606 134.313 257.674 134.112 257.804 133.917C257.934 133.722 258.131 133.548 258.396 133.395ZM262.138 137.716L261.358 137.266L266.814 134.116L267.594 134.566L262.138 137.716ZM264.124 138.862L263.344 138.412L267.085 136.252L267.865 136.702L264.124 138.862ZM269.112 136.072C268.977 136.15 268.821 136.189 268.644 136.189C268.468 136.189 268.312 136.15 268.177 136.072C268.041 135.994 267.974 135.904 267.974 135.802C267.974 135.7 268.041 135.61 268.177 135.532C268.312 135.454 268.468 135.415 268.644 135.415C268.821 135.415 268.977 135.454 269.112 135.532C269.247 135.61 269.315 135.7 269.315 135.802C269.315 135.904 269.247 135.994 269.112 136.072ZM270.71 136.905L271.411 137.31L270.164 138.03L270.944 138.48L270.242 138.885L269.463 138.435L267.522 139.555C267.382 139.636 267.311 139.728 267.311 139.83C267.311 139.932 267.379 140.022 267.514 140.1C267.613 140.157 267.714 140.2 267.818 140.23C267.87 140.248 267.925 140.265 267.982 140.28L267.28 140.685C267.218 140.667 267.153 140.644 267.085 140.617C266.945 140.566 266.802 140.499 266.657 140.415C266.303 140.211 266.129 139.999 266.134 139.78C266.145 139.558 266.345 139.335 266.735 139.11L268.683 137.985L267.982 137.58L268.683 137.175L269.073 137.4C269.192 137.469 269.325 137.5 269.47 137.494C269.621 137.491 269.774 137.445 269.93 137.355L270.71 136.905ZM270.206 140.529C270.102 140.613 270.021 140.707 269.964 140.812C269.912 140.92 269.891 141.028 269.902 141.136C269.917 141.247 269.964 141.358 270.042 141.469C270.125 141.577 270.245 141.676 270.401 141.766C270.583 141.871 270.772 141.948 270.97 141.996C271.177 142.044 271.365 142.074 271.531 142.086C271.728 142.098 271.923 142.096 272.115 142.081L272.115 142.666C271.856 142.684 271.585 142.678 271.305 142.648C271.066 142.624 270.803 142.578 270.518 142.509C270.237 142.437 269.964 142.324 269.699 142.171C269.434 142.018 269.237 141.844 269.107 141.649C268.977 141.454 268.912 141.252 268.912 141.042C268.917 140.835 268.987 140.632 269.122 140.434C269.258 140.236 269.463 140.058 269.738 139.899C270.003 139.746 270.299 139.632 270.627 139.557C270.964 139.482 271.305 139.444 271.648 139.444C271.991 139.444 272.326 139.482 272.653 139.557C272.991 139.632 273.292 139.746 273.557 139.899C273.822 140.052 274.02 140.22 274.15 140.403C274.285 140.583 274.35 140.767 274.345 140.956C274.35 141.145 274.285 141.33 274.15 141.51C274.02 141.693 273.822 141.861 273.557 142.014C273.5 142.047 273.446 142.075 273.394 142.099C273.342 142.123 273.295 142.144 273.253 142.162C273.207 142.183 273.165 142.201 273.129 142.216L270.206 140.529ZM272.895 140.281C272.599 140.11 272.271 140.02 271.913 140.011C271.554 140.002 271.216 140.053 270.9 140.164L273.066 141.415C273.274 141.241 273.37 141.051 273.355 140.844C273.344 140.64 273.191 140.452 272.895 140.281Z" fill="white"/>
<rect width="214" height="42" transform="matrix(0.866025 0.5 -0.866025 0.5 156.975 83)" fill="#353749"/>
<path d="M214.114 138.189C214.27 138.099 214.356 138.002 214.371 137.897C214.387 137.792 214.361 137.681 214.293 137.564C214.226 137.447 214.13 137.325 214.005 137.199C213.88 137.073 213.753 136.943 213.623 136.808C213.498 136.67 213.387 136.53 213.288 136.389C213.189 136.248 213.13 136.106 213.109 135.962C213.088 135.818 213.122 135.672 213.21 135.525C213.298 135.378 213.47 135.231 213.725 135.084C213.927 134.967 214.158 134.879 214.418 134.819C214.683 134.762 214.956 134.739 215.237 134.751C215.528 134.763 215.824 134.811 216.125 134.895C216.427 134.979 216.717 135.102 216.998 135.264C217.273 135.423 217.476 135.582 217.606 135.741C217.736 135.9 217.824 136.044 217.871 136.173C217.928 136.326 217.949 136.473 217.933 136.614L216.842 136.614C216.858 136.521 216.847 136.425 216.811 136.326C216.78 136.242 216.717 136.146 216.624 136.038C216.536 135.927 216.401 135.819 216.219 135.714C216.073 135.63 215.92 135.566 215.759 135.521C215.608 135.476 215.457 135.449 215.307 135.44C215.161 135.434 215.026 135.443 214.901 135.467C214.777 135.491 214.67 135.528 214.582 135.579C214.426 135.669 214.34 135.767 214.325 135.872C214.309 135.977 214.335 136.088 214.403 136.205C214.47 136.322 214.566 136.443 214.691 136.569C214.816 136.695 214.94 136.827 215.065 136.965C215.195 137.1 215.309 137.238 215.408 137.379C215.507 137.52 215.567 137.663 215.587 137.807C215.608 137.951 215.574 138.096 215.486 138.243C215.398 138.39 215.226 138.537 214.972 138.684C214.738 138.819 214.475 138.92 214.184 138.986C213.904 139.052 213.608 139.079 213.296 139.067C212.984 139.055 212.664 139.002 212.337 138.909C212.015 138.819 211.698 138.684 211.386 138.504C211.054 138.312 210.809 138.12 210.654 137.928C210.498 137.736 210.394 137.562 210.342 137.406C210.279 137.226 210.264 137.052 210.295 136.884L211.386 136.884C211.36 137.001 211.368 137.126 211.41 137.258C211.446 137.369 211.516 137.493 211.62 137.631C211.734 137.769 211.916 137.91 212.166 138.054C212.519 138.258 212.872 138.366 213.226 138.378C213.584 138.387 213.88 138.324 214.114 138.189ZM216.529 141.384L216.919 141.159C216.742 141.159 216.563 141.145 216.381 141.118C216.225 141.094 216.054 141.055 215.867 141.001C215.68 140.953 215.498 140.878 215.321 140.776C215.124 140.662 214.976 140.541 214.877 140.412C214.778 140.283 214.718 140.155 214.698 140.029C214.687 139.903 214.713 139.783 214.776 139.669C214.848 139.555 214.952 139.459 215.087 139.381C215.399 139.201 215.755 139.11 216.155 139.107C216.56 139.101 216.958 139.177 217.348 139.336L218.945 139.989C219.143 139.875 219.236 139.737 219.226 139.575C219.221 139.416 219.101 139.269 218.867 139.134C218.701 139.038 218.53 138.972 218.353 138.936C218.182 138.897 218.023 138.871 217.878 138.859C217.711 138.847 217.548 138.849 217.387 138.864L217.387 138.279C217.62 138.264 217.862 138.268 218.111 138.292C218.324 138.313 218.558 138.355 218.813 138.418C219.068 138.481 219.32 138.585 219.569 138.729C219.803 138.864 219.979 139.008 220.099 139.161C220.218 139.314 220.281 139.467 220.286 139.62C220.296 139.77 220.252 139.915 220.154 140.056C220.06 140.2 219.917 140.328 219.725 140.439L217.309 141.834L216.529 141.384ZM216.14 140.439C216.451 140.619 216.792 140.707 217.161 140.704C217.529 140.701 217.891 140.598 218.244 140.394L218.322 140.349L216.919 139.764C216.758 139.701 216.589 139.669 216.412 139.669C216.236 139.669 216.08 139.708 215.945 139.786C215.825 139.855 215.771 139.95 215.781 140.07C215.802 140.19 215.921 140.313 216.14 140.439ZM222.534 140.98C222.71 140.98 222.89 140.994 223.072 141.021C223.228 141.045 223.396 141.082 223.578 141.133C223.77 141.184 223.955 141.261 224.132 141.363C224.355 141.492 224.521 141.633 224.63 141.786C224.745 141.936 224.797 142.089 224.786 142.245C224.781 142.404 224.714 142.563 224.584 142.722C224.459 142.884 224.269 143.038 224.015 143.185L221.832 144.445L221.053 143.995L223.235 142.735C223.511 142.576 223.648 142.398 223.648 142.2C223.654 141.999 223.529 141.825 223.274 141.678C222.978 141.507 222.648 141.424 222.284 141.43C221.921 141.436 221.562 141.541 221.209 141.745L219.182 142.915L218.403 142.465L222.144 140.305L222.924 140.755L222.534 140.98ZM228.341 143.793C228.523 143.898 228.661 144.011 228.754 144.131C228.853 144.248 228.923 144.354 228.965 144.45C229.017 144.564 229.043 144.675 229.043 144.783L231.186 143.546L231.965 143.996L226.509 147.146L225.73 146.696L226.159 146.448C225.966 146.451 225.772 146.438 225.574 146.408C225.408 146.384 225.223 146.343 225.021 146.286C224.818 146.229 224.626 146.148 224.444 146.043C224.2 145.902 224.015 145.739 223.891 145.553C223.776 145.367 223.719 145.175 223.719 144.977C223.73 144.779 223.802 144.584 223.937 144.392C224.078 144.197 224.286 144.02 224.561 143.861C224.831 143.705 225.135 143.586 225.473 143.505C225.811 143.424 226.148 143.382 226.486 143.379C226.834 143.376 227.167 143.409 227.484 143.478C227.811 143.547 228.097 143.652 228.341 143.793ZM225.223 145.683C225.369 145.767 225.54 145.83 225.738 145.872C225.941 145.911 226.148 145.929 226.361 145.926C226.585 145.923 226.803 145.896 227.016 145.845C227.229 145.794 227.424 145.718 227.601 145.616C227.777 145.514 227.91 145.401 227.998 145.278C228.087 145.155 228.131 145.031 228.131 144.905C228.141 144.779 228.11 144.659 228.037 144.545C227.97 144.428 227.863 144.327 227.718 144.243C227.572 144.159 227.398 144.098 227.195 144.059C226.998 144.017 226.787 143.997 226.564 144C226.351 144.003 226.138 144.03 225.925 144.081C225.712 144.132 225.517 144.209 225.34 144.311C225.164 144.413 225.031 144.525 224.943 144.648C224.855 144.771 224.805 144.896 224.795 145.022C224.795 145.148 224.829 145.269 224.896 145.386C224.969 145.5 225.078 145.599 225.223 145.683ZM232.358 147.282C232.363 147.219 232.353 147.153 232.327 147.084C232.306 147.024 232.267 146.96 232.21 146.891C232.153 146.822 232.072 146.757 231.968 146.697C231.792 146.595 231.615 146.541 231.438 146.535C231.267 146.526 231.132 146.55 231.033 146.607C230.913 146.676 230.869 146.756 230.9 146.846C230.932 146.936 230.991 147.036 231.08 147.147C231.178 147.258 231.285 147.374 231.399 147.494C231.519 147.617 231.607 147.743 231.664 147.872C231.727 148.004 231.737 148.136 231.695 148.268C231.654 148.4 231.524 148.529 231.306 148.655C231.15 148.745 230.968 148.811 230.76 148.853C230.557 148.898 230.339 148.916 230.105 148.907C229.877 148.901 229.643 148.865 229.404 148.799C229.17 148.736 228.947 148.643 228.734 148.52C228.484 148.376 228.305 148.233 228.196 148.092C228.087 147.951 228.014 147.822 227.978 147.705C227.931 147.57 227.923 147.437 227.954 147.305L228.967 147.305C228.952 147.398 228.957 147.491 228.983 147.584C229.009 147.665 229.051 147.752 229.108 147.845C229.175 147.938 229.284 148.028 229.435 148.115C229.653 148.241 229.856 148.307 230.043 148.313C230.23 148.319 230.391 148.283 230.526 148.205C230.641 148.139 230.682 148.061 230.651 147.971C230.625 147.878 230.563 147.776 230.464 147.665C230.376 147.554 230.272 147.437 230.152 147.314C230.038 147.194 229.949 147.068 229.887 146.936C229.83 146.807 229.82 146.678 229.856 146.549C229.898 146.417 230.03 146.286 230.253 146.157C230.389 146.079 230.552 146.021 230.744 145.982C230.947 145.943 231.155 145.928 231.368 145.937C231.591 145.946 231.815 145.979 232.038 146.036C232.262 146.093 232.472 146.178 232.67 146.292C232.872 146.409 233.02 146.528 233.114 146.648C233.213 146.765 233.283 146.871 233.324 146.967C233.371 147.078 233.387 147.183 233.371 147.282L232.358 147.282ZM236.524 147.168L237.226 147.573L235.979 148.293L236.758 148.743L236.057 149.148L235.277 148.698L233.337 149.818C233.196 149.899 233.126 149.991 233.126 150.093C233.126 150.195 233.194 150.285 233.329 150.363C233.428 150.42 233.529 150.463 233.633 150.493C233.685 150.511 233.739 150.528 233.796 150.543L233.095 150.948C233.033 150.93 232.968 150.907 232.9 150.88C232.76 150.829 232.617 150.762 232.471 150.678C232.118 150.474 231.944 150.262 231.949 150.043C231.96 149.821 232.16 149.598 232.549 149.373L234.498 148.248L233.796 147.843L234.498 147.438L234.888 147.663C235.007 147.732 235.14 147.763 235.285 147.757C235.436 147.754 235.589 147.708 235.745 147.618L236.524 147.168ZM238.632 151.984C238.808 151.882 238.941 151.77 239.029 151.647C239.117 151.524 239.162 151.399 239.162 151.273C239.167 151.144 239.13 151.021 239.053 150.904C238.98 150.784 238.865 150.679 238.71 150.589C238.554 150.499 238.372 150.433 238.164 150.391C237.961 150.346 237.748 150.325 237.525 150.328C237.307 150.328 237.091 150.354 236.878 150.405C236.665 150.456 236.47 150.532 236.293 150.634C236.117 150.736 235.984 150.849 235.896 150.972C235.808 151.095 235.761 151.221 235.756 151.35C235.756 151.476 235.792 151.599 235.865 151.719C235.943 151.836 236.06 151.939 236.215 152.029C236.371 152.119 236.551 152.187 236.753 152.232C236.961 152.274 237.174 152.295 237.392 152.295C237.616 152.292 237.834 152.265 238.047 152.214C238.26 152.163 238.455 152.086 238.632 151.984ZM235.514 150.184C235.779 150.031 236.08 149.917 236.418 149.842C236.756 149.767 237.101 149.73 237.455 149.73C237.818 149.73 238.169 149.767 238.507 149.842C238.845 149.917 239.146 150.031 239.411 150.184C239.676 150.337 239.874 150.511 240.003 150.706C240.133 150.901 240.196 151.102 240.19 151.309C240.196 151.516 240.133 151.717 240.003 151.912C239.874 152.107 239.676 152.281 239.411 152.434C239.146 152.587 238.845 152.701 238.507 152.776C238.169 152.851 237.818 152.889 237.455 152.889C237.101 152.889 236.756 152.851 236.418 152.776C236.08 152.701 235.779 152.587 235.514 152.434C235.249 152.281 235.051 152.107 234.922 151.912C234.792 151.717 234.724 151.516 234.719 151.309C234.724 151.102 234.792 150.901 234.922 150.706C235.051 150.511 235.249 150.337 235.514 150.184ZM242.529 152.525C242.706 152.525 242.885 152.538 243.067 152.565C243.223 152.589 243.392 152.627 243.574 152.678C243.766 152.729 243.951 152.805 244.127 152.907C244.351 153.036 244.517 153.177 244.626 153.33C244.74 153.48 244.792 153.633 244.782 153.789C244.777 153.948 244.709 154.107 244.579 154.266C244.455 154.428 244.265 154.583 244.01 154.73L241.828 155.99L241.048 155.54L243.231 154.28C243.506 154.121 243.644 153.942 243.644 153.744C243.649 153.543 243.524 153.369 243.27 153.222C242.974 153.051 242.644 152.969 242.28 152.975C241.916 152.981 241.558 153.086 241.204 153.29L239.178 154.46L238.398 154.01L242.14 151.85L242.919 152.3L242.529 152.525ZM245.063 156.013C244.959 156.097 244.879 156.191 244.821 156.296C244.77 156.404 244.749 156.512 244.759 156.62C244.775 156.731 244.821 156.842 244.899 156.953C244.983 157.061 245.102 157.16 245.258 157.25C245.44 157.355 245.629 157.432 245.827 157.48C246.035 157.528 246.222 157.558 246.388 157.57C246.586 157.582 246.78 157.58 246.973 157.565L246.973 158.15C246.713 158.168 246.443 158.162 246.162 158.132C245.923 158.108 245.661 158.062 245.375 157.993C245.094 157.921 244.821 157.808 244.556 157.655C244.291 157.502 244.094 157.328 243.964 157.133C243.834 156.938 243.769 156.736 243.769 156.526C243.774 156.319 243.845 156.116 243.98 155.918C244.115 155.72 244.32 155.542 244.595 155.383C244.86 155.23 245.157 155.116 245.484 155.041C245.822 154.966 246.162 154.928 246.505 154.928C246.848 154.928 247.183 154.966 247.51 155.041C247.848 155.116 248.15 155.23 248.415 155.383C248.68 155.536 248.877 155.704 249.007 155.887C249.142 156.067 249.207 156.251 249.202 156.44C249.207 156.629 249.142 156.814 249.007 156.994C248.877 157.177 248.68 157.345 248.415 157.498C248.357 157.531 248.303 157.559 248.251 157.583C248.199 157.607 248.152 157.628 248.111 157.646C248.064 157.667 248.022 157.685 247.986 157.7L245.063 156.013ZM247.752 155.765C247.456 155.594 247.129 155.504 246.77 155.495C246.411 155.486 246.074 155.537 245.757 155.648L247.924 156.899C248.131 156.725 248.228 156.535 248.212 156.328C248.202 156.124 248.048 155.936 247.752 155.765Z" fill="white"/>
<rect width="214" height="43" transform="matrix(0.866025 0.5 -0.866025 0.5 120.602 104)" fill="#8792A9"/>
<path d="M193.793 163.867C194.167 164.083 194.438 164.302 194.604 164.524C194.77 164.746 194.879 164.95 194.931 165.136C194.988 165.349 194.999 165.556 194.962 165.757L193.871 165.757C193.913 165.607 193.91 165.449 193.863 165.284C193.827 165.143 193.744 164.987 193.614 164.816C193.494 164.645 193.294 164.479 193.014 164.317C192.733 164.155 192.416 164.032 192.063 163.948C191.715 163.867 191.354 163.826 190.98 163.826C190.616 163.826 190.257 163.868 189.904 163.952C189.556 164.033 189.241 164.155 188.961 164.317C188.68 164.479 188.467 164.662 188.322 164.866C188.181 165.067 188.109 165.274 188.103 165.487C188.109 165.7 188.181 165.907 188.322 166.108C188.467 166.312 188.68 166.495 188.961 166.657C189.241 166.819 189.532 166.936 189.834 167.008C190.135 167.08 190.413 167.126 190.668 167.147C190.964 167.174 191.252 167.176 191.533 167.152L191.533 167.782C191.169 167.806 190.795 167.8 190.411 167.764C190.083 167.731 189.722 167.666 189.327 167.57C188.937 167.477 188.556 167.323 188.181 167.107C187.771 166.87 187.462 166.607 187.254 166.319C187.051 166.034 186.947 165.743 186.942 165.446C186.942 165.152 187.036 164.864 187.223 164.582C187.42 164.3 187.714 164.047 188.103 163.822C188.493 163.597 188.93 163.429 189.413 163.318C189.907 163.207 190.408 163.151 190.917 163.151C191.432 163.154 191.936 163.214 192.429 163.331C192.928 163.451 193.383 163.63 193.793 163.867ZM192.194 169.333L191.414 168.883L196.87 165.733L197.65 166.183L192.194 169.333ZM195.582 171.29L195.972 171.065C195.795 171.065 195.616 171.051 195.434 171.024C195.278 171 195.107 170.961 194.92 170.907C194.733 170.859 194.551 170.784 194.374 170.682C194.177 170.568 194.029 170.447 193.93 170.318C193.831 170.189 193.771 170.061 193.751 169.935C193.74 169.809 193.766 169.689 193.829 169.575C193.901 169.461 194.005 169.365 194.14 169.287C194.452 169.107 194.808 169.016 195.208 169.013C195.613 169.007 196.011 169.083 196.401 169.242L197.998 169.895C198.196 169.781 198.289 169.643 198.279 169.481C198.274 169.322 198.154 169.175 197.921 169.04C197.754 168.944 197.583 168.878 197.406 168.842C197.235 168.803 197.076 168.777 196.931 168.765C196.764 168.753 196.601 168.755 196.44 168.77L196.44 168.185C196.673 168.17 196.915 168.174 197.165 168.198C197.378 168.219 197.611 168.261 197.866 168.324C198.121 168.387 198.373 168.491 198.622 168.635C198.856 168.77 199.033 168.914 199.152 169.067C199.272 169.22 199.334 169.373 199.339 169.526C199.349 169.676 199.305 169.821 199.207 169.962C199.113 170.106 198.97 170.234 198.778 170.345L196.362 171.74L195.582 171.29ZM195.193 170.345C195.504 170.525 195.845 170.613 196.214 170.61C196.583 170.607 196.944 170.504 197.297 170.3L197.375 170.255L195.972 169.67C195.811 169.607 195.642 169.575 195.465 169.575C195.289 169.575 195.133 169.614 194.998 169.692C194.878 169.761 194.824 169.856 194.834 169.976C194.855 170.096 194.974 170.219 195.193 170.345ZM198.508 172.979L200.73 169.942L201.548 170.414L199.911 172.619L203.73 171.674L204.549 172.147L198.742 173.564C198.415 173.645 198.126 173.704 197.877 173.74C197.622 173.779 197.394 173.797 197.191 173.794C196.993 173.794 196.814 173.771 196.653 173.726C196.497 173.684 196.349 173.623 196.209 173.542C196.043 173.446 195.92 173.36 195.843 173.285C195.796 173.246 195.762 173.212 195.741 173.182L196.443 172.777C196.469 172.81 196.497 172.841 196.528 172.871C196.58 172.931 196.656 172.99 196.754 173.047C196.91 173.137 197.087 173.185 197.284 173.191C197.487 173.2 197.713 173.174 197.963 173.114L198.508 172.979Z" fill="white"/>
<rect width="214" height="49" transform="matrix(0.866025 0.5 -0.866025 0.5 83.363 125.5)" fill="white"/>
<g clip-path="url(#clip0_406_2273)">
<rect width="35" height="36" transform="matrix(-1.58247e-08 1 -0.866025 0.5 485.808 107)" fill="#405DDE"/>
<rect width="35" height="46" transform="matrix(-1.58247e-08 1 -0.866025 0.5 454.631 125)" fill="#292B38"/>
<rect width="35" height="12" transform="matrix(-1.58247e-08 1 -0.866025 0.5 414.794 148)" fill="#405DDE"/>
<rect width="35" height="54" transform="matrix(-1.58247e-08 1 -0.866025 0.5 404.401 154)" fill="#7E8A9D"/>
<rect width="35" height="18" transform="matrix(-1.58247e-08 1 -0.866025 0.5 357.636 181)" fill="#405DDE"/>
<rect width="35" height="42" transform="matrix(-1.58247e-08 1 -0.866025 0.5 342.047 190)" fill="#292B38"/>
<rect width="35" height="43" transform="matrix(-1.58247e-08 1 -0.866025 0.5 305.674 211)" fill="#7E8A9D"/>
<rect width="35" height="49" transform="matrix(-1.58247e-08 1 -0.866025 0.5 268.435 232.5)" fill="#DEDBE0"/>
</g>
<rect width="46.6676" height="214.1" transform="matrix(0.866025 -0.5 0.866025 0.5 0.217773 208.257)" fill="url(#paint0_linear_406_2273)"/>
<rect width="214" height="34.9289" transform="matrix(0.866025 0.5 -2.20305e-08 1 40.6709 150)" fill="url(#paint1_linear_406_2273)"/>
<defs>
<linearGradient id="paint0_linear_406_2273" x1="46.2469" y1="74.5836" x2="-2.27453" y2="74.5836" gradientUnits="userSpaceOnUse">
<stop stop-color="#B8BDC3"/>
<stop offset="1" stop-color="#E4E8EB" stop-opacity="0"/>
</linearGradient>
<linearGradient id="paint1_linear_406_2273" x1="-1.39436e-05" y1="34.3413" x2="114.275" y2="139.923" gradientUnits="userSpaceOnUse">
<stop stop-color="#D0CED0"/>
<stop offset="1" stop-color="#CECFCF"/>
</linearGradient>
<clipPath id="clip0_406_2273">
<rect width="35" height="300" fill="white" transform="matrix(-1.58247e-08 1 -0.866025 0.5 485.808 107)"/>
</clipPath>
</defs>
</svg>
