<svg width="190" height="137" viewBox="0 0 190 137" fill="none" xmlns="http://www.w3.org/2000/svg">
<rect width="109.696" height="109.696" rx="18.0952" transform="matrix(0.866025 -0.5 0.866025 0.5 0 76.6484)" fill="#4968F3"/>
<g filter="url(#filter0_d_361_15091)">
<path d="M14.7068 57.7305C15.193 57.4498 15.6541 57.6911 18.6977 59.3485C21.8852 61.0843 27.7753 64.4897 28.3697 63.6851C28.4989 63.5102 26.6713 62.3614 25.343 61.6257C22.6915 60.1573 21.3254 58.8696 24.1256 59.6754C24.5257 59.7905 27.0754 61.3691 29.1452 62.1991C29.8526 62.4828 32.2061 62.6006 30.5277 61.6316C29.5953 61.0933 28.0999 60.0802 29.5775 60.3345C31.4246 60.6524 31.493 61.1181 32.5613 61.4958C33.6765 61.8902 34.1439 61.9664 33.2152 61.1183C32.9695 60.914 32.7643 60.5711 33.9093 60.8329C35.3405 61.1602 35.786 61.4797 36.3802 61.1367C36.9744 60.7936 37.2904 60.7265 38.1599 60.9167C39.0294 61.1068 39.2914 61.0709 39.7775 60.7902C40.2637 60.5095 41.703 60.7167 41.965 60.6809C42.1745 60.6522 53.3276 59.6618 60.8528 59.2353C75.4414 58.4085 87.8967 57.995 99.5758 58.4504C122.838 59.5193 166.404 63.3303 174.928 58.5502L174.99 58.5149C174.97 58.5267 174.949 58.5385 174.928 58.5502L101.331 100.423C97.8657 102.395 92.2957 102.386 88.8502 100.403L14.7068 57.7305Z" fill="#609AFF"/>
</g>
<g filter="url(#filter1_d_361_15091)">
<path d="M84.2143 76.8343C76.9059 73.9474 80.7423 76.6733 83.5741 78.3971L82.0204 80.3193L157.656 36.651C161.118 34.6523 161.118 31.4116 157.656 29.4129L144.781 21.9794C142.273 20.8643 136.383 18.2102 132.891 16.514C128.526 14.3938 125.768 13.3345 123.067 12.3748C120.366 11.4152 115.252 9.4622 114.735 9.36328C114.217 9.26436 115.136 9.79468 114.905 9.92795C114.674 10.0612 114.501 10.1612 110.767 8.47198C107.034 6.78278 106.458 6.8501 105.997 6.85079C105.537 6.85147 105.995 7.38249 105.706 7.54907C105.418 7.71565 103.177 6.75531 101.97 6.39157C100.763 6.02784 99.7846 6.06253 100.128 6.52725C100.471 6.99197 100.529 6.82573 100.183 7.02563C99.8369 7.22553 99.4925 7.02667 97.5382 6.43143C95.5839 5.83619 96.1574 6.30056 96.5584 6.73197C96.9593 7.16337 97.8785 7.56077 97.3591 7.86062C96.8398 8.16048 94.9444 7.26607 93.7956 6.7361C92.662 6.2131 92.3655 6.49788 92.0245 6.82531L92.0108 6.83845C91.664 7.17129 92.9287 7.50164 92.467 7.76818C92.0054 8.03472 90.4557 7.0734 90.5123 7.30593C90.5688 7.53846 90.683 7.73767 90.1083 7.53915C89.5336 7.34062 88.9018 7.04249 88.7287 7.14244C88.5556 7.24239 89.1302 7.44088 89.3016 7.73974C89.473 8.03859 88.4967 7.54156 89.2415 8.30475C89.9863 9.06795 90.3308 9.26682 87.0552 8.10864C83.7796 6.95045 84.9831 8.11173 85.7856 8.84161C86.5882 9.5715 86.4156 9.53849 85.5524 9.50655C84.6892 9.4746 80.6705 7.15445 80.5545 7.35401L80.5507 7.36058C80.4301 7.56725 80.0592 8.203 82.5004 9.81016C84.968 11.4348 85.3667 12.3979 84.8497 12.166C84.3327 11.9342 80.2552 9.9132 81.2886 10.5098C82.3219 11.1064 85.8194 14.1252 87.3115 15.1199C88.8035 16.1146 88.7464 16.015 87.9986 15.9164C87.2508 15.8179 89.0878 16.8785 89.6042 17.2433C90.1206 17.608 88.3978 16.7466 86.3881 15.653C84.3785 14.5594 82.4248 13.8312 85.8105 16.1191C89.1962 18.407 88.678 18.441 88.2163 18.7075C87.7546 18.9741 86.0324 17.9797 83.5599 17.4185C81.0875 16.8573 84.2994 19.378 84.8729 19.8424C85.4464 20.3068 87.34 21.6 84.7528 20.9724C82.1655 20.3449 83.1393 21.3736 83.6545 22.0042C84.1697 22.6348 85.8355 23.3967 84.2239 23.3991C82.6122 23.4015 83.1274 24.0321 83.6426 24.6627C84.1578 25.2933 85.1888 26.4217 85.0704 27.1529C84.952 27.8842 85.353 28.3156 86.0966 29.3446C86.8402 30.3737 86.2091 29.9426 85.9181 30.6409C85.6272 31.3392 87.9212 33.1967 88.3216 33.761C88.7219 34.3253 88.4887 34.9903 87.8534 35.4897C87.3451 35.8892 87.8284 36.7858 88.1337 37.1841C88.3621 37.5826 88.2257 37.5704 87.7862 37.6499C86.116 37.9517 89.5547 41.1364 89.6684 41.4686C89.782 41.8007 88.9777 41.4696 89.3786 41.901C89.7796 42.3324 89.4923 42.2331 89.2031 42.5326C88.914 42.8322 89.1436 42.9647 89.6582 43.7283C90.1728 44.4918 90.9177 45.255 90.9159 45.6538C90.9141 46.0526 89.8182 46.5527 90.3917 47.017C90.9652 47.4814 91.8195 49.5072 91.7035 49.7068C91.5875 49.9063 90.4929 50.1406 90.8926 50.8378C91.2924 51.5351 92.2663 52.5638 91.4007 53.0636C90.5351 53.5633 90.704 54.3938 90.8754 54.6927C91.0467 54.9915 91.6184 55.8546 90.6945 56.5206C89.7706 57.1866 90.3417 58.1827 90.5695 58.7141C90.7974 59.2454 90.0371 61.9383 89.4011 62.5706C88.7651 63.2029 88.3041 63.3365 88.6467 63.9342C88.9894 64.5318 89.2731 65.4286 88.2356 65.7625C87.1981 66.0963 87.138 66.6614 87.3081 67.226C87.4782 67.7907 87.8769 68.7538 86.4943 69.0217C85.1117 69.2896 85.283 69.5885 85.5121 69.854C85.7411 70.1195 86.2563 70.7501 85.4502 70.8178C84.6441 70.8854 84.4704 71.1183 84.8713 71.5497C85.2723 71.9811 85.615 72.5787 84.7517 72.5468C84.0033 72.5812 81.8795 71.686 83.4831 73.0138C85.8227 74.951 85.1822 74.9054 84.5694 74.6405C80.2016 73.1848 81.6353 74.3458 82.3236 74.8765C83.0119 75.4071 85.9868 77.5344 84.2143 76.8343Z" fill="#C7DDFE"/>
</g>
<defs>
<filter id="filter0_d_361_15091" x="2.04012" y="57.6304" width="185.617" height="78.6466" filterUnits="userSpaceOnUse" color-interpolation-filters="sRGB">
<feFlood flood-opacity="0" result="BackgroundImageFix"/>
<feColorMatrix in="SourceAlpha" type="matrix" values="0 0 0 0 0 0 0 0 0 0 0 0 0 0 0 0 0 0 127 0" result="hardAlpha"/>
<feOffset dy="21.7143"/>
<feGaussianBlur stdDeviation="6.33333"/>
<feComposite in2="hardAlpha" operator="out"/>
<feColorMatrix type="matrix" values="0 0 0 0 0.167392 0 0 0 0 0.210569 0 0 0 0 0.404167 0 0 0 0.3 0"/>
<feBlend mode="normal" in2="BackgroundImageFix" result="effect1_dropShadow_361_15091"/>
<feBlend mode="normal" in="SourceGraphic" in2="effect1_dropShadow_361_15091" result="shape"/>
</filter>
<filter id="filter1_d_361_15091" x="67.3358" y="6.14551" width="105.584" height="108.555" filterUnits="userSpaceOnUse" color-interpolation-filters="sRGB">
<feFlood flood-opacity="0" result="BackgroundImageFix"/>
<feColorMatrix in="SourceAlpha" type="matrix" values="0 0 0 0 0 0 0 0 0 0 0 0 0 0 0 0 0 0 127 0" result="hardAlpha"/>
<feOffset dy="21.7143"/>
<feGaussianBlur stdDeviation="6.33333"/>
<feComposite in2="hardAlpha" operator="out"/>
<feColorMatrix type="matrix" values="0 0 0 0 0.167392 0 0 0 0 0.210569 0 0 0 0 0.404167 0 0 0 0.3 0"/>
<feBlend mode="normal" in2="BackgroundImageFix" result="effect1_dropShadow_361_15091"/>
<feBlend mode="normal" in="SourceGraphic" in2="effect1_dropShadow_361_15091" result="shape"/>
</filter>
</defs>
</svg>
