<svg width="202" height="133" viewBox="0 0 202 133" fill="none" xmlns="http://www.w3.org/2000/svg">
<ellipse cx="59.8264" cy="59.8264" rx="59.8264" ry="59.8264" transform="matrix(0.866025 -0.5 0.866025 0.5 2.96582 74.1802)" fill="#768FFF"/>
<g filter="url(#filter0_d_361_14891)">
<path d="M158.811 29.8954C152.007 25.9671 143.929 22.8511 135.039 20.7251C126.15 18.5992 116.622 17.5049 106.999 17.5049C97.3771 17.5049 87.8491 18.5992 78.9593 20.7251C70.0695 22.8511 61.9921 25.9671 55.1881 29.8954L106.999 59.8086L158.811 29.8954Z" fill="#4663E6"/>
</g>
<g filter="url(#filter1_d_361_14891)">
<path d="M55.5668 29.8954C44.0122 36.5664 36.6516 45.2759 34.655 54.6395L107.378 59.8086L55.5668 29.8954Z" fill="#C7DDFE"/>
</g>
<defs>
<filter id="filter0_d_361_14891" x="20.774" y="13.8823" width="172.451" height="111.132" filterUnits="userSpaceOnUse" color-interpolation-filters="sRGB">
<feFlood flood-opacity="0" result="BackgroundImageFix"/>
<feColorMatrix in="SourceAlpha" type="matrix" values="0 0 0 0 0 0 0 0 0 0 0 0 0 0 0 0 0 0 127 0" result="hardAlpha"/>
<feOffset dy="30.7917"/>
<feGaussianBlur stdDeviation="17.2071"/>
<feColorMatrix type="matrix" values="0 0 0 0 0.24709 0 0 0 0 0.327509 0 0 0 0 0.670833 0 0 0 0.7 0"/>
<feBlend mode="normal" in2="BackgroundImageFix" result="effect1_dropShadow_361_14891"/>
<feBlend mode="normal" in="SourceGraphic" in2="effect1_dropShadow_361_14891" result="shape"/>
</filter>
<filter id="filter1_d_361_14891" x="0.240765" y="26.273" width="141.551" height="98.7416" filterUnits="userSpaceOnUse" color-interpolation-filters="sRGB">
<feFlood flood-opacity="0" result="BackgroundImageFix"/>
<feColorMatrix in="SourceAlpha" type="matrix" values="0 0 0 0 0 0 0 0 0 0 0 0 0 0 0 0 0 0 127 0" result="hardAlpha"/>
<feOffset dy="30.7917"/>
<feGaussianBlur stdDeviation="17.2071"/>
<feColorMatrix type="matrix" values="0 0 0 0 0.24709 0 0 0 0 0.327509 0 0 0 0 0.670833 0 0 0 1 0"/>
<feBlend mode="normal" in2="BackgroundImageFix" result="effect1_dropShadow_361_14891"/>
<feBlend mode="normal" in="SourceGraphic" in2="effect1_dropShadow_361_14891" result="shape"/>
</filter>
</defs>
</svg>
