<svg width="44" height="44" viewBox="0 0 44 44" fill="none" xmlns="http://www.w3.org/2000/svg">
<rect width="44" height="44" rx="22" fill="#3C5DF2"/>
<g clip-path="url(#clip0_831_21421)">
<path d="M20.3855 10.0983C19.9164 10.1746 15.0291 11.091 15.7818 15.7819C16.5564 20.7019 10.0109 26.6146 10 21.5637C10.0873 18.6292 11.2436 15.7164 13.48 13.4801C15.4218 11.5492 17.8545 10.4146 20.3855 10.0983Z" fill="url(#paint0_linear_831_21421)"/>
<path opacity="0.94" d="M10.0981 20.3855C10.1745 19.9164 11.0909 15.0291 15.7818 15.7818C20.7018 16.5564 26.6145 10.0109 21.5636 10H21.5527C18.6291 10.0873 15.7163 11.2436 13.48 13.48C11.5491 15.4218 10.4145 17.8545 10.0981 20.3855Z" fill="url(#paint1_linear_831_21421)"/>
<path d="M12.4655 29.1453C12.76 29.5162 16 33.2799 19.6873 30.2908C23.56 27.149 31.96 29.8653 27.5964 32.3963H27.5855C25 33.7926 21.9127 34.2399 18.8582 33.4217C16.2182 32.7126 14.0145 31.1635 12.4764 29.1453H12.4655Z" fill="url(#paint2_linear_831_21421)"/>
<path opacity="0.94" d="M26.5163 32.909C26.0799 33.0726 21.389 34.7308 19.6872 30.2908C17.909 25.6326 9.27994 23.789 11.789 28.1635C13.3272 30.6726 15.7818 32.6035 18.8363 33.4217C21.4763 34.1308 24.1599 33.8908 26.5054 32.909H26.5163Z" fill="url(#paint3_linear_831_21421)"/>
<path d="M32.8763 26.4836C33.0399 26.0472 34.6981 21.3563 30.2581 19.6545C25.6 17.8763 23.7563 9.24722 28.1309 11.7563H28.1418C30.6399 13.3054 32.5709 15.7599 33.389 18.8145C34.0981 21.4545 33.8581 24.1381 32.8763 26.4836Z" fill="url(#paint4_linear_831_21421)"/>
<path opacity="0.94" d="M29.1127 12.4327C29.4837 12.7272 33.2473 15.9672 30.2582 19.6545C27.1164 23.5272 29.8327 31.9272 32.3637 27.5636C33.76 24.9672 34.2073 21.8799 33.3891 18.8145C32.68 16.1745 31.1309 13.9709 29.1127 12.4327Z" fill="url(#paint5_linear_831_21421)"/>
<circle cx="22" cy="22" r="4.36364" fill="url(#paint6_linear_831_21421)"/>
</g>
<defs>
<linearGradient id="paint0_linear_831_21421" x1="11.3636" y1="21.6619" x2="17.3636" y2="10.4255" gradientUnits="userSpaceOnUse">
<stop stop-color="#BAC7FF"/>
<stop offset="1" stop-color="#2833BA"/>
</linearGradient>
<linearGradient id="paint1_linear_831_21421" x1="13.4467" y1="9.35091" x2="17.275" y2="19.2258" gradientUnits="userSpaceOnUse">
<stop stop-color="white"/>
<stop offset="1" stop-color="#FDFDFF"/>
</linearGradient>
<linearGradient id="paint2_linear_831_21421" x1="26.5164" y1="30.3453" x2="14.1345" y2="31.9272" gradientUnits="userSpaceOnUse">
<stop stop-color="#CCD6FF"/>
<stop offset="1" stop-color="#005BEA"/>
<stop offset="1" stop-color="#2833BA"/>
</linearGradient>
<linearGradient id="paint3_linear_831_21421" x1="15.1304" y1="25.1711" x2="17.3624" y2="33.4861" gradientUnits="userSpaceOnUse">
<stop stop-color="white"/>
<stop offset="1" stop-color="#FDFDFF"/>
</linearGradient>
<linearGradient id="paint4_linear_831_21421" x1="27.8363" y1="13.0654" x2="32.5818" y2="22.0654" gradientUnits="userSpaceOnUse">
<stop stop-color="#A5B5FF"/>
<stop offset="1" stop-color="#2833BA"/>
</linearGradient>
<linearGradient id="paint5_linear_831_21421" x1="30.082" y1="11.4104" x2="38.0095" y2="16.2123" gradientUnits="userSpaceOnUse">
<stop stop-color="white"/>
<stop offset="1" stop-color="#FDFDFF"/>
</linearGradient>
<linearGradient id="paint6_linear_831_21421" x1="19.8182" y1="17.0909" x2="23.6364" y2="24.7273" gradientUnits="userSpaceOnUse">
<stop stop-color="white"/>
<stop offset="1" stop-color="#FDFDFF"/>
</linearGradient>
<clipPath id="clip0_831_21421">
<rect width="24" height="24" fill="white" transform="translate(10 10)"/>
</clipPath>
</defs>
</svg>
