<svg width="16" height="18" viewBox="0 0 16 18" fill="none" xmlns="http://www.w3.org/2000/svg">
<path d="M2.30323 0.779053H10.1652C10.9351 0.779053 11.6422 0.91152 12.2864 1.17646C12.9306 1.42581 13.4884 1.78425 13.9598 2.25178C14.4312 2.70373 14.8004 3.2336 15.0675 3.84139C15.3347 4.44918 15.4682 5.10373 15.4682 5.80503C15.4682 6.72451 15.2954 7.48814 14.9497 8.09594C14.604 8.70373 14.2269 9.19464 13.8184 9.56866C13.3313 10.005 12.7813 10.3479 12.1685 10.5972L15.9396 17.1427H13.1113L9.57596 10.8181H5.93959V17.1427H3.21232V3.11672H2.30323H0.485046L2.30323 0.779053ZM12.8756 5.80503C12.8756 5.431 12.8049 5.08035 12.6635 4.75308C12.5221 4.42581 12.3257 4.14529 12.0743 3.91152C11.8386 3.66217 11.5558 3.46736 11.2258 3.32711C10.8958 3.18685 10.5423 3.11672 10.1652 3.11672H5.93959V8.49334H10.1652C10.5423 8.49334 10.8958 8.42321 11.2258 8.28295C11.5558 8.14269 11.8386 7.95568 12.0743 7.72191C12.3257 7.47256 12.5221 7.18425 12.6635 6.85698C12.8049 6.5297 12.8756 6.17905 12.8756 5.80503Z" fill="white"/>
</svg>
