<svg width="44" height="44" viewBox="0 0 44 44" fill="none" xmlns="http://www.w3.org/2000/svg">
<rect width="44" height="44" rx="22" fill="#3C5DF2"/>
<path fill-rule="evenodd" clip-rule="evenodd" d="M20.9829 11.9706C17.2549 15.918 15.5659 18.0664 14.3655 20.3883C13.0741 22.8861 12.7073 25.0366 13.2286 27.0557C13.454 27.9292 13.7184 28.5298 14.3045 29.5002C15.3502 31.2313 16.5572 32.3597 18.1873 33.13C19.3466 33.6777 20.4853 33.9409 21.9224 33.9932C25.4258 34.1207 28.5656 32.4496 30.0083 29.6895C30.7359 28.2974 30.9338 27.457 30.9879 25.5289C31.0327 23.9297 30.9611 23.2824 30.6387 22.3733C30.3568 21.5786 29.5809 20.0343 29.2689 19.6471C29.2376 19.6083 28.9768 19.2421 28.6894 18.8332C27.9073 17.7209 26.1149 15.5593 24.9448 14.3177C24.68 14.0367 23.208 12.3819 22.3199 11.3668C22.1433 11.165 21.9766 11 21.9492 11C21.9219 11 21.4871 11.4368 20.9829 11.9706Z" fill="url(#paint0_linear_831_21392)"/>
<path fill-rule="evenodd" clip-rule="evenodd" d="M28.3164 31.8352C27.6723 25.7458 22.4898 21 16.1919 21C15.434 21 14.6924 21.0687 13.9728 21.2002C13.0041 23.3576 12.7646 25.2587 13.2286 27.0557C13.454 27.9292 13.7184 28.5298 14.3045 29.5002C15.3502 31.2313 16.5572 32.3597 18.1873 33.13C19.3466 33.6777 20.4853 33.9409 21.9224 33.9932C24.3891 34.083 26.6756 33.2811 28.3164 31.8352Z" fill="url(#paint1_linear_831_21392)"/>
<defs>
<linearGradient id="paint0_linear_831_21392" x1="22" y1="34" x2="32.3121" y2="20.3703" gradientUnits="userSpaceOnUse">
<stop stop-color="white"/>
<stop offset="1" stop-color="#CADDFF"/>
</linearGradient>
<linearGradient id="paint1_linear_831_21392" x1="18.7558" y1="34" x2="23.4068" y2="23.5749" gradientUnits="userSpaceOnUse">
<stop stop-color="white"/>
<stop offset="1" stop-color="#89B2FB"/>
</linearGradient>
</defs>
</svg>
