<svg width="214" height="140" viewBox="0 0 214 140" fill="none" xmlns="http://www.w3.org/2000/svg">
<path fill-rule="evenodd" clip-rule="evenodd" d="M44.3963 61.0422C42.5106 62.1309 42.5106 63.8961 44.3963 64.9848C45.9519 65.883 46.2404 67.2695 45.2471 68.4028C43.2982 70.6267 41.7947 72.9474 40.7366 75.3205C40.1196 76.7045 38.0218 77.7302 35.5465 77.7302C32.7171 77.7302 30.4234 79.0545 30.4234 80.688L30.4234 88.8692C30.4234 90.6837 32.9711 92.1546 36.1138 92.1546C38.7337 92.1546 40.9874 93.1931 41.8013 94.6309C42.8957 96.564 44.2946 98.4522 45.9981 100.271C47.2977 101.658 47.007 103.393 45.0755 104.508C42.8147 105.813 42.8147 107.929 45.0755 109.235L54.5542 114.707C56.8151 116.013 60.4807 116.013 62.7416 114.707C64.6731 113.592 67.6783 113.424 70.0809 114.175C73.2302 115.158 76.5007 115.966 79.8489 116.598C82.3392 117.068 84.1381 118.369 84.1381 119.881C84.1381 121.696 86.6857 123.167 89.8284 123.167L103.999 123.167C106.828 123.167 109.121 121.842 109.121 120.209C109.121 118.78 110.898 117.569 113.295 117.212C117.406 116.602 121.425 115.733 125.277 114.608C127.24 114.035 129.642 114.201 131.197 115.099C133.083 116.188 136.14 116.188 138.026 115.099L149.405 108.53C150.991 107.614 150.991 106.129 149.405 105.213C148.003 104.403 147.831 103.132 148.884 102.162C151.758 99.5154 153.949 96.6917 155.455 93.7752C155.943 92.8301 157.418 92.1546 159.126 92.1546C161.175 92.1546 162.836 91.1956 162.836 90.0126L162.836 79.576C162.836 78.5566 161.405 77.7303 159.639 77.7303C158.095 77.7303 156.78 77.0914 156.436 76.2221C155.09 72.8277 152.843 69.5284 149.695 66.4514C148.968 65.7415 149.127 64.8325 150.137 64.2494C151.319 63.5668 151.319 62.4602 150.137 61.7777L136.752 54.0499C135.57 53.3674 133.653 53.3674 132.471 54.0499C131.461 54.633 129.887 54.7249 128.657 54.3054C123.328 52.4874 117.613 51.1901 111.734 50.4135C110.228 50.2146 109.122 49.4557 109.122 48.5639C109.122 47.5445 107.69 46.7182 105.925 46.7182L87.8479 46.7181C85.799 46.7181 84.138 47.6771 84.138 48.86C84.138 49.8462 82.9679 50.6981 81.3309 50.9799C76.2795 51.8493 71.3887 53.1138 66.8042 54.7734C65.1243 55.3815 62.9229 55.2822 61.5209 54.4728C59.9342 53.5567 57.3616 53.5567 55.7749 54.4728L44.3963 61.0422ZM114.59 95.3118C124.51 89.5849 124.51 80.2998 114.59 74.5729C104.671 68.846 88.5887 68.846 78.6694 74.5729C68.7501 80.2998 68.7501 89.5849 78.6694 95.3118C88.5887 101.039 104.671 101.039 114.59 95.3118Z" fill="#4663E6"/>
<g filter="url(#filter0_d_784_19531)">
<path fill-rule="evenodd" clip-rule="evenodd" d="M123.885 51.5855C122.66 52.2925 122.66 53.4389 123.885 54.146C124.895 54.7293 125.082 55.6298 124.437 56.3658C123.172 57.8101 122.195 59.3173 121.508 60.8585C121.107 61.7573 119.745 62.4235 118.137 62.4235C116.3 62.4235 114.81 63.2835 114.81 64.3444L114.81 69.6577C114.81 70.8361 116.465 71.7914 118.506 71.7914C120.207 71.7914 121.671 72.4659 122.199 73.3996C122.91 74.6551 123.819 75.8814 124.925 77.0623C125.769 77.9631 125.58 79.09 124.326 79.8142C122.858 80.6619 122.858 82.0363 124.326 82.884L130.482 86.4382C131.95 87.2859 134.331 87.2859 135.799 86.4382C137.054 85.714 139.005 85.6049 140.566 86.0922C142.611 86.731 144.735 87.2556 146.909 87.6659C148.527 87.9711 149.695 88.8161 149.695 89.7985C149.695 90.9768 151.35 91.9321 153.391 91.9321L162.593 91.9321C164.431 91.9321 165.921 91.0721 165.921 90.0112C165.921 89.0831 167.074 88.2966 168.631 88.0652C171.301 87.6685 173.911 87.1047 176.413 86.3739C177.688 86.0014 179.247 86.1096 180.258 86.6929C181.482 87.4 183.468 87.4 184.693 86.6929L192.082 82.4264C193.113 81.8314 193.113 80.8668 192.082 80.2718C191.172 79.7462 191.06 78.9207 191.744 78.2908C193.611 76.5718 195.034 74.738 196.012 72.8439C196.329 72.2301 197.287 71.7914 198.396 71.7914C199.727 71.7914 200.806 71.1686 200.806 70.4003L200.805 63.6222C200.805 62.9602 199.876 62.4235 198.729 62.4235C197.726 62.4235 196.872 62.0086 196.649 61.444C195.775 59.2395 194.316 57.0968 192.271 55.0985C191.799 54.6374 191.902 54.047 192.558 53.6683C193.326 53.2251 193.326 52.5064 192.558 52.0631L183.865 47.0443C183.098 46.601 181.853 46.601 181.085 47.0443C180.429 47.423 179.407 47.4827 178.608 47.2103C175.147 46.0296 171.435 45.187 167.617 44.6826C166.639 44.5535 165.921 44.0606 165.921 43.4814C165.921 42.8194 164.991 42.2827 163.844 42.2827L152.104 42.2827C150.774 42.2827 149.695 42.9055 149.695 43.6738C149.695 44.3142 148.935 44.8675 147.872 45.0505C144.591 45.6151 141.415 46.4364 138.438 47.5142C137.347 47.9091 135.917 47.8446 135.006 47.319C133.976 46.724 132.305 46.724 131.275 47.319L123.885 51.5855ZM169.472 73.8419C175.914 70.1225 175.914 64.0923 169.472 60.373C163.03 56.6536 152.586 56.6536 146.143 60.373C139.701 64.0923 139.701 70.1225 146.143 73.8419C152.586 77.5612 163.03 77.5612 169.472 73.8419Z" fill="#C7DDFE"/>
</g>
<defs>
<filter id="filter0_d_784_19531" x="102.143" y="37.6156" width="111.329" height="74.9827" filterUnits="userSpaceOnUse" color-interpolation-filters="sRGB">
<feFlood flood-opacity="0" result="BackgroundImageFix"/>
<feColorMatrix in="SourceAlpha" type="matrix" values="0 0 0 0 0 0 0 0 0 0 0 0 0 0 0 0 0 0 127 0" result="hardAlpha"/>
<feOffset dy="8"/>
<feGaussianBlur stdDeviation="6.33333"/>
<feComposite in2="hardAlpha" operator="out"/>
<feColorMatrix type="matrix" values="0 0 0 0 0.167392 0 0 0 0 0.210569 0 0 0 0 0.404167 0 0 0 0.12 0"/>
<feBlend mode="normal" in2="BackgroundImageFix" result="effect1_dropShadow_784_19531"/>
<feBlend mode="normal" in="SourceGraphic" in2="effect1_dropShadow_784_19531" result="shape"/>
</filter>
</defs>
</svg>
