<svg width="739" height="240" viewBox="0 0 739 240" fill="none" xmlns="http://www.w3.org/2000/svg">
<path d="M337.567 4.19727H341.484C342.35 4.19727 343.068 4.47754 343.638 5.03809C344.212 5.59863 344.499 6.29818 344.499 7.13672C344.499 7.55599 344.428 7.9388 344.287 8.28516C344.146 8.63151 343.977 8.90267 343.781 9.09863C343.585 9.2946 343.387 9.46094 343.187 9.59766C342.986 9.73438 342.817 9.82552 342.681 9.87109L342.469 9.93945L344.779 14H343.59L341.416 10.083H338.62V14H337.567V4.19727ZM341.484 5.18164H338.62V9.09863H341.484C342.081 9.09863 342.558 8.92318 342.913 8.57227C343.269 8.2168 343.446 7.74056 343.446 7.14355C343.446 6.54199 343.269 6.06576 342.913 5.71484C342.558 5.35938 342.081 5.18164 341.484 5.18164ZM348.067 10.1514L350.658 9.72754C350.658 9.23079 350.501 8.82747 350.187 8.51758C349.872 8.20768 349.469 8.05273 348.977 8.05273C348.621 8.05273 348.286 8.13477 347.972 8.29883C347.662 8.45833 347.436 8.6224 347.295 8.79102L347.083 9.03027L346.454 8.40137C346.481 8.36491 346.518 8.31934 346.563 8.26465C346.614 8.2054 346.718 8.10514 346.878 7.96387C347.042 7.81803 347.213 7.68815 347.391 7.57422C347.568 7.46029 347.801 7.36003 348.088 7.27344C348.38 7.18229 348.676 7.13672 348.977 7.13672C349.742 7.13672 350.376 7.38509 350.877 7.88184C351.383 8.37858 351.636 8.99382 351.636 9.72754V14H350.658V13.0908C350.64 13.1182 350.61 13.1569 350.569 13.207C350.533 13.2526 350.446 13.3369 350.31 13.46C350.177 13.5785 350.034 13.6855 349.879 13.7812C349.724 13.8724 349.519 13.9544 349.264 14.0273C349.013 14.1003 348.753 14.1367 348.484 14.1367C347.814 14.1367 347.249 13.9385 346.789 13.542C346.333 13.1455 346.105 12.6921 346.105 12.1816C346.105 11.6211 346.274 11.1699 346.611 10.8281C346.949 10.4818 347.434 10.2562 348.067 10.1514ZM348.484 13.2275C349.118 13.2275 349.637 13.0202 350.043 12.6055C350.453 12.1908 350.658 11.653 350.658 10.9922V10.5684L348.348 10.9922C347.509 11.1517 347.088 11.5482 347.083 12.1816C347.083 12.4824 347.206 12.7331 347.452 12.9336C347.703 13.1296 348.047 13.2275 348.484 13.2275ZM358.239 12.4551C358.731 11.9355 358.978 11.3317 358.978 10.6436C358.978 9.95085 358.731 9.34701 358.239 8.83203C357.752 8.3125 357.205 8.05273 356.599 8.05273C356.02 8.05273 355.5 8.30566 355.04 8.81152C354.584 9.31283 354.356 9.9235 354.356 10.6436C354.356 11.359 354.584 11.9697 355.04 12.4756C355.5 12.9769 356.02 13.2275 356.599 13.2275C357.205 13.2275 357.752 12.9701 358.239 12.4551ZM358.978 8.33301V4.19727H359.955V14H358.978V12.9473C358.959 12.9746 358.927 13.0179 358.882 13.0771C358.836 13.1318 358.738 13.2275 358.588 13.3643C358.438 13.501 358.276 13.624 358.103 13.7334C357.929 13.8382 357.706 13.9316 357.433 14.0137C357.164 14.0957 356.886 14.1367 356.599 14.1367C355.742 14.1367 354.99 13.7949 354.343 13.1113C353.7 12.4232 353.379 11.6006 353.379 10.6436C353.379 9.68197 353.7 8.8571 354.343 8.16895C354.99 7.48079 355.742 7.13672 356.599 7.13672C356.886 7.13672 357.161 7.18001 357.426 7.2666C357.695 7.34863 357.92 7.44661 358.103 7.56055C358.285 7.66992 358.442 7.78385 358.574 7.90234C358.711 8.02083 358.813 8.12109 358.882 8.20312L358.978 8.33301ZM362.266 14V7.28027H363.243V14H362.266ZM362.3 5.48926C362.181 5.36621 362.122 5.21582 362.122 5.03809C362.122 4.86035 362.181 4.71224 362.3 4.59375C362.423 4.4707 362.573 4.40918 362.751 4.40918C362.929 4.40918 363.077 4.4707 363.195 4.59375C363.318 4.71224 363.38 4.86035 363.38 5.03809C363.38 5.21582 363.318 5.36621 363.195 5.48926C363.077 5.60775 362.929 5.66699 362.751 5.66699C362.573 5.66699 362.423 5.60775 362.3 5.48926ZM370.387 14V13.0908C370.368 13.1182 370.341 13.1569 370.305 13.207C370.268 13.2526 370.182 13.3369 370.045 13.46C369.913 13.5785 369.769 13.6855 369.614 13.7812C369.459 13.8724 369.254 13.9544 368.999 14.0273C368.748 14.1003 368.489 14.1367 368.22 14.1367C367.436 14.1367 366.784 13.8656 366.265 13.3232C365.75 12.7764 365.492 12.0677 365.492 11.1973V7.28027H366.47V11.1973C366.47 11.7852 366.652 12.2705 367.017 12.6533C367.381 13.0361 367.828 13.2275 368.356 13.2275C368.926 13.2275 369.407 13.0179 369.799 12.5986C370.191 12.1794 370.387 11.6439 370.387 10.9922V7.28027H371.371V14H370.387ZM377.742 8.05273L377.038 8.75C377.002 8.69531 376.947 8.63151 376.874 8.55859C376.806 8.48112 376.644 8.37858 376.389 8.25098C376.133 8.11882 375.86 8.05273 375.568 8.05273C375.195 8.05273 374.892 8.15072 374.659 8.34668C374.427 8.54264 374.311 8.77051 374.311 9.03027C374.311 9.29915 374.436 9.51562 374.687 9.67969C374.937 9.84375 375.24 9.97591 375.596 10.0762C375.951 10.1719 376.307 10.2835 376.662 10.4111C377.018 10.5342 377.321 10.7393 377.571 11.0264C377.822 11.3089 377.947 11.6712 377.947 12.1133C377.947 12.6921 377.726 13.1751 377.284 13.5625C376.842 13.9453 376.247 14.1367 375.5 14.1367C375.181 14.1367 374.88 14.0957 374.598 14.0137C374.32 13.9316 374.09 13.8337 373.907 13.7197C373.725 13.6058 373.565 13.4919 373.429 13.3779C373.297 13.2594 373.199 13.1592 373.135 13.0771L373.046 12.9473L373.75 12.25C373.768 12.2773 373.793 12.3138 373.825 12.3594C373.857 12.4004 373.928 12.4779 374.037 12.5918C374.151 12.7012 374.272 12.8014 374.399 12.8926C374.527 12.9792 374.691 13.0566 374.892 13.125C375.092 13.1934 375.295 13.2275 375.5 13.2275C375.974 13.2275 376.336 13.1227 376.587 12.9131C376.842 12.7035 376.97 12.4368 376.97 12.1133C376.97 11.8353 376.842 11.6097 376.587 11.4365C376.336 11.2588 376.033 11.1198 375.678 11.0195C375.327 10.9147 374.974 10.8008 374.618 10.6777C374.263 10.5501 373.957 10.3519 373.702 10.083C373.451 9.80957 373.326 9.45866 373.326 9.03027C373.326 8.52441 373.538 8.08236 373.962 7.7041C374.39 7.32585 374.926 7.13672 375.568 7.13672C375.828 7.13672 376.081 7.16862 376.327 7.23242C376.578 7.29167 376.783 7.36686 376.942 7.45801C377.102 7.5446 377.243 7.63574 377.366 7.73145C377.494 7.82259 377.585 7.89551 377.64 7.9502L377.742 8.05273ZM379.902 12.7422L380.887 13.3027L379.273 15.8184L378.645 15.4697L379.902 12.7422ZM394.326 14V10.0078C394.326 9.38346 394.171 8.90267 393.861 8.56543C393.556 8.22363 393.153 8.05273 392.651 8.05273C392.136 8.05273 391.703 8.25553 391.353 8.66113C391.002 9.06673 390.826 9.60905 390.826 10.2881V14H389.849V10.0078C389.849 9.39258 389.694 8.91406 389.384 8.57227C389.078 8.22591 388.673 8.05273 388.167 8.05273C387.652 8.05273 387.219 8.25553 386.868 8.66113C386.522 9.06673 386.349 9.60905 386.349 10.2881V14H385.371V7.28027L386.349 7.28027V8.12109C386.367 8.09375 386.39 8.05957 386.417 8.01855C386.444 7.97298 386.513 7.89551 386.622 7.78613C386.736 7.6722 386.861 7.57194 386.998 7.48535C387.135 7.39421 387.312 7.31445 387.531 7.24609C387.75 7.17318 387.985 7.13672 388.235 7.13672C388.536 7.13672 388.816 7.18001 389.076 7.2666C389.34 7.34863 389.548 7.44661 389.698 7.56055C389.853 7.66992 389.985 7.78385 390.095 7.90234C390.209 8.02083 390.291 8.12109 390.341 8.20312L390.409 8.33301C390.427 8.30566 390.452 8.26465 390.484 8.20996C390.516 8.15072 390.601 8.05273 390.737 7.91602C390.874 7.7793 391.02 7.65853 391.175 7.55371C391.334 7.44434 391.551 7.34863 391.824 7.2666C392.102 7.18001 392.401 7.13672 392.72 7.13672C393.485 7.13672 394.107 7.38965 394.586 7.89551C395.069 8.40137 395.311 9.10547 395.311 10.0078V14H394.326Z" fill="white"/>
<path d="M723.548 7.29883C723.58 7.31185 723.624 7.33138 723.68 7.35742C723.738 7.38021 723.839 7.4388 723.982 7.5332C724.126 7.62435 724.253 7.73014 724.363 7.85059C724.474 7.97103 724.573 8.13867 724.661 8.35352C724.752 8.5651 724.798 8.79785 724.798 9.05176C724.798 9.62467 724.568 10.1097 724.109 10.5068C723.654 10.9007 723.05 11.0977 722.298 11.0977C721.979 11.0977 721.676 11.0602 721.39 10.9854C721.103 10.9072 720.866 10.8161 720.677 10.7119C720.491 10.6045 720.33 10.4971 720.193 10.3896C720.057 10.2822 719.957 10.1927 719.896 10.1211L719.798 9.99902L720.496 9.30078C720.509 9.32031 720.532 9.34961 720.564 9.38867C720.6 9.42448 720.675 9.48958 720.789 9.58398C720.903 9.67513 721.022 9.75651 721.146 9.82812C721.272 9.89648 721.438 9.95996 721.644 10.0186C721.852 10.0739 722.07 10.1016 722.298 10.1016C722.731 10.1016 723.073 9.9974 723.323 9.78906C723.574 9.57747 723.699 9.31543 723.699 9.00293C723.699 8.68717 723.574 8.42513 723.323 8.2168C723.073 8.00521 722.731 7.89941 722.298 7.89941H721.6V6.89844H722.298C722.643 6.89844 722.911 6.80892 723.104 6.62988C723.299 6.45085 723.396 6.20833 723.396 5.90234C723.396 5.5931 723.299 5.34896 723.104 5.16992C722.911 4.99089 722.643 4.90137 722.298 4.90137C722.005 4.90137 721.728 4.96484 721.468 5.0918C721.207 5.21875 721.023 5.34082 720.916 5.45801L720.75 5.64844L720.047 4.9502C720.066 4.92415 720.096 4.88835 720.135 4.84277C720.177 4.79395 720.268 4.70768 720.408 4.58398C720.548 4.46029 720.698 4.35449 720.857 4.2666C721.017 4.17546 721.227 4.09245 721.487 4.01758C721.748 3.93945 722.018 3.90039 722.298 3.90039C722.985 3.90039 723.523 4.0778 723.914 4.43262C724.305 4.78418 724.5 5.23991 724.5 5.7998C724.5 5.99186 724.466 6.17741 724.397 6.35645C724.332 6.53223 724.253 6.67546 724.158 6.78613C724.064 6.89681 723.971 6.99284 723.88 7.07422C723.792 7.15234 723.714 7.20768 723.646 7.24023L723.548 7.29883ZM726.756 10.1211C726.186 9.4668 725.901 8.59277 725.901 7.49902C725.901 6.40527 726.186 5.53288 726.756 4.88184C727.326 4.22754 728.024 3.90039 728.851 3.90039C729.677 3.90039 730.376 4.22754 730.945 4.88184C731.515 5.53288 731.8 6.40527 731.8 7.49902C731.8 8.59277 731.515 9.4668 730.945 10.1211C730.376 10.7721 729.677 11.0977 728.851 11.0977C728.024 11.0977 727.326 10.7721 726.756 10.1211ZM730.154 9.4082C730.519 8.94271 730.701 8.30632 730.701 7.49902C730.701 6.69173 730.519 6.05697 730.154 5.59473C729.793 5.13249 729.358 4.90137 728.851 4.90137C728.343 4.90137 727.907 5.13249 727.542 5.59473C727.181 6.05697 727 6.69173 727 7.49902C727 8.30632 727.181 8.94271 727.542 9.4082C727.907 9.87044 728.343 10.1016 728.851 10.1016C729.358 10.1016 729.793 9.87044 730.154 9.4082ZM733.855 10.1211C733.286 9.4668 733.001 8.59277 733.001 7.49902C733.001 6.40527 733.286 5.53288 733.855 4.88184C734.425 4.22754 735.123 3.90039 735.95 3.90039C736.777 3.90039 737.475 4.22754 738.045 4.88184C738.615 5.53288 738.899 6.40527 738.899 7.49902C738.899 8.59277 738.615 9.4668 738.045 10.1211C737.475 10.7721 736.777 11.0977 735.95 11.0977C735.123 11.0977 734.425 10.7721 733.855 10.1211ZM737.254 9.4082C737.618 8.94271 737.801 8.30632 737.801 7.49902C737.801 6.69173 737.618 6.05697 737.254 5.59473C736.893 5.13249 736.458 4.90137 735.95 4.90137C735.442 4.90137 735.006 5.13249 734.642 5.59473C734.28 6.05697 734.1 6.69173 734.1 7.49902C734.1 8.30632 734.28 8.94271 734.642 9.4082C735.006 9.87044 735.442 10.1016 735.95 10.1016C736.458 10.1016 736.893 9.87044 737.254 9.4082Z" fill="white"/>
<rect x="729" y="15" width="1" height="6" fill="white"/>
<path d="M0.855469 10.1211C0.285807 9.4668 0.000976562 8.59277 0.000976562 7.49902C0.000976562 6.40527 0.285807 5.53288 0.855469 4.88184C1.42513 4.22754 2.12337 3.90039 2.9502 3.90039C3.77702 3.90039 4.47526 4.22754 5.04492 4.88184C5.61458 5.53288 5.89941 6.40527 5.89941 7.49902C5.89941 8.59277 5.61458 9.4668 5.04492 10.1211C4.47526 10.7721 3.77702 11.0977 2.9502 11.0977C2.12337 11.0977 1.42513 10.7721 0.855469 10.1211ZM4.25391 9.4082C4.61849 8.94271 4.80078 8.30632 4.80078 7.49902C4.80078 6.69173 4.61849 6.05697 4.25391 5.59473C3.89258 5.13249 3.45801 4.90137 2.9502 4.90137C2.44238 4.90137 2.00618 5.13249 1.6416 5.59473C1.28027 6.05697 1.09961 6.69173 1.09961 7.49902C1.09961 8.30632 1.28027 8.94271 1.6416 9.4082C2.00618 9.87044 2.44238 10.1016 2.9502 10.1016C3.45801 10.1016 3.89258 9.87044 4.25391 9.4082Z" fill="white"/>
<rect x="2" y="15" width="1" height="6" fill="white"/>
<rect width="1" height="728" transform="translate(730 21) rotate(90)" fill="white"/>
<g clip-path="url(#clip0_1433_32436)">
<path d="M-147.5 72.5H429.211C502.66 72.5 565.229 125.854 576.834 198.38L595.714 316.38C610.248 407.214 540.081 489.5 448.092 489.5H2.00002C-80.5666 489.5 -147.5 422.567 -147.5 340V72.5Z" stroke="white"/>
<path d="M-297.5 72.5H257.466C344.141 72.5 418.436 134.435 434.035 219.694L451.124 313.093C467.923 404.91 397.406 489.5 304.065 489.5H-148C-230.567 489.5 -297.5 422.567 -297.5 340V72.5Z" stroke="white"/>
<path d="M-317.5 72.5H217.299C311.679 72.5 389.939 145.589 396.38 239.75L402.54 329.797C408.449 416.178 339.971 489.5 253.389 489.5H-168C-250.567 489.5 -317.5 422.567 -317.5 340V72.5Z" stroke="white"/>
<path d="M-407.5 72.5H154.2C222.416 72.5 270.402 139.585 248.365 204.143L180.884 401.834C162.988 454.262 113.725 489.5 58.3271 489.5H-258C-340.567 489.5 -407.5 422.567 -407.5 340V72.5Z" stroke="white"/>
<path d="M-427.5 72.5H105.442C180.992 72.5 228.98 153.387 192.767 219.693L82.2364 422.073C59.5333 463.642 15.9472 489.5 -31.4176 489.5H-278C-360.566 489.5 -427.5 422.567 -427.5 340V72.5Z" stroke="white"/>
</g>
<defs>
<clipPath id="clip0_1433_32436">
<rect width="728" height="218" fill="white" transform="translate(2 22)"/>
</clipPath>
</defs>
</svg>
