<svg width="730" height="243" viewBox="0 0 730 243" fill="none" xmlns="http://www.w3.org/2000/svg">
<path d="M9.03027 171.668L12.1133 174.122L9.03027 176.569H14V177.547H7.28027V176.781L10.6367 174.122L7.28027 171.463V170.69H14V171.668H9.03027ZM10.1514 166.972L9.72754 164.381C9.23079 164.381 8.82747 164.538 8.51758 164.853C8.20768 165.167 8.05273 165.57 8.05273 166.062C8.05273 166.418 8.13477 166.753 8.29883 167.067C8.45833 167.377 8.6224 167.603 8.79102 167.744L9.03027 167.956L8.40137 168.585C8.36491 168.558 8.31934 168.521 8.26465 168.476C8.2054 168.425 8.10514 168.321 7.96387 168.161C7.81803 167.997 7.68815 167.826 7.57422 167.648C7.46029 167.471 7.36003 167.238 7.27344 166.951C7.18229 166.66 7.13672 166.363 7.13672 166.062C7.13672 165.297 7.38509 164.663 7.88184 164.162C8.37858 163.656 8.99382 163.403 9.72754 163.403H14V164.381H13.0908C13.1182 164.399 13.1569 164.429 13.207 164.47C13.2526 164.506 13.3369 164.593 13.46 164.729C13.5785 164.862 13.6855 165.005 13.7812 165.16C13.8724 165.315 13.9544 165.52 14.0273 165.775C14.1003 166.026 14.1367 166.286 14.1367 166.555C14.1367 167.225 13.9385 167.79 13.542 168.25C13.1455 168.706 12.6921 168.934 12.1816 168.934C11.6211 168.934 11.1699 168.765 10.8281 168.428C10.4818 168.09 10.2562 167.605 10.1514 166.972ZM13.2275 166.555C13.2275 165.921 13.0202 165.402 12.6055 164.996C12.1908 164.586 11.653 164.381 10.9922 164.381H10.5684L10.9922 166.691C11.1517 167.53 11.5482 167.951 12.1816 167.956C12.4824 167.956 12.7331 167.833 12.9336 167.587C13.1296 167.336 13.2275 166.992 13.2275 166.555ZM12.1133 160.19H14V161.168H7.28027V160.19H10.8486L7.28027 156.834V155.638L10.0078 158.229L14 155.357V156.479L10.7119 158.857L12.1133 160.19ZM13.1182 153.888C12.4346 154.549 11.6074 154.879 10.6367 154.879C9.66602 154.879 8.84115 154.549 8.16211 153.888C7.47852 153.222 7.13672 152.434 7.13672 151.522C7.13672 150.998 7.25065 150.511 7.47852 150.06C7.70182 149.604 7.92513 149.278 8.14844 149.082L8.46973 148.788L9.16699 149.492C9.13965 149.51 9.10091 149.538 9.05078 149.574C9.00065 149.611 8.90951 149.693 8.77734 149.82C8.64518 149.943 8.53125 150.078 8.43555 150.224C8.33529 150.369 8.24642 150.559 8.16895 150.791C8.09147 151.023 8.05273 151.267 8.05273 151.522C8.05273 152.165 8.30339 152.723 8.80469 153.197C9.30143 153.667 9.91439 153.901 10.6436 153.901C11.3682 153.901 11.9811 153.667 12.4824 153.197C12.9792 152.723 13.2275 152.165 13.2275 151.522C13.2275 151.131 13.1341 150.759 12.9473 150.408C12.7604 150.057 12.5736 149.802 12.3867 149.643L12.1133 149.417L12.7422 148.72C12.7786 148.747 12.8311 148.79 12.8994 148.85C12.9632 148.904 13.0749 149.023 13.2344 149.205C13.3893 149.387 13.5283 149.579 13.6514 149.779C13.7699 149.98 13.8815 150.24 13.9863 150.559C14.0866 150.873 14.1367 151.194 14.1367 151.522C14.1367 152.438 13.7972 153.227 13.1182 153.888ZM7.28027 142.144V141.303H14V142.287H8.96191L14 146.348V147.182H7.28027V146.204H12.3184L7.28027 142.144ZM9.03027 133.182L12.1133 135.636L9.03027 138.083H14V139.061H7.28027V138.295L10.6367 135.636L7.28027 132.977V132.204H14V133.182H9.03027ZM10.1514 128.485L9.72754 125.895C9.23079 125.895 8.82747 126.052 8.51758 126.366C8.20768 126.681 8.05273 127.084 8.05273 127.576C8.05273 127.932 8.13477 128.267 8.29883 128.581C8.45833 128.891 8.6224 129.117 8.79102 129.258L9.03027 129.47L8.40137 130.099C8.36491 130.071 8.31934 130.035 8.26465 129.989C8.2054 129.939 8.10514 129.834 7.96387 129.675C7.81803 129.511 7.68815 129.34 7.57422 129.162C7.46029 128.984 7.36003 128.752 7.27344 128.465C7.18229 128.173 7.13672 127.877 7.13672 127.576C7.13672 126.811 7.38509 126.177 7.88184 125.676C8.37858 125.17 8.99382 124.917 9.72754 124.917H14V125.895H13.0908C13.1182 125.913 13.1569 125.942 13.207 125.983C13.2526 126.02 13.3369 126.106 13.46 126.243C13.5785 126.375 13.6855 126.519 13.7812 126.674C13.8724 126.829 13.9544 127.034 14.0273 127.289C14.1003 127.54 14.1367 127.799 14.1367 128.068C14.1367 128.738 13.9385 129.303 13.542 129.764C13.1455 130.219 12.6921 130.447 12.1816 130.447C11.6211 130.447 11.1699 130.279 10.8281 129.941C10.4818 129.604 10.2562 129.119 10.1514 128.485ZM13.2275 128.068C13.2275 127.435 13.0202 126.915 12.6055 126.51C12.1908 126.1 11.653 125.895 10.9922 125.895H10.5684L10.9922 128.205C11.1517 129.044 11.5482 129.465 12.1816 129.47C12.4824 129.47 12.7331 129.347 12.9336 129.101C13.1296 128.85 13.2275 128.506 13.2275 128.068ZM7.28027 121.984V117.083H14V118.067H8.18945V121.007H9.24219C10.2311 121.007 11.056 121.057 11.7168 121.157C12.373 121.253 12.8743 121.399 13.2207 121.595C13.5625 121.791 13.8018 122.007 13.9385 122.244C14.0706 122.481 14.1367 122.768 14.1367 123.105C14.1367 123.219 14.1253 123.336 14.1025 123.454C14.0798 123.568 14.0547 123.652 14.0273 123.707L14 123.803H13.0225C13.1136 123.616 13.1592 123.429 13.1592 123.242C13.1592 122.955 13.0771 122.729 12.9131 122.565C12.749 122.401 12.3708 122.265 11.7783 122.155C11.1859 122.041 10.3405 121.984 9.24219 121.984H7.28027ZM13.0908 113.87V112.106C13.0908 111.669 12.9678 111.318 12.7217 111.054C12.471 110.785 12.1497 110.65 11.7578 110.65C11.3659 110.65 11.0469 110.785 10.8008 111.054C10.5547 111.318 10.4316 111.674 10.4316 112.12V113.87H13.0908ZM10.1377 110.329C10.5479 109.892 11.0902 109.673 11.7646 109.673C12.4346 109.673 12.9746 109.889 13.3848 110.322C13.7949 110.755 14 111.35 14 112.106V114.848H7.28027V113.87H9.52246V112.12C9.52246 111.364 9.72754 110.767 10.1377 110.329ZM14 103.09H11.0605V106.938H14V107.916H7.28027V106.938H10.1514V103.09H7.28027V102.105H14V103.09ZM7.28027 92.5146H14V93.499H7.28027V92.5146ZM13.0908 98.8857V97.1904C13.0908 96.7529 12.9678 96.402 12.7217 96.1377C12.471 95.8688 12.1497 95.7344 11.7578 95.7344C11.3659 95.7344 11.0469 95.8688 10.8008 96.1377C10.5547 96.402 10.4316 96.7575 10.4316 97.2041V98.8857H13.0908ZM10.1377 95.4131C10.5479 94.9756 11.0902 94.7568 11.7646 94.7568C12.4346 94.7568 12.9746 94.9733 13.3848 95.4062C13.7949 95.8392 14 96.4339 14 97.1904V99.8633H7.28027V98.8857H9.52246V97.2041C9.52246 96.4476 9.72754 95.8506 10.1377 95.4131ZM5.0791 88.167C5.28418 87.971 5.38672 87.6953 5.38672 87.3398C5.38672 86.9844 5.28418 86.7087 5.0791 86.5127C4.87402 86.3167 4.58008 86.2188 4.19727 86.2188V85.4531C4.75781 85.4531 5.21354 85.6286 5.56445 85.9795C5.91536 86.3258 6.09082 86.7793 6.09082 87.3398C6.09082 87.9004 5.91536 88.3561 5.56445 88.707C5.21354 89.0579 4.75781 89.2334 4.19727 89.2334V88.4609C4.58008 88.4609 4.87402 88.363 5.0791 88.167ZM7.28027 85.2412V84.4004H14V85.3848H8.96191L14 89.4453V90.2793H7.28027V89.3018H12.3184L7.28027 85.2412ZM4.19727 72.1436V71.0977H14V72.0068L6.09082 78.0225H14V79.0752H4.19727V78.166L12.1133 72.1436H4.19727ZM4.19727 68.1514V64.4395C4.19727 63.5326 4.49121 62.7806 5.0791 62.1836C5.66699 61.5866 6.40072 61.2881 7.28027 61.2881C8.15527 61.2881 8.889 61.5889 9.48145 62.1904C10.0693 62.7874 10.3633 63.5371 10.3633 64.4395V67.0986H14V68.1514H4.19727ZM5.18164 64.4395V67.0986H9.37891V64.4395C9.37891 63.806 9.1875 63.2979 8.80469 62.915C8.42188 62.5322 7.91374 62.3408 7.28027 62.3408C6.64681 62.3408 6.13867 62.5322 5.75586 62.915C5.37305 63.2979 5.18164 63.806 5.18164 64.4395ZM14 56.2432L4.19727 60.0986V58.9775L12.5303 55.7578L4.19727 52.5381V51.417L14 55.2656V56.2432Z" fill="#1A1A1A"/>
<path d="M30.0723 7.5H25.4238C25.4238 7.06706 25.4889 6.6748 25.6191 6.32324C25.7493 5.96842 25.9186 5.67383 26.127 5.43945C26.3385 5.20508 26.5697 4.99023 26.8203 4.79492C27.0742 4.59961 27.3265 4.4222 27.5771 4.2627C27.8278 4.09993 28.0573 3.94043 28.2656 3.78418C28.4772 3.62793 28.6481 3.44564 28.7783 3.2373C28.9085 3.02572 28.9736 2.79622 28.9736 2.54883C28.9736 2.19401 28.863 1.91406 28.6416 1.70898C28.4235 1.50391 28.1175 1.40137 27.7236 1.40137C27.5316 1.40137 27.3509 1.43717 27.1816 1.50879C27.0156 1.57715 26.8854 1.66016 26.791 1.75781C26.6999 1.85221 26.6185 1.94824 26.5469 2.0459C26.4785 2.14355 26.4313 2.22819 26.4053 2.2998L26.3711 2.40234L25.4727 2.00195C25.4857 1.95638 25.5036 1.89779 25.5264 1.82617C25.5524 1.75456 25.6208 1.6276 25.7314 1.44531C25.8454 1.26302 25.9772 1.10189 26.127 0.961914C26.2767 0.82194 26.4932 0.693359 26.7764 0.576172C27.0596 0.458984 27.3753 0.400391 27.7236 0.400391C28.4105 0.400391 28.9736 0.607096 29.4131 1.02051C29.8525 1.43392 30.0723 1.94336 30.0723 2.54883C30.0723 2.86784 30.0072 3.16406 29.877 3.4375C29.7467 3.71094 29.5807 3.94043 29.3789 4.12598C29.1803 4.30827 28.9508 4.49707 28.6904 4.69238C28.4333 4.88444 28.1826 5.06022 27.9385 5.21973C27.6943 5.37923 27.4535 5.57129 27.2158 5.7959C26.9814 6.01725 26.8008 6.25163 26.6738 6.49902H30.0723V7.5ZM33.9785 2.85156C34.6784 2.85156 35.2529 3.07292 35.7021 3.51562C36.1514 3.95833 36.376 4.51986 36.376 5.2002C36.376 5.90658 36.1465 6.48275 35.6875 6.92871C35.2285 7.37467 34.6247 7.59766 33.876 7.59766C33.557 7.59766 33.2542 7.56022 32.9678 7.48535C32.6813 7.40723 32.4437 7.31608 32.2549 7.21191C32.0693 7.10449 31.9082 6.99707 31.7715 6.88965C31.6348 6.78223 31.5371 6.69271 31.4785 6.62109L31.376 6.49902L32.0791 5.80078C32.0921 5.82031 32.1149 5.84961 32.1475 5.88867C32.18 5.92448 32.2533 5.98958 32.3672 6.08398C32.4811 6.17513 32.6016 6.25651 32.7285 6.32812C32.8555 6.39648 33.0215 6.45996 33.2266 6.51855C33.4349 6.57389 33.6514 6.60156 33.876 6.60156C34.2764 6.60156 34.61 6.4681 34.877 6.20117C35.1439 5.93424 35.2773 5.60059 35.2773 5.2002C35.2773 4.7998 35.1439 4.46615 34.877 4.19922C34.61 3.93229 34.2764 3.79883 33.876 3.79883C33.583 3.79883 33.3193 3.85254 33.085 3.95996C32.8538 4.06738 32.6943 4.1748 32.6064 4.28223L32.4795 4.44824H31.6787L31.8789 0.498047H35.9268V1.49902H32.8799L32.7773 3.14941C33.0443 2.95085 33.4447 2.85156 33.9785 2.85156Z" fill="#1A1A1A"/>
<rect x="39" y="4" width="1" height="6" transform="rotate(-90 39 4)" fill="#1A1A1A"/>
<path d="M28.3262 74.8313H29.1758V81.8333H28.0771V76.5354H26.8271V75.7834C27.2471 75.7379 27.5661 75.6386 27.7842 75.4856C28.0055 75.3293 28.1862 75.1112 28.3262 74.8313ZM33.5752 77.1848C34.2751 77.1848 34.8496 77.4062 35.2988 77.8489C35.748 78.2916 35.9727 78.8531 35.9727 79.5334C35.9727 80.2398 35.7432 80.816 35.2842 81.262C34.8252 81.7079 34.2214 81.9309 33.4727 81.9309C33.1536 81.9309 32.8509 81.8935 32.5645 81.8186C32.278 81.7405 32.0404 81.6493 31.8516 81.5452C31.666 81.4377 31.5049 81.3303 31.3682 81.2229C31.2314 81.1155 31.1338 81.026 31.0752 80.9543L30.9727 80.8323L31.6758 80.134C31.6888 80.1536 31.7116 80.1829 31.7441 80.2219C31.7767 80.2577 31.8499 80.3228 31.9639 80.4172C32.0778 80.5084 32.1982 80.5898 32.3252 80.6614C32.4521 80.7297 32.6182 80.7932 32.8232 80.8518C33.0316 80.9071 33.248 80.9348 33.4727 80.9348C33.873 80.9348 34.2067 80.8014 34.4736 80.5344C34.7406 80.2675 34.874 79.9338 34.874 79.5334C34.874 79.1331 34.7406 78.7994 34.4736 78.5325C34.2067 78.2655 33.873 78.1321 33.4727 78.1321C33.1797 78.1321 32.916 78.1858 32.6816 78.2932C32.4505 78.4006 32.291 78.5081 32.2031 78.6155L32.0762 78.7815H31.2754L31.4756 74.8313H35.5234V75.8323H32.4766L32.374 77.4827C32.641 77.2841 33.0413 77.1848 33.5752 77.1848Z" fill="#1A1A1A"/>
<rect x="39" y="78.3333" width="1" height="6" transform="rotate(-90 39 78.3333)" fill="#1A1A1A"/>
<path d="M27.9258 149.165H28.7754V156.167H27.6768V150.869H26.4268V150.117C26.8467 150.071 27.1657 149.972 27.3838 149.819C27.6051 149.663 27.7858 149.445 27.9258 149.165ZM31.3291 155.288C30.7594 154.634 30.4746 153.76 30.4746 152.666C30.4746 151.572 30.7594 150.7 31.3291 150.049C31.8988 149.394 32.597 149.067 33.4238 149.067C34.2507 149.067 34.9489 149.394 35.5186 150.049C36.0882 150.7 36.373 151.572 36.373 152.666C36.373 153.76 36.0882 154.634 35.5186 155.288C34.9489 155.939 34.2507 156.264 33.4238 156.264C32.597 156.264 31.8988 155.939 31.3291 155.288ZM34.7275 154.575C35.0921 154.109 35.2744 153.473 35.2744 152.666C35.2744 151.858 35.0921 151.224 34.7275 150.761C34.3662 150.299 33.9316 150.068 33.4238 150.068C32.916 150.068 32.4798 150.299 32.1152 150.761C31.7539 151.224 31.5732 151.858 31.5732 152.666C31.5732 153.473 31.7539 154.109 32.1152 154.575C32.4798 155.037 32.916 155.268 33.4238 155.268C33.9316 155.268 34.3662 155.037 34.7275 154.575Z" fill="#1A1A1A"/>
<rect x="39" y="152.667" width="1" height="6" transform="rotate(-90 39 152.667)" fill="#1A1A1A"/>
<path d="M30.9053 229.621C30.3356 228.967 30.0508 228.093 30.0508 226.999C30.0508 225.905 30.3356 225.033 30.9053 224.382C31.4749 223.728 32.1732 223.4 33 223.4C33.8268 223.4 34.5251 223.728 35.0947 224.382C35.6644 225.033 35.9492 225.905 35.9492 226.999C35.9492 228.093 35.6644 228.967 35.0947 229.621C34.5251 230.272 33.8268 230.598 33 230.598C32.1732 230.598 31.4749 230.272 30.9053 229.621ZM34.3037 228.908C34.6683 228.443 34.8506 227.806 34.8506 226.999C34.8506 226.192 34.6683 225.557 34.3037 225.095C33.9424 224.632 33.5078 224.401 33 224.401C32.4922 224.401 32.056 224.632 31.6914 225.095C31.3301 225.557 31.1494 226.192 31.1494 226.999C31.1494 227.806 31.3301 228.443 31.6914 228.908C32.056 229.37 32.4922 229.602 33 229.602C33.5078 229.602 33.9424 229.37 34.3037 228.908Z" fill="#1A1A1A"/>
<rect x="39" y="227" width="1" height="6" transform="rotate(-90 39 227)" fill="#1A1A1A"/>
<rect width="1" height="224" transform="translate(45 3)" fill="#1A1A1A"/>
<g clip-path="url(#clip0_1433_32388)">
<rect width="678" height="1" transform="translate(46 226)" fill="#1A1A1A"/>
<path d="M131.736 115.958C131.736 115.538 131.766 115.125 131.824 114.718C131.886 114.311 131.99 113.93 132.137 113.575C132.283 113.22 132.485 112.908 132.742 112.638C133.003 112.368 133.33 112.156 133.724 112.003C134.118 111.847 134.591 111.769 135.145 111.769C135.288 111.769 135.449 111.775 135.628 111.788C135.807 111.801 135.955 111.822 136.072 111.852V112.804C135.945 112.768 135.805 112.74 135.652 112.721C135.503 112.701 135.353 112.691 135.203 112.691C134.604 112.691 134.137 112.805 133.802 113.033C133.466 113.258 133.227 113.567 133.084 113.961C132.941 114.352 132.858 114.799 132.835 115.304H132.894C132.991 115.141 133.113 114.996 133.26 114.869C133.406 114.742 133.585 114.641 133.797 114.566C134.008 114.488 134.254 114.449 134.534 114.449C134.951 114.449 135.314 114.537 135.623 114.713C135.932 114.885 136.17 115.136 136.336 115.465C136.505 115.794 136.59 116.192 136.59 116.661C136.59 117.166 136.494 117.6 136.302 117.965C136.113 118.329 135.843 118.609 135.491 118.805C135.143 119 134.728 119.098 134.246 119.098C133.891 119.098 133.561 119.033 133.255 118.902C132.952 118.772 132.687 118.577 132.459 118.316C132.231 118.056 132.054 117.73 131.927 117.34C131.8 116.946 131.736 116.485 131.736 115.958ZM134.227 118.15C134.598 118.15 134.896 118.03 135.12 117.789C135.348 117.545 135.462 117.172 135.462 116.671C135.462 116.264 135.361 115.942 135.159 115.704C134.961 115.466 134.661 115.348 134.261 115.348C133.987 115.348 133.748 115.406 133.543 115.523C133.338 115.641 133.178 115.789 133.064 115.968C132.954 116.147 132.898 116.329 132.898 116.515C132.898 116.703 132.926 116.894 132.981 117.086C133.037 117.278 133.12 117.455 133.23 117.618C133.341 117.778 133.479 117.906 133.646 118.004C133.812 118.102 134.005 118.15 134.227 118.15ZM138.265 119L141.067 112.867H137.361V111.861H142.303V112.647L139.5 119H138.265Z" fill="#1A1A1A"/>
<rect x="101.5" y="79.5" width="71" height="71" rx="35.5" stroke="#1A1A1A"/>
<path d="M159.819 167.433H158.853V169H157.72V167.433H154.473V166.563L157.734 161.842H158.853V166.48H159.819V167.433ZM157.72 166.48V164.708C157.72 164.562 157.721 164.413 157.725 164.264C157.731 164.111 157.738 163.964 157.744 163.824C157.751 163.684 157.757 163.556 157.764 163.438C157.77 163.318 157.775 163.219 157.778 163.141H157.739C157.677 163.271 157.609 163.404 157.534 163.541C157.459 163.674 157.38 163.805 157.295 163.932L155.537 166.48H157.72ZM165.283 165.426C165.283 166.002 165.238 166.518 165.146 166.974C165.059 167.426 164.919 167.81 164.727 168.126C164.535 168.442 164.284 168.683 163.975 168.849C163.665 169.015 163.291 169.098 162.852 169.098C162.301 169.098 161.847 168.953 161.489 168.663C161.131 168.37 160.866 167.95 160.693 167.403C160.521 166.853 160.435 166.194 160.435 165.426C160.435 164.658 160.513 164 160.669 163.453C160.828 162.903 161.086 162.481 161.44 162.188C161.795 161.896 162.266 161.749 162.852 161.749C163.405 161.749 163.861 161.896 164.219 162.188C164.58 162.478 164.847 162.898 165.02 163.448C165.195 163.995 165.283 164.654 165.283 165.426ZM161.592 165.426C161.592 166.028 161.631 166.531 161.709 166.935C161.79 167.338 161.924 167.641 162.109 167.843C162.295 168.041 162.542 168.141 162.852 168.141C163.161 168.141 163.408 168.041 163.594 167.843C163.779 167.644 163.913 167.343 163.994 166.939C164.079 166.536 164.121 166.031 164.121 165.426C164.121 164.827 164.08 164.326 163.999 163.922C163.918 163.518 163.784 163.215 163.599 163.014C163.413 162.809 163.164 162.706 162.852 162.706C162.539 162.706 162.29 162.809 162.104 163.014C161.922 163.215 161.79 163.518 161.709 163.922C161.631 164.326 161.592 164.827 161.592 165.426Z" fill="#1A1A1A"/>
<rect x="135.5" y="140.5" width="48" height="48" rx="24" stroke="#1A1A1A"/>
<path d="M426.551 134.903C426.551 135.326 426.52 135.742 426.458 136.148C426.399 136.555 426.295 136.936 426.146 137.291C425.999 137.646 425.796 137.96 425.535 138.233C425.278 138.504 424.952 138.715 424.559 138.868C424.165 139.021 423.689 139.098 423.133 139.098C422.993 139.098 422.83 139.09 422.645 139.073C422.462 139.06 422.312 139.041 422.195 139.015V138.058C422.319 138.093 422.457 138.123 422.61 138.146C422.767 138.165 422.921 138.175 423.074 138.175C423.676 138.175 424.145 138.062 424.48 137.838C424.819 137.613 425.058 137.304 425.198 136.91C425.341 136.516 425.423 136.069 425.442 135.567H425.384C425.289 135.724 425.171 135.867 425.027 135.997C424.884 136.124 424.707 136.227 424.495 136.305C424.284 136.38 424.026 136.417 423.724 136.417C423.313 136.417 422.955 136.331 422.649 136.158C422.347 135.986 422.111 135.735 421.941 135.406C421.775 135.074 421.692 134.675 421.692 134.21C421.692 133.705 421.788 133.271 421.98 132.906C422.173 132.542 422.444 132.262 422.796 132.066C423.147 131.868 423.561 131.769 424.036 131.769C424.394 131.769 424.725 131.834 425.027 131.964C425.333 132.091 425.6 132.286 425.828 132.55C426.056 132.81 426.233 133.137 426.36 133.531C426.487 133.922 426.551 134.379 426.551 134.903ZM424.051 132.716C423.689 132.716 423.395 132.838 423.167 133.082C422.939 133.323 422.825 133.694 422.825 134.195C422.825 134.602 422.923 134.924 423.118 135.162C423.313 135.4 423.613 135.519 424.017 135.519C424.297 135.519 424.537 135.462 424.739 135.348C424.944 135.23 425.102 135.082 425.213 134.903C425.327 134.724 425.384 134.542 425.384 134.356C425.384 134.164 425.356 133.972 425.301 133.78C425.249 133.588 425.167 133.412 425.057 133.253C424.946 133.093 424.806 132.965 424.637 132.867C424.471 132.766 424.275 132.716 424.051 132.716ZM432.283 139H427.449V138.136L429.3 136.261C429.658 135.896 429.952 135.582 430.184 135.318C430.415 135.051 430.586 134.799 430.696 134.562C430.81 134.324 430.867 134.065 430.867 133.785C430.867 133.44 430.768 133.18 430.569 133.004C430.371 132.825 430.109 132.735 429.783 132.735C429.474 132.735 429.188 132.797 428.924 132.921C428.663 133.041 428.393 133.214 428.113 133.438L427.483 132.682C427.682 132.512 427.894 132.358 428.118 132.218C428.346 132.078 428.6 131.967 428.88 131.886C429.16 131.801 429.479 131.759 429.837 131.759C430.289 131.759 430.68 131.84 431.009 132.003C431.338 132.162 431.59 132.385 431.766 132.672C431.945 132.958 432.034 133.292 432.034 133.673C432.034 134.057 431.958 134.412 431.805 134.737C431.652 135.063 431.434 135.385 431.15 135.704C430.867 136.02 430.53 136.363 430.14 136.734L428.904 137.94V137.994H432.283V139Z" fill="#1A1A1A"/>
<rect x="361.5" y="69.5" width="131" height="131" rx="65.5" stroke="#1A1A1A"/>
<path d="M602.287 64.4922C602.287 64.8145 602.222 65.0944 602.092 65.332C601.962 65.5697 601.783 65.765 601.555 65.918C601.33 66.0677 601.07 66.1751 600.773 66.2402V66.2744C601.343 66.346 601.773 66.5251 602.062 66.8115C602.355 67.098 602.502 67.4772 602.502 67.9492C602.502 68.3626 602.403 68.7321 602.204 69.0576C602.006 69.3799 601.701 69.6338 601.291 69.8193C600.881 70.0049 600.354 70.0977 599.709 70.0977C599.322 70.0977 598.962 70.0667 598.63 70.0049C598.301 69.943 597.989 69.8438 597.692 69.707V68.6865C597.995 68.8363 598.317 68.9518 598.659 69.0332C599.001 69.1146 599.325 69.1553 599.631 69.1553C600.227 69.1553 600.651 69.0446 600.905 68.8232C601.159 68.5986 601.286 68.2894 601.286 67.8955C601.286 67.6416 601.219 67.4333 601.086 67.2705C600.956 67.1077 600.752 66.9857 600.476 66.9043C600.202 66.8229 599.849 66.7822 599.416 66.7822H598.786V65.8594H599.421C599.834 65.8594 600.166 65.8105 600.417 65.7129C600.668 65.612 600.848 65.4736 600.959 65.2979C601.073 65.1221 601.13 64.917 601.13 64.6826C601.13 64.3766 601.031 64.139 600.832 63.9697C600.633 63.7972 600.339 63.7109 599.948 63.7109C599.707 63.7109 599.488 63.7386 599.289 63.7939C599.094 63.8493 598.913 63.9193 598.747 64.0039C598.581 64.0885 598.423 64.1797 598.273 64.2773L597.722 63.4814C597.992 63.2796 598.314 63.1087 598.688 62.9688C599.063 62.8288 599.499 62.7588 599.997 62.7588C600.729 62.7588 601.294 62.9167 601.691 63.2324C602.089 63.5449 602.287 63.9648 602.287 64.4922ZM608.273 65.9033C608.273 66.3265 608.243 66.7415 608.181 67.1484C608.122 67.5553 608.018 67.9362 607.868 68.291C607.722 68.6458 607.518 68.96 607.258 69.2334C607.001 69.5036 606.675 69.7152 606.281 69.8682C605.887 70.0212 605.412 70.0977 604.855 70.0977C604.715 70.0977 604.553 70.0895 604.367 70.0732C604.185 70.0602 604.035 70.0407 603.918 70.0146V69.0576C604.042 69.0934 604.18 69.1227 604.333 69.1455C604.489 69.165 604.644 69.1748 604.797 69.1748C605.399 69.1748 605.868 69.0625 606.203 68.8379C606.542 68.6133 606.781 68.304 606.921 67.9102C607.064 67.5163 607.146 67.0687 607.165 66.5674H607.106C607.012 66.7236 606.893 66.8669 606.75 66.9971C606.607 67.124 606.429 67.2266 606.218 67.3047C606.006 67.3796 605.749 67.417 605.446 67.417C605.036 67.417 604.678 67.3307 604.372 67.1582C604.069 66.9857 603.833 66.735 603.664 66.4062C603.498 66.0742 603.415 65.6755 603.415 65.21C603.415 64.7054 603.511 64.2708 603.703 63.9062C603.895 63.5417 604.167 63.2617 604.519 63.0664C604.87 62.8678 605.284 62.7686 605.759 62.7686C606.117 62.7686 606.447 62.8337 606.75 62.9639C607.056 63.0908 607.323 63.2861 607.551 63.5498C607.779 63.8102 607.956 64.1374 608.083 64.5312C608.21 64.9219 608.273 65.3792 608.273 65.9033ZM605.773 63.7158C605.412 63.7158 605.118 63.8379 604.89 64.082C604.662 64.3229 604.548 64.694 604.548 65.1953C604.548 65.6022 604.646 65.9245 604.841 66.1621C605.036 66.3997 605.336 66.5186 605.739 66.5186C606.019 66.5186 606.26 66.4616 606.462 66.3477C606.667 66.2305 606.825 66.0824 606.936 65.9033C607.049 65.7243 607.106 65.542 607.106 65.3564C607.106 65.1644 607.079 64.9723 607.023 64.7803C606.971 64.5882 606.89 64.4124 606.779 64.2529C606.669 64.0934 606.529 63.9648 606.359 63.8672C606.193 63.7663 605.998 63.7158 605.773 63.7158Z" fill="#1A1A1A"/>
<rect x="580.5" y="43.5" width="44" height="44" rx="22" stroke="#1A1A1A"/>
<rect x="581.5" y="77.5" width="21" height="21" rx="10.5" stroke="#1A1A1A"/>
<path d="M664.736 132.958C664.736 132.538 664.766 132.125 664.824 131.718C664.886 131.311 664.99 130.93 665.137 130.575C665.283 130.22 665.485 129.908 665.742 129.638C666.003 129.368 666.33 129.156 666.724 129.003C667.118 128.847 667.591 128.769 668.145 128.769C668.288 128.769 668.449 128.775 668.628 128.788C668.807 128.801 668.955 128.822 669.072 128.852V129.804C668.945 129.768 668.805 129.74 668.652 129.721C668.503 129.701 668.353 129.691 668.203 129.691C667.604 129.691 667.137 129.805 666.802 130.033C666.466 130.258 666.227 130.567 666.084 130.961C665.941 131.352 665.858 131.799 665.835 132.304H665.894C665.991 132.141 666.113 131.996 666.26 131.869C666.406 131.742 666.585 131.641 666.797 131.566C667.008 131.488 667.254 131.449 667.534 131.449C667.951 131.449 668.314 131.537 668.623 131.713C668.932 131.885 669.17 132.136 669.336 132.465C669.505 132.794 669.59 133.192 669.59 133.661C669.59 134.166 669.494 134.6 669.302 134.965C669.113 135.329 668.843 135.609 668.491 135.805C668.143 136 667.728 136.098 667.246 136.098C666.891 136.098 666.561 136.033 666.255 135.902C665.952 135.772 665.687 135.577 665.459 135.316C665.231 135.056 665.054 134.73 664.927 134.34C664.8 133.946 664.736 133.485 664.736 132.958ZM667.227 135.15C667.598 135.15 667.896 135.03 668.12 134.789C668.348 134.545 668.462 134.172 668.462 133.671C668.462 133.264 668.361 132.942 668.159 132.704C667.961 132.466 667.661 132.348 667.261 132.348C666.987 132.348 666.748 132.406 666.543 132.523C666.338 132.641 666.178 132.789 666.064 132.968C665.954 133.147 665.898 133.329 665.898 133.515C665.898 133.703 665.926 133.894 665.981 134.086C666.037 134.278 666.12 134.455 666.23 134.618C666.341 134.778 666.479 134.906 666.646 135.004C666.812 135.102 667.005 135.15 667.227 135.15ZM675.542 134.433H674.575V136H673.442V134.433H670.195V133.563L673.457 128.842H674.575V133.48H675.542V134.433ZM673.442 133.48V131.708C673.442 131.562 673.444 131.413 673.447 131.264C673.454 131.111 673.46 130.964 673.467 130.824C673.473 130.684 673.48 130.556 673.486 130.438C673.493 130.318 673.498 130.219 673.501 130.141H673.462C673.4 130.271 673.332 130.404 673.257 130.541C673.182 130.674 673.102 130.805 673.018 130.932L671.26 133.48H673.442Z" fill="#1A1A1A"/>
<rect x="635.5" y="97.5" width="69" height="69" rx="34.5" stroke="#1A1A1A"/>
<path d="M344.542 83L347.345 76.8672H343.639V75.8613H348.58V76.6475L345.777 83H344.542ZM351.856 75.7637C352.27 75.7637 352.643 75.8288 352.975 75.959C353.307 76.0859 353.57 76.2764 353.766 76.5303C353.961 76.7842 354.059 77.0983 354.059 77.4727C354.059 77.7624 353.998 78.0146 353.878 78.2295C353.761 78.4443 353.601 78.6331 353.399 78.7959C353.198 78.9554 352.971 79.097 352.721 79.2207C353.001 79.3574 353.258 79.5153 353.492 79.6943C353.73 79.8701 353.92 80.0768 354.063 80.3145C354.21 80.5521 354.283 80.8304 354.283 81.1494C354.283 81.5498 354.181 81.8965 353.976 82.1895C353.774 82.4792 353.492 82.7038 353.131 82.8633C352.77 83.0195 352.348 83.0977 351.866 83.0977C351.349 83.0977 350.908 83.0212 350.543 82.8682C350.178 82.7152 349.902 82.4971 349.713 82.2139C349.524 81.9274 349.43 81.5856 349.43 81.1885C349.43 80.8597 349.495 80.5749 349.625 80.334C349.755 80.0931 349.929 79.8848 350.147 79.709C350.369 79.5332 350.611 79.3851 350.875 79.2646C350.65 79.1312 350.445 78.9814 350.26 78.8154C350.074 78.6462 349.926 78.4525 349.815 78.2344C349.708 78.013 349.654 77.7575 349.654 77.4678C349.654 77.0967 349.754 76.7858 349.952 76.5352C350.151 76.2812 350.416 76.0892 350.748 75.959C351.083 75.8288 351.453 75.7637 351.856 75.7637ZM350.523 81.1445C350.523 81.457 350.634 81.7142 350.855 81.916C351.077 82.1178 351.407 82.2188 351.847 82.2188C352.283 82.2188 352.615 82.1195 352.843 81.9209C353.071 81.7223 353.185 81.4603 353.185 81.1348C353.185 80.9264 353.126 80.7425 353.009 80.583C352.895 80.4235 352.74 80.2819 352.545 80.1582C352.353 80.0312 352.14 79.9141 351.905 79.8066L351.749 79.7432C351.495 79.8506 351.277 79.9727 351.095 80.1094C350.912 80.2428 350.771 80.3942 350.67 80.5635C350.572 80.7327 350.523 80.9264 350.523 81.1445ZM351.847 76.6475C351.531 76.6475 351.271 76.7256 351.065 76.8818C350.864 77.0348 350.763 77.2562 350.763 77.5459C350.763 77.751 350.812 77.9268 350.909 78.0732C351.01 78.2197 351.145 78.3467 351.314 78.4541C351.484 78.5583 351.671 78.6559 351.876 78.7471C352.075 78.6592 352.254 78.5632 352.413 78.459C352.576 78.3516 352.704 78.2246 352.799 78.0781C352.896 77.9284 352.945 77.7493 352.945 77.541C352.945 77.2546 352.843 77.0348 352.638 76.8818C352.436 76.7256 352.172 76.6475 351.847 76.6475Z" fill="#1A1A1A"/>
<rect x="299.5" y="29.5" width="99" height="99" rx="49.5" stroke="#1A1A1A"/>
</g>
<rect x="46" y="227" width="1" height="6" fill="#1A1A1A"/>
<path d="M44.4053 240.121C43.8356 239.467 43.5508 238.593 43.5508 237.499C43.5508 236.405 43.8356 235.533 44.4053 234.882C44.9749 234.228 45.6732 233.9 46.5 233.9C47.3268 233.9 48.0251 234.228 48.5947 234.882C49.1644 235.533 49.4492 236.405 49.4492 237.499C49.4492 238.593 49.1644 239.467 48.5947 240.121C48.0251 240.772 47.3268 241.098 46.5 241.098C45.6732 241.098 44.9749 240.772 44.4053 240.121ZM47.8037 239.408C48.1683 238.943 48.3506 238.306 48.3506 237.499C48.3506 236.692 48.1683 236.057 47.8037 235.595C47.4424 235.132 47.0078 234.901 46.5 234.901C45.9922 234.901 45.556 235.132 45.1914 235.595C44.8301 236.057 44.6494 236.692 44.6494 237.499C44.6494 238.306 44.8301 238.943 45.1914 239.408C45.556 239.87 45.9922 240.102 46.5 240.102C47.0078 240.102 47.4424 239.87 47.8037 239.408Z" fill="#1A1A1A"/>
<rect x="215.25" y="227" width="1" height="6" fill="#1A1A1A"/>
<path d="M212.676 233.998H213.525V241H212.427V235.702H211.177V234.95C211.597 234.905 211.916 234.805 212.134 234.652C212.355 234.496 212.536 234.278 212.676 233.998ZM216.079 240.121C215.509 239.467 215.225 238.593 215.225 237.499C215.225 236.405 215.509 235.533 216.079 234.882C216.649 234.228 217.347 233.9 218.174 233.9C219.001 233.9 219.699 234.228 220.269 234.882C220.838 235.533 221.123 236.405 221.123 237.499C221.123 238.593 220.838 239.467 220.269 240.121C219.699 240.772 219.001 241.098 218.174 241.098C217.347 241.098 216.649 240.772 216.079 240.121ZM219.478 239.408C219.842 238.943 220.024 238.306 220.024 237.499C220.024 236.692 219.842 236.057 219.478 235.595C219.116 235.132 218.682 234.901 218.174 234.901C217.666 234.901 217.23 235.132 216.865 235.595C216.504 236.057 216.323 236.692 216.323 237.499C216.323 238.306 216.504 238.943 216.865 239.408C217.23 239.87 217.666 240.102 218.174 240.102C218.682 240.102 219.116 239.87 219.478 239.408Z" fill="#1A1A1A"/>
<rect x="384.5" y="227" width="1" height="6" fill="#1A1A1A"/>
<path d="M384.172 241H379.523C379.523 240.567 379.589 240.175 379.719 239.823C379.849 239.468 380.018 239.174 380.227 238.939C380.438 238.705 380.669 238.49 380.92 238.295C381.174 238.1 381.426 237.922 381.677 237.763C381.927 237.6 382.157 237.44 382.365 237.284C382.577 237.128 382.748 236.946 382.878 236.737C383.008 236.526 383.073 236.296 383.073 236.049C383.073 235.694 382.963 235.414 382.741 235.209C382.523 235.004 382.217 234.901 381.823 234.901C381.631 234.901 381.451 234.937 381.281 235.009C381.115 235.077 380.985 235.16 380.891 235.258C380.799 235.352 380.718 235.448 380.646 235.546C380.578 235.644 380.531 235.728 380.505 235.8L380.471 235.902L379.572 235.502C379.585 235.456 379.603 235.398 379.626 235.326C379.652 235.255 379.72 235.128 379.831 234.945C379.945 234.763 380.077 234.602 380.227 234.462C380.376 234.322 380.593 234.193 380.876 234.076C381.159 233.959 381.475 233.9 381.823 233.9C382.51 233.9 383.073 234.107 383.513 234.521C383.952 234.934 384.172 235.443 384.172 236.049C384.172 236.368 384.107 236.664 383.977 236.938C383.846 237.211 383.68 237.44 383.479 237.626C383.28 237.808 383.05 237.997 382.79 238.192C382.533 238.384 382.282 238.56 382.038 238.72C381.794 238.879 381.553 239.071 381.315 239.296C381.081 239.517 380.9 239.752 380.773 239.999H384.172V241ZM386.232 240.121C385.663 239.467 385.378 238.593 385.378 237.499C385.378 236.405 385.663 235.533 386.232 234.882C386.802 234.228 387.5 233.9 388.327 233.9C389.154 233.9 389.852 234.228 390.422 234.882C390.992 235.533 391.276 236.405 391.276 237.499C391.276 238.593 390.992 239.467 390.422 240.121C389.852 240.772 389.154 241.098 388.327 241.098C387.5 241.098 386.802 240.772 386.232 240.121ZM389.631 239.408C389.995 238.943 390.178 238.306 390.178 237.499C390.178 236.692 389.995 236.057 389.631 235.595C389.27 235.132 388.835 234.901 388.327 234.901C387.819 234.901 387.383 235.132 387.019 235.595C386.657 236.057 386.477 236.692 386.477 237.499C386.477 238.306 386.657 238.943 387.019 239.408C387.383 239.87 387.819 240.102 388.327 240.102C388.835 240.102 389.27 239.87 389.631 239.408Z" fill="#1A1A1A"/>
<rect x="553.75" y="227" width="1" height="6" fill="#1A1A1A"/>
<path d="M552.299 237.299C552.331 237.312 552.375 237.331 552.431 237.357C552.489 237.38 552.59 237.439 552.733 237.533C552.877 237.624 553.004 237.73 553.114 237.851C553.225 237.971 553.324 238.139 553.412 238.354C553.503 238.565 553.549 238.798 553.549 239.052C553.549 239.625 553.319 240.11 552.86 240.507C552.405 240.901 551.801 241.098 551.049 241.098C550.73 241.098 550.427 241.06 550.141 240.985C549.854 240.907 549.617 240.816 549.428 240.712C549.242 240.604 549.081 240.497 548.944 240.39C548.808 240.282 548.708 240.193 548.646 240.121L548.549 239.999L549.247 239.301C549.26 239.32 549.283 239.35 549.315 239.389C549.351 239.424 549.426 239.49 549.54 239.584C549.654 239.675 549.773 239.757 549.896 239.828C550.023 239.896 550.189 239.96 550.395 240.019C550.603 240.074 550.821 240.102 551.049 240.102C551.482 240.102 551.824 239.997 552.074 239.789C552.325 239.577 552.45 239.315 552.45 239.003C552.45 238.687 552.325 238.425 552.074 238.217C551.824 238.005 551.482 237.899 551.049 237.899H550.351V236.898H551.049C551.394 236.898 551.662 236.809 551.854 236.63C552.05 236.451 552.147 236.208 552.147 235.902C552.147 235.593 552.05 235.349 551.854 235.17C551.662 234.991 551.394 234.901 551.049 234.901C550.756 234.901 550.479 234.965 550.219 235.092C549.958 235.219 549.774 235.341 549.667 235.458L549.501 235.648L548.798 234.95C548.817 234.924 548.847 234.888 548.886 234.843C548.928 234.794 549.019 234.708 549.159 234.584C549.299 234.46 549.449 234.354 549.608 234.267C549.768 234.175 549.978 234.092 550.238 234.018C550.499 233.939 550.769 233.9 551.049 233.9C551.736 233.9 552.274 234.078 552.665 234.433C553.056 234.784 553.251 235.24 553.251 235.8C553.251 235.992 553.217 236.177 553.148 236.356C553.083 236.532 553.004 236.675 552.909 236.786C552.815 236.897 552.722 236.993 552.631 237.074C552.543 237.152 552.465 237.208 552.396 237.24L552.299 237.299ZM555.507 240.121C554.937 239.467 554.652 238.593 554.652 237.499C554.652 236.405 554.937 235.533 555.507 234.882C556.076 234.228 556.775 233.9 557.602 233.9C558.428 233.9 559.127 234.228 559.696 234.882C560.266 235.533 560.551 236.405 560.551 237.499C560.551 238.593 560.266 239.467 559.696 240.121C559.127 240.772 558.428 241.098 557.602 241.098C556.775 241.098 556.076 240.772 555.507 240.121ZM558.905 239.408C559.27 238.943 559.452 238.306 559.452 237.499C559.452 236.692 559.27 236.057 558.905 235.595C558.544 235.132 558.109 234.901 557.602 234.901C557.094 234.901 556.658 235.132 556.293 235.595C555.932 236.057 555.751 236.692 555.751 237.499C555.751 238.306 555.932 238.943 556.293 239.408C556.658 239.87 557.094 240.102 557.602 240.102C558.109 240.102 558.544 239.87 558.905 239.408Z" fill="#1A1A1A"/>
<rect x="723" y="227" width="1" height="6" fill="#1A1A1A"/>
<path d="M721.801 238.598H722.699V239.599H721.801V241H720.697V239.599H717.299V238.402L720.399 233.998H721.801V238.598ZM720.697 238.598V235.248L718.349 238.598H720.697ZM724.457 240.121C723.887 239.467 723.603 238.593 723.603 237.499C723.603 236.405 723.887 235.533 724.457 234.882C725.027 234.228 725.725 233.9 726.552 233.9C727.379 233.9 728.077 234.228 728.646 234.882C729.216 235.533 729.501 236.405 729.501 237.499C729.501 238.593 729.216 239.467 728.646 240.121C728.077 240.772 727.379 241.098 726.552 241.098C725.725 241.098 725.027 240.772 724.457 240.121ZM727.855 239.408C728.22 238.943 728.402 238.306 728.402 237.499C728.402 236.692 728.22 236.057 727.855 235.595C727.494 235.132 727.06 234.901 726.552 234.901C726.044 234.901 725.608 235.132 725.243 235.595C724.882 236.057 724.701 236.692 724.701 237.499C724.701 238.306 724.882 238.943 725.243 239.408C725.608 239.87 726.044 240.102 726.552 240.102C727.06 240.102 727.494 239.87 727.855 239.408Z" fill="#1A1A1A"/>
<defs>
<clipPath id="clip0_1433_32388">
<rect width="678" height="224" fill="white" transform="translate(46 3)"/>
</clipPath>
</defs>
</svg>
