<svg width="739" height="240" viewBox="0 0 739 240" fill="none" xmlns="http://www.w3.org/2000/svg">
<path d="M358.97 4.19727H360.016V14H359.106L353.091 6.09082V14H352.038V4.19727H352.947L358.97 12.1133V4.19727ZM363.803 12.667C362.823 11.6872 362.333 10.4977 362.333 9.09863C362.333 7.69954 362.823 6.51009 363.803 5.53027C364.783 4.55046 365.972 4.06055 367.371 4.06055C367.868 4.06055 368.344 4.13118 368.8 4.27246C369.256 4.40918 369.632 4.57552 369.928 4.77148C370.229 4.96745 370.491 5.16569 370.714 5.36621C370.942 5.56673 371.106 5.73763 371.206 5.87891L371.363 6.09082L370.659 6.71973C370.632 6.67415 370.591 6.61491 370.536 6.54199C370.481 6.46452 370.354 6.33008 370.153 6.13867C369.953 5.94727 369.734 5.77865 369.497 5.63281C369.265 5.48242 368.957 5.3457 368.574 5.22266C368.191 5.09961 367.79 5.03809 367.371 5.03809C366.25 5.03809 365.304 5.42773 364.534 6.20703C363.764 6.98633 363.379 7.9502 363.379 9.09863C363.379 10.2471 363.764 11.2109 364.534 11.9902C365.304 12.7695 366.25 13.1592 367.371 13.1592C367.763 13.1592 368.137 13.1136 368.492 13.0225C368.848 12.9268 369.139 12.8151 369.367 12.6875C369.595 12.5553 369.796 12.4277 369.969 12.3047C370.142 12.1771 370.265 12.0654 370.338 11.9697L370.454 11.833V9.93945H368.212V8.96191H371.5V12.1133C371.464 12.168 371.404 12.2409 371.322 12.332C371.245 12.4186 371.076 12.5781 370.816 12.8105C370.557 13.043 370.276 13.2503 369.976 13.4326C369.679 13.6149 369.294 13.779 368.82 13.9248C368.351 14.0661 367.868 14.1367 367.371 14.1367C365.972 14.1367 364.783 13.6468 363.803 12.667ZM375.144 9.72754L380.182 4.19727H381.508L377.803 8.25781L381.863 14H380.599L377.099 9.03027L375.144 11.1289V14H374.091V4.19727H375.144V9.72754Z" fill="white"/>
<path d="M723.548 7.29883C723.58 7.31185 723.624 7.33138 723.68 7.35742C723.738 7.38021 723.839 7.4388 723.982 7.5332C724.126 7.62435 724.253 7.73014 724.363 7.85059C724.474 7.97103 724.573 8.13867 724.661 8.35352C724.752 8.5651 724.798 8.79785 724.798 9.05176C724.798 9.62467 724.568 10.1097 724.109 10.5068C723.654 10.9007 723.05 11.0977 722.298 11.0977C721.979 11.0977 721.676 11.0602 721.39 10.9854C721.103 10.9072 720.866 10.8161 720.677 10.7119C720.491 10.6045 720.33 10.4971 720.193 10.3896C720.057 10.2822 719.957 10.1927 719.896 10.1211L719.798 9.99902L720.496 9.30078C720.509 9.32031 720.532 9.34961 720.564 9.38867C720.6 9.42448 720.675 9.48958 720.789 9.58398C720.903 9.67513 721.022 9.75651 721.146 9.82812C721.272 9.89648 721.438 9.95996 721.644 10.0186C721.852 10.0739 722.07 10.1016 722.298 10.1016C722.731 10.1016 723.073 9.9974 723.323 9.78906C723.574 9.57747 723.699 9.31543 723.699 9.00293C723.699 8.68717 723.574 8.42513 723.323 8.2168C723.073 8.00521 722.731 7.89941 722.298 7.89941H721.6V6.89844H722.298C722.643 6.89844 722.911 6.80892 723.104 6.62988C723.299 6.45085 723.396 6.20833 723.396 5.90234C723.396 5.5931 723.299 5.34896 723.104 5.16992C722.911 4.99089 722.643 4.90137 722.298 4.90137C722.005 4.90137 721.728 4.96484 721.468 5.0918C721.207 5.21875 721.023 5.34082 720.916 5.45801L720.75 5.64844L720.047 4.9502C720.066 4.92415 720.096 4.88835 720.135 4.84277C720.177 4.79395 720.268 4.70768 720.408 4.58398C720.548 4.46029 720.698 4.35449 720.857 4.2666C721.017 4.17546 721.227 4.09245 721.487 4.01758C721.748 3.93945 722.018 3.90039 722.298 3.90039C722.985 3.90039 723.523 4.0778 723.914 4.43262C724.305 4.78418 724.5 5.23991 724.5 5.7998C724.5 5.99186 724.466 6.17741 724.397 6.35645C724.332 6.53223 724.253 6.67546 724.158 6.78613C724.064 6.89681 723.971 6.99284 723.88 7.07422C723.792 7.15234 723.714 7.20768 723.646 7.24023L723.548 7.29883ZM726.756 10.1211C726.186 9.4668 725.901 8.59277 725.901 7.49902C725.901 6.40527 726.186 5.53288 726.756 4.88184C727.326 4.22754 728.024 3.90039 728.851 3.90039C729.677 3.90039 730.376 4.22754 730.945 4.88184C731.515 5.53288 731.8 6.40527 731.8 7.49902C731.8 8.59277 731.515 9.4668 730.945 10.1211C730.376 10.7721 729.677 11.0977 728.851 11.0977C728.024 11.0977 727.326 10.7721 726.756 10.1211ZM730.154 9.4082C730.519 8.94271 730.701 8.30632 730.701 7.49902C730.701 6.69173 730.519 6.05697 730.154 5.59473C729.793 5.13249 729.358 4.90137 728.851 4.90137C728.343 4.90137 727.907 5.13249 727.542 5.59473C727.181 6.05697 727 6.69173 727 7.49902C727 8.30632 727.181 8.94271 727.542 9.4082C727.907 9.87044 728.343 10.1016 728.851 10.1016C729.358 10.1016 729.793 9.87044 730.154 9.4082ZM733.855 10.1211C733.286 9.4668 733.001 8.59277 733.001 7.49902C733.001 6.40527 733.286 5.53288 733.855 4.88184C734.425 4.22754 735.123 3.90039 735.95 3.90039C736.777 3.90039 737.475 4.22754 738.045 4.88184C738.615 5.53288 738.899 6.40527 738.899 7.49902C738.899 8.59277 738.615 9.4668 738.045 10.1211C737.475 10.7721 736.777 11.0977 735.95 11.0977C735.123 11.0977 734.425 10.7721 733.855 10.1211ZM737.254 9.4082C737.618 8.94271 737.801 8.30632 737.801 7.49902C737.801 6.69173 737.618 6.05697 737.254 5.59473C736.893 5.13249 736.458 4.90137 735.95 4.90137C735.442 4.90137 735.006 5.13249 734.642 5.59473C734.28 6.05697 734.1 6.69173 734.1 7.49902C734.1 8.30632 734.28 8.94271 734.642 9.4082C735.006 9.87044 735.442 10.1016 735.95 10.1016C736.458 10.1016 736.893 9.87044 737.254 9.4082Z" fill="white"/>
<rect x="729" y="15" width="1" height="6" fill="white"/>
<path d="M0.855469 10.1211C0.285807 9.4668 0.000976562 8.59277 0.000976562 7.49902C0.000976562 6.40527 0.285807 5.53288 0.855469 4.88184C1.42513 4.22754 2.12337 3.90039 2.9502 3.90039C3.77702 3.90039 4.47526 4.22754 5.04492 4.88184C5.61458 5.53288 5.89941 6.40527 5.89941 7.49902C5.89941 8.59277 5.61458 9.4668 5.04492 10.1211C4.47526 10.7721 3.77702 11.0977 2.9502 11.0977C2.12337 11.0977 1.42513 10.7721 0.855469 10.1211ZM4.25391 9.4082C4.61849 8.94271 4.80078 8.30632 4.80078 7.49902C4.80078 6.69173 4.61849 6.05697 4.25391 5.59473C3.89258 5.13249 3.45801 4.90137 2.9502 4.90137C2.44238 4.90137 2.00618 5.13249 1.6416 5.59473C1.28027 6.05697 1.09961 6.69173 1.09961 7.49902C1.09961 8.30632 1.28027 8.94271 1.6416 9.4082C2.00618 9.87044 2.44238 10.1016 2.9502 10.1016C3.45801 10.1016 3.89258 9.87044 4.25391 9.4082Z" fill="white"/>
<rect x="2" y="15" width="1" height="6" fill="white"/>
<rect width="1" height="728" transform="translate(730 21) rotate(90)" fill="white"/>
<g clip-path="url(#clip0_1433_32365)">
<path d="M190.624 22L190.47 22.2517L190.421 22.5035V22.7552V23.0069L190.521 23.2587L190.841 23.5104L191.314 23.7621L191.846 24.0139L192.364 24.2656L191.639 24.5173L191.131 24.7691L190.786 25.0208V25.2725L191.191 25.5242L191.378 25.776L191.507 26.0277L191.572 26.2794L191.639 26.5312L191.776 26.7829L192.135 27.0346L192.604 27.2864L193.479 27.5381L194.94 27.7898L197.312 28.0416L199.454 28.2933L200.009 28.545L198.251 28.7968L197.312 29.0485L198.415 29.3002L200.009 29.552L201.613 29.8037L199.638 30.0554L198.251 30.3072L197.163 30.5589L196.315 30.8106L195.789 31.0624L195.415 31.3141L195.662 31.5658L195.789 31.8176V32.0693L196.729 32.321L198.251 32.5727L199.823 32.8245L201.402 33.0762L204.395 33.3279L208.318 33.5797L209.593 33.8314L204.649 34.0831L201.826 34.3349L199.454 34.5866V34.8383L198.924 35.0901L198.582 35.3418L198.924 35.5935L199.638 35.8453L200.588 36.097L201.826 36.3487L202.486 36.6005L199.275 36.8522L197.312 37.1039L196.451 37.3557L196.315 37.6074L197.616 37.8591L200.588 38.1109L198.751 38.3626L197.463 38.6143L196.872 38.866L197.163 39.1178V39.3695L196.872 39.6212L197.163 39.873L197.016 40.1247L196.872 40.3764L196.59 40.6282L196.729 40.8799L196.872 41.1316V41.3834L196.451 41.6351L196.59 41.8868L196.729 42.1386L197.163 42.3903L197.929 42.642L198.751 42.8938L200.009 43.1455L200.588 43.3972L198.089 43.649L197.463 43.9007L197.163 44.1524V44.4042L196.872 44.6559V44.9076L196.729 45.1594L196.451 45.4111L196.181 45.6628L195.919 45.9146V46.1663L196.181 46.418V46.6697L195.919 46.9215L197.163 47.1732L199.098 47.4249L201.826 47.6767L203.654 47.9284L203.176 48.1801L198.582 48.4319L195.789 48.6836L194.384 48.9353L193.866 49.1871L193.767 49.4388L193.866 49.6905L193.967 49.9423V50.194L193.574 50.4457L193.479 50.6975L193.294 50.9492L193.386 51.2009L194.068 51.4527L195.055 51.7044L196.451 51.9561L197.616 52.2078L198.089 52.4596V52.7113L197.463 52.9631L197.929 53.2148L198.251 53.4665L198.415 53.7182L198.924 53.97L199.275 54.2217L195.919 54.4734L194.277 54.7252L193.386 54.9769L192.853 55.2286L192.604 55.4804L192.443 55.7321V55.9838L192.769 56.2356L193.202 56.4873L193.967 56.739L194.94 56.9908L195.662 57.2425L195.415 57.4942L195.173 57.746L195.055 57.9977V58.2494V58.5012L194.492 58.7529L193.967 59.0046L194.277 59.2563L194.384 59.5081L194.277 59.7598L194.172 60.0116L193.967 60.2633L193.67 60.515L193.479 60.7667L193.386 61.0185L194.825 61.2702L196.181 61.5219L196.729 61.7737L197.312 62.0254L196.315 62.2771L195.293 62.5289L194.712 62.7806L195.055 63.0323L195.173 63.2841L194.384 63.5358L193.767 63.7875L192.523 64.0393L190.786 64.291L193.294 64.5427L193.574 64.7945L194.068 65.0462L194.601 65.2979L195.537 65.5497L197.016 65.8014L199.823 66.0531L205.169 66.3048L210.945 66.5566L214.289 66.8083L204.907 67.06L198.089 67.3118L197.163 67.5635L196.451 67.8152L196.315 68.067L196.048 68.3187L195.919 68.5704V68.8222L195.789 69.0739L195.662 69.3256L195.415 69.5774L194.94 69.8291L194.825 70.0808L195.055 70.3326L194.94 70.5843V70.836V71.0878L194.825 71.3395V71.5912V71.843L194.94 72.0947L195.173 72.3464V72.5981L195.293 72.8499L194.825 73.1016L196.048 73.3533L196.59 73.6051L195.919 73.8568L194.94 74.1085L194.601 74.3603L194.492 74.612L196.048 74.8637L199.638 75.1155L208.318 75.3672L201.402 75.6189L198.089 75.8707L196.315 76.1224L195.919 76.3741L195.662 76.6259L196.048 76.8776L195.919 77.1293L196.451 77.3811V77.6328V77.8845V78.1363L196.181 78.388L196.729 78.6397L197.163 78.8914L198.089 79.1432L199.098 79.3949L201.194 79.6467L205.705 79.8984L212.377 80.1501L221.932 80.4018L235.087 80.6536L414.687 80.9053L408.47 81.157L220.932 81.4088L205.435 81.6605L202.713 81.9122L202.264 82.164L202.044 82.4157L201.826 82.6674L202.943 82.9192L206.256 83.1709L211.294 83.4226L216.773 83.6744L207.408 83.9261L201.402 84.1778L199.823 84.4296L199.098 84.6813L204.907 84.933L210.599 85.1848L214.289 85.4365L214.687 85.6882L210.945 85.94L202.486 86.1917L198.924 86.4434L196.872 86.6952L195.919 86.9469V87.1986V87.4503L195.789 87.7021L195.173 87.9538L194.712 88.2055L194.277 88.4573L193.967 88.709L194.068 88.9607L194.384 89.2125L195.173 89.4642L197.616 89.7159L200.009 89.9677L201.194 90.2194L199.454 90.4711L197.312 90.7229L196.181 90.9746L196.048 91.2263L196.315 91.4781L196.181 91.7298L196.048 91.9815L195.919 92.2332V92.485L195.789 92.7367L196.451 92.9884L197.463 93.2402L199.823 93.4919L197.772 93.7437L195.537 93.9954L195.293 94.2471L195.055 94.4988L193.767 94.7506L191.988 95.0023L195.055 95.254L196.048 95.5058L196.451 95.7575L196.59 96.0092L199.823 96.261L204.649 96.5127L211.65 96.7644L221.428 97.0162L229.81 97.2679L221.428 97.5196L218.555 97.7714L231.717 98.0231L256.477 98.2748L384.071 98.5266L443.845 98.7783L461.798 99.03L262.439 99.2818L217.651 99.5335L199.454 99.7852L196.451 100.037L195.173 100.289L195.055 100.54L194.825 100.792L194.492 101.044L194.277 101.296L193.967 101.547L193.767 101.799L193.67 102.051L194.068 102.303L194.172 102.554L194.384 102.806L195.293 103.058L195.415 103.309L192.686 103.561L191.252 103.813L190.572 104.065L190.227 104.316L190.001 104.568L189.873 104.82L189.792 105.072L189.712 105.323L189.635 105.575L189.958 105.827L190.275 106.079L190.624 106.33L190.678 106.582L190.227 106.834L190.135 107.085L190.181 107.337L190.275 107.589L190.135 107.841L190.181 108.092L190.275 108.344L190.181 108.596L190.09 108.848L190.045 109.099L189.712 109.351L189 109.603L189.916 109.855L190.227 110.106L190.678 110.358L191.131 110.61L191.639 110.861L191.917 111.113L191.988 111.365L192.061 111.617L192.135 111.868L192.604 112.12L192.853 112.372L193.114 112.624L193.767 112.875L195.537 113.127L201.826 113.379L200.588 113.63L197.463 113.882L195.662 114.134L195.415 114.386L195.293 114.637L195.055 114.889L194.712 115.141V115.393L194.94 115.644L195.293 115.896L196.181 116.148L198.251 116.4L200.788 116.651L202.264 116.903L200.788 117.155L199.454 117.406L198.089 117.658L197.929 117.91L201.194 118.162L203.176 118.413L204.907 118.665L208.629 118.917L211.65 119.169L214.289 119.42L212.749 119.672L211.65 119.924L210.945 120.176L212.011 120.427L216.773 120.679L212.377 120.931L205.435 121.182L200.393 121.434L197.463 121.686L197.016 121.938L198.089 122.189L199.275 122.441L198.251 122.693L196.451 122.945L192.061 123.196L192.364 123.448L194.172 123.7L196.59 123.951L197.016 124.203L197.772 124.455L198.415 124.707L199.275 124.958L203.414 125.21L210.945 125.462L222.963 125.714L233.036 125.965L233.71 126.217L221.932 126.469L211.65 126.721L204.395 126.972L199.823 127.224L199.275 127.476L199.098 127.727V127.979L199.638 128.231V128.483L198.924 128.734L198.251 128.986L197.312 129.238L198.582 129.49L200.393 129.741L202.486 129.993L205.435 130.245L210.599 130.497L219.485 130.748L234.392 131L226.811 131.252L220.932 131.503L214.687 131.755L205.978 132.007L199.823 132.259L197.312 132.51L196.872 132.762L196.451 133.014L195.919 133.266L195.415 133.517L195.662 133.769L195.537 134.021L196.59 134.273L200.009 134.524L206.539 134.776L215.92 135.028L209.593 135.279L203.414 135.531L199.454 135.783L196.59 136.035L196.451 136.286L196.872 136.538L197.016 136.79V137.042L197.463 137.293L198.089 137.545L198.924 137.797L199.823 138.048L198.582 138.3L197.463 138.552L196.315 138.804L196.181 139.055V139.307V139.559L196.59 139.811L197.463 140.062L198.415 140.314L199.275 140.566L200.2 140.818L201.402 141.069L204.144 141.321L208.629 141.573L212.749 141.824L215.92 142.076L220.443 142.328L226.811 142.58L235.087 142.831L232.372 143.083L230.437 143.335L235.79 143.587L241.013 143.838L231.717 144.09L218.555 144.342L208.011 144.594L201.194 144.845L197.772 145.097L196.048 145.349L194.94 145.6L193.294 145.852L191.131 146.104L189.597 146.356L189.523 146.607L189.833 146.859L192.287 147.111L195.293 147.363L200.788 147.614L210.599 147.866L227.985 148.118L236.503 148.37L212.749 148.621L202.713 148.873L199.823 149.125L198.924 149.376L198.251 149.628L197.616 149.88V150.132L197.772 150.383L197.463 150.635L197.312 150.887L197.163 151.139L197.463 151.39L197.616 151.642L198.751 151.894L200.2 152.145L201.613 152.397L202.486 152.649V152.901V153.152L203.176 153.404L204.144 153.656L205.435 153.908L207.114 154.159L208.629 154.411L206.824 154.663L207.708 154.915V155.166L206.539 155.418L207.708 155.67L210.259 155.921L213.896 156.173L216.773 156.425L218.555 156.677L220.443 156.928L223.488 157.18L227.394 157.432L232.372 157.684L241.013 157.935L249.457 158.187L254.163 158.439L244.244 158.691L234.392 158.942L226.236 159.194L220.443 159.446L219.96 159.697L221.428 159.949V160.201L220.932 160.453L219.017 160.704L214.289 160.956L211.294 161.208L208.946 161.46L210.945 161.711L215.504 161.963L221.932 162.215L231.072 162.466L225.672 162.718L212.749 162.97L202.486 163.222L193.574 163.473L191.378 163.725L191.507 163.977L195.173 164.229L207.708 164.48L215.094 164.732L219.485 164.984L222.443 165.236L245.931 165.487L270.514 165.739L289.35 165.991L279.453 166.242L261.351 166.494L248.556 166.746L238.708 166.998L232.372 167.249L225.672 167.501L222.443 167.753L225.114 168.005L228.584 168.256L238.708 168.508L252.238 168.76L257.154 169.012L228.584 169.263L219.485 169.515V169.767L235.79 170.018L263.914 170.27L308.252 170.522L378.15 170.774L544 171.025L504.831 171.277L359.668 171.529L280.806 171.781L254.163 172.032L237.228 172.284L224.564 172.536L215.504 172.788L209.923 173.039L201.402 173.291L201.613 173.543V173.794L214.289 174.046L223.488 174.298L237.963 174.55L248.556 174.801V175.053L235.79 175.305L229.193 175.557L244.244 175.808L265.799 176.06L428.168 176.312L478.3 176.564L442.598 176.815L395.559 177.067L344.681 177.319L306.214 177.57L277.132 177.822L255.145 178.074L226.236 178.326L226.811 178.577L242.605 178.829L274.234 179.081L276.805 179.333L272.975 179.584L263.543 179.836L246.793 180.088L238.708 180.339L239.465 180.591L227.394 180.843L212.011 181.095L210.259 181.346L213.507 181.598L215.504 181.85L216.344 182.102L215.504 182.353L216.773 182.605L221.428 182.857L229.193 183.109L242.605 183.36L262.439 183.612L284.984 183.864L307.083 184.115L323.857 184.367L301.963 184.619L280.806 184.871L266.952 185.122L256.142 185.374L247.668 185.626L240.234 185.878L231.072 186.129L224.564 186.381L221.428 186.633V186.885L229.193 187.136L237.963 187.388L247.668 187.64L255.145 187.891L242.605 188.143L231.717 188.395L249.457 188.647L278.119 188.898L327.892 189.15L345.254 189.402L323.857 189.654L284.984 189.905L265.799 190.157L249.457 190.409L225.114 190.66L204.649 190.912L194.712 191.164L192.061 191.416L191.639 191.667L192.287 191.919L193.574 192.171L196.181 192.423L199.275 192.674L202.713 192.926L206.824 193.178L212.377 193.43L227.394 193.681L239.465 193.933L214.687 194.185L201.402 194.436L196.59 194.688L193.967 194.94L191.378 195.192L190.898 195.443V195.695L192.364 195.947L195.173 196.199L196.729 196.45L196.872 196.702L197.163 196.954L199.275 197.206L201.826 197.457L200.99 197.709L200.788 197.961L208.629 198.212L231.717 198.464L297.06 198.716L329.953 198.968L292.367 199.219L248.556 199.471L218.099 199.723L205.435 199.975L204.649 200.226L211.65 200.478L220.932 200.73L230.437 200.982L243.419 201.233L224.564 201.485L202.264 201.737L194.94 201.988L191.776 202.24L193.025 202.492L196.59 202.744L196.729 202.995L196.872 203.247L197.929 203.499L199.823 203.751L202.713 204.002L205.978 204.254L207.708 204.506L209.593 204.758L212.377 205.009L210.599 205.261L206.539 205.513L201.402 205.764L202.264 206.016L205.169 206.268L207.114 206.52V206.771L206.539 207.023L206.256 207.275L205.978 207.527L216.773 207.778L222.963 208.03L222.443 208.282L215.094 208.533L208.318 208.785L198.251 209.037L196.048 209.289L194.825 209.54L194.601 209.792L194.068 210.044L193.479 210.296L192.939 210.547L192.604 210.799L192.211 211.051L191.776 211.303L191.988 211.554L192.364 211.806L192.686 212.058L192.939 212.309L193.294 212.561L193.967 212.813L193.025 213.065L192.443 213.316L192.135 213.568L192.443 213.82L192.939 214.072L193.386 214.323L193.67 214.575L193.386 214.827L193.202 215.079L195.293 215.33L198.751 215.582L203.654 215.834L210.945 216.085L215.094 216.337L204.649 216.589L197.463 216.841L193.767 217.092L194.94 217.344L195.415 217.596L196.048 217.848L196.451 218.099L196.729 218.351L198.089 218.603L202.264 218.854L209.593 219.106L200.2 219.358L198.582 219.61L198.415 219.861L202.486 220.113L203.654 220.365L205.169 220.617L207.114 220.868L212.011 221.12L216.344 221.372L208.946 221.624L204.395 221.875L202.486 222.127L201.402 222.379L201.613 222.63L200.788 222.882L200.99 223.134L201.613 223.386L202.486 223.637L198.415 223.889L197.772 224.141L197.312 224.393L197.463 224.644V224.896V225.148L197.616 225.4L198.089 225.651L198.582 225.903L199.098 226.155L199.454 226.406L199.823 226.658L199.454 226.91L198.924 227.162L198.415 227.413L197.929 227.665L197.463 227.917L197.929 228.169L198.089 228.42L198.251 228.672L198.415 228.924L200.788 229.176L207.708 229.427L219.485 229.679L227.394 229.931L231.072 230.182L212.749 230.434L210.945 230.686L208.318 230.938L209.267 231.189L212.011 231.441L211.294 231.693L207.114 231.945L202.713 232.196L199.454 232.448L196.729 232.7L196.451 232.952L200.99 233.203L200.009 233.455L197.312 233.707L196.315 233.958L198.089 234.21L205.169 234.462L200.788 234.714L196.729 234.965L194.492 235.217L193.202 235.469L192.523 235.721L192.061 235.972L191.707 236.224L191.378 236.476L191.131 236.727L190.898 236.979L191.013 237.231L191.071 237.483L190.898 237.734L190.841 237.986L191.013 238.238L191.191 238.49L190.898 238.741L190.678 238.993L190.732 239.245L190.786 239.497L190.841 239.748L190.786 240" stroke="white"/>
</g>
<defs>
<clipPath id="clip0_1433_32365">
<rect width="728" height="218" fill="white" transform="translate(2 22)"/>
</clipPath>
</defs>
</svg>
