<svg width="733" height="243" viewBox="0 0 733 243" fill="none" xmlns="http://www.w3.org/2000/svg">
<path d="M7.28027 171.069V170.229H14V171.213H8.96191L14 175.273V176.107H7.28027V175.13H12.3184L7.28027 171.069ZM14 163.16H11.0605V167.009H14V167.986H7.28027V167.009H10.1514V163.16H7.28027V162.176H14V163.16ZM13.0908 153.706H15.6816V154.684H14V160.077H15.6816V161.055H13.0908V160.569C13.0635 160.542 13.0179 160.501 12.9541 160.446C12.8857 160.387 12.7354 160.289 12.5029 160.152C12.2705 160.016 12.0199 159.895 11.751 159.79C11.4775 159.681 11.1152 159.585 10.6641 159.503C10.2083 159.416 9.73438 159.373 9.24219 159.373H7.28027V154.759H13.0908V153.706ZM8.18945 158.396H9.24219C10.0078 158.396 10.7096 158.489 11.3477 158.676C11.9857 158.863 12.4368 159.049 12.7012 159.236L13.0908 159.517V155.736H8.18945V158.396ZM11.0059 146.221L10.9922 151.683C11.5983 151.646 12.1224 151.398 12.5645 150.938C13.0065 150.473 13.2275 149.928 13.2275 149.304C13.2275 148.884 13.1341 148.495 12.9473 148.135C12.7604 147.775 12.5736 147.52 12.3867 147.369L12.1133 147.13L12.7422 146.501C12.7786 146.528 12.8311 146.569 12.8994 146.624C12.9632 146.674 13.0749 146.788 13.2344 146.966C13.3893 147.139 13.5283 147.328 13.6514 147.533C13.7699 147.734 13.8815 147.996 13.9863 148.319C14.0866 148.638 14.1367 148.966 14.1367 149.304C14.1367 150.22 13.7972 151.008 13.1182 151.669C12.4346 152.33 11.6074 152.66 10.6367 152.66C9.66602 152.66 8.84115 152.334 8.16211 151.683C7.47852 151.026 7.13672 150.256 7.13672 149.372C7.13672 148.456 7.45573 147.69 8.09375 147.075C8.72721 146.46 9.5293 146.152 10.5 146.152L11.0059 146.221ZM8.64746 147.868C8.25098 148.283 8.05273 148.784 8.05273 149.372C8.05273 149.96 8.26009 150.473 8.6748 150.91C9.08952 151.348 9.58171 151.605 10.1514 151.683V147.13C9.54525 147.203 9.04395 147.449 8.64746 147.868ZM12.1133 143.425H14V144.402H7.28027V143.425H10.8486L7.28027 140.068V138.872L10.0078 141.463L14 138.592V139.713L10.7119 142.092L12.1133 143.425ZM13.1182 137.122C12.4346 137.783 11.6074 138.113 10.6367 138.113C9.66602 138.113 8.84115 137.783 8.16211 137.122C7.47852 136.457 7.13672 135.668 7.13672 134.757C7.13672 134.233 7.25065 133.745 7.47852 133.294C7.70182 132.838 7.92513 132.512 8.14844 132.316L8.46973 132.022L9.16699 132.727C9.13965 132.745 9.10091 132.772 9.05078 132.809C9.00065 132.845 8.90951 132.927 8.77734 133.055C8.64518 133.178 8.53125 133.312 8.43555 133.458C8.33529 133.604 8.24642 133.793 8.16895 134.025C8.09147 134.258 8.05273 134.502 8.05273 134.757C8.05273 135.399 8.30339 135.958 8.80469 136.432C9.30143 136.901 9.91439 137.136 10.6436 137.136C11.3682 137.136 11.9811 136.901 12.4824 136.432C12.9792 135.958 13.2275 135.399 13.2275 134.757C13.2275 134.365 13.1341 133.993 12.9473 133.643C12.7604 133.292 12.5736 133.036 12.3867 132.877L12.1133 132.651L12.7422 131.954C12.7786 131.981 12.8311 132.025 12.8994 132.084C12.9632 132.139 13.0749 132.257 13.2344 132.439C13.3893 132.622 13.5283 132.813 13.6514 133.014C13.7699 133.214 13.8815 133.474 13.9863 133.793C14.0866 134.107 14.1367 134.429 14.1367 134.757C14.1367 135.673 13.7972 136.461 13.1182 137.122ZM13.0908 121.522H15.6816V122.5H14V127.894H15.6816V128.871H13.0908V128.386C13.0635 128.358 13.0179 128.317 12.9541 128.263C12.8857 128.203 12.7354 128.105 12.5029 127.969C12.2705 127.832 12.0199 127.711 11.751 127.606C11.4775 127.497 11.1152 127.401 10.6641 127.319C10.2083 127.233 9.73438 127.189 9.24219 127.189H7.28027V122.575H13.0908V121.522ZM8.18945 126.212H9.24219C10.0078 126.212 10.7096 126.305 11.3477 126.492C11.9857 126.679 12.4368 126.866 12.7012 127.053L13.0908 127.333V123.553H8.18945V126.212ZM12.4824 115.322C11.9811 114.839 11.3682 114.598 10.6436 114.598C9.91439 114.598 9.30143 114.839 8.80469 115.322C8.30339 115.801 8.05273 116.377 8.05273 117.052C8.05273 117.722 8.30339 118.298 8.80469 118.781C9.30143 119.26 9.91211 119.499 10.6367 119.499C11.3568 119.499 11.9697 119.26 12.4756 118.781C12.9769 118.298 13.2275 117.722 13.2275 117.052C13.2275 116.377 12.9792 115.801 12.4824 115.322ZM13.125 119.479C12.4505 120.144 11.6234 120.477 10.6436 120.477C9.65918 120.477 8.82975 120.144 8.15527 119.479C7.47624 118.809 7.13672 117.997 7.13672 117.045C7.13672 116.092 7.47624 115.284 8.15527 114.618C8.82975 113.953 9.65918 113.62 10.6436 113.62C11.6234 113.62 12.4505 113.953 13.125 114.618C13.7995 115.284 14.1367 116.092 14.1367 117.045C14.1367 117.997 13.7995 118.809 13.125 119.479ZM11.2725 109.628L14 111.583V112.779L10.5 110.257L7.28027 112.567V111.378L9.72754 109.628L7.28027 107.878V106.688L10.5 108.999L14 106.477V107.666L11.2725 109.628ZM12.4824 100.475C11.9811 99.9915 11.3682 99.75 10.6436 99.75C9.91439 99.75 9.30143 99.9915 8.80469 100.475C8.30339 100.953 8.05273 101.53 8.05273 102.204C8.05273 102.874 8.30339 103.451 8.80469 103.934C9.30143 104.412 9.91211 104.651 10.6367 104.651C11.3568 104.651 11.9697 104.412 12.4756 103.934C12.9769 103.451 13.2275 102.874 13.2275 102.204C13.2275 101.53 12.9792 100.953 12.4824 100.475ZM13.125 104.631C12.4505 105.296 11.6234 105.629 10.6436 105.629C9.65918 105.629 8.82975 105.296 8.15527 104.631C7.47624 103.961 7.13672 103.15 7.13672 102.197C7.13672 101.245 7.47624 100.436 8.15527 99.7705C8.82975 99.1051 9.65918 98.7725 10.6436 98.7725C11.6234 98.7725 12.4505 99.1051 13.125 99.7705C13.7995 100.436 14.1367 101.245 14.1367 102.197C14.1367 103.15 13.7995 103.961 13.125 104.631ZM13.0908 90.7881H15.6816V91.7656H14V97.1592H15.6816V98.1367H13.0908V97.6514C13.0635 97.624 13.0179 97.583 12.9541 97.5283C12.8857 97.4691 12.7354 97.3711 12.5029 97.2344C12.2705 97.0977 12.0199 96.9769 11.751 96.8721C11.4775 96.7627 11.1152 96.667 10.6641 96.585C10.2083 96.4984 9.73438 96.4551 9.24219 96.4551H7.28027V91.8408H13.0908V90.7881ZM8.18945 95.4775H9.24219C10.0078 95.4775 10.7096 95.571 11.3477 95.7578C11.9857 95.9447 12.4368 96.1315 12.7012 96.3184L13.0908 96.5986V92.8184H8.18945V95.4775ZM14 84.4238H11.0605V88.2725H14V89.25H7.28027V88.2725H10.1514V84.4238H7.28027V83.4395H14V84.4238ZM12.4824 76.5352C11.9811 76.0521 11.3682 75.8105 10.6436 75.8105C9.91439 75.8105 9.30143 76.0521 8.80469 76.5352C8.30339 77.0137 8.05273 77.5902 8.05273 78.2646C8.05273 78.9346 8.30339 79.5111 8.80469 79.9941C9.30143 80.4727 9.91211 80.7119 10.6367 80.7119C11.3568 80.7119 11.9697 80.4727 12.4756 79.9941C12.9769 79.5111 13.2275 78.9346 13.2275 78.2646C13.2275 77.5902 12.9792 77.0137 12.4824 76.5352ZM13.125 80.6914C12.4505 81.3568 11.6234 81.6895 10.6436 81.6895C9.65918 81.6895 8.82975 81.3568 8.15527 80.6914C7.47624 80.0215 7.13672 79.2103 7.13672 78.2578C7.13672 77.3053 7.47624 76.4964 8.15527 75.8311C8.82975 75.1657 9.65918 74.833 10.6436 74.833C11.6234 74.833 12.4505 75.1657 13.125 75.8311C13.7995 76.4964 14.1367 77.3053 14.1367 78.2578C14.1367 79.2103 13.7995 80.0215 13.125 80.6914ZM13.1182 72.5771C12.4346 73.238 11.6074 73.5684 10.6367 73.5684C9.66602 73.5684 8.84115 73.238 8.16211 72.5771C7.47852 71.9118 7.13672 71.1234 7.13672 70.2119C7.13672 69.6878 7.25065 69.2002 7.47852 68.749C7.70182 68.2933 7.92513 67.9674 8.14844 67.7715L8.46973 67.4775L9.16699 68.1816C9.13965 68.1999 9.10091 68.2272 9.05078 68.2637C9.00065 68.3001 8.90951 68.3822 8.77734 68.5098C8.64518 68.6328 8.53125 68.7673 8.43555 68.9131C8.33529 69.0589 8.24642 69.248 8.16895 69.4805C8.09147 69.7129 8.05273 69.9567 8.05273 70.2119C8.05273 70.8545 8.30339 71.4128 8.80469 71.8867C9.30143 72.3561 9.91439 72.5908 10.6436 72.5908C11.3682 72.5908 11.9811 72.3561 12.4824 71.8867C12.9792 71.4128 13.2275 70.8545 13.2275 70.2119C13.2275 69.82 13.1341 69.4486 12.9473 69.0977C12.7604 68.7467 12.5736 68.4915 12.3867 68.332L12.1133 68.1064L12.7422 67.4092C12.7786 67.4365 12.8311 67.4798 12.8994 67.5391C12.9632 67.5938 13.0749 67.7122 13.2344 67.8945C13.3893 68.0768 13.5283 68.2682 13.6514 68.4688C13.7699 68.6693 13.8815 68.929 13.9863 69.248C14.0866 69.5625 14.1367 69.8838 14.1367 70.2119C14.1367 71.1279 13.7972 71.9163 13.1182 72.5771ZM8.18945 66.7119H7.28027V60.9766H8.18945V63.3555H14V64.333H8.18945V66.7119ZM7.28027 54.5303V53.6895H14V54.6738H8.96191L14 58.7344V59.5684H7.28027V58.5908H12.3184L7.28027 54.5303Z" fill="white"/>
<path d="M30.0723 7.5H25.4238C25.4238 7.06706 25.4889 6.6748 25.6191 6.32324C25.7493 5.96842 25.9186 5.67383 26.127 5.43945C26.3385 5.20508 26.5697 4.99023 26.8203 4.79492C27.0742 4.59961 27.3265 4.4222 27.5771 4.2627C27.8278 4.09993 28.0573 3.94043 28.2656 3.78418C28.4772 3.62793 28.6481 3.44564 28.7783 3.2373C28.9085 3.02572 28.9736 2.79622 28.9736 2.54883C28.9736 2.19401 28.863 1.91406 28.6416 1.70898C28.4235 1.50391 28.1175 1.40137 27.7236 1.40137C27.5316 1.40137 27.3509 1.43717 27.1816 1.50879C27.0156 1.57715 26.8854 1.66016 26.791 1.75781C26.6999 1.85221 26.6185 1.94824 26.5469 2.0459C26.4785 2.14355 26.4313 2.22819 26.4053 2.2998L26.3711 2.40234L25.4727 2.00195C25.4857 1.95638 25.5036 1.89779 25.5264 1.82617C25.5524 1.75456 25.6208 1.6276 25.7314 1.44531C25.8454 1.26302 25.9772 1.10189 26.127 0.961914C26.2767 0.82194 26.4932 0.693359 26.7764 0.576172C27.0596 0.458984 27.3753 0.400391 27.7236 0.400391C28.4105 0.400391 28.9736 0.607096 29.4131 1.02051C29.8525 1.43392 30.0723 1.94336 30.0723 2.54883C30.0723 2.86784 30.0072 3.16406 29.877 3.4375C29.7467 3.71094 29.5807 3.94043 29.3789 4.12598C29.1803 4.30827 28.9508 4.49707 28.6904 4.69238C28.4333 4.88444 28.1826 5.06022 27.9385 5.21973C27.6943 5.37923 27.4535 5.57129 27.2158 5.7959C26.9814 6.01725 26.8008 6.25163 26.6738 6.49902H30.0723V7.5ZM33.9785 2.85156C34.6784 2.85156 35.2529 3.07292 35.7021 3.51562C36.1514 3.95833 36.376 4.51986 36.376 5.2002C36.376 5.90658 36.1465 6.48275 35.6875 6.92871C35.2285 7.37467 34.6247 7.59766 33.876 7.59766C33.557 7.59766 33.2542 7.56022 32.9678 7.48535C32.6813 7.40723 32.4437 7.31608 32.2549 7.21191C32.0693 7.10449 31.9082 6.99707 31.7715 6.88965C31.6348 6.78223 31.5371 6.69271 31.4785 6.62109L31.376 6.49902L32.0791 5.80078C32.0921 5.82031 32.1149 5.84961 32.1475 5.88867C32.18 5.92448 32.2533 5.98958 32.3672 6.08398C32.4811 6.17513 32.6016 6.25651 32.7285 6.32812C32.8555 6.39648 33.0215 6.45996 33.2266 6.51855C33.4349 6.57389 33.6514 6.60156 33.876 6.60156C34.2764 6.60156 34.61 6.4681 34.877 6.20117C35.1439 5.93424 35.2773 5.60059 35.2773 5.2002C35.2773 4.7998 35.1439 4.46615 34.877 4.19922C34.61 3.93229 34.2764 3.79883 33.876 3.79883C33.583 3.79883 33.3193 3.85254 33.085 3.95996C32.8538 4.06738 32.6943 4.1748 32.6064 4.28223L32.4795 4.44824H31.6787L31.8789 0.498047H35.9268V1.49902H32.8799L32.7773 3.14941C33.0443 2.95085 33.4447 2.85156 33.9785 2.85156Z" fill="white"/>
<rect x="39" y="4" width="1" height="6" transform="rotate(-90 39 4)" fill="white"/>
<path d="M28.3262 74.8313H29.1758V81.8333H28.0771V76.5354H26.8271V75.7834C27.2471 75.7379 27.5661 75.6386 27.7842 75.4856C28.0055 75.3293 28.1862 75.1112 28.3262 74.8313ZM33.5752 77.1848C34.2751 77.1848 34.8496 77.4062 35.2988 77.8489C35.748 78.2916 35.9727 78.8531 35.9727 79.5334C35.9727 80.2398 35.7432 80.816 35.2842 81.262C34.8252 81.7079 34.2214 81.9309 33.4727 81.9309C33.1536 81.9309 32.8509 81.8935 32.5645 81.8186C32.278 81.7405 32.0404 81.6493 31.8516 81.5452C31.666 81.4377 31.5049 81.3303 31.3682 81.2229C31.2314 81.1155 31.1338 81.026 31.0752 80.9543L30.9727 80.8323L31.6758 80.134C31.6888 80.1536 31.7116 80.1829 31.7441 80.2219C31.7767 80.2577 31.8499 80.3228 31.9639 80.4172C32.0778 80.5084 32.1982 80.5898 32.3252 80.6614C32.4521 80.7297 32.6182 80.7932 32.8232 80.8518C33.0316 80.9071 33.248 80.9348 33.4727 80.9348C33.873 80.9348 34.2067 80.8014 34.4736 80.5344C34.7406 80.2675 34.874 79.9338 34.874 79.5334C34.874 79.1331 34.7406 78.7994 34.4736 78.5325C34.2067 78.2655 33.873 78.1321 33.4727 78.1321C33.1797 78.1321 32.916 78.1858 32.6816 78.2932C32.4505 78.4006 32.291 78.5081 32.2031 78.6155L32.0762 78.7815H31.2754L31.4756 74.8313H35.5234V75.8323H32.4766L32.374 77.4827C32.641 77.2841 33.0413 77.1848 33.5752 77.1848Z" fill="white"/>
<rect x="39" y="78.3333" width="1" height="6" transform="rotate(-90 39 78.3333)" fill="white"/>
<path d="M27.9258 149.165H28.7754V156.167H27.6768V150.869H26.4268V150.117C26.8467 150.071 27.1657 149.972 27.3838 149.819C27.6051 149.663 27.7858 149.445 27.9258 149.165ZM31.3291 155.288C30.7594 154.634 30.4746 153.76 30.4746 152.666C30.4746 151.572 30.7594 150.7 31.3291 150.049C31.8988 149.394 32.597 149.067 33.4238 149.067C34.2507 149.067 34.9489 149.394 35.5186 150.049C36.0882 150.7 36.373 151.572 36.373 152.666C36.373 153.76 36.0882 154.634 35.5186 155.288C34.9489 155.939 34.2507 156.264 33.4238 156.264C32.597 156.264 31.8988 155.939 31.3291 155.288ZM34.7275 154.575C35.0921 154.109 35.2744 153.473 35.2744 152.666C35.2744 151.858 35.0921 151.224 34.7275 150.761C34.3662 150.299 33.9316 150.068 33.4238 150.068C32.916 150.068 32.4798 150.299 32.1152 150.761C31.7539 151.224 31.5732 151.858 31.5732 152.666C31.5732 153.473 31.7539 154.109 32.1152 154.575C32.4798 155.037 32.916 155.268 33.4238 155.268C33.9316 155.268 34.3662 155.037 34.7275 154.575Z" fill="white"/>
<rect x="39" y="152.667" width="1" height="6" transform="rotate(-90 39 152.667)" fill="white"/>
<path d="M30.9053 229.621C30.3356 228.967 30.0508 228.093 30.0508 226.999C30.0508 225.905 30.3356 225.033 30.9053 224.382C31.4749 223.728 32.1732 223.4 33 223.4C33.8268 223.4 34.5251 223.728 35.0947 224.382C35.6644 225.033 35.9492 225.905 35.9492 226.999C35.9492 228.093 35.6644 228.967 35.0947 229.621C34.5251 230.272 33.8268 230.598 33 230.598C32.1732 230.598 31.4749 230.272 30.9053 229.621ZM34.3037 228.908C34.6683 228.443 34.8506 227.806 34.8506 226.999C34.8506 226.192 34.6683 225.557 34.3037 225.095C33.9424 224.632 33.5078 224.401 33 224.401C32.4922 224.401 32.056 224.632 31.6914 225.095C31.3301 225.557 31.1494 226.192 31.1494 226.999C31.1494 227.806 31.3301 228.443 31.6914 228.908C32.056 229.37 32.4922 229.602 33 229.602C33.5078 229.602 33.9424 229.37 34.3037 228.908Z" fill="white"/>
<rect x="39" y="227" width="1" height="6" transform="rotate(-90 39 227)" fill="white"/>
<rect width="1" height="224" transform="translate(45 3)" fill="white"/>
<path d="M66.4824 167.051C65.9811 166.568 65.3682 166.326 64.6436 166.326C63.9144 166.326 63.3014 166.568 62.8047 167.051C62.3034 167.529 62.0527 168.106 62.0527 168.78C62.0527 169.45 62.3034 170.027 62.8047 170.51C63.3014 170.988 63.9121 171.228 64.6367 171.228C65.3568 171.228 65.9697 170.988 66.4756 170.51C66.9769 170.027 67.2275 169.45 67.2275 168.78C67.2275 168.106 66.9792 167.529 66.4824 167.051ZM67.125 171.207C66.4505 171.872 65.6234 172.205 64.6436 172.205C63.6592 172.205 62.8298 171.872 62.1553 171.207C61.4762 170.537 61.1367 169.726 61.1367 168.773C61.1367 167.821 61.4762 167.012 62.1553 166.347C62.8298 165.681 63.6592 165.349 64.6436 165.349C65.6234 165.349 66.4505 165.681 67.125 166.347C67.7995 167.012 68.1367 167.821 68.1367 168.773C68.1367 169.726 67.7995 170.537 67.125 171.207ZM64.7803 157.228C65.7236 157.228 66.5189 157.547 67.166 158.185C67.8132 158.823 68.1367 159.6 68.1367 160.516C68.1367 161.505 67.7607 162.311 67.0088 162.936C66.2523 163.56 65.1836 163.872 63.8027 163.872C60.7129 163.872 58.9629 162.73 58.5527 160.447C58.4707 159.951 58.3636 159.508 58.2314 159.121C58.0993 158.734 57.9899 158.474 57.9033 158.342L57.7803 158.137L58.5527 157.645C58.8809 158.018 59.1839 158.905 59.4619 160.304C59.6123 161.042 59.9632 161.639 60.5146 162.095C61.0615 162.546 61.8066 162.79 62.75 162.826C62.7135 162.808 62.6657 162.778 62.6064 162.737C62.5426 162.692 62.4378 162.598 62.292 162.457C62.1416 162.311 62.0072 162.152 61.8887 161.979C61.7702 161.805 61.6631 161.582 61.5674 161.309C61.4671 161.031 61.417 160.743 61.417 160.447C61.417 159.559 61.7451 158.8 62.4014 158.171C63.0531 157.542 63.846 157.228 64.7803 157.228ZM63.0371 162.149C63.5065 162.601 64.0876 162.826 64.7803 162.826C65.473 162.826 66.054 162.601 66.5234 162.149C66.9928 161.694 67.2275 161.149 67.2275 160.516C67.2275 159.882 66.9928 159.34 66.5234 158.889C66.054 158.433 65.473 158.205 64.7803 158.205C64.0876 158.205 63.5065 158.433 63.0371 158.889C62.5677 159.34 62.333 159.882 62.333 160.516C62.333 161.149 62.5677 161.694 63.0371 162.149ZM61.2803 155.402V152.326C61.2803 151.711 61.4466 151.219 61.7793 150.85C62.1074 150.48 62.5244 150.296 63.0303 150.296C63.3174 150.296 63.5794 150.367 63.8164 150.508C64.0488 150.645 64.2106 150.784 64.3018 150.925L64.4316 151.137C64.4408 151.109 64.4544 151.071 64.4727 151.021C64.4909 150.966 64.541 150.875 64.623 150.747C64.7005 150.615 64.7939 150.501 64.9033 150.405C65.0081 150.305 65.1608 150.216 65.3613 150.139C65.5618 150.057 65.7874 150.016 66.0381 150.016C66.6442 150.016 67.1227 150.205 67.4736 150.583C67.8245 150.961 68 151.494 68 152.183V155.402H61.2803ZM64.8486 152.183V154.425H67.0908V152.183C67.0908 151.8 66.9928 151.506 66.7969 151.301C66.6009 151.096 66.3252 150.993 65.9697 150.993C65.6143 150.993 65.3385 151.096 65.1426 151.301C64.9466 151.506 64.8486 151.8 64.8486 152.183ZM64.0078 152.326C64.0078 151.624 63.7048 151.273 63.0986 151.273C62.4925 151.273 62.1895 151.624 62.1895 152.326V154.425H64.0078V152.326ZM66.4824 143.467C65.9811 142.984 65.3682 142.742 64.6436 142.742C63.9144 142.742 63.3014 142.984 62.8047 143.467C62.3034 143.945 62.0527 144.522 62.0527 145.196C62.0527 145.866 62.3034 146.443 62.8047 146.926C63.3014 147.404 63.9121 147.644 64.6367 147.644C65.3568 147.644 65.9697 147.404 66.4756 146.926C66.9769 146.443 67.2275 145.866 67.2275 145.196C67.2275 144.522 66.9792 143.945 66.4824 143.467ZM67.125 147.623C66.4505 148.288 65.6234 148.621 64.6436 148.621C63.6592 148.621 62.8298 148.288 62.1553 147.623C61.4762 146.953 61.1367 146.142 61.1367 145.189C61.1367 144.237 61.4762 143.428 62.1553 142.763C62.8298 142.097 63.6592 141.765 64.6436 141.765C65.6234 141.765 66.4505 142.097 67.125 142.763C67.7995 143.428 68.1367 144.237 68.1367 145.189C68.1367 146.142 67.7995 146.953 67.125 147.623ZM67.0908 133.78H69.6816V134.758H68V140.151H69.6816V141.129H67.0908V140.644C67.0635 140.616 67.0179 140.575 66.9541 140.521C66.8857 140.461 66.7354 140.363 66.5029 140.227C66.2705 140.09 66.0199 139.969 65.751 139.864C65.4775 139.755 65.1152 139.659 64.6641 139.577C64.2083 139.491 63.7344 139.447 63.2422 139.447H61.2803V134.833H67.0908V133.78ZM62.1895 138.47H63.2422C64.0078 138.47 64.7096 138.563 65.3477 138.75C65.9857 138.937 66.4368 139.124 66.7012 139.311L67.0908 139.591V135.811H62.1895V138.47ZM68 127.416H65.0605V131.265H68V132.242H61.2803V131.265H64.1514V127.416H61.2803V126.432H68V127.416ZM65.0059 118.242L64.9922 123.704C65.5983 123.668 66.1224 123.419 66.5645 122.959C67.0065 122.494 67.2275 121.95 67.2275 121.325C67.2275 120.906 67.1341 120.516 66.9473 120.156C66.7604 119.796 66.5736 119.541 66.3867 119.391L66.1133 119.151L66.7422 118.522C66.7786 118.55 66.8311 118.591 66.8994 118.646C66.9632 118.696 67.0749 118.81 67.2344 118.987C67.3893 119.16 67.5283 119.35 67.6514 119.555C67.7699 119.755 67.8815 120.017 67.9863 120.341C68.0866 120.66 68.1367 120.988 68.1367 121.325C68.1367 122.241 67.7972 123.03 67.1182 123.69C66.4346 124.351 65.6074 124.682 64.6367 124.682C63.666 124.682 62.8411 124.356 62.1621 123.704C61.4785 123.048 61.1367 122.278 61.1367 121.394C61.1367 120.478 61.4557 119.712 62.0938 119.097C62.7272 118.481 63.5293 118.174 64.5 118.174L65.0059 118.242ZM62.6475 119.89C62.251 120.304 62.0527 120.806 62.0527 121.394C62.0527 121.981 62.2601 122.494 62.6748 122.932C63.0895 123.369 63.5817 123.627 64.1514 123.704V119.151C63.5452 119.224 63.0439 119.47 62.6475 119.89ZM68 111.598H65.0605V115.446H68V116.424H61.2803V115.446H64.1514V111.598H61.2803V110.613H68V111.598ZM68 103.545H65.0605V107.394H68V108.371H61.2803V107.394H64.1514V103.545H61.2803V102.561H68V103.545ZM66.4824 95.6562C65.9811 95.1732 65.3682 94.9316 64.6436 94.9316C63.9144 94.9316 63.3014 95.1732 62.8047 95.6562C62.3034 96.1348 62.0527 96.7113 62.0527 97.3857C62.0527 98.0557 62.3034 98.6322 62.8047 99.1152C63.3014 99.5938 63.9121 99.833 64.6367 99.833C65.3568 99.833 65.9697 99.5938 66.4756 99.1152C66.9769 98.6322 67.2275 98.0557 67.2275 97.3857C67.2275 96.7113 66.9792 96.1348 66.4824 95.6562ZM67.125 99.8125C66.4505 100.478 65.6234 100.811 64.6436 100.811C63.6592 100.811 62.8298 100.478 62.1553 99.8125C61.4762 99.1426 61.1367 98.3314 61.1367 97.3789C61.1367 96.4264 61.4762 95.6175 62.1553 94.9521C62.8298 94.2868 63.6592 93.9541 64.6436 93.9541C65.6234 93.9541 66.4505 94.2868 67.125 94.9521C67.7995 95.6175 68.1367 96.4264 68.1367 97.3789C68.1367 98.3314 67.7995 99.1426 67.125 99.8125ZM67.1182 91.6982C66.4346 92.359 65.6074 92.6895 64.6367 92.6895C63.666 92.6895 62.8411 92.359 62.1621 91.6982C61.4785 91.0329 61.1367 90.2445 61.1367 89.333C61.1367 88.8089 61.2507 88.3213 61.4785 87.8701C61.7018 87.4144 61.9251 87.0885 62.1484 86.8926L62.4697 86.5986L63.167 87.3027C63.1396 87.321 63.1009 87.3483 63.0508 87.3848C63.0007 87.4212 62.9095 87.5033 62.7773 87.6309C62.6452 87.7539 62.5312 87.8883 62.4355 88.0342C62.3353 88.18 62.2464 88.3691 62.1689 88.6016C62.0915 88.834 62.0527 89.0778 62.0527 89.333C62.0527 89.9756 62.3034 90.5339 62.8047 91.0078C63.3014 91.4772 63.9144 91.7119 64.6436 91.7119C65.3682 91.7119 65.9811 91.4772 66.4824 91.0078C66.9792 90.5339 67.2275 89.9756 67.2275 89.333C67.2275 88.9411 67.1341 88.5697 66.9473 88.2188C66.7604 87.8678 66.5736 87.6126 66.3867 87.4531L66.1133 87.2275L66.7422 86.5303C66.7786 86.5576 66.8311 86.6009 66.8994 86.6602C66.9632 86.7148 67.0749 86.8333 67.2344 87.0156C67.3893 87.1979 67.5283 87.3893 67.6514 87.5898C67.7699 87.7904 67.8815 88.0501 67.9863 88.3691C68.0866 88.6836 68.1367 89.0049 68.1367 89.333C68.1367 90.249 67.7972 91.0374 67.1182 91.6982ZM62.1895 85.833H61.2803V80.0977H62.1895V82.4766H68V83.4541H62.1895V85.833ZM67.0908 77.7119V75.9482C67.0908 75.5107 66.9678 75.1598 66.7217 74.8955C66.471 74.6266 66.1497 74.4922 65.7578 74.4922C65.3659 74.4922 65.0469 74.6266 64.8008 74.8955C64.5547 75.1598 64.4316 75.5153 64.4316 75.9619V77.7119H67.0908ZM64.1377 74.1709C64.5479 73.7334 65.0902 73.5146 65.7646 73.5146C66.4346 73.5146 66.9746 73.7311 67.3848 74.1641C67.7949 74.597 68 75.1917 68 75.9482V78.6895H61.2803V77.7119H63.5225V75.9619C63.5225 75.2054 63.7275 74.6084 64.1377 74.1709ZM66.7422 71.5527L67.3027 70.5684L69.8184 72.1816L69.4697 72.8105L66.7422 71.5527ZM68 65.3867L58.1973 59.2275V58.25L68 64.4092V65.3867ZM58.6963 62.8779C59.1201 62.4495 59.6305 62.2354 60.2275 62.2354C60.8245 62.2354 61.3372 62.4495 61.7656 62.8779C62.1895 63.3018 62.4014 63.8122 62.4014 64.4092C62.4014 65.0062 62.1895 65.5166 61.7656 65.9404C61.3372 66.3643 60.8245 66.5762 60.2275 66.5762C59.6305 66.5762 59.1201 66.3643 58.6963 65.9404C58.2725 65.5166 58.0605 65.0062 58.0605 64.4092C58.0605 63.8122 58.2725 63.3018 58.6963 62.8779ZM61.1846 63.5137C60.9294 63.2676 60.6104 63.1445 60.2275 63.1445C59.8447 63.1445 59.528 63.2676 59.2773 63.5137C59.0267 63.7552 58.9014 64.0537 58.9014 64.4092C58.9014 64.7601 59.0267 65.0586 59.2773 65.3047C59.528 65.5462 59.8447 65.667 60.2275 65.667C60.6104 65.667 60.9294 65.5462 61.1846 65.3047C61.4352 65.0586 61.5605 64.7601 61.5605 64.4092C61.5605 64.0537 61.4352 63.7552 61.1846 63.5137ZM67.501 60.7588C67.0771 61.1826 66.5667 61.3945 65.9697 61.3945C65.3727 61.3945 64.8623 61.1826 64.4385 60.7588C64.0146 60.335 63.8027 59.8245 63.8027 59.2275C63.8027 58.6305 64.0146 58.1201 64.4385 57.6963C64.8623 57.2679 65.3727 57.0537 65.9697 57.0537C66.5667 57.0537 67.0771 57.2679 67.501 57.6963C67.9248 58.1201 68.1367 58.6305 68.1367 59.2275C68.1367 59.8245 67.9248 60.335 67.501 60.7588ZM65.0195 60.123C65.2702 60.3646 65.5869 60.4854 65.9697 60.4854C66.3525 60.4854 66.6715 60.3646 66.9268 60.123C67.1774 59.8815 67.3027 59.583 67.3027 59.2275C67.3027 58.8721 67.1774 58.5736 66.9268 58.332C66.6715 58.0905 66.3525 57.9697 65.9697 57.9697C65.5869 57.9697 65.2702 58.0905 65.0195 58.332C64.7643 58.5736 64.6367 58.8721 64.6367 59.2275C64.6367 59.583 64.7643 59.8815 65.0195 60.123Z" fill="white"/>
<path d="M84.0723 7.5H79.4238C79.4238 7.06706 79.4889 6.6748 79.6191 6.32324C79.7493 5.96842 79.9186 5.67383 80.127 5.43945C80.3385 5.20508 80.5697 4.99023 80.8203 4.79492C81.0742 4.59961 81.3265 4.4222 81.5771 4.2627C81.8278 4.09993 82.0573 3.94043 82.2656 3.78418C82.4772 3.62793 82.6481 3.44564 82.7783 3.2373C82.9085 3.02572 82.9736 2.79622 82.9736 2.54883C82.9736 2.19401 82.863 1.91406 82.6416 1.70898C82.4235 1.50391 82.1175 1.40137 81.7236 1.40137C81.5316 1.40137 81.3509 1.43717 81.1816 1.50879C81.0156 1.57715 80.8854 1.66016 80.791 1.75781C80.6999 1.85221 80.6185 1.94824 80.5469 2.0459C80.4785 2.14355 80.4313 2.22819 80.4053 2.2998L80.3711 2.40234L79.4727 2.00195C79.4857 1.95638 79.5036 1.89779 79.5264 1.82617C79.5524 1.75456 79.6208 1.6276 79.7314 1.44531C79.8454 1.26302 79.9772 1.10189 80.127 0.961914C80.2767 0.82194 80.4932 0.693359 80.7764 0.576172C81.0596 0.458984 81.3753 0.400391 81.7236 0.400391C82.4105 0.400391 82.9736 0.607096 83.4131 1.02051C83.8525 1.43392 84.0723 1.94336 84.0723 2.54883C84.0723 2.86784 84.0072 3.16406 83.877 3.4375C83.7467 3.71094 83.5807 3.94043 83.3789 4.12598C83.1803 4.30827 82.9508 4.49707 82.6904 4.69238C82.4333 4.88444 82.1826 5.06022 81.9385 5.21973C81.6943 5.37923 81.4535 5.57129 81.2158 5.7959C80.9814 6.01725 80.8008 6.25163 80.6738 6.49902H84.0723V7.5ZM87.9785 2.85156C88.6784 2.85156 89.2529 3.07292 89.7021 3.51562C90.1514 3.95833 90.376 4.51986 90.376 5.2002C90.376 5.90658 90.1465 6.48275 89.6875 6.92871C89.2285 7.37467 88.6247 7.59766 87.876 7.59766C87.557 7.59766 87.2542 7.56022 86.9678 7.48535C86.6813 7.40723 86.4437 7.31608 86.2549 7.21191C86.0693 7.10449 85.9082 6.99707 85.7715 6.88965C85.6348 6.78223 85.5371 6.69271 85.4785 6.62109L85.376 6.49902L86.0791 5.80078C86.0921 5.82031 86.1149 5.84961 86.1475 5.88867C86.18 5.92448 86.2533 5.98958 86.3672 6.08398C86.4811 6.17513 86.6016 6.25651 86.7285 6.32812C86.8555 6.39648 87.0215 6.45996 87.2266 6.51855C87.4349 6.57389 87.6514 6.60156 87.876 6.60156C88.2764 6.60156 88.61 6.4681 88.877 6.20117C89.1439 5.93424 89.2773 5.60059 89.2773 5.2002C89.2773 4.7998 89.1439 4.46615 88.877 4.19922C88.61 3.93229 88.2764 3.79883 87.876 3.79883C87.583 3.79883 87.3193 3.85254 87.085 3.95996C86.8538 4.06738 86.6943 4.1748 86.6064 4.28223L86.4795 4.44824H85.6787L85.8789 0.498047H89.9268V1.49902H86.8799L86.7773 3.14941C87.0443 2.95085 87.4447 2.85156 87.9785 2.85156Z" fill="white"/>
<rect x="93" y="4" width="1" height="6" transform="rotate(-90 93 4)" fill="white"/>
<path d="M82.3262 74.8313H83.1758V81.8333H82.0771V76.5354H80.8271V75.7834C81.2471 75.7379 81.5661 75.6386 81.7842 75.4856C82.0055 75.3293 82.1862 75.1112 82.3262 74.8313ZM87.5752 77.1848C88.2751 77.1848 88.8496 77.4062 89.2988 77.8489C89.748 78.2916 89.9727 78.8531 89.9727 79.5334C89.9727 80.2398 89.7432 80.816 89.2842 81.262C88.8252 81.7079 88.2214 81.9309 87.4727 81.9309C87.1536 81.9309 86.8509 81.8935 86.5645 81.8186C86.278 81.7405 86.0404 81.6493 85.8516 81.5452C85.666 81.4377 85.5049 81.3303 85.3682 81.2229C85.2314 81.1155 85.1338 81.026 85.0752 80.9543L84.9727 80.8323L85.6758 80.134C85.6888 80.1536 85.7116 80.1829 85.7441 80.2219C85.7767 80.2577 85.8499 80.3228 85.9639 80.4172C86.0778 80.5084 86.1982 80.5898 86.3252 80.6614C86.4521 80.7297 86.6182 80.7932 86.8232 80.8518C87.0316 80.9071 87.248 80.9348 87.4727 80.9348C87.873 80.9348 88.2067 80.8014 88.4736 80.5344C88.7406 80.2675 88.874 79.9338 88.874 79.5334C88.874 79.1331 88.7406 78.7994 88.4736 78.5325C88.2067 78.2655 87.873 78.1321 87.4727 78.1321C87.1797 78.1321 86.916 78.1858 86.6816 78.2932C86.4505 78.4006 86.291 78.5081 86.2031 78.6155L86.0762 78.7815H85.2754L85.4756 74.8313H89.5234V75.8323H86.4766L86.374 77.4827C86.641 77.2841 87.0413 77.1848 87.5752 77.1848Z" fill="white"/>
<rect x="93" y="78.3333" width="1" height="6" transform="rotate(-90 93 78.3333)" fill="white"/>
<path d="M81.9258 149.165H82.7754V156.167H81.6768V150.869H80.4268V150.117C80.8467 150.071 81.1657 149.972 81.3838 149.819C81.6051 149.663 81.7858 149.445 81.9258 149.165ZM85.3291 155.288C84.7594 154.634 84.4746 153.76 84.4746 152.666C84.4746 151.572 84.7594 150.7 85.3291 150.049C85.8988 149.394 86.597 149.067 87.4238 149.067C88.2507 149.067 88.9489 149.394 89.5186 150.049C90.0882 150.7 90.373 151.572 90.373 152.666C90.373 153.76 90.0882 154.634 89.5186 155.288C88.9489 155.939 88.2507 156.264 87.4238 156.264C86.597 156.264 85.8988 155.939 85.3291 155.288ZM88.7275 154.575C89.0921 154.109 89.2744 153.473 89.2744 152.666C89.2744 151.858 89.0921 151.224 88.7275 150.761C88.3662 150.299 87.9316 150.068 87.4238 150.068C86.916 150.068 86.4798 150.299 86.1152 150.761C85.7539 151.224 85.5732 151.858 85.5732 152.666C85.5732 153.473 85.7539 154.109 86.1152 154.575C86.4798 155.037 86.916 155.268 87.4238 155.268C87.9316 155.268 88.3662 155.037 88.7275 154.575Z" fill="white"/>
<rect x="93" y="152.667" width="1" height="6" transform="rotate(-90 93 152.667)" fill="white"/>
<path d="M84.9053 229.621C84.3356 228.967 84.0508 228.093 84.0508 226.999C84.0508 225.905 84.3356 225.033 84.9053 224.382C85.4749 223.728 86.1732 223.4 87 223.4C87.8268 223.4 88.5251 223.728 89.0947 224.382C89.6644 225.033 89.9492 225.905 89.9492 226.999C89.9492 228.093 89.6644 228.967 89.0947 229.621C88.5251 230.272 87.8268 230.598 87 230.598C86.1732 230.598 85.4749 230.272 84.9053 229.621ZM88.3037 228.908C88.6683 228.443 88.8506 227.806 88.8506 226.999C88.8506 226.192 88.6683 225.557 88.3037 225.095C87.9424 224.632 87.5078 224.401 87 224.401C86.4922 224.401 86.056 224.632 85.6914 225.095C85.3301 225.557 85.1494 226.192 85.1494 226.999C85.1494 227.806 85.3301 228.443 85.6914 228.908C86.056 229.37 86.4922 229.602 87 229.602C87.5078 229.602 87.9424 229.37 88.3037 228.908Z" fill="white"/>
<rect x="93" y="227" width="1" height="6" transform="rotate(-90 93 227)" fill="white"/>
<rect width="1" height="224" transform="translate(99 3)" fill="white"/>
<path d="M121.091 179.37H123.682V180.348H122V185.741H123.682V186.719H121.091V186.233C121.063 186.206 121.018 186.165 120.954 186.11C120.886 186.051 120.735 185.953 120.503 185.816C120.271 185.68 120.02 185.559 119.751 185.454C119.478 185.345 119.115 185.249 118.664 185.167C118.208 185.08 117.734 185.037 117.242 185.037H115.28V180.423H121.091V179.37ZM116.189 184.06H117.242C118.008 184.06 118.71 184.153 119.348 184.34C119.986 184.527 120.437 184.714 120.701 184.9L121.091 185.181V181.4H116.189V184.06ZM119.006 171.885L118.992 177.347C119.598 177.31 120.122 177.062 120.564 176.602C121.007 176.137 121.228 175.592 121.228 174.968C121.228 174.549 121.134 174.159 120.947 173.799C120.76 173.439 120.574 173.184 120.387 173.033L120.113 172.794L120.742 172.165C120.779 172.192 120.831 172.233 120.899 172.288C120.963 172.338 121.075 172.452 121.234 172.63C121.389 172.803 121.528 172.992 121.651 173.197C121.77 173.398 121.882 173.66 121.986 173.983C122.087 174.302 122.137 174.631 122.137 174.968C122.137 175.884 121.797 176.672 121.118 177.333C120.435 177.994 119.607 178.324 118.637 178.324C117.666 178.324 116.841 177.998 116.162 177.347C115.479 176.69 115.137 175.92 115.137 175.036C115.137 174.12 115.456 173.354 116.094 172.739C116.727 172.124 117.529 171.816 118.5 171.816L119.006 171.885ZM116.647 173.532C116.251 173.947 116.053 174.448 116.053 175.036C116.053 175.624 116.26 176.137 116.675 176.574C117.09 177.012 117.582 177.269 118.151 177.347V172.794C117.545 172.867 117.044 173.113 116.647 173.532ZM118.78 163.702C119.724 163.702 120.519 164.021 121.166 164.659C121.813 165.297 122.137 166.074 122.137 166.99C122.137 167.979 121.761 168.786 121.009 169.41C120.252 170.035 119.184 170.347 117.803 170.347C114.713 170.347 112.963 169.205 112.553 166.922C112.471 166.425 112.364 165.983 112.231 165.596C112.099 165.208 111.99 164.949 111.903 164.816L111.78 164.611L112.553 164.119C112.881 164.493 113.184 165.379 113.462 166.778C113.612 167.517 113.963 168.114 114.515 168.569C115.062 169.021 115.807 169.264 116.75 169.301C116.714 169.283 116.666 169.253 116.606 169.212C116.543 169.166 116.438 169.073 116.292 168.932C116.142 168.786 116.007 168.626 115.889 168.453C115.77 168.28 115.663 168.057 115.567 167.783C115.467 167.505 115.417 167.218 115.417 166.922C115.417 166.033 115.745 165.274 116.401 164.646C117.053 164.017 117.846 163.702 118.78 163.702ZM117.037 168.624C117.507 169.075 118.088 169.301 118.78 169.301C119.473 169.301 120.054 169.075 120.523 168.624C120.993 168.168 121.228 167.624 121.228 166.99C121.228 166.357 120.993 165.814 120.523 165.363C120.054 164.908 119.473 164.68 118.78 164.68C118.088 164.68 117.507 164.908 117.037 165.363C116.568 165.814 116.333 166.357 116.333 166.99C116.333 167.624 116.568 168.168 117.037 168.624ZM115.28 156.839V155.998H122V156.982H116.962L122 161.043V161.877H115.28V160.899H120.318L115.28 156.839ZM116.189 154.597H115.28V148.861H116.189V151.24H122V152.218H116.189V154.597ZM122 139.961H119.061V143.81H122V144.787H115.28V143.81H118.151V139.961H115.28V138.977H122V139.961ZM119.006 130.787L118.992 136.249C119.598 136.213 120.122 135.964 120.564 135.504C121.007 135.039 121.228 134.494 121.228 133.87C121.228 133.451 121.134 133.061 120.947 132.701C120.76 132.341 120.574 132.086 120.387 131.936L120.113 131.696L120.742 131.067C120.779 131.095 120.831 131.136 120.899 131.19C120.963 131.241 121.075 131.354 121.234 131.532C121.389 131.705 121.528 131.895 121.651 132.1C121.77 132.3 121.882 132.562 121.986 132.886C122.087 133.205 122.137 133.533 122.137 133.87C122.137 134.786 121.797 135.575 121.118 136.235C120.435 136.896 119.607 137.227 118.637 137.227C117.666 137.227 116.841 136.901 116.162 136.249C115.479 135.593 115.137 134.823 115.137 133.938C115.137 133.022 115.456 132.257 116.094 131.642C116.727 131.026 117.529 130.719 118.5 130.719L119.006 130.787ZM116.647 132.435C116.251 132.849 116.053 133.351 116.053 133.938C116.053 134.526 116.26 135.039 116.675 135.477C117.09 135.914 117.582 136.172 118.151 136.249V131.696C117.545 131.769 117.044 132.015 116.647 132.435ZM118.637 128.483C119.393 128.483 120.015 128.219 120.503 127.69C120.986 127.162 121.228 126.469 121.228 125.612H116.053C116.053 126.469 116.297 127.162 116.784 127.69C117.272 128.219 117.889 128.483 118.637 128.483ZM118.637 121.764C117.889 121.764 117.272 122.028 116.784 122.557C116.297 123.081 116.053 123.773 116.053 124.635H121.228C121.228 123.778 120.986 123.085 120.503 122.557C120.015 122.028 119.393 121.764 118.637 121.764ZM122.137 124.635H124.939V125.612H122.137C122.137 126.752 121.804 127.679 121.139 128.395C120.473 129.105 119.642 129.461 118.644 129.461C117.641 129.461 116.807 129.105 116.142 128.395C115.472 127.679 115.137 126.752 115.137 125.612H112.197V124.635H115.137C115.137 123.495 115.472 122.568 116.142 121.853C116.807 121.137 117.641 120.779 118.644 120.779C119.642 120.779 120.473 121.137 121.139 121.853C121.804 122.568 122.137 123.495 122.137 124.635ZM116.189 119.87H115.28V114.135H116.189V116.514H122V117.491H116.189V119.87ZM115.28 107.688V106.848H122V107.832H116.962L122 111.893V112.727H115.28V111.749H120.318L115.28 107.688ZM120.742 104.4L121.303 103.416L123.818 105.029L123.47 105.658L120.742 104.4ZM116.189 99.7725H115.28V94.0371H116.189V96.416H122V97.3936H116.189V99.7725ZM120.482 87.9668C119.981 87.4837 119.368 87.2422 118.644 87.2422C117.914 87.2422 117.301 87.4837 116.805 87.9668C116.303 88.4453 116.053 89.0218 116.053 89.6963C116.053 90.3662 116.303 90.9427 116.805 91.4258C117.301 91.9043 117.912 92.1436 118.637 92.1436C119.357 92.1436 119.97 91.9043 120.476 91.4258C120.977 90.9427 121.228 90.3662 121.228 89.6963C121.228 89.0218 120.979 88.4453 120.482 87.9668ZM121.125 92.123C120.451 92.7884 119.623 93.1211 118.644 93.1211C117.659 93.1211 116.83 92.7884 116.155 92.123C115.476 91.4531 115.137 90.6419 115.137 89.6895C115.137 88.737 115.476 87.9281 116.155 87.2627C116.83 86.5973 117.659 86.2646 118.644 86.2646C119.623 86.2646 120.451 86.5973 121.125 87.2627C121.799 87.9281 122.137 88.737 122.137 89.6895C122.137 90.6419 121.799 91.4531 121.125 92.123ZM122 79.6816H119.061V83.5303H122V84.5078H115.28V83.5303H118.151V79.6816H115.28V78.6973H122V79.6816ZM122 71.6289H119.061V75.4775H122V76.4551H115.28V75.4775H118.151V71.6289H115.28V70.6445H122V71.6289ZM112.061 63.8564L124.939 68.0537V68.9629L112.061 64.7656V63.8564ZM121.118 61.8193C120.435 62.4801 119.607 62.8105 118.637 62.8105C117.666 62.8105 116.841 62.4801 116.162 61.8193C115.479 61.154 115.137 60.3656 115.137 59.4541C115.137 58.93 115.251 58.4424 115.479 57.9912C115.702 57.5355 115.925 57.2096 116.148 57.0137L116.47 56.7197L117.167 57.4238C117.14 57.4421 117.101 57.4694 117.051 57.5059C117.001 57.5423 116.91 57.6243 116.777 57.752C116.645 57.875 116.531 58.0094 116.436 58.1553C116.335 58.3011 116.246 58.4902 116.169 58.7227C116.091 58.9551 116.053 59.1989 116.053 59.4541C116.053 60.0967 116.303 60.6549 116.805 61.1289C117.301 61.5983 117.914 61.833 118.644 61.833C119.368 61.833 119.981 61.5983 120.482 61.1289C120.979 60.6549 121.228 60.0967 121.228 59.4541C121.228 59.0622 121.134 58.6908 120.947 58.3398C120.76 57.9889 120.574 57.7337 120.387 57.5742L120.113 57.3486L120.742 56.6514C120.779 56.6787 120.831 56.722 120.899 56.7812C120.963 56.8359 121.075 56.9544 121.234 57.1367C121.389 57.319 121.528 57.5104 121.651 57.7109C121.77 57.9115 121.882 58.1712 121.986 58.4902C122.087 58.8047 122.137 59.126 122.137 59.4541C122.137 60.3701 121.797 61.1585 121.118 61.8193ZM122.978 53.6436L122 53.2949L115.28 56.0293V54.9766L120.742 52.8027L115.28 50.6357V49.583L122.978 52.666C123.688 52.944 124.192 53.2425 124.488 53.5615C124.789 53.8805 124.939 54.2816 124.939 54.7646C124.939 54.915 124.928 55.0609 124.905 55.2021C124.882 55.3389 124.857 55.4414 124.83 55.5098L124.803 55.6055H123.887C123.978 55.373 124.026 55.1406 124.03 54.9082C124.03 54.3158 123.679 53.8942 122.978 53.6436ZM116.189 49.0908H115.28V43.3555H116.189V45.7344H122V46.7119H116.189V49.0908Z" fill="white"/>
<rect x="152" y="4" width="1" height="2" transform="rotate(-90 152 4)" fill="white"/>
<rect x="150" y="4" width="1" height="4" transform="rotate(-90 150 4)" fill="white"/>
<rect x="152" y="4" width="1" height="2" transform="rotate(-90 152 4)" fill="white"/>
<path d="M137.049 3.79883C137.081 3.81185 137.125 3.83138 137.181 3.85742C137.239 3.88021 137.34 3.9388 137.483 4.0332C137.627 4.12435 137.754 4.23014 137.864 4.35059C137.975 4.47103 138.074 4.63867 138.162 4.85352C138.253 5.0651 138.299 5.29785 138.299 5.55176C138.299 6.12467 138.069 6.6097 137.61 7.00684C137.155 7.40072 136.551 7.59766 135.799 7.59766C135.48 7.59766 135.177 7.56022 134.891 7.48535C134.604 7.40723 134.367 7.31608 134.178 7.21191C133.992 7.10449 133.831 6.99707 133.694 6.88965C133.558 6.78223 133.458 6.69271 133.396 6.62109L133.299 6.49902L133.997 5.80078C134.01 5.82031 134.033 5.84961 134.065 5.88867C134.101 5.92448 134.176 5.98958 134.29 6.08398C134.404 6.17513 134.523 6.25651 134.646 6.32812C134.773 6.39648 134.939 6.45996 135.145 6.51855C135.353 6.57389 135.571 6.60156 135.799 6.60156C136.232 6.60156 136.574 6.4974 136.824 6.28906C137.075 6.07747 137.2 5.81543 137.2 5.50293C137.2 5.18717 137.075 4.92513 136.824 4.7168C136.574 4.50521 136.232 4.39941 135.799 4.39941H135.101V3.39844H135.799C136.144 3.39844 136.412 3.30892 136.604 3.12988C136.8 2.95085 136.897 2.70833 136.897 2.40234C136.897 2.0931 136.8 1.84896 136.604 1.66992C136.412 1.49089 136.144 1.40137 135.799 1.40137C135.506 1.40137 135.229 1.46484 134.969 1.5918C134.708 1.71875 134.524 1.84082 134.417 1.95801L134.251 2.14844L133.548 1.4502C133.567 1.42415 133.597 1.38835 133.636 1.34277C133.678 1.29395 133.769 1.20768 133.909 1.08398C134.049 0.960286 134.199 0.854492 134.358 0.766602C134.518 0.675456 134.728 0.592448 134.988 0.517578C135.249 0.439453 135.519 0.400391 135.799 0.400391C136.486 0.400391 137.024 0.577799 137.415 0.932617C137.806 1.28418 138.001 1.73991 138.001 2.2998C138.001 2.49186 137.967 2.67741 137.898 2.85645C137.833 3.03223 137.754 3.17546 137.659 3.28613C137.565 3.39681 137.472 3.49284 137.381 3.57422C137.293 3.65234 137.215 3.70768 137.146 3.74023L137.049 3.79883ZM140.257 6.62109C139.687 5.9668 139.402 5.09277 139.402 3.99902C139.402 2.90527 139.687 2.03288 140.257 1.38184C140.826 0.727539 141.525 0.400391 142.352 0.400391C143.178 0.400391 143.877 0.727539 144.446 1.38184C145.016 2.03288 145.301 2.90527 145.301 3.99902C145.301 5.09277 145.016 5.9668 144.446 6.62109C143.877 7.27214 143.178 7.59766 142.352 7.59766C141.525 7.59766 140.826 7.27214 140.257 6.62109ZM143.655 5.9082C144.02 5.44271 144.202 4.80632 144.202 3.99902C144.202 3.19173 144.02 2.55697 143.655 2.09473C143.294 1.63249 142.859 1.40137 142.352 1.40137C141.844 1.40137 141.408 1.63249 141.043 2.09473C140.682 2.55697 140.501 3.19173 140.501 3.99902C140.501 4.80632 140.682 5.44271 141.043 5.9082C141.408 6.37044 141.844 6.60156 142.352 6.60156C142.859 6.60156 143.294 6.37044 143.655 5.9082Z" fill="white"/>
<rect x="148" y="4" width="1" height="6" transform="rotate(-90 148 4)" fill="white"/>
<path d="M137.326 74.8313H138.176V81.8333H137.077V76.5354H135.827V75.7834C136.247 75.7379 136.566 75.6386 136.784 75.4856C137.006 75.3293 137.186 75.1112 137.326 74.8313ZM142.575 77.1848C143.275 77.1848 143.85 77.4062 144.299 77.8489C144.748 78.2916 144.973 78.8531 144.973 79.5334C144.973 80.2398 144.743 80.816 144.284 81.262C143.825 81.7079 143.221 81.9309 142.473 81.9309C142.154 81.9309 141.851 81.8935 141.564 81.8186C141.278 81.7405 141.04 81.6493 140.852 81.5452C140.666 81.4377 140.505 81.3303 140.368 81.2229C140.231 81.1155 140.134 81.026 140.075 80.9543L139.973 80.8323L140.676 80.134C140.689 80.1536 140.712 80.1829 140.744 80.2219C140.777 80.2577 140.85 80.3228 140.964 80.4172C141.078 80.5084 141.198 80.5898 141.325 80.6614C141.452 80.7297 141.618 80.7932 141.823 80.8518C142.032 80.9071 142.248 80.9348 142.473 80.9348C142.873 80.9348 143.207 80.8014 143.474 80.5344C143.741 80.2675 143.874 79.9338 143.874 79.5334C143.874 79.1331 143.741 78.7994 143.474 78.5325C143.207 78.2655 142.873 78.1321 142.473 78.1321C142.18 78.1321 141.916 78.1858 141.682 78.2932C141.451 78.4006 141.291 78.5081 141.203 78.6155L141.076 78.7815H140.275L140.476 74.8313H144.523V75.8323H141.477L141.374 77.4827C141.641 77.2841 142.041 77.1848 142.575 77.1848Z" fill="white"/>
<rect x="148" y="78.3333" width="1" height="6" transform="rotate(-90 148 78.3333)" fill="white"/>
<path d="M136.926 149.165H137.775V156.167H136.677V150.869H135.427V150.117C135.847 150.071 136.166 149.972 136.384 149.819C136.605 149.663 136.786 149.445 136.926 149.165ZM140.329 155.288C139.759 154.634 139.475 153.76 139.475 152.666C139.475 151.572 139.759 150.7 140.329 150.049C140.899 149.394 141.597 149.067 142.424 149.067C143.251 149.067 143.949 149.394 144.519 150.049C145.088 150.7 145.373 151.572 145.373 152.666C145.373 153.76 145.088 154.634 144.519 155.288C143.949 155.939 143.251 156.264 142.424 156.264C141.597 156.264 140.899 155.939 140.329 155.288ZM143.728 154.575C144.092 154.109 144.274 153.473 144.274 152.666C144.274 151.858 144.092 151.224 143.728 150.761C143.366 150.299 142.932 150.068 142.424 150.068C141.916 150.068 141.48 150.299 141.115 150.761C140.754 151.224 140.573 151.858 140.573 152.666C140.573 153.473 140.754 154.109 141.115 154.575C141.48 155.037 141.916 155.268 142.424 155.268C142.932 155.268 143.366 155.037 143.728 154.575Z" fill="white"/>
<rect x="148" y="152.667" width="1" height="6" transform="rotate(-90 148 152.667)" fill="white"/>
<path d="M139.905 229.621C139.336 228.967 139.051 228.093 139.051 226.999C139.051 225.905 139.336 225.033 139.905 224.382C140.475 223.728 141.173 223.4 142 223.4C142.827 223.4 143.525 223.728 144.095 224.382C144.664 225.033 144.949 225.905 144.949 226.999C144.949 228.093 144.664 228.967 144.095 229.621C143.525 230.272 142.827 230.598 142 230.598C141.173 230.598 140.475 230.272 139.905 229.621ZM143.304 228.908C143.668 228.443 143.851 227.806 143.851 226.999C143.851 226.192 143.668 225.557 143.304 225.095C142.942 224.632 142.508 224.401 142 224.401C141.492 224.401 141.056 224.632 140.691 225.095C140.33 225.557 140.149 226.192 140.149 226.999C140.149 227.806 140.33 228.443 140.691 228.908C141.056 229.37 141.492 229.602 142 229.602C142.508 229.602 142.942 229.37 143.304 228.908Z" fill="white"/>
<rect x="148" y="227" width="1" height="6" transform="rotate(-90 148 227)" fill="white"/>
<g clip-path="url(#clip0_1433_32303)">
<rect width="1" height="224" transform="translate(154 3)" fill="white"/>
<rect width="573" height="1" transform="translate(154 226)" fill="white"/>
<path d="M154 99.8292L261.976 118.708L380.25 88.4139L498.971 109.049L616.797 40.4352L727 33.4104" stroke="white"/>
<path d="M154 153.93L262.054 162.47L380.42 109.916L499.235 131.603L617.153 57.8048L727 43.7947" stroke="white"/>
<path d="M154 184.722L262.054 175.758L380.42 136.4L499.235 168.542L617.153 80.8618L727 57.8879" stroke="white"/>
<path d="M154 204.788L262.054 204.521L380.42 217.357L499.235 191.417L617.153 199.707L727 178.046" stroke="white"/>
</g>
<rect x="154" y="227" width="1" height="6" fill="white"/>
<path d="M152.405 240.121C151.836 239.467 151.551 238.593 151.551 237.499C151.551 236.405 151.836 235.533 152.405 234.882C152.975 234.228 153.673 233.9 154.5 233.9C155.327 233.9 156.025 234.228 156.595 234.882C157.164 235.533 157.449 236.405 157.449 237.499C157.449 238.593 157.164 239.467 156.595 240.121C156.025 240.772 155.327 241.098 154.5 241.098C153.673 241.098 152.975 240.772 152.405 240.121ZM155.804 239.408C156.168 238.943 156.351 238.306 156.351 237.499C156.351 236.692 156.168 236.057 155.804 235.595C155.442 235.132 155.008 234.901 154.5 234.901C153.992 234.901 153.556 235.132 153.191 235.595C152.83 236.057 152.649 236.692 152.649 237.499C152.649 238.306 152.83 238.943 153.191 239.408C153.556 239.87 153.992 240.102 154.5 240.102C155.008 240.102 155.442 239.87 155.804 239.408Z" fill="white"/>
<rect x="268.4" y="227" width="1" height="6" fill="white"/>
<path d="M265.826 233.998H266.676V241H265.577V235.702H264.327V234.95C264.747 234.905 265.066 234.805 265.284 234.652C265.506 234.496 265.686 234.278 265.826 233.998ZM269.229 240.121C268.66 239.467 268.375 238.593 268.375 237.499C268.375 236.405 268.66 235.533 269.229 234.882C269.799 234.228 270.497 233.9 271.324 233.9C272.151 233.9 272.849 234.228 273.419 234.882C273.989 235.533 274.273 236.405 274.273 237.499C274.273 238.593 273.989 239.467 273.419 240.121C272.849 240.772 272.151 241.098 271.324 241.098C270.497 241.098 269.799 240.772 269.229 240.121ZM272.628 239.408C272.993 238.943 273.175 238.306 273.175 237.499C273.175 236.692 272.993 236.057 272.628 235.595C272.267 235.132 271.832 234.901 271.324 234.901C270.816 234.901 270.38 235.132 270.016 235.595C269.654 236.057 269.474 236.692 269.474 237.499C269.474 238.306 269.654 238.943 270.016 239.408C270.38 239.87 270.816 240.102 271.324 240.102C271.832 240.102 272.267 239.87 272.628 239.408Z" fill="white"/>
<rect x="382.8" y="227" width="1" height="6" fill="white"/>
<path d="M382.472 241H377.823C377.823 240.567 377.888 240.175 378.019 239.823C378.149 239.468 378.318 239.174 378.526 238.939C378.738 238.705 378.969 238.49 379.22 238.295C379.474 238.1 379.726 237.922 379.977 237.763C380.227 237.6 380.457 237.44 380.665 237.284C380.877 237.128 381.048 236.946 381.178 236.737C381.308 236.526 381.373 236.296 381.373 236.049C381.373 235.694 381.262 235.414 381.041 235.209C380.823 235.004 380.517 234.901 380.123 234.901C379.931 234.901 379.75 234.937 379.581 235.009C379.415 235.077 379.285 235.16 379.19 235.258C379.099 235.352 379.018 235.448 378.946 235.546C378.878 235.644 378.831 235.728 378.805 235.8L378.771 235.902L377.872 235.502C377.885 235.456 377.903 235.398 377.926 235.326C377.952 235.255 378.02 235.128 378.131 234.945C378.245 234.763 378.377 234.602 378.526 234.462C378.676 234.322 378.893 234.193 379.176 234.076C379.459 233.959 379.775 233.9 380.123 233.9C380.81 233.9 381.373 234.107 381.812 234.521C382.252 234.934 382.472 235.443 382.472 236.049C382.472 236.368 382.407 236.664 382.276 236.938C382.146 237.211 381.98 237.44 381.778 237.626C381.58 237.808 381.35 237.997 381.09 238.192C380.833 238.384 380.582 238.56 380.338 238.72C380.094 238.879 379.853 239.071 379.615 239.296C379.381 239.517 379.2 239.752 379.073 239.999H382.472V241ZM384.532 240.121C383.963 239.467 383.678 238.593 383.678 237.499C383.678 236.405 383.963 235.533 384.532 234.882C385.102 234.228 385.8 233.9 386.627 233.9C387.454 233.9 388.152 234.228 388.722 234.882C389.291 235.533 389.576 236.405 389.576 237.499C389.576 238.593 389.291 239.467 388.722 240.121C388.152 240.772 387.454 241.098 386.627 241.098C385.8 241.098 385.102 240.772 384.532 240.121ZM387.931 239.408C388.295 238.943 388.478 238.306 388.478 237.499C388.478 236.692 388.295 236.057 387.931 235.595C387.569 235.132 387.135 234.901 386.627 234.901C386.119 234.901 385.683 235.132 385.318 235.595C384.957 236.057 384.776 236.692 384.776 237.499C384.776 238.306 384.957 238.943 385.318 239.408C385.683 239.87 386.119 240.102 386.627 240.102C387.135 240.102 387.569 239.87 387.931 239.408Z" fill="white"/>
<rect x="497.2" y="227" width="1" height="6" fill="white"/>
<path d="M495.749 237.299C495.782 237.312 495.826 237.331 495.881 237.357C495.939 237.38 496.04 237.439 496.184 237.533C496.327 237.624 496.454 237.73 496.564 237.851C496.675 237.971 496.774 238.139 496.862 238.354C496.953 238.565 496.999 238.798 496.999 239.052C496.999 239.625 496.77 240.11 496.311 240.507C495.855 240.901 495.251 241.098 494.499 241.098C494.18 241.098 493.877 241.06 493.591 240.985C493.304 240.907 493.067 240.816 492.878 240.712C492.692 240.604 492.531 240.497 492.395 240.39C492.258 240.282 492.159 240.193 492.097 240.121L491.999 239.999L492.697 239.301C492.71 239.32 492.733 239.35 492.766 239.389C492.801 239.424 492.876 239.49 492.99 239.584C493.104 239.675 493.223 239.757 493.347 239.828C493.474 239.896 493.64 239.96 493.845 240.019C494.053 240.074 494.271 240.102 494.499 240.102C494.932 240.102 495.274 239.997 495.524 239.789C495.775 239.577 495.9 239.315 495.9 239.003C495.9 238.687 495.775 238.425 495.524 238.217C495.274 238.005 494.932 237.899 494.499 237.899H493.801V236.898H494.499C494.844 236.898 495.113 236.809 495.305 236.63C495.5 236.451 495.598 236.208 495.598 235.902C495.598 235.593 495.5 235.349 495.305 235.17C495.113 234.991 494.844 234.901 494.499 234.901C494.206 234.901 493.929 234.965 493.669 235.092C493.409 235.219 493.225 235.341 493.117 235.458L492.951 235.648L492.248 234.95C492.268 234.924 492.297 234.888 492.336 234.843C492.378 234.794 492.469 234.708 492.609 234.584C492.749 234.46 492.899 234.354 493.059 234.267C493.218 234.175 493.428 234.092 493.688 234.018C493.949 233.939 494.219 233.9 494.499 233.9C495.186 233.9 495.725 234.078 496.115 234.433C496.506 234.784 496.701 235.24 496.701 235.8C496.701 235.992 496.667 236.177 496.599 236.356C496.534 236.532 496.454 236.675 496.359 236.786C496.265 236.897 496.172 236.993 496.081 237.074C495.993 237.152 495.915 237.208 495.847 237.24L495.749 237.299ZM498.957 240.121C498.387 239.467 498.103 238.593 498.103 237.499C498.103 236.405 498.387 235.533 498.957 234.882C499.527 234.228 500.225 233.9 501.052 233.9C501.879 233.9 502.577 234.228 503.146 234.882C503.716 235.533 504.001 236.405 504.001 237.499C504.001 238.593 503.716 239.467 503.146 240.121C502.577 240.772 501.879 241.098 501.052 241.098C500.225 241.098 499.527 240.772 498.957 240.121ZM502.355 239.408C502.72 238.943 502.902 238.306 502.902 237.499C502.902 236.692 502.72 236.057 502.355 235.595C501.994 235.132 501.56 234.901 501.052 234.901C500.544 234.901 500.108 235.132 499.743 235.595C499.382 236.057 499.201 236.692 499.201 237.499C499.201 238.306 499.382 238.943 499.743 239.408C500.108 239.87 500.544 240.102 501.052 240.102C501.56 240.102 501.994 239.87 502.355 239.408Z" fill="white"/>
<rect x="611.6" y="227" width="1" height="6" fill="white"/>
<path d="M610.4 238.598H611.299V239.599H610.4V241H609.297V239.599H605.898V238.402L608.999 233.998H610.4V238.598ZM609.297 238.598V235.248L606.948 238.598H609.297ZM613.057 240.121C612.487 239.467 612.202 238.593 612.202 237.499C612.202 236.405 612.487 235.533 613.057 234.882C613.626 234.228 614.325 233.9 615.151 233.9C615.978 233.9 616.676 234.228 617.246 234.882C617.816 235.533 618.101 236.405 618.101 237.499C618.101 238.593 617.816 239.467 617.246 240.121C616.676 240.772 615.978 241.098 615.151 241.098C614.325 241.098 613.626 240.772 613.057 240.121ZM616.455 239.408C616.82 238.943 617.002 238.306 617.002 237.499C617.002 236.692 616.82 236.057 616.455 235.595C616.094 235.132 615.659 234.901 615.151 234.901C614.644 234.901 614.207 235.132 613.843 235.595C613.481 236.057 613.301 236.692 613.301 237.499C613.301 238.306 613.481 238.943 613.843 239.408C614.207 239.87 614.644 240.102 615.151 240.102C615.659 240.102 616.094 239.87 616.455 239.408Z" fill="white"/>
<rect x="726" y="227" width="1" height="6" fill="white"/>
<path d="M723.102 236.352C723.801 236.352 724.376 236.573 724.825 237.016C725.274 237.458 725.499 238.02 725.499 238.7C725.499 239.407 725.27 239.983 724.811 240.429C724.352 240.875 723.748 241.098 722.999 241.098C722.68 241.098 722.377 241.06 722.091 240.985C721.804 240.907 721.567 240.816 721.378 240.712C721.192 240.604 721.031 240.497 720.895 240.39C720.758 240.282 720.66 240.193 720.602 240.121L720.499 239.999L721.202 239.301C721.215 239.32 721.238 239.35 721.271 239.389C721.303 239.424 721.376 239.49 721.49 239.584C721.604 239.675 721.725 239.757 721.852 239.828C721.979 239.896 722.145 239.96 722.35 240.019C722.558 240.074 722.774 240.102 722.999 240.102C723.399 240.102 723.733 239.968 724 239.701C724.267 239.434 724.4 239.101 724.4 238.7C724.4 238.3 724.267 237.966 724 237.699C723.733 237.432 723.399 237.299 722.999 237.299C722.706 237.299 722.442 237.353 722.208 237.46C721.977 237.567 721.817 237.675 721.729 237.782L721.603 237.948H720.802L721.002 233.998H725.05V234.999H722.003L721.9 236.649C722.167 236.451 722.568 236.352 723.102 236.352ZM727.555 240.121C726.985 239.467 726.7 238.593 726.7 237.499C726.7 236.405 726.985 235.533 727.555 234.882C728.124 234.228 728.823 233.9 729.649 233.9C730.476 233.9 731.174 234.228 731.744 234.882C732.314 235.533 732.599 236.405 732.599 237.499C732.599 238.593 732.314 239.467 731.744 240.121C731.174 240.772 730.476 241.098 729.649 241.098C728.823 241.098 728.124 240.772 727.555 240.121ZM730.953 239.408C731.318 238.943 731.5 238.306 731.5 237.499C731.5 236.692 731.318 236.057 730.953 235.595C730.592 235.132 730.157 234.901 729.649 234.901C729.142 234.901 728.705 235.132 728.341 235.595C727.979 236.057 727.799 236.692 727.799 237.499C727.799 238.306 727.979 238.943 728.341 239.408C728.705 239.87 729.142 240.102 729.649 240.102C730.157 240.102 730.592 239.87 730.953 239.408Z" fill="white"/>
<defs>
<clipPath id="clip0_1433_32303">
<rect width="573" height="224" fill="white" transform="translate(154 3)"/>
</clipPath>
</defs>
</svg>
